<?xml version="1.0" encoding="utf-8"?>
<!-- Generator: Adobe Illustrator 17.0.0, SVG Export Plug-In . SVG Version: 6.00 Build 0)  -->
<!DOCTYPE svg PUBLIC "-//W3C//DTD SVG 1.1//EN" "http://www.w3.org/Graphics/SVG/1.1/DTD/svg11.dtd">
<svg version="1.1" id="Layer_1" xmlns="http://www.w3.org/2000/svg" xmlns:xlink="http://www.w3.org/1999/xlink" x="0px" y="0px"
	 width="210px" height="60px" viewBox="0 0 210 60" enable-background="new 0 0 210 60" xml:space="preserve">
<g>
	<path fill="#989898" d="M135.738,5c0.509,0.092,1.023,0.166,1.527,0.28c2.018,0.456,3.772,1.396,5.196,2.908
		c1.807,1.919,2.04,4.693,0.611,7.129c-0.197,0.336-0.46,0.634-0.653,0.973c-0.088,0.155-0.097,0.364-0.108,0.551
		c-0.007,0.11,0.102,0.237,0.075,0.333c-0.17,0.616,0.279,0.707,0.685,0.881c2.768,1.185,4.249,4.882,2.09,7.92
		c-1.288,1.812-3.083,2.829-5.329,3.069c-2.181,0.232-4.068-0.356-5.695-1.813c-0.127-0.114-0.235-0.248-0.302-0.436
		c0.228,0.16,0.454,0.322,0.683,0.479c4.456,3.056,9.439-0.2,10.163-3.959c0.364-1.886-0.177-3.471-1.579-4.757
		c-0.799-0.732-1.762-0.847-2.77-0.546c-1.358,0.406-2.747,0.643-4.156,0.601c-1.388-0.041-2.771-0.225-4.156-0.344
		c-0.231-0.02-0.463-0.046-0.694-0.041c-0.739,0.016-1.249,0.446-1.245,1.172c0.004,0.764-0.334,1.318-0.815,1.853
		c-0.823,0.914-1.297,1.984-1.301,3.232c-0.003,0.802,0.333,1.508,0.783,2.126c0.179,0.246,0.611,0.362,0.95,0.43
		c1.169,0.234,2.316,0.52,3.383,1.071c0.637,0.329,1.119,0.816,1.492,1.423c1.247,2.029,2.803,3.806,4.504,5.458
		c0.967,0.939,2.128,1.488,3.492,1.574c0.217,0.014,0.43,0.083,0.645,0.127c0.005,0.056,0.011,0.112,0.016,0.169
		c-0.174,0.059-0.347,0.162-0.523,0.169c-0.346,0.014-0.696-0.006-1.04-0.047c-0.589-0.07-1.146-0.035-1.686,0.26
		c-0.655,0.357-1.016,0.19-1.057-0.544c-0.044-0.782-0.435-1.256-1.086-1.594c-2.012-1.043-3.547-2.601-4.743-4.497
		c-0.39-0.618-0.926-0.658-1.546-0.609c-0.78,0.063-1.561,0.129-2.343,0.154c-1.447,0.046-2.86-0.195-4.241-0.613
		c-0.344-0.104-0.527-0.028-0.7,0.273c-0.86,1.494-1.731,2.983-2.608,4.467c-0.251,0.424-0.537,0.827-0.804,1.241
		c-0.696,1.082-1.823,1.593-2.905,2.141c-2.119,1.073-4.056,2.424-5.963,3.823c-1.05,0.77-1.328,2.232-0.695,3.379
		c0.095,0.172,0.156,0.363,0.233,0.546c-0.026,0.035-0.052,0.069-0.078,0.104c-0.184-0.075-0.407-0.108-0.545-0.233
		c-0.394-0.359-0.684-0.798-0.68-1.358c0.003-0.455-0.135-0.842-0.396-1.214c-0.429-0.612-0.315-0.966,0.401-1.211
		c0.573-0.196,1.009-0.547,1.384-1.008c0.944-1.16,1.866-2.352,3.121-3.197c0.716-0.482,1.508-0.853,2.268-1.27
		c0.114-0.062,0.237-0.112,0.361-0.15c1.092-0.332,1.544-1.086,1.602-2.206c0.046-0.892,0.198-1.785,0.38-2.662
		c0.361-1.737,1.318-3.105,2.748-4.144c0.587-0.427,1.164-0.868,1.775-1.257c1.281-0.816,1.678-2.051,1.57-3.453
		c-0.098-1.265-0.098-2.511,0.095-3.765c0.189-1.225-0.155-1.717-1.353-2.01c-0.843-0.207-1.7-0.36-2.532-0.601
		c-0.903-0.262-1.655-0.781-2.144-1.605c-0.121-0.203-0.12-0.478-0.175-0.72c0.259-0.039,0.557-0.181,0.769-0.099
		c0.792,0.305,1.574,0.648,2.325,1.044c0.92,0.485,1.767,1.13,2.719,1.53c0.685,0.288,1.49,0.289,2.243,0.412
		c0.098,0.016,0.203-0.003,0.303-0.019c0.667-0.11,0.837-0.345,0.719-0.986c1.229,0.059,2.44-1.27,2.302-2.525
		c-0.046-0.422-0.274-0.589-0.867-0.676c0.156-0.064,0.31-0.131,0.468-0.19c0.439-0.163,0.596-0.442,0.363-0.841
		c-0.166-0.284-0.426-0.602-0.716-0.709c-0.713-0.265-1.468-0.417-2.206-0.614c-0.558-0.149-1.141-0.239-1.667-0.463
		c-0.422-0.179-0.776-0.519-1.16-0.788c0.023-0.036,0.045-0.072,0.068-0.108c0.306,0.137,0.612,0.273,0.961,0.429
		c0.14-0.628-0.142-1.246,0.302-1.761c0.05,0.407,0.051,0.783,0.149,1.132c0.212,0.753,0.882,1.222,1.657,1.24
		c0.27,0.006,0.403-0.072,0.395-0.368c-0.005-0.188,0.058-0.378,0.161-0.598c0.162,0.972,0.971,1.185,1.653,1.542
		c0.713,0.373,1.098,1.011,1.361,1.738c0.084,0.231,0.111,0.486,0.216,0.705c0.186,0.386,0.409,0.752-0.122,1.044
		c-0.063,0.749-0.683,1.047-1.16,1.479c-0.644,0.583-0.539,1.623,0.217,1.935c2.793,1.156,5.662,1.632,8.663,0.889
		c1.948-0.483,2.796-1.833,3.114-3.688c0.518-3.023-1.073-6.265-4.177-7.597c-2.496-1.071-5.055-1.311-7.699-0.716
		c-0.056,0.013-0.112,0.021-0.169,0.031c-0.01-0.039-0.02-0.077-0.029-0.116c0.704-0.182,1.407-0.372,2.114-0.543
		c0.347-0.084,0.703-0.131,1.055-0.194C134.344,5,135.041,5,135.738,5z M126.104,17.465c0.368,0.66,0.368,0.66,0.435,1.87
		c0.418-0.316,0.831-0.43,1.246,0.083c-0.269-0.701,0.184-0.977,0.647-1.257c-0.328-0.151-0.658-0.207-0.817-0.402
		c-0.167-0.204-0.171-0.542-0.246-0.821c-0.041-0.037-0.082-0.074-0.123-0.11C127.193,17.636,126.742,17.695,126.104,17.465z"/>
	<path fill="#989898" d="M102.477,55c-0.385-0.029-0.769-0.057-1.154-0.086c-0.161-0.012-0.321-0.025-0.481-0.037
		c-0.003-0.048-0.006-0.097-0.009-0.145c0.19-0.033,0.38-0.066,0.617-0.106c-0.377-1.579-0.751-3.147-1.125-4.715
		c-0.033-0.003-0.067-0.007-0.1-0.01c-0.634,1.507-1.268,3.014-1.945,4.625c-0.617-1.609-1.193-3.109-1.768-4.609
		c-0.037,0.004-0.073,0.008-0.11,0.012c-0.39,1.548-0.78,3.095-1.179,4.679c0.226,0.042,0.421,0.078,0.616,0.114
		c-0.002,0.051-0.004,0.102-0.007,0.153c-0.543,0.07-1.087,0.054-1.633,0.011c-0.027-0.053-0.054-0.105-0.081-0.158
		c0.056-0.016,0.116-0.055,0.167-0.046c0.538,0.098,0.595-0.29,0.692-0.659c0.5-1.889,1.007-3.776,1.513-5.663
		c0.026-0.097,0.063-0.192,0.115-0.349c0.634,1.702,1.248,3.351,1.908,5.122c0.721-1.749,1.392-3.377,2.11-5.119
		c0.219,0.863,0.413,1.611,0.598,2.361c0.305,1.237,0.609,2.473,0.902,3.713c0.094,0.396,0.16,0.788,0.805,0.515
		c-0.051,0.201-0.076,0.3-0.101,0.399C102.71,55,102.593,55,102.477,55z"/>
	<path fill="#989898" d="M62.872,55c-0.676-0.262-0.676-0.262-0.676-1.067c0-1.508,0-3.016,0-4.524c0-0.157,0-0.314,0-0.51
		c0.26,0,0.482,0,0.749,0c0,0.692,0.022,1.357-0.008,2.019c-0.018,0.394,0.107,0.54,0.508,0.542c0.88,0.005,1.641-0.577,1.783-1.408
		c0.134-0.783-0.342-1.491-1.195-1.782c-0.749-0.256-1.482-0.188-2.229,0.118c0.969-0.642,2.755-0.543,3.616,0.183
		c0.7,0.591,0.784,1.538,0.196,2.246c-0.166,0.2-0.34,0.394-0.534,0.619c0.142,0.074,0.327,0.169,0.511,0.267
		c0.57,0.303,0.909,0.752,0.893,1.423c-0.017,0.709-0.351,1.221-0.995,1.5c-0.365,0.158-0.758,0.251-1.139,0.373
		C63.859,55,63.366,55,62.872,55z M63.703,54.758c0.571,0.002,1.121-0.18,1.495-0.495c0.802-0.676,0.697-1.876-0.262-2.289
		c-0.468-0.201-1.031-0.198-1.555-0.247c-0.331-0.031-0.472,0.147-0.452,0.506c0.034,0.592,0.015,1.188,0.016,1.782
		C62.946,54.718,62.983,54.755,63.703,54.758z"/>
	<path fill="#989898" d="M119.551,55c-0.36-0.07-0.72-0.141-1.044-0.204c0-0.941-0.005-1.852,0.002-2.762
		c0.007-0.87,0.03-1.741,0.039-2.611c0.007-0.64,0.026-0.659,0.728-0.523c0,0.665,0.025,1.344-0.009,2.02
		c-0.021,0.419,0.154,0.529,0.529,0.529c0.846,0.002,1.584-0.579,1.752-1.406c0.151-0.742-0.32-1.47-1.143-1.774
		c-0.678-0.251-1.359-0.21-2.042-0.037c1.044-0.382,2.086-0.445,3.085,0.122c1.039,0.59,1.18,1.751,0.342,2.597
		c-0.14,0.141-0.288,0.274-0.452,0.428c0.27,0.146,0.507,0.256,0.725,0.394c1.023,0.65,1.013,2.101-0.051,2.685
		c-0.419,0.23-0.926,0.3-1.394,0.437c-0.149,0.044-0.304,0.068-0.456,0.102C119.957,55,119.754,55,119.551,55z M119.247,53.495
		c-0.02,0-0.04,0-0.059,0c0,0.289-0.02,0.58,0.01,0.866c0.011,0.108,0.121,0.27,0.215,0.293c0.738,0.182,1.443,0.08,2.055-0.386
		c0.858-0.652,0.726-1.87-0.241-2.348c-0.524-0.259-1.076-0.299-1.647-0.207c-0.238,0.038-0.349,0.136-0.338,0.396
		C119.26,52.571,119.247,53.034,119.247,53.495z"/>
	<path fill="#989898" d="M148.195,48.206c-0.473-0.086-0.772,0.121-1.038,0.512c-0.497,0.73-1.253,1.357-1.516,2.153
		c-0.268,0.812-0.074,1.778-0.08,2.676c-0.003,0.358,0,0.717,0,1.074c0.25,0.037,0.447,0.067,0.644,0.096
		c-0.004,0.045-0.008,0.089-0.012,0.134c-0.686,0-1.372,0-2.059,0c-0.008-0.037-0.015-0.074-0.023-0.11
		c0.185-0.04,0.37-0.079,0.621-0.133c0-0.523-0.063-1.078,0.012-1.614c0.212-1.51-0.226-2.779-1.276-3.862
		c-0.13-0.134-0.231-0.298-0.332-0.456c-0.186-0.291-0.386-0.544-0.79-0.48c-0.046,0.007-0.104-0.062-0.141-0.18
		c0.765,0,1.53,0,2.295,0c0.008,0.036,0.017,0.072,0.025,0.108c-0.183,0.045-0.366,0.089-0.633,0.154
		c0.527,0.725,1.039,1.429,1.599,2.199c0.573-0.757,1.106-1.461,1.674-2.21c-0.263-0.052-0.44-0.087-0.617-0.121
		c0.004-0.067,0.008-0.133,0.012-0.2c0.545,0,1.091,0,1.636,0C148.195,48.031,148.195,48.118,148.195,48.206z"/>
	<path fill="#989898" d="M83.445,51.479c-0.004,1.984-1.453,3.436-3.429,3.434c-1.895-0.001-3.428-1.562-3.424-3.484
		c0.004-1.861,1.59-3.472,3.419-3.471C81.918,47.96,83.448,49.528,83.445,51.479z M82.66,51.607c-0.049-1.085-0.291-1.86-0.833-2.52
		c-0.98-1.193-2.621-1.213-3.626-0.045c-1.042,1.212-1.092,3.584-0.078,4.827c0.693,0.85,1.628,0.993,2.639,0.783
		c0.895-0.185,1.448-0.765,1.667-1.639C82.544,52.554,82.585,52.076,82.66,51.607z"/>
	<path fill="#989898" d="M93.1,51.449c0.002,2.011-1.454,3.472-3.448,3.462c-1.857-0.009-3.411-1.588-3.413-3.466
		c-0.001-1.882,1.589-3.491,3.448-3.487C91.579,47.962,93.098,49.515,93.1,51.449z M92.31,51.61
		c-0.023-0.976-0.251-1.764-0.737-2.419c-1.022-1.374-2.879-1.355-3.867,0.039c-0.834,1.177-0.884,3.212-0.088,4.411
		c0.639,0.962,1.575,1.206,2.661,1.027c0.978-0.161,1.584-0.742,1.815-1.693C92.202,52.529,92.24,52.066,92.31,51.61z"/>
	<path fill="#989898" d="M135.213,54.723c0.199-0.033,0.398-0.065,0.642-0.105c0.009-0.163,0.026-0.332,0.027-0.501
		c0.002-1.611,0.001-3.221,0.002-4.832c0-0.564,0.008-0.568,0.684-0.495c0,0.287,0,0.584,0,0.881c0,0.334,0,0.667,0,1.001
		c0,0.762,0.059,0.812,0.815,0.686c1.06-0.176,1.57-1.324,1.003-2.289c-0.338-0.575-0.862-0.892-1.519-0.967
		c-0.271-0.031-0.548-0.005-0.832-0.005c0.693-0.34,2.218-0.063,2.861,0.65c0.607,0.673,0.572,1.651-0.115,2.248
		c-0.238,0.207-0.521,0.361-0.818,0.563c0.093,0.07,0.169,0.15,0.262,0.193c0.681,0.315,1.08,0.852,1.263,1.567
		c0.039,0.154,0.093,0.304,0.15,0.453c0.239,0.631,0.637,1.032,1.431,0.885c-0.495,0.433-1.275,0.337-1.688-0.2
		c-0.243-0.317-0.409-0.696-0.596-1.055c-0.168-0.321-0.271-0.685-0.487-0.967c-0.211-0.275-0.493-0.55-0.805-0.681
		c-0.708-0.297-0.925-0.121-0.925,0.634c0,0.737,0,1.474,0,2.222c0.261,0.046,0.477,0.083,0.694,0.121
		c-0.006,0.044-0.012,0.088-0.018,0.132c-0.669,0-1.338,0-2.007,0C135.228,54.816,135.22,54.769,135.213,54.723z"/>
	<path fill="#989898" d="M125.956,48.022c0.674,0,1.349,0,2.098,0c-0.093,0.089-0.141,0.171-0.18,0.166
		c-0.473-0.053-0.53,0.203-0.521,0.599c0.029,1.189,0,2.38,0.045,3.569c0.016,0.425,0.131,0.863,0.286,1.262
		c0.249,0.646,0.739,1.024,1.457,1.054c0.764,0.031,1.411-0.242,1.717-0.945c0.212-0.487,0.298-1.056,0.32-1.594
		c0.047-1.13,0.004-2.264,0.02-3.396c0.005-0.358-0.04-0.604-0.482-0.542c-0.051,0.007-0.111-0.055-0.151-0.176
		c0.506,0,1.013,0,1.577,0c-0.073,0.096-0.101,0.158-0.121,0.155c-0.653-0.078-0.567,0.364-0.569,0.775
		c-0.006,1.291,0.037,2.586-0.062,3.871c-0.105,1.367-0.999,2.116-2.294,2.094c-1.338-0.023-2.382-0.911-2.463-2.209
		c-0.076-1.214-0.044-2.436-0.054-3.654C126.572,48.319,126.577,48.319,125.956,48.022z"/>
	<path fill="#989898" d="M73.903,53.739c-0.093,0.317-0.159,0.646-0.292,0.944c-0.05,0.112-0.255,0.218-0.391,0.22
		c-1.188,0.017-2.377,0.014-3.566,0.003c-0.116-0.001-0.231-0.096-0.346-0.147c0.12-0.061,0.235-0.134,0.36-0.177
		c0.091-0.031,0.196-0.02,0.326-0.031c0-2.096,0-4.173,0-6.247c-0.23-0.05-0.44-0.096-0.651-0.142
		c0.009-0.057,0.019-0.114,0.028-0.171c0.716-0.063,1.431-0.03,2.146-0.029c0.005,0.068,0.01,0.137,0.016,0.205
		c-0.153,0.027-0.306,0.078-0.458,0.076c-0.229-0.002-0.305,0.097-0.305,0.314c0.003,1.899,0.004,3.798-0.001,5.697
		c-0.001,0.245,0.099,0.33,0.339,0.326c0.58-0.011,1.16,0.013,1.739-0.014c0.165-0.008,0.354-0.113,0.477-0.231
		c0.195-0.186,0.343-0.421,0.511-0.635C73.858,53.714,73.881,53.727,73.903,53.739z"/>
	<path fill="#989898" d="M109.044,48.17c0.024,0.235,0.058,0.564,0.102,0.991c-0.117-0.132-0.186-0.191-0.231-0.264
		c-0.371-0.597-0.995-0.821-1.647-0.586c-0.716,0.258-0.959,1.06-0.473,1.714c0.21,0.282,0.514,0.506,0.805,0.715
		c0.423,0.304,0.892,0.544,1.307,0.858c0.705,0.534,0.963,1.367,0.705,2.12c-0.231,0.674-0.937,1.198-1.765,1.174
		c-0.574-0.017-1.143-0.193-1.714-0.297c-0.005-0.049-0.011-0.098-0.016-0.147c-0.058,0.104-0.117,0.208-0.242,0.431
		c-0.047-0.569-0.084-1.028-0.122-1.487c0.032-0.014,0.065-0.028,0.097-0.042c0.059,0.114,0.115,0.231,0.178,0.343
		c0.395,0.692,0.983,1.049,1.789,0.998c0.554-0.035,0.968-0.307,1.183-0.82c0.215-0.513,0.148-1.033-0.261-1.404
		c-0.403-0.365-0.899-0.625-1.337-0.955c-0.366-0.276-0.775-0.534-1.043-0.891c-0.443-0.589-0.468-1.271-0.077-1.918
		c0.342-0.566,1.055-0.82,1.794-0.686C108.373,48.068,108.67,48.11,109.044,48.17z"/>
	<path fill="#989898" d="M145.298,17.793c-0.325-0.242-0.555-0.516-0.839-0.595c-0.248-0.069-0.557,0.081-0.837,0.134
		c0.229-0.631,0.229-0.631-0.327-1.242c0.352-0.121,0.788-0.161,1.055-0.394c0.276-0.241,0.386-0.67,0.569-1.017
		c0.035,0.011,0.071,0.021,0.106,0.032c0.013,0.225,0.036,0.449,0.037,0.674c0.001,0.429,0.232,0.554,0.62,0.5
		c0.137-0.019,0.275-0.022,0.476-0.037c-0.327,0.298-0.697,0.495-0.832,0.798C145.193,16.943,145.298,17.348,145.298,17.793z"/>
	<path fill="#989898" d="M132.714,24.233c-0.069,0.281-0.148,0.604-0.22,0.897c-0.219-0.043-0.493-0.097-0.752-0.148
		c-0.065-0.155-0.154-0.366-0.252-0.601c0.357-0.067,0.609-0.324,0.636-0.753C132.347,23.854,132.537,24.05,132.714,24.233z"/>
	<path fill="#989898" d="M128.143,6.276c0.133,0.175,0.288,0.379,0.417,0.55c-0.114,0.203-0.248,0.441-0.389,0.692
		c-0.206-0.239-0.5-0.222-0.775,0.007c0.045-0.32,0.089-0.635,0.134-0.95C127.692,6.496,127.932,6.379,128.143,6.276z"/>
</g>
</svg>
