<?xml version="1.0" encoding="utf-8"?>
<!-- Generator: Adobe Illustrator 17.0.0, SVG Export Plug-In . SVG Version: 6.00 Build 0)  -->
<!DOCTYPE svg PUBLIC "-//W3C//DTD SVG 1.1//EN" "http://www.w3.org/Graphics/SVG/1.1/DTD/svg11.dtd">
<svg version="1.1" id="Layer_1" xmlns="http://www.w3.org/2000/svg" xmlns:xlink="http://www.w3.org/1999/xlink" x="0px" y="0px"
	 width="210px" height="60px" viewBox="0 0 210 60" enable-background="new 0 0 210 60" xml:space="preserve">
<g>
	<g>
		<g>
			<path fill="#989898" d="M83.466,32.538h4.591c2.226,0,3.784,1.558,3.784,3.846s-1.558,3.918-3.784,3.918H85.63v4.12h-2.163
				V32.538z M87.654,38.447c1.029,0.072,1.923-0.702,2-1.731c0.007-0.104,0.007-0.208,0-0.313c0.09-1.018-0.663-1.917-1.681-2.006
				c-0.093-0.008-0.187-0.009-0.28-0.003h-2.058v4.053H87.654z M93.096,32.538h2.163v7.615c0,1.591,1.038,2.495,2.63,2.495
				s2.644-0.904,2.644-2.51v-7.601h2.163v7.615c0,2.663-1.923,4.471-4.808,4.471s-4.808-1.808-4.808-4.471L93.096,32.538z
				 M104.856,32.538h4.255c2.144,0,3.668,1.106,3.668,3.063c0.033,1.051-0.523,2.032-1.442,2.543v0.029
				c1.201,0.389,1.991,1.537,1.923,2.798c0,2.375-1.923,3.447-4.106,3.447h-4.327L104.856,32.538z M109.111,37.394
				c0.795,0.019,1.455-0.609,1.476-1.404c0.002-0.04,0.002-0.08,0-0.12c0.066-0.751-0.49-1.413-1.241-1.479
				c-0.089-0.008-0.179-0.007-0.268,0.003h-2.058v3H109.111z M109.327,42.567c0.948,0,1.716-0.769,1.716-1.717
				c0-0.947-0.768-1.715-1.716-1.716h-2.308v3.433H109.327z M115.125,32.538h2.159v10.029h5.144v1.856h-7.303V32.538z
				 M124.067,32.538h2.159v11.885h-2.159V32.538z M129.038,41.375c0.811,0.751,1.858,1.196,2.962,1.26
				c0.904,0,1.726-0.481,1.726-1.442c0-2.125-5.611-1.755-5.611-5.409c0-1.971,1.707-3.447,3.986-3.447
				c1.304-0.048,2.576,0.409,3.553,1.274l-0.962,1.755c-0.733-0.629-1.655-0.994-2.62-1.038c-1,0-1.788,0.587-1.788,1.442
				c0,2.106,5.591,1.587,5.591,5.389c0,1.889-1.442,3.481-3.918,3.481c-1.533,0.014-3.009-0.583-4.101-1.659L129.038,41.375z
				 M137.553,32.538h2.159v5.038h5.442v-5.038h2.163v11.885h-2.163v-4.99h-5.442v4.99h-2.159
				C137.553,44.423,137.553,32.538,137.553,32.538z M149.846,32.538h2.159v11.885h-2.159V32.538z M154.519,32.538h2.159l4.505,6.861
				c0.379,0.593,0.723,1.208,1.029,1.841c0,0-0.115-1.135-0.115-1.841v-6.861h2.144v11.885h-2.144l-4.505-6.846
				c-0.365-0.594-0.696-1.209-0.99-1.841h-0.034c0,0,0.12,1.139,0.12,1.841v6.846h-2.168V32.538z M172.106,32.337
				c2.913,0,4.423,1.51,4.423,1.51l-1.072,1.606c-0.895-0.715-2.003-1.111-3.149-1.125c-2.663,0-4.091,1.841-4.091,4.082
				c0,2.582,1.76,4.255,3.986,4.255c1.118-0.031,2.185-0.479,2.99-1.255v-1.389h-1.827v-1.846h3.75v6.25h-1.841v-1.048h-0.034
				c-0.942,0.828-2.16,1.274-3.413,1.25c-3.13,0-5.827-2.404-5.827-6.163c-0.072-3.31,2.551-6.051,5.861-6.125h0.269 M89.135,13.745
				c4.038,0,6.058,3.178,6.058,6.764c0,0.327-0.058,0.803-0.058,0.803H83.226c0,4.327,2.909,6.769,6.356,6.769
				c1.716-0.014,3.362-0.683,4.601-1.87l0.683,1.038c-1.458,1.298-3.336,2.025-5.288,2.048c-4.188,0-7.663-3.029-7.663-7.745
				c0-5.019,3.413-7.808,7.212-7.808 M93.875,20.154c-0.149-3.615-2.337-5.25-4.779-5.25c-2.731,0-5.255,1.779-5.769,5.25H93.875z
				 M97.894,14.101h1.25v2.611c0.001,0.408-0.039,0.816-0.12,1.216h0.063c0.74-2.226,3.365-4.183,5.697-4.183
				c2.971,0,4.365,1.394,4.692,4.034h0.063c0.832-2.077,3.087-4.034,5.639-4.034c3.846,0,4.962,2.255,4.962,5.769v9.428h-1.25
				v-8.966c0-2.788-0.562-5.072-3.712-5.072c-2.462,0-4.572,2.197-5.226,4.51c-0.212,0.742-0.313,1.512-0.298,2.284v7.245h-1.245
				v-8.966c0-2.553-0.356-5.072-3.625-5.072c-2.639,0-4.721,2.312-5.404,4.779c-0.172,0.657-0.251,1.335-0.236,2.014v7.245h-1.25
				L97.894,14.101z M129.851,13.745c4.038,0,6.058,3.178,6.058,6.764c0,0.327-0.058,0.803-0.058,0.803h-11.909
				c0,4.327,2.885,6.769,6.356,6.769c1.716-0.014,3.362-0.683,4.601-1.87l0.683,1.038c-1.458,1.298-3.336,2.025-5.288,2.048
				c-4.188,0-7.663-3.029-7.663-7.745c0-5.019,3.413-7.808,7.212-7.808 M134.591,20.154c-0.149-3.62-2.313-5.25-4.779-5.25
				c-2.731,0-5.255,1.779-5.769,5.25H134.591z M138.611,14.101h1.25v2.817c0.001,0.41-0.04,0.819-0.12,1.221h0.063
				c0.74-2.288,2.404-4.159,4.75-4.159c0.289,0.004,0.577,0.035,0.861,0.091v1.245c-0.226-0.034-0.454-0.053-0.683-0.058
				c-2.317,0-3.774,1.957-4.428,4.154c-0.303,1.01-0.452,2.061-0.442,3.115v6.413h-1.25V14.101z M155.154,19.904h0.962v-0.481
				c0-3.293-1.692-4.423-4.067-4.423c-1.537,0.001-3.03,0.508-4.25,1.442l-0.712-1.01c1.427-1.134,3.207-1.731,5.029-1.687
				c3.413,0,5.255,1.899,5.255,5.611v9.587h-1.245v-1.962c0.001-0.439,0.043-0.877,0.125-1.308h-0.058
				c0.029,0-1.337,3.649-5.197,3.649c-2.404,0-5.048-1.337-5.048-4.327c0-5.048,6.562-5.106,9.207-5.106 M151.053,28.139
				c3.24,0,5.082-3.365,5.082-6.293v-0.798h-0.962c-2.524,0-7.928,0-7.928,3.846c0,1.572,1.274,3.236,3.798,3.236 M160.471,28.938
				V8.096h1.25v20.841 M170.663,13.745c3.74,0,5.135,3.365,5.135,3.365h0.058c-0.077-0.401-0.116-0.808-0.115-1.216v-8.01h1.245
				v21.058h-1.245v-1.87c-0.005-0.38,0.034-0.759,0.115-1.13h-0.058c-0.941,2.11-3.066,3.441-5.375,3.365
				c-3.981,0-6.413-3.178-6.413-7.779c0-4.716,2.76-7.774,6.654-7.774 M170.481,28.077c2.736,0,5.288-1.923,5.288-6.591
				c0-3.293-1.692-6.529-5.168-6.529c-2.909,0-5.288,2.404-5.288,6.558C165.317,25.529,167.452,28.077,170.481,28.077"/>
		</g>
	</g>
	<path fill="#989898" d="M66.995,11.385L54.077,5L38.01,13.332h32.937L66.995,11.385z"/>
	<path fill="#989898" d="M45.524,22.288v-1.063l8.524-4.433v-0.005h0.01l-0.01,0.005l8.986,4.389l-2.159,1.106h13.837v-7.087
		l-4.135-2.038H38.308l-5.423,2.813v6.313H45.524z"/>
	<path fill="#989898" d="M45.5,30.221l0.024-8.659H32.885v8.659H45.5z M68.298,30.221l6.413-3.308v-5.351H62.293l-8.245,4.221
		l-3.75-1.577v6.014H68.298z"/>
	<path fill="#989898" d="M67.462,36.25h-0.005l-5.221,2.659h12.476v-6.356l-7.255,3.692C67.457,36.245,67.462,36.25,67.462,36.25z
		 M45.481,38.909l0.024-8.957h-12.62v8.957H45.481z"/>
	<path fill="#989898" d="M69.375,47.058l5.337-2.716v-6h-11.37l-9.572,4.87l-8.288-4.236v-0.635H32.885v6.014l5.298,2.702H69.375z"
		/>
	<path fill="#989898" d="M53.788,55l16.236-8.264H37.572L53.788,55z"/>
	<path fill="#989898" d="M50.298,35.923l3.75,1.649l14.769-7.62H50.298V35.923z"/>
</g>
</svg>
