<?xml version="1.0" encoding="utf-8"?>
<!-- Generator: Adobe Illustrator 17.0.0, SVG Export Plug-In . SVG Version: 6.00 Build 0)  -->
<!DOCTYPE svg PUBLIC "-//W3C//DTD SVG 1.1//EN" "http://www.w3.org/Graphics/SVG/1.1/DTD/svg11.dtd">
<svg version="1.1" id="Layer_1" xmlns="http://www.w3.org/2000/svg" xmlns:xlink="http://www.w3.org/1999/xlink" x="0px" y="0px"
	 width="210px" height="60px" viewBox="0 0 210 60" enable-background="new 0 0 210 60" xml:space="preserve">
<g>
	<path fill="#989898" d="M120.111,3.499c-0.009,0.106-0.025,0.212-0.025,0.317c-0.001,4.063-0.001,8.126,0,12.19
		c0,0.103,0.009,0.206,0.017,0.378c0.158-0.144,0.279-0.24,0.383-0.352c0.838-0.907,1.858-1.544,3.01-1.955
		c0.818-0.292,1.669-0.457,2.546-0.48c1.261-0.034,2.501,0.069,3.698,0.499c1.726,0.62,3.055,1.702,3.916,3.342
		c0.508,0.967,0.842,1.984,0.927,3.072c0.068,0.868,0.124,1.74,0.126,2.61c0.013,4.266,0.002,8.533,0.013,12.799
		c0.001,0.316-0.066,0.43-0.403,0.417c-0.715-0.027-1.433-0.021-2.149-0.002c-0.284,0.008-0.361-0.078-0.36-0.36
		c0.008-4.673,0.025-9.345-0.006-14.018c-0.009-1.348-0.333-2.641-1.14-3.769c-0.798-1.115-1.914-1.713-3.235-1.934
		c-0.604-0.101-1.227-0.152-1.838-0.126c-1.327,0.057-2.556,0.421-3.593,1.315c-1.031,0.888-1.579,2.029-1.775,3.341
		c-0.103,0.69-0.131,1.396-0.133,2.095c-0.011,4.341-0.006,8.682-0.006,13.024c0,0.426,0,0.426-0.41,0.426
		c-0.738,0-1.476-0.006-2.213,0.004c-0.208,0.003-0.3-0.064-0.277-0.276c0.009-0.085,0.001-0.171,0.001-0.256
		c0-10.618,0-21.235-0.001-31.853c0-0.149-0.016-0.297-0.025-0.446C118.144,3.499,119.128,3.499,120.111,3.499z"/>
	<path fill="#989898" d="M56.778,3.499c-0.009,0.127-0.025,0.254-0.025,0.381c-0.001,4.021-0.001,8.041,0,12.062
		c0,0.132,0.012,0.264,0.021,0.443c0.311-0.277,0.578-0.507,0.836-0.747c1.037-0.958,2.257-1.551,3.631-1.849
		c1.071-0.232,2.148-0.247,3.232-0.128c1.357,0.15,2.618,0.554,3.752,1.338c1.415,0.979,2.283,2.334,2.766,3.953
		c0.314,1.054,0.402,2.137,0.398,3.238c-0.016,4.577-0.01,9.153,0,13.73c0.001,0.321-0.074,0.426-0.406,0.414
		c-0.694-0.027-1.39-0.022-2.085-0.002c-0.288,0.008-0.358-0.085-0.357-0.364c0.008-4.566,0.017-9.132-0.002-13.698
		c-0.005-1.136-0.178-2.26-0.691-3.295c-0.683-1.38-1.771-2.273-3.279-2.636c-1.613-0.388-3.204-0.333-4.724,0.357
		c-1.558,0.708-2.453,1.989-2.821,3.624c-0.164,0.728-0.257,1.487-0.261,2.233c-0.024,4.448-0.012,8.896-0.012,13.345
		c0,0.427,0,0.428-0.441,0.428c-0.706,0-1.412-0.006-2.117,0.004c-0.207,0.003-0.302-0.061-0.278-0.275
		c0.009-0.085,0.001-0.171,0.001-0.256c0-10.618,0-21.236-0.001-31.854c0-0.149-0.016-0.297-0.025-0.446
		C54.853,3.499,55.816,3.499,56.778,3.499z"/>
	<path fill="#989898" d="M22.577,3.499c-0.009,0.106-0.025,0.212-0.025,0.317c-0.001,3.165-0.001,6.33,0,9.496
		c0,0.104,0.011,0.208,0.018,0.352c0.154,0,0.289,0,0.425,0c3.101,0,6.202,0.004,9.303-0.006c0.302-0.001,0.414,0.068,0.399,0.388
		c-0.026,0.555-0.015,1.112-0.004,1.668c0.004,0.211-0.071,0.276-0.279,0.276c-3.989-0.005-7.977-0.006-11.966,0.002
		c-0.304,0.001-0.285-0.164-0.285-0.366c0.002-3.101,0.001-6.202,0.001-9.303c0-0.138,0-0.277,0-0.445c-2.599,0-5.18,0-7.788,0
		c0,9.352,0,18.712,0,28.128c0.128,0,0.261,0,0.395,0c3.122,0,6.245,0,9.367,0c0.412,0,0.412,0,0.412,0.424
		c0,0.503-0.017,1.006,0.006,1.507c0.015,0.316-0.097,0.397-0.402,0.396c-3.914-0.009-7.827-0.006-11.741-0.005
		c-0.138,0-0.276,0.016-0.414,0.025c0-10.944,0-21.887,0-32.854C14.192,3.499,18.385,3.499,22.577,3.499z"/>
	<path fill="#989898" d="M42.854,3.499c-0.009,0.149-0.025,0.297-0.025,0.446c-0.001,10.649-0.001,21.299-0.001,31.948
		c0,0.433,0,0.433-0.435,0.433c-3.881,0-7.763-0.004-11.644,0.007c-0.317,0.001-0.389-0.096-0.388-0.398
		c0.01-3.101,0.006-6.201,0.006-9.302c0-0.136,0-0.271,0-0.445c-0.175,0-0.311,0-0.447,0c-3.111,0-6.223,0-9.334,0
		c-0.421,0-0.421-0.001-0.421-0.428c0-0.535,0.014-1.07-0.006-1.604c-0.011-0.291,0.1-0.36,0.373-0.359
		c3.924,0.007,7.848,0.008,11.772-0.002c0.321-0.001,0.392,0.108,0.391,0.407c-0.009,3.111-0.006,6.223-0.006,9.334
		c0,0.138,0,0.275,0,0.44c2.604,0,5.184,0,7.79,0c0-9.358,0-18.718,0-28.13c-0.133,0-0.266,0-0.4,0
		c-2.716,0-5.432,0.003-8.148-0.002c-0.508-0.001-1.017-0.032-1.525-0.049c-0.013-0.51-0.026-1.02-0.04-1.53
		C30.36,4.01,30.35,3.754,30.341,3.499C34.512,3.499,38.683,3.499,42.854,3.499z"/>
	<path fill="#989898" d="M158.291,56.501c-0.182-0.052-0.363-0.106-0.545-0.155c-1.558-0.422-2.75-1.294-3.279-2.861
		c-0.206-0.61-0.283-1.284-0.307-1.932c-0.046-1.281-0.036-2.566-0.005-3.849c0.019-0.793,0.114-1.594,0.494-2.309
		c0.716-1.348,1.847-2.155,3.353-2.406c1.368-0.228,2.65-0.017,3.81,0.799c1.018,0.717,1.616,1.669,1.785,2.909
		c0.229,1.68,0.113,3.366,0.104,5.049c-0.004,0.773-0.126,1.558-0.507,2.272c-0.551,1.033-1.392,1.725-2.472,2.132
		c-0.333,0.126-0.694,0.176-1.04,0.266c-0.041,0.011-0.072,0.056-0.108,0.085C159.147,56.501,158.719,56.501,158.291,56.501z
		 M156.147,49.688c-0.019,0.001-0.038,0.002-0.058,0.004c0.062,0.965,0.091,1.933,0.197,2.893c0.082,0.745,0.518,1.295,1.15,1.702
		c0.538,0.346,1.123,0.416,1.738,0.38c0.821-0.048,1.479-0.397,1.975-1.057c0.467-0.62,0.541-1.361,0.554-2.082
		c0.027-1.428,0.001-2.859-0.067-4.286c-0.021-0.446-0.176-0.922-0.393-1.316c-0.393-0.715-1.064-1.062-1.869-1.218
		c-1.1-0.213-2.411,0.343-2.845,1.37c-0.225,0.532-0.311,1.138-0.368,1.719C156.1,48.422,156.147,49.057,156.147,49.688z"/>
	<path fill="#989898" d="M200,56.373c-0.127-0.009-0.254-0.025-0.381-0.025c-2.523-0.002-5.046-0.007-7.569,0.006
		c-0.305,0.002-0.372-0.094-0.371-0.382c0.009-4.191,0.009-8.381-0.001-12.572c-0.001-0.321,0.082-0.441,0.413-0.418
		c0.383,0.027,0.769,0.006,1.154,0.006c0.44,0,0.441,0,0.441,0.428c0,3.432,0,6.863,0,10.295c0,0.277,0,0.555,0,0.857
		c0.096,0.013,0.176,0.032,0.257,0.032c1.956,0.002,3.913,0.002,5.869,0c0.063,0,0.126-0.016,0.189-0.025
		C200,55.175,200,55.774,200,56.373z"/>
	<path fill="#989898" d="M10,42.962c0.138,0.009,0.276,0.022,0.414,0.026c0.521,0.015,1.041,0.027,1.562,0.04
		c0.017,0.53,0.048,1.06,0.049,1.589c0.005,3.176,0.002,6.352,0.002,9.528c0,0.137,0,0.273,0,0.457c0.155,0,0.279,0,0.403,0
		c1.807,0,3.614,0.005,5.422-0.006c0.27-0.002,0.357,0.081,0.341,0.346c-0.02,0.32-0.005,0.641-0.005,0.962
		c0,0.441,0,0.441-0.427,0.441c-2.46,0-4.919,0-7.379,0.001c-0.127,0-0.254,0.016-0.381,0.025C10,51.903,10,47.432,10,42.962z"/>
	<path fill="#989898" d="M77.924,18.686c-0.622-0.552-1.277-1.135-1.954-1.736c0.617-0.775,1.278-1.479,2.107-2.011
		c0.94-0.604,1.97-0.953,3.066-1.153c1.278-0.233,2.568-0.232,3.852-0.173c1.772,0.08,3.493,0.44,5.001,1.443
		c1.401,0.932,2.231,2.272,2.554,3.915c0.11,0.558,0.191,1.133,0.192,1.7c0.015,5.079,0.009,10.158,0.008,15.237
		c0,0.419,0,0.419-0.417,0.419c-0.695,0-1.39-0.012-2.085,0.006c-0.276,0.007-0.345-0.09-0.338-0.35
		c0.016-0.596,0.005-1.193,0.005-1.862c-0.305,0.261-0.556,0.477-0.808,0.692c-1.114,0.945-2.397,1.513-3.851,1.636
		c-1.006,0.085-2.02,0.155-3.026,0.12c-1.345-0.047-2.685-0.227-3.9-0.873c-1.665-0.885-2.687-2.267-3.039-4.12
		c-0.106-0.559-0.201-1.135-0.185-1.7c0.051-1.789,0.634-3.367,2.033-4.561c0.958-0.816,2.093-1.258,3.312-1.513
		c1.631-0.341,3.284-0.242,4.932-0.255c0.428-0.003,0.856,0.005,1.283-0.003c0.177-0.003,0.25,0.057,0.248,0.24
		c-0.007,0.577-0.011,1.155,0.002,1.732c0.005,0.228-0.076,0.293-0.297,0.291c-1.24-0.008-2.482-0.033-3.721,0.005
		c-1.06,0.032-2.106,0.184-3.065,0.704c-0.946,0.513-1.538,1.297-1.765,2.332c-0.212,0.964-0.192,1.931,0.165,2.873
		c0.267,0.706,0.741,1.237,1.38,1.61c0.869,0.508,1.828,0.706,2.826,0.738c0.521,0.017,1.043,0.078,1.562,0.056
		c1.219-0.053,2.431-0.166,3.535-0.763c1.187-0.642,1.983-1.588,2.178-2.949c0.109-0.764,0.184-1.539,0.193-2.31
		c0.026-2.128,0.031-4.256-0.003-6.383c-0.013-0.789-0.092-1.59-0.257-2.36c-0.3-1.394-1.212-2.297-2.528-2.793
		c-0.808-0.305-1.649-0.459-2.517-0.454c-0.656,0.004-1.317-0.044-1.968,0.011c-1.293,0.108-2.528,0.418-3.512,1.343
		C78.722,17.84,78.353,18.246,77.924,18.686z"/>
	<path fill="#989898" d="M199.017,33.137c-0.715,0.786-1.495,1.439-2.361,1.982c-0.939,0.588-1.955,0.997-3.048,1.212
		c-1.311,0.257-2.628,0.321-3.96,0.195c-1.245-0.118-2.439-0.401-3.557-0.969c-1.359-0.69-2.417-1.706-3.197-3.01
		c-0.816-1.364-1.273-2.854-1.471-4.421c-0.104-0.819-0.144-1.646-0.196-2.471c-0.121-1.92,0.105-3.808,0.66-5.641
		c0.391-1.29,0.981-2.491,1.868-3.54c1.159-1.371,2.603-2.243,4.34-2.649c1.129-0.264,2.268-0.273,3.419-0.165
		c1.479,0.139,2.824,0.63,4.031,1.483c1.019,0.72,1.802,1.657,2.407,2.748c0.765,1.381,1.184,2.876,1.363,4.427
		c0.123,1.064,0.099,2.145,0.148,3.218c0.01,0.216-0.077,0.273-0.281,0.272c-3.945-0.004-7.891-0.005-11.836,0.001
		c-0.236,0-0.289-0.09-0.285-0.303c0.011-0.534,0.019-1.07-0.003-1.604c-0.011-0.283,0.076-0.362,0.36-0.361
		c2.898,0.01,5.795,0.006,8.693,0.006c0.136,0,0.272,0,0.467,0c-0.029-0.522-0.032-1.009-0.089-1.489
		c-0.121-1.025-0.399-2.009-0.891-2.923c-0.863-1.603-2.205-2.575-3.972-2.949c-1.422-0.301-2.804-0.144-4.111,0.514
		c-1.403,0.707-2.326,1.842-2.873,3.296c-0.307,0.816-0.501,1.66-0.516,2.537c-0.024,1.344-0.098,2.69-0.05,4.031
		c0.054,1.521,0.37,3.005,1.114,4.356c0.894,1.625,2.259,2.636,4.096,2.952c0.665,0.114,1.348,0.198,2.02,0.186
		c1.832-0.033,3.502-0.549,4.877-1.828c0.226-0.21,0.449-0.423,0.688-0.616c0.07-0.057,0.236-0.102,0.284-0.062
		C197.775,32.062,198.381,32.59,199.017,33.137z"/>
	<path fill="#989898" d="M154.186,23.545c-0.036-1.783-0.304-3.444-1.284-4.924c-0.858-1.295-2.072-2.078-3.555-2.42
		c-1.434-0.331-2.854-0.194-4.179,0.474c-1.752,0.883-2.755,2.366-3.189,4.24c-0.154,0.665-0.223,1.357-0.26,2.04
		c-0.057,1.043-0.099,2.09-0.063,3.133c0.058,1.671,0.327,3.306,1.137,4.804c0.881,1.63,2.232,2.64,4.052,2.975
		c0.674,0.124,1.368,0.197,2.052,0.19c1.994-0.021,3.751-0.678,5.196-2.09c0.173-0.169,0.369-0.315,0.578-0.492
		c0.649,0.548,1.302,1.099,1.995,1.685c-0.337,0.311-0.65,0.622-0.986,0.907c-0.729,0.618-1.503,1.165-2.377,1.569
		c-0.911,0.421-1.854,0.727-2.852,0.813c-0.899,0.078-1.806,0.154-2.706,0.119c-1.239-0.048-2.449-0.294-3.598-0.807
		c-2.212-0.988-3.621-2.683-4.445-4.922c-0.416-1.129-0.692-2.287-0.762-3.486c-0.066-1.125-0.168-2.257-0.115-3.379
		c0.098-2.052,0.502-4.049,1.461-5.896c0.412-0.794,0.921-1.531,1.559-2.153c1.231-1.197,2.696-1.978,4.413-2.189
		c0.852-0.104,1.725-0.185,2.575-0.118c1.738,0.138,3.343,0.686,4.713,1.827c1.488,1.239,2.392,2.834,2.919,4.667
		c0.278,0.967,0.485,1.949,0.513,2.96c0.023,0.82,0.038,1.64,0.066,2.46c0.007,0.215-0.076,0.275-0.281,0.273
		c-0.887-0.008-1.775-0.003-2.662-0.003c-3.026,0-6.052-0.003-9.078,0.006c-0.284,0.001-0.401-0.058-0.385-0.369
		c0.027-0.512,0.023-1.027,0.001-1.539c-0.012-0.283,0.076-0.362,0.36-0.361c2.876,0.01,5.753,0.006,8.629,0.006
		C153.811,23.545,153.991,23.545,154.186,23.545z"/>
	<path fill="#989898" d="M114.475,16.905c-0.676,0.641-1.314,1.247-1.963,1.862c-0.245-0.258-0.458-0.507-0.697-0.729
		c-0.782-0.726-1.625-1.372-2.673-1.658c-0.936-0.256-1.888-0.312-2.866-0.218c-1.137,0.11-2.181,0.45-3.113,1.081
		c-1.145,0.774-1.947,1.843-2.454,3.13c-0.348,0.883-0.545,1.801-0.576,2.748c-0.039,1.172-0.109,2.349-0.053,3.518
		c0.078,1.621,0.43,3.181,1.372,4.558c1.044,1.526,2.477,2.428,4.289,2.743c1.308,0.227,2.593,0.161,3.845-0.309
		c0.704-0.265,1.316-0.677,1.863-1.186c0.358-0.333,0.694-0.692,1.047-1.047c0.663,0.617,1.306,1.215,1.995,1.856
		c-0.315,0.307-0.587,0.626-0.912,0.877c-0.652,0.502-1.316,0.992-2.006,1.441c-0.774,0.503-1.659,0.759-2.562,0.869
		c-0.873,0.106-1.762,0.162-2.64,0.127c-1.219-0.049-2.403-0.328-3.53-0.825c-1.218-0.538-2.245-1.336-3.104-2.336
		c-0.864-1.006-1.489-2.168-1.851-3.442c-0.258-0.91-0.462-1.846-0.578-2.784c-0.119-0.968-0.17-1.955-0.13-2.929
		c0.087-2.135,0.517-4.198,1.585-6.084c1.153-2.036,2.841-3.417,5.079-4.114c0.976-0.304,1.976-0.449,3.002-0.462
		c1.251-0.015,2.477,0.082,3.665,0.507c0.98,0.351,1.857,0.872,2.63,1.564C113.582,16.061,114.01,16.472,114.475,16.905z"/>
	<path fill="#989898" d="M161.333,16.114c-0.539,0-1.039,0-1.538,0c-0.385,0-0.77-0.007-1.155,0.003
		c-0.194,0.005-0.265-0.064-0.262-0.26c0.009-0.535,0.011-1.069-0.001-1.604c-0.005-0.217,0.08-0.274,0.283-0.272
		c0.759,0.009,1.518,0.003,2.278,0.003c0.116,0,0.231,0,0.394,0c0-0.154,0-0.277,0-0.401c0-2.117,0.006-4.235-0.007-6.352
		c-0.002-0.298,0.081-0.385,0.378-0.376c0.727,0.021,1.454,0.021,2.181,0c0.294-0.008,0.354,0.095,0.353,0.368
		c-0.01,2.107-0.006,4.213-0.006,6.32c0,0.128,0,0.255,0,0.442c0.141,0,0.264,0,0.386,0c1.176,0,2.353,0.007,3.529-0.006
		c0.258-0.003,0.335,0.076,0.326,0.329c-0.018,0.491-0.021,0.984,0.001,1.475c0.012,0.281-0.097,0.338-0.352,0.335
		c-1.155-0.011-2.31-0.005-3.465-0.005c-0.126,0-0.252,0-0.408,0c-0.006,0.144-0.016,0.258-0.016,0.371
		c-0.001,4.769-0.013,9.538,0.009,14.308c0.005,1.055,0.396,1.974,1.327,2.575c0.463,0.299,0.992,0.421,1.537,0.441
		c0.534,0.019,1.069,0.012,1.604,0c0.214-0.005,0.277,0.075,0.274,0.281c-0.01,0.652-0.004,1.305-0.003,1.957
		c0,0.145,0.009,0.285-0.204,0.281c-1.209-0.027-2.424,0.092-3.616-0.248c-1.591-0.454-2.673-1.464-3.308-2.967
		c-0.388-0.92-0.52-1.894-0.52-2.887c-0.001-4.577,0-9.153,0-13.73C161.333,16.388,161.333,16.281,161.333,16.114z"/>
	<path fill="#989898" d="M175.718,16.114c0,0.169,0,0.285,0,0.401c0,4.597-0.009,9.194,0.008,13.791
		c0.003,0.835,0.12,1.663,0.634,2.384c0.443,0.622,1.053,0.961,1.78,1.046c0.664,0.077,1.339,0.065,2.009,0.071
		c0.228,0.002,0.328,0.05,0.322,0.3c-0.015,0.641-0.012,1.283-0.001,1.924c0.004,0.218-0.057,0.307-0.289,0.299
		c-0.884-0.031-1.778,0.03-2.65-0.084c-1.946-0.255-3.381-1.249-4.141-3.116c-0.365-0.897-0.513-1.825-0.511-2.792
		c0.009-4.586,0.004-9.173,0.004-13.759c0-0.137,0-0.275,0-0.446c-0.137-0.007-0.25-0.017-0.363-0.017
		c-0.77-0.001-1.54-0.006-2.309,0.003c-0.203,0.002-0.288-0.055-0.283-0.272c0.012-0.524,0.013-1.048,0-1.571
		c-0.006-0.226,0.071-0.297,0.295-0.294c0.748,0.011,1.497-0.01,2.245,0.011c0.319,0.009,0.425-0.085,0.423-0.414
		c-0.013-2.106,0.001-4.212-0.015-6.318c-0.003-0.335,0.098-0.415,0.416-0.404c0.683,0.024,1.369,0.021,2.052,0.001
		c0.29-0.008,0.384,0.067,0.382,0.372c-0.014,2.106-0.007,4.212-0.007,6.318c0,0.438,0.001,0.438,0.45,0.438
		c1.155,0,2.309,0.007,3.464-0.005c0.256-0.003,0.336,0.073,0.327,0.328c-0.018,0.502-0.017,1.005,0,1.507
		c0.008,0.248-0.087,0.306-0.318,0.304c-1.165-0.009-2.331-0.004-3.496-0.004C176.019,16.114,175.892,16.114,175.718,16.114z"/>
	<path fill="#989898" d="M174.873,52.395c0-0.215,0-0.342,0-0.469c0-2.855,0.004-5.71-0.006-8.565
		c-0.001-0.291,0.068-0.398,0.373-0.38c0.437,0.026,0.877,0.016,1.315,0.003c0.23-0.007,0.323,0.065,0.323,0.31
		c-0.005,4.256-0.005,8.511,0,12.767c0,0.23-0.079,0.297-0.299,0.289c-0.406-0.014-0.813-0.02-1.219,0.002
		c-0.254,0.014-0.405-0.074-0.544-0.286c-1.431-2.198-2.87-4.389-4.309-6.582c-0.487-0.743-0.979-1.483-1.469-2.224
		c-0.056-0.085-0.117-0.167-0.23-0.326c-0.009,0.204-0.019,0.324-0.019,0.444c-0.001,2.866-0.005,5.731,0.006,8.597
		c0.001,0.294-0.074,0.395-0.375,0.378c-0.437-0.025-0.877-0.022-1.315-0.001c-0.264,0.012-0.323-0.086-0.322-0.333
		c0.008-2.192,0.005-4.384,0.005-6.576c0-2.032,0.005-4.063-0.006-6.095c-0.001-0.274,0.06-0.385,0.354-0.367
		c0.405,0.025,0.813-0.011,1.218,0.016c0.132,0.009,0.304,0.101,0.376,0.209c1.405,2.101,2.8,4.209,4.191,6.32
		c0.582,0.883,1.148,1.776,1.725,2.662C174.683,52.247,174.75,52.285,174.873,52.395z"/>
	<path fill="#989898" d="M78.044,52.313c0-0.123,0-0.246,0-0.369c0-2.855,0.004-5.71-0.006-8.564
		c-0.001-0.302,0.068-0.42,0.388-0.398c0.404,0.027,0.814,0.028,1.218,0c0.338-0.023,0.409,0.109,0.408,0.423
		c-0.011,2.427-0.006,4.854-0.006,7.281c0,1.775-0.005,3.55,0.006,5.325c0.002,0.27-0.081,0.355-0.346,0.341
		c-0.384-0.02-0.771-0.026-1.154,0.002c-0.271,0.02-0.426-0.082-0.568-0.3c-1.15-1.762-2.311-3.517-3.466-5.276
		c-0.824-1.255-1.645-2.513-2.54-3.767c-0.006,0.116-0.016,0.232-0.016,0.348c-0.001,2.865-0.005,5.731,0.006,8.596
		c0.001,0.302-0.068,0.419-0.388,0.398c-0.415-0.027-0.835-0.026-1.25,0c-0.301,0.018-0.376-0.083-0.376-0.378
		c0.009-4.084,0.006-8.169,0.006-12.253c0-0.16,0.009-0.321-0.002-0.481c-0.014-0.201,0.075-0.26,0.265-0.256
		c0.427,0.009,0.857-0.015,1.282,0.013c0.141,0.009,0.326,0.104,0.402,0.219c1.863,2.8,3.714,5.607,5.568,8.413
		c0.156,0.236,0.315,0.471,0.472,0.707C77.979,52.329,78.011,52.321,78.044,52.313z"/>
	<path fill="#989898" d="M124.309,52.313c0-0.123,0-0.246,0-0.369c0-2.855,0.004-5.71-0.007-8.566
		c-0.001-0.304,0.073-0.417,0.39-0.397c0.426,0.027,0.855,0.016,1.283,0.003c0.214-0.006,0.274,0.074,0.274,0.281
		c-0.004,4.267-0.004,8.534,0,12.8c0,0.201-0.051,0.291-0.27,0.285c-0.438-0.013-0.878,0.01-1.315-0.013
		c-0.123-0.007-0.286-0.094-0.353-0.195c-1.604-2.414-3.199-4.834-4.792-7.254c-0.4-0.608-0.79-1.222-1.185-1.833
		c-0.03,0.005-0.06,0.011-0.09,0.016c-0.006,0.117-0.018,0.234-0.018,0.351c-0.001,2.845-0.005,5.689,0.006,8.534
		c0.001,0.302-0.069,0.417-0.388,0.398c-0.447-0.027-0.898-0.015-1.347-0.003c-0.212,0.006-0.276-0.072-0.276-0.279
		c0.005-4.267,0.005-8.534-0.001-12.8c0-0.234,0.086-0.292,0.302-0.286c0.427,0.013,0.856-0.008,1.283,0.011
		c0.119,0.005,0.281,0.073,0.343,0.166c1.149,1.725,2.287,3.458,3.426,5.19c0.819,1.246,1.635,2.494,2.455,3.74
		c0.059,0.09,0.138,0.166,0.207,0.249C124.259,52.331,124.284,52.322,124.309,52.313z"/>
	<path fill="#989898" d="M42.831,50.434c1.029,1.98,2.036,3.919,3.072,5.911c-0.755,0-1.467,0.016-2.176-0.016
		c-0.115-0.005-0.253-0.207-0.324-0.346c-0.823-1.628-1.642-3.258-2.443-4.897c-0.14-0.287-0.296-0.409-0.628-0.394
		c-0.691,0.03-1.385,0.009-2.125,0.009c0,0.155,0,0.279,0,0.402c0,1.636-0.006,3.272,0.006,4.908
		c0.002,0.269-0.08,0.354-0.345,0.342c-0.438-0.019-0.878-0.023-1.315,0.001c-0.295,0.017-0.353-0.096-0.352-0.368
		c0.009-2.598,0.006-5.196,0.006-7.795c0-1.615,0.006-3.229-0.006-4.843c-0.002-0.277,0.066-0.367,0.356-0.365
		c1.646,0.014,3.294-0.025,4.939,0.016c1.376,0.035,2.605,0.495,3.385,1.7c0.937,1.448,0.916,3.333-0.276,4.699
		C44.162,49.904,43.58,50.242,42.831,50.434z M38.209,49.001c0.143,0.008,0.247,0.018,0.351,0.018
		c0.972,0.001,1.946,0.041,2.916-0.008c1.501-0.076,2.271-1.134,2.008-2.604c-0.181-1.01-1.076-1.594-2.045-1.607
		c-0.951-0.013-1.901-0.003-2.852-0.002c-0.114,0-0.229,0.01-0.357,0.015c-0.009,0.074-0.021,0.125-0.021,0.175
		C38.208,46.312,38.209,47.636,38.209,49.001z"/>
	<path fill="#989898" d="M110.511,50.457c1.029,1.975,2.036,3.905,3.07,5.888c-0.763,0-1.474,0.009-2.184-0.011
		c-0.084-0.002-0.19-0.149-0.242-0.251c-0.837-1.657-1.675-3.313-2.491-4.98c-0.146-0.298-0.303-0.43-0.647-0.411
		c-0.608,0.032-1.219,0.019-1.828,0.004c-0.266-0.006-0.354,0.087-0.352,0.352c0.009,1.646-0.002,3.293,0.01,4.939
		c0.002,0.275-0.062,0.382-0.354,0.366c-0.448-0.024-0.898-0.012-1.347-0.004c-0.18,0.003-0.249-0.065-0.244-0.245
		c0.009-0.299,0.002-0.599,0.002-0.898c0-3.945,0.004-7.89-0.007-11.835c-0.001-0.313,0.089-0.393,0.396-0.391
		c1.603,0.015,3.208-0.019,4.811,0.015c1.173,0.025,2.262,0.342,3.096,1.243c0.573,0.618,0.864,1.356,0.966,2.194
		c0.08,0.649-0.002,1.267-0.223,1.866c-0.367,0.997-1.096,1.64-2.074,2.018C110.762,50.358,110.657,50.4,110.511,50.457z
		 M105.859,48.984c0.054,0.015,0.083,0.031,0.113,0.031c1.091,0.002,2.182,0.024,3.272-0.005c0.479-0.013,0.934-0.188,1.304-0.517
		c0.722-0.643,0.826-1.592,0.492-2.484c-0.271-0.726-1.09-1.212-1.965-1.212c-0.759,0-1.518,0-2.278,0c-0.307,0-0.613,0-0.938,0
		C105.859,46.212,105.859,47.587,105.859,48.984z"/>
	<path fill="#989898" d="M50.548,54.602c0.146,0,0.272,0,0.397,0c1.925,0,3.849,0.006,5.774-0.006
		c0.283-0.002,0.379,0.077,0.36,0.361c-0.023,0.351-0.023,0.706,0,1.058c0.018,0.278-0.093,0.338-0.35,0.337
		c-2.417-0.008-4.833-0.003-7.25-0.007c-0.305-0.001-0.707,0.075-0.885-0.085c-0.154-0.138-0.065-0.56-0.065-0.857
		c-0.002-4.01,0.002-8.02-0.008-12.029c-0.001-0.31,0.085-0.394,0.394-0.392c2.598,0.012,5.197,0.012,7.795,0
		c0.307-0.001,0.388,0.096,0.37,0.384c-0.022,0.351-0.023,0.707,0,1.058c0.02,0.292-0.069,0.383-0.372,0.381
		c-1.914-0.014-3.828-0.007-5.742-0.007c-0.127,0-0.254,0-0.409,0c0,1.32,0,2.617,0,3.967c0.121,0,0.245,0,0.368,0
		c1.615,0,3.229,0.005,4.844-0.005c0.26-0.002,0.365,0.063,0.348,0.339c-0.022,0.362-0.021,0.728,0,1.09
		c0.014,0.258-0.076,0.328-0.329,0.326c-1.615-0.01-3.229-0.005-4.844-0.005c-0.125,0-0.25,0-0.395,0
		C50.548,51.878,50.548,53.21,50.548,54.602z"/>
	<path fill="#989898" d="M94.482,44.796c0,0.6,0,1.153,0,1.707c0,0.631,0.011,1.262-0.005,1.893
		c-0.007,0.277,0.082,0.374,0.366,0.372c1.625-0.011,3.251,0,4.876-0.01c0.257-0.002,0.368,0.058,0.351,0.337
		c-0.023,0.362-0.02,0.728-0.001,1.09c0.014,0.256-0.072,0.33-0.327,0.328c-1.615-0.011-3.23-0.005-4.844-0.005
		c-0.125,0-0.25,0-0.416,0c0,0.225,0,0.415,0,0.604c0,1.037,0.009,2.075-0.006,3.112c-0.004,0.297,0.092,0.387,0.387,0.385
		c1.936-0.011,3.871,0,5.807-0.012c0.278-0.002,0.383,0.068,0.363,0.357c-0.024,0.351-0.022,0.706-0.001,1.058
		c0.017,0.273-0.085,0.341-0.347,0.34c-2.171-0.009-4.342-0.005-6.513-0.005c-0.406,0-0.814-0.02-1.219,0.007
		c-0.318,0.021-0.419-0.066-0.417-0.402c0.014-2.866,0.008-5.732,0.008-8.598c0-1.347,0.006-2.695-0.005-4.042
		c-0.002-0.254,0.071-0.329,0.327-0.328c2.609,0.009,5.219,0.009,7.828-0.001c0.276-0.001,0.351,0.09,0.337,0.35
		c-0.019,0.363-0.023,0.728,0.001,1.09c0.019,0.292-0.069,0.383-0.372,0.381c-1.914-0.014-3.828-0.007-5.743-0.007
		C94.791,44.796,94.664,44.796,94.482,44.796z"/>
	<path fill="#989898" d="M139.371,56.346c-0.657,0-1.276,0.01-1.894-0.011c-0.093-0.003-0.226-0.14-0.264-0.243
		c-0.229-0.626-0.437-1.259-0.648-1.891c-0.183-0.548-0.18-0.549-0.738-0.549c-1.486,0-2.973,0.004-4.459-0.004
		c-0.223-0.001-0.347,0.055-0.42,0.281c-0.228,0.704-0.488,1.398-0.712,2.103c-0.074,0.231-0.176,0.328-0.426,0.321
		c-0.575-0.017-1.151-0.005-1.786-0.005c0.105-0.306,0.191-0.57,0.287-0.83c0.985-2.678,1.974-5.355,2.956-8.034
		c0.513-1.399,1.016-2.802,1.525-4.202c0.07-0.193,0.171-0.32,0.42-0.299c0.329,0.028,0.665,0.03,0.993-0.001
		c0.256-0.024,0.334,0.115,0.403,0.304c0.323,0.883,0.648,1.766,0.972,2.649c0.706,1.925,1.412,3.85,2.118,5.775
		c0.531,1.449,1.063,2.897,1.593,4.346C139.321,56.139,139.338,56.228,139.371,56.346z M133.794,46.046
		c-0.028-0.002-0.055-0.004-0.083-0.006c-0.69,1.963-1.379,3.927-2.074,5.904c1.415,0,2.773,0,4.174,0
		C135.13,49.952,134.462,47.999,133.794,46.046z"/>
	<path fill="#989898" d="M189.938,56.346c-0.663,0-1.292,0.009-1.92-0.011c-0.083-0.003-0.199-0.139-0.234-0.237
		c-0.25-0.697-0.494-1.396-0.716-2.102c-0.079-0.252-0.186-0.354-0.467-0.351c-1.551,0.015-3.101,0.014-4.652,0
		c-0.264-0.002-0.378,0.09-0.454,0.327c-0.23,0.715-0.48,1.423-0.715,2.136c-0.058,0.176-0.146,0.249-0.344,0.244
		c-0.587-0.015-1.174-0.005-1.817-0.005c0.061-0.202,0.104-0.379,0.166-0.55c0.625-1.718,1.252-3.436,1.882-5.153
		c0.747-2.034,1.497-4.067,2.246-6.1c0.164-0.446,0.318-0.897,0.501-1.335c0.041-0.097,0.186-0.204,0.29-0.21
		c0.383-0.025,0.77-0.023,1.154-0.001c0.098,0.006,0.245,0.099,0.278,0.186c0.469,1.246,0.92,2.499,1.379,3.75
		c0.709,1.935,1.422,3.87,2.131,5.805c0.404,1.102,0.804,2.204,1.204,3.307C189.883,56.131,189.903,56.222,189.938,56.346z
		 M184.36,46.03c-0.025,0.003-0.049,0.006-0.074,0.008c-0.691,1.965-1.382,3.929-2.079,5.911c1.4,0,2.76,0,4.178,0
		C185.702,49.951,185.031,47.99,184.36,46.03z"/>
	<path fill="#989898" d="M23.956,42.992c0.656,0,1.282-0.008,1.907,0.011c0.073,0.002,0.175,0.148,0.207,0.245
		c0.512,1.6,1.014,3.202,1.518,4.805c0.463,1.471,0.923,2.943,1.387,4.414c0.021,0.067,0.067,0.126,0.138,0.256
		c0.141-0.415,0.267-0.77,0.381-1.129c0.379-1.188,0.755-2.376,1.129-3.565c0.495-1.572,0.991-3.143,1.478-4.718
		c0.073-0.236,0.175-0.346,0.445-0.331c0.469,0.026,0.94,0.007,1.41,0.007c0.101,0,0.202,0,0.351,0
		c-0.306,0.921-0.59,1.781-0.877,2.64c-0.844,2.527-1.691,5.054-2.531,7.582c-0.313,0.943-0.616,1.889-0.909,2.838
		c-0.073,0.236-0.191,0.319-0.434,0.303c-0.319-0.02-0.641-0.015-0.961-0.002c-0.206,0.008-0.292-0.067-0.357-0.268
		c-0.91-2.794-1.83-5.585-2.748-8.376c-0.482-1.466-0.967-2.931-1.45-4.397C24.009,43.222,23.991,43.131,23.956,42.992z"/>
	<path fill="#989898" d="M141.826,44.796c-0.16,0-0.274,0-0.389,0c-0.994,0-1.988-0.004-2.982,0.003
		c-0.196,0.001-0.297-0.041-0.289-0.265c0.014-0.427,0.013-0.855,0-1.283c-0.007-0.222,0.09-0.267,0.288-0.267
		c2.918,0.004,5.837,0.005,8.755,0c0.206,0,0.287,0.061,0.28,0.274c-0.013,0.417-0.014,0.834,0.001,1.25
		c0.008,0.229-0.077,0.293-0.297,0.291c-0.994-0.009-1.988-0.004-2.982-0.004c-0.114,0-0.229,0-0.382,0c0,0.174,0,0.31,0,0.445
		c0,3.57-0.003,7.141,0.006,10.711c0.001,0.299-0.063,0.42-0.385,0.4c-0.447-0.028-0.898-0.015-1.346-0.003
		c-0.209,0.005-0.3-0.065-0.277-0.276c0.008-0.074,0.001-0.15,0.001-0.224c0-3.528,0-7.055,0-10.583
		C141.826,45.129,141.826,44.991,141.826,44.796z"/>
	<path fill="#989898" d="M85.295,44.796c-0.447,0-0.851,0-1.254,0c-0.716,0-1.433-0.011-2.149,0.006
		c-0.26,0.006-0.335-0.08-0.324-0.331c0.018-0.395,0.014-0.791,0.001-1.186c-0.007-0.216,0.054-0.302,0.287-0.301
		c2.94,0.007,5.879,0.006,8.819,0.001c0.205,0,0.288,0.059,0.281,0.273c-0.013,0.417-0.014,0.834,0.001,1.25
		c0.008,0.228-0.075,0.294-0.296,0.292c-1.015-0.009-2.031-0.004-3.047-0.004c-0.114,0-0.229,0-0.383,0c0,0.173,0,0.309,0,0.444
		c0,3.549,0,7.098,0,10.647c0,0.458,0,0.459-0.474,0.459c-0.396,0-0.791-0.009-1.186,0.003c-0.208,0.006-0.301-0.063-0.278-0.275
		c0.008-0.074,0.001-0.15,0.001-0.224c0-3.528,0-7.055,0-10.583C85.295,45.13,85.295,44.992,85.295,44.796z"/>
	<path fill="#989898" d="M22.037,49.702c0,2.094-0.005,4.189,0.006,6.283c0.001,0.272-0.057,0.383-0.352,0.368
		c-0.469-0.024-0.94-0.011-1.41-0.004c-0.178,0.003-0.262-0.059-0.245-0.242c0.005-0.053,0.001-0.107,0.001-0.16
		c0-4.189,0.003-8.377-0.006-12.566c-0.001-0.298,0.062-0.422,0.385-0.4c0.426,0.028,0.855,0.021,1.282,0.002
		c0.264-0.012,0.348,0.07,0.346,0.34C22.033,45.45,22.037,47.576,22.037,49.702z"/>
	<path fill="#989898" d="M149.077,49.665c0-2.073,0-4.146,0-6.219c0-0.458,0-0.458,0.474-0.458c0.427,0,0.855,0.005,1.282-0.002
		c0.177-0.003,0.263,0.058,0.245,0.241c-0.002,0.021,0,0.043,0,0.064c0,4.253-0.002,8.505,0.005,12.758
		c0,0.249-0.089,0.31-0.318,0.302c-0.438-0.014-0.877-0.021-1.314,0.002c-0.292,0.015-0.382-0.07-0.38-0.373
		c0.013-2.03,0.007-4.06,0.007-6.09C149.077,49.815,149.077,49.74,149.077,49.665z"/>
	<path fill="#989898" d="M66.441,49.658c0,2.106-0.006,4.213,0.007,6.319c0.002,0.297-0.079,0.393-0.377,0.376
		c-0.437-0.025-0.877-0.022-1.314-0.001c-0.266,0.013-0.321-0.089-0.321-0.334c0.008-2.352,0.005-4.704,0.005-7.056
		c0-1.871,0.005-3.742-0.006-5.613c-0.002-0.274,0.06-0.383,0.354-0.367c0.437,0.024,0.877,0.02,1.314,0.001
		c0.276-0.012,0.344,0.098,0.343,0.356C66.438,45.445,66.441,47.551,66.441,49.658z"/>
</g>
</svg>
