<?xml version="1.0" encoding="utf-8"?>
<!-- Generator: Adobe Illustrator 17.0.0, SVG Export Plug-In . SVG Version: 6.00 Build 0)  -->
<!DOCTYPE svg PUBLIC "-//W3C//DTD SVG 1.1//EN" "http://www.w3.org/Graphics/SVG/1.1/DTD/svg11.dtd">
<svg version="1.1" id="Layer_1" xmlns="http://www.w3.org/2000/svg" xmlns:xlink="http://www.w3.org/1999/xlink" x="0px" y="0px"
	 width="210px" height="60px" viewBox="0 0 210 60" enable-background="new 0 0 210 60" xml:space="preserve">
<g>
	<g>
		<path fill="#989898" d="M52.656,34.032c-0.084,0.762-0.3,1.459-0.343,2.191c-0.025,0.424-0.014,0.844,0.073,1.255
			c0.342,1.622,1.589,2.427,3.224,2.109c1.334-0.259,2.466-0.932,3.534-1.726c1.331-0.99,2.49-2.165,3.58-3.411
			c0.099-0.113,0.168-0.265,0.374-0.316c-0.111,0.466-0.264,0.899-0.312,1.36c-0.22,2.133,1.417,3.533,3.487,2.965
			c1.429-0.392,2.543-1.284,3.582-2.284c0.49-0.472,0.942-0.983,1.482-1.55c-0.107,0.616-0.172,1.148-0.07,1.675
			c0.353,1.822,1.888,2.789,3.733,2.355c1.635-0.384,2.904-1.382,4.115-2.475c0.601-0.542,1.131-1.153,1.734-1.807
			c0.018,0.366,0.006,0.668,0.051,0.962c0.314,2.03,2.086,3.122,4.171,2.578c1.233-0.322,2.205-1.057,3.072-1.955
			c0.108-0.112,0.209-0.23,0.319-0.352c0.141,0.115,0.071,0.265,0.071,0.389c0.004,6.171,0,12.341,0.013,18.512
			C88.546,54.883,88.47,55,88.069,55c-14.086-0.011-28.172-0.011-42.259,0c-0.403,0-0.477-0.121-0.476-0.496
			c0.012-5.828,0.012-11.655,0-17.483c-0.001-0.41,0.063-0.489,0.475-0.359c1.393,0.438,2.705,0.113,3.965-0.523
			c0.853-0.431,1.614-0.996,2.331-1.625C52.288,34.353,52.472,34.193,52.656,34.032z"/>
		<path fill="#989898" d="M76.49,10.645c0.877,0.51,1.445,1.308,1.954,2.147c1.139,1.874,1.732,3.946,2.141,6.078
			c0.143,0.744,0.243,1.496,0.381,2.357c1.021-2.616,3.096-4.225,4.958-6.014c0.517-0.496,1.029-0.997,1.485-1.552
			c0.443-0.539,0.833-1.111,1.127-1.768c0,0.146,0,0.291,0,0.437c0,6.358-0.004,12.715,0.01,19.073
			c0.001,0.408-0.091,0.507-0.504,0.506c-14.071-0.012-28.142-0.012-42.213,0.002c-0.425,0-0.5-0.117-0.498-0.513
			c0.017-3.007,0.086-6.017-0.015-9.021c-0.08-2.375,0.943-4.049,2.817-5.338c1.156-0.795,2.399-1.443,3.594-2.171
			c0.359-0.218,0.715-0.443,1.059-0.683c1.476-1.029,2.556-2.284,2.379-4.259c0.61,0.895,0.926,1.88,1.016,2.939
			c0.144,1.687-0.328,3.262-0.886,4.823c-0.387,1.081-0.832,2.145-1.006,3.293c-0.073,0.483-0.082,0.96,0.046,1.446
			c0.14-0.068,0.131-0.212,0.162-0.324c0.908-3.236,2.917-5.547,5.919-7.007c1.481-0.72,2.997-1.369,4.469-2.107
			c1.494-0.75,2.734-1.787,3.378-3.398c0.647-1.618,0.486-3.129-0.595-4.519c0.021-0.022,0.041-0.045,0.06-0.068
			c1.361,0.38,2.363,1.262,3.115,2.398c2.197,3.318,2.457,6.793,0.722,10.399c-0.777,1.614-1.751,3.116-2.62,4.678
			c-0.689,1.238-1.328,2.499-1.579,3.913c-0.062,0.351-0.086,0.71-0.129,1.08c0.152-0.094,0.153-0.236,0.192-0.362
			c0.552-1.797,1.641-3.268,2.844-4.668c1.339-1.559,2.828-2.983,4.105-4.597c1.093-1.38,1.997-2.851,2.241-4.646
			c0.115-0.85-0.023-1.674-0.178-2.501C76.459,10.677,76.475,10.661,76.49,10.645z"/>
	</g>
	<g>
		<path fill="#989898" d="M100.423,22.27c0-1.641,0.006-3.283-0.002-4.924c-0.005-1.079-0.223-1.322-1.282-1.429
			c-0.319-0.032-0.575-0.023-0.569-0.488c0.007-0.521,0.339-0.415,0.618-0.404c1.826,0.076,3.651,0.087,5.476-0.005
			c0.322-0.016,0.594-0.033,0.59,0.444c-0.004,0.478-0.291,0.431-0.604,0.45c-1.167,0.072-1.418,0.345-1.42,1.509
			c-0.001,1.125,0.018,2.251-0.008,3.376c-0.009,0.41,0.07,0.568,0.529,0.563c2.251-0.025,4.502-0.02,6.753-0.002
			c0.399,0.003,0.513-0.107,0.504-0.51c-0.028-1.219,0.004-2.438-0.016-3.657c-0.015-0.931-0.281-1.206-1.202-1.277
			c-0.36-0.028-0.655-0.047-0.624-0.531c0.032-0.51,0.405-0.363,0.674-0.36c1.778,0.02,3.556,0.131,5.335,0.003
			c0.236-0.017,0.57-0.155,0.592,0.344c0.02,0.457-0.16,0.522-0.562,0.551c-1.066,0.077-1.365,0.373-1.372,1.452
			c-0.023,3.353-0.02,6.706-0.003,10.059c0.005,1.034,0.238,1.242,1.375,1.322c0.351,0.025,0.562,0.045,0.552,0.491
			c-0.01,0.453-0.275,0.41-0.559,0.397c-1.872-0.084-3.743-0.098-5.614,0.005c-0.306,0.017-0.495-0.033-0.497-0.39
			c-0.002-0.34,0.1-0.478,0.483-0.504c1.313-0.089,1.429-0.234,1.431-1.521c0.002-1.43-0.015-2.861,0.01-4.291
			c0.007-0.405-0.114-0.511-0.511-0.508c-2.251,0.018-4.502,0.023-6.753-0.004c-0.463-0.005-0.532,0.161-0.525,0.565
			c0.022,1.43,0.001,2.861,0.011,4.291c0.007,1.104,0.246,1.371,1.328,1.47c0.345,0.031,0.641-0.01,0.615,0.506
			c-0.026,0.533-0.382,0.39-0.647,0.373c-1.778-0.118-3.554-0.072-5.332,0.002c-0.27,0.011-0.62,0.148-0.628-0.385
			c-0.006-0.432,0.174-0.463,0.533-0.499c1.054-0.105,1.314-0.419,1.318-1.492C100.428,25.6,100.423,23.935,100.423,22.27z"/>
		<path fill="#989898" d="M107.68,54.987c-2.362,0.038-4.357-0.473-6.124-1.774c-3.468-2.554-4.552-9.431,1.344-12.415
			c2.828-1.432,5.736-1.453,8.661-0.219c0.628,0.265,0.985,0.625,0.972,1.354c-0.009,0.484,0.137,0.969,0.202,1.456
			c0.035,0.256,0.19,0.525-0.259,0.653c-0.381,0.108-0.616,0.101-0.778-0.287c-0.071-0.171-0.182-0.326-0.281-0.485
			c-1.92-3.078-5.709-3.313-8.03-0.5c-2.306,2.794-1.821,7.687,0.998,9.951c1.593,1.28,3.404,1.452,5.3,0.912
			c1.261-0.359,1.865-1.424,2.373-2.519c0.172-0.372,0.3-0.587,0.761-0.435c0.484,0.159,0.434,0.459,0.333,0.827
			c-0.13,0.472-0.293,0.943-0.348,1.426c-0.094,0.829-0.535,1.239-1.323,1.456C110.168,54.749,108.858,55.069,107.68,54.987z"/>
		<path fill="#989898" d="M139.519,21.471c0.478-0.312,0.9-0.591,1.325-0.865c1.548-0.997,3.429-0.637,4.465,0.919
			c1.216,1.827,1.355,3.784,0.303,5.706c-1.102,2.011-2.939,2.782-5.179,2.65c-0.939-0.055-1.003-0.025-0.995,0.918
			c0.007,0.819,0.028,1.638,0.043,2.457c0.013,0.727,0.403,1.056,1.11,1.05c0.264-0.002,0.504-0.032,0.5,0.381
			c-0.004,0.43-0.248,0.455-0.549,0.421c-1.379-0.155-2.756-0.114-4.135-0.001c-0.242,0.02-0.533,0.074-0.535-0.349
			c-0.001-0.325,0.092-0.472,0.438-0.458c0.471,0.019,0.663-0.284,0.687-0.706c0.026-0.467,0.032-0.936,0.032-1.405
			c0.003-3.047-0.006-6.094,0.008-9.141c0.002-0.517-0.09-0.901-0.632-1.105c-0.352-0.133-0.375-0.616-0.042-0.754
			c0.925-0.382,1.864-0.729,2.801-1.082c0.278-0.105,0.377,0.014,0.359,0.301C139.503,20.725,139.519,21.046,139.519,21.471z
			 M139.432,25.102c-0.001,0-0.002,0-0.002,0c0,0.748,0.001,1.496-0.001,2.244c-0.001,0.258-0.015,0.52,0.172,0.73
			c0.618,0.696,1.394,1.02,2.315,0.872c0.802-0.129,1.226-0.705,1.455-1.435c0.416-1.33,0.409-2.671-0.036-3.984
			c-0.53-1.563-2.014-2.114-3.505-1.373c-0.288,0.143-0.415,0.302-0.405,0.633C139.448,23.559,139.432,24.33,139.432,25.102z"/>
		<path fill="#989898" d="M146.568,46.65c1.069-0.732,2.011-1.403,3.226-1.567c1.795-0.243,3.078,0.8,3.098,2.621
			c0.018,1.687,0.012,3.374,0.002,5.06c-0.004,0.647,0.179,1.118,0.924,1.12c0.36,0.001,0.334,0.228,0.34,0.472
			c0.007,0.298-0.165,0.369-0.404,0.333c-1.379-0.212-2.756-0.057-4.134,0.006c-0.292,0.014-0.433-0.081-0.429-0.391
			c0.004-0.285,0.104-0.445,0.408-0.429c0.75,0.041,0.896-0.455,0.901-1.044c0.01-1.382,0.023-2.765-0.002-4.147
			c-0.028-1.528-0.935-2.206-2.415-1.829c-0.269,0.069-0.52,0.203-0.781,0.301c-0.562,0.212-0.799,0.555-0.767,1.212
			c0.069,1.426,0.019,2.857,0.029,4.286c0.005,0.644,0.076,1.254,0.96,1.226c0.306-0.01,0.295,0.216,0.304,0.439
			c0.01,0.273-0.101,0.397-0.37,0.368c-1.448-0.159-2.896-0.123-4.344,0.001c-0.215,0.018-0.37-0.032-0.35-0.3
			c0.016-0.224-0.065-0.517,0.302-0.506c0.798,0.023,0.955-0.492,1.019-1.134c0.159-1.59,0.07-3.182,0.076-4.774
			c0.002-0.536-0.288-0.882-0.812-0.993c-0.212-0.045-0.347-0.1-0.339-0.344c0.006-0.205,0.064-0.33,0.282-0.417
			c0.974-0.387,1.936-0.803,2.906-1.199c0.256-0.104,0.389-0.022,0.376,0.283C146.554,45.722,146.568,46.138,146.568,46.65z"/>
		<path fill="#989898" d="M114.625,49.848c-0.004-2.625,2.356-4.859,5.094-4.821c2.717,0.038,4.868,2.112,4.863,4.691
			c-0.005,2.958-2.235,5.249-5.084,5.224C116.581,54.916,114.629,52.876,114.625,49.848z M121.941,51.042
			c0-0.141,0.012-0.282-0.002-0.421c-0.111-1.141-0.253-2.274-0.817-3.304c-0.54-0.986-1.282-1.38-2.294-1.205
			c-0.789,0.136-1.391,0.857-1.52,1.881c-0.094,0.746-0.094,1.503,0.009,2.244c0.138,0.998,0.382,1.975,1.007,2.806
			c0.55,0.732,1.3,0.991,2.169,0.803c0.804-0.174,1.159-0.79,1.333-1.55C121.921,51.879,121.961,51.465,121.941,51.042z"/>
		<path fill="#989898" d="M122.195,28.23c-0.792,0.709-1.51,1.379-2.523,1.58c-1.367,0.271-2.317-0.519-2.512-2.083
			c-0.075-0.598,0.101-1.026,0.634-1.351c1.185-0.722,2.473-1.203,3.775-1.643c0.484-0.163,0.758-0.382,0.658-0.931
			c-0.041-0.228,0.005-0.471-0.035-0.7c-0.093-0.542-0.236-1.083-0.864-1.233c-0.689-0.165-1.388-0.232-2.035,0.164
			c-0.265,0.163-0.283,0.446-0.186,0.686c0.184,0.456,0.024,0.678-0.413,0.795c-0.132,0.035-0.245,0.148-0.378,0.179
			c-0.261,0.06-0.531,0.43-0.737,0.225c-0.251-0.251-0.301-0.67-0.215-1.052c0.091-0.407,0.356-0.707,0.652-0.976
			c0.786-0.712,1.643-1.397,2.645-1.679c1.791-0.504,3.978-0.02,3.949,2.52c-0.017,1.499-0.005,2.999-0.002,4.498
			c0.001,0.275-0.066,0.601,0.236,0.756c0.298,0.153,0.464-0.103,0.616-0.303c0.104-0.138,0.216-0.163,0.362-0.1
			c0.112,0.048,0.179,0.111,0.175,0.26c-0.024,1.1-1.452,2.235-2.534,2.025C122.595,29.7,122.313,29.082,122.195,28.23z
			 M122.223,26.336c0-0.188-0.022-0.378,0.004-0.562c0.076-0.539-0.166-0.528-0.542-0.338c-0.583,0.295-1.183,0.557-1.751,0.878
			c-0.456,0.258-0.527,0.924-0.218,1.556c0.268,0.546,0.704,0.642,1.236,0.447C121.819,28,122.225,27.359,122.223,26.336z"/>
		<path fill="#989898" d="M135.135,38.338c0,1.3,0,2.534,0,3.768c0.001,3.559,0.004,7.118,0,10.677
			c-0.001,0.595,0.082,1.084,0.842,1.097c0.285,0.005,0.294,0.253,0.284,0.472c-0.009,0.217-0.102,0.355-0.344,0.342
			c-0.07-0.004-0.141,0.008-0.211-0.001c-1.26-0.156-2.519-0.126-3.78-0.005c-0.223,0.021-0.533,0.116-0.557-0.318
			c-0.02-0.374,0.137-0.506,0.484-0.508c0.597-0.003,0.815-0.347,0.814-0.906c-0.003-3.863-0.003-7.727,0.001-11.59
			c0-0.494-0.161-0.875-0.672-1.016c-0.273-0.075-0.352-0.227-0.358-0.506c-0.007-0.301,0.187-0.329,0.382-0.398
			C133.044,39.082,134.069,38.717,135.135,38.338z"/>
		<path fill="#989898" d="M129.549,38.321c-0.033,1.703-0.059,3.313-0.078,4.924c-0.04,3.229-0.096,6.459,0.032,9.688
			c0.021,0.53,0.157,0.924,0.783,0.936c0.326,0.006,0.36,0.236,0.345,0.492c-0.016,0.276-0.186,0.359-0.429,0.332
			c-1.354-0.153-2.707-0.121-4.06,0c-0.24,0.021-0.399-0.037-0.398-0.337c0.001-0.269,0.043-0.488,0.356-0.481
			c0.813,0.019,0.949-0.466,0.946-1.144c-0.012-3.723-0.007-7.446,0.001-11.168c0.001-0.584-0.1-1.076-0.761-1.243
			c-0.263-0.067-0.265-0.268-0.272-0.493c-0.008-0.252,0.145-0.302,0.329-0.367C127.373,39.099,128.399,38.73,129.549,38.321z"/>
		<path fill="#989898" d="M152.536,24.03c-0.796,0-1.593,0.02-2.388-0.008c-0.393-0.014-0.5,0.166-0.471,0.498
			c0.114,1.285,0.618,2.357,1.794,2.987c1.134,0.607,2.214,0.411,3.181-0.401c0.218-0.183,0.357-0.231,0.578-0.026
			c0.272,0.251,0.104,0.461-0.022,0.681c-0.753,1.317-2.61,2.303-4.01,2.132c-1.807-0.221-2.928-1.204-3.437-3.015
			c-0.629-2.236,0.118-4.76,1.801-6.021c1.22-0.914,2.588-1.042,3.993-0.579c1.299,0.428,2.083,1.862,1.92,3.251
			c-0.05,0.427-0.291,0.469-0.623,0.467c-0.772-0.005-1.545-0.002-2.317-0.002C152.536,24.006,152.536,24.018,152.536,24.03z
			 M150.71,23.159c0.279-0.018,0.558-0.037,0.837-0.054c0.303-0.019,0.606-0.037,0.909-0.055c0.304-0.018,0.554-0.114,0.6-0.46
			c0.069-0.518-0.061-0.984-0.455-1.333c-0.374-0.331-0.824-0.43-1.307-0.265c-0.593,0.202-0.951,0.655-1.212,1.193
			C149.609,23.162,149.657,23.231,150.71,23.159z"/>
		<path fill="#989898" d="M161.446,46.746c0,0.211,0.002,0.421-0.001,0.632c-0.003,0.23,0.044,0.488-0.299,0.533
			c-0.31,0.04-0.543-0.024-0.648-0.367c-0.132-0.432-0.371-0.804-0.697-1.119c-0.258-0.249-0.555-0.414-0.921-0.456
			c-0.535-0.061-0.925,0.155-1.141,0.628c-0.204,0.446-0.031,0.838,0.33,1.119c0.682,0.532,1.396,1.023,2.077,1.556
			c0.792,0.621,1.423,1.355,1.505,2.425c0.098,1.292-0.507,2.373-1.701,2.868c-1.317,0.545-2.633,0.489-3.925-0.148
			c-0.428-0.211-0.625-0.504-0.595-0.98c0.023-0.35,0.005-0.703,0.005-1.055c0-0.248-0.072-0.503,0.337-0.54
			c0.332-0.03,0.51,0.02,0.612,0.364c0.177,0.596,0.528,1.095,1.02,1.477c0.608,0.471,1.574,0.425,1.988-0.074
			c0.423-0.511,0.311-1.193-0.299-1.812c-0.631-0.64-1.443-1.036-2.134-1.594c-0.875-0.708-1.49-1.531-1.312-2.758
			c0.215-1.479,1.778-2.435,3.42-2.395c0.461,0.011,0.93,0.12,1.376,0.25C161.516,45.615,161.512,45.631,161.446,46.746z"/>
		<path fill="#989898" d="M160.485,22.447c0.446-0.596,0.766-1.078,1.14-1.512c0.451-0.523,0.974-0.934,1.739-0.889
			c0.84,0.05,1.37,0.623,1.319,1.475c-0.048,0.812-0.548,1.213-1.434,1.127c-0.229-0.022-0.459-0.08-0.676-0.158
			c-1.01-0.363-2.066,0.339-2.082,1.423c-0.02,1.288-0.014,2.577,0,3.866c0.008,0.752,0.252,1.007,0.997,1.054
			c0.332,0.021,0.592,0.015,0.566,0.479c-0.028,0.493-0.374,0.348-0.607,0.326c-1.426-0.136-2.849-0.058-4.273,0.01
			c-0.267,0.013-0.52,0.042-0.529-0.357c-0.009-0.388,0.178-0.48,0.521-0.449c0.69,0.063,0.899-0.34,0.897-0.947
			c-0.005-1.499,0.002-2.999-0.01-4.498c-0.006-0.697-0.121-1.336-1.029-1.37c-0.201-0.008-0.271-0.147-0.287-0.332
			c-0.02-0.223,0.094-0.357,0.285-0.432c0.998-0.391,1.995-0.783,2.998-1.161c0.307-0.116,0.484-0.024,0.473,0.352
			C160.471,21.061,160.485,21.668,160.485,22.447z"/>
		<path fill="#989898" d="M130.949,22.58c0.511-0.737,0.877-1.36,1.4-1.863c0.397-0.381,0.828-0.681,1.412-0.682
			c1.093-0.002,1.748,0.969,1.336,1.99c-0.228,0.566-0.955,0.8-1.765,0.57c-1.533-0.436-2.386,0.21-2.383,1.814
			c0.002,1.078-0.016,2.157,0.036,3.232c0.047,0.989,0.168,1.094,1.158,1.196c0.322,0.033,0.477,0.14,0.461,0.465
			c-0.016,0.321-0.225,0.37-0.487,0.347c-1.518-0.132-3.036-0.08-4.553,0.003c-0.3,0.016-0.421-0.086-0.415-0.397
			c0.005-0.299,0.116-0.389,0.415-0.418c0.989-0.096,0.998-0.119,0.999-1.1c0.003-1.406-0.001-2.812,0.001-4.218
			c0.001-0.745-0.058-1.442-1.045-1.496c-0.175-0.01-0.232-0.119-0.234-0.283c-0.003-0.191-0.013-0.369,0.216-0.457
			c1.02-0.395,2.034-0.803,3.056-1.192c0.308-0.117,0.406,0.036,0.397,0.348C130.936,21.092,130.949,21.746,130.949,22.58z"/>
		<path fill="#989898" d="M140.766,49.259c0.001,1.219,0.001,2.439,0.001,3.658c0,0.512,0.095,0.947,0.743,0.961
			c0.302,0.007,0.398,0.191,0.381,0.47c-0.017,0.273-0.179,0.363-0.424,0.344c-1.355-0.104-2.71-0.16-4.065-0.001
			c-0.238,0.028-0.403-0.04-0.403-0.338c0-0.273,0.064-0.484,0.368-0.48c0.792,0.012,0.9-0.485,0.899-1.117
			c-0.001-1.5,0.018-3.001,0.034-4.501c0.006-0.609-0.133-1.086-0.814-1.292c-0.481-0.146-0.317-0.578-0.05-0.707
			c0.964-0.466,1.96-0.868,2.96-1.251c0.428-0.164,0.366,0.215,0.367,0.457C140.767,46.727,140.765,47.993,140.766,49.259z"/>
		<path fill="#989898" d="M139.521,42.459c-0.872,0.002-1.587-0.728-1.574-1.609c0.012-0.851,0.711-1.535,1.572-1.536
			c0.866-0.002,1.548,0.669,1.561,1.536C141.093,41.754,140.412,42.457,139.521,42.459z"/>
	</g>
</g>
</svg>
