<?xml version="1.0" encoding="utf-8"?>
<!-- Generator: Adobe Illustrator 17.0.0, SVG Export Plug-In . SVG Version: 6.00 Build 0)  -->
<!DOCTYPE svg PUBLIC "-//W3C//DTD SVG 1.1//EN" "http://www.w3.org/Graphics/SVG/1.1/DTD/svg11.dtd">
<svg version="1.1" id="Layer_1" xmlns="http://www.w3.org/2000/svg" xmlns:xlink="http://www.w3.org/1999/xlink" x="0px" y="0px"
	 width="210px" height="60px" viewBox="0 0 210 60" enable-background="new 0 0 210 60" xml:space="preserve">
<g>
	<path fill="#989898" d="M73.894,36.798c0.535-1.286,1.079-2.628,1.65-3.958c0.631-1.466,1.293-2.919,1.923-4.386
		c0.064-0.148,0.056-0.373-0.008-0.524c-1.903-4.446-3.819-8.886-5.727-13.33c-0.378-0.88-0.875-1.619-1.915-1.799
		c0-0.168,0-0.319,0-0.498c3.47,0,6.914,0,10.4,0c0.01,0.159,0.02,0.308,0.028,0.438c-0.053,0.041-0.074,0.072-0.101,0.076
		c-1.317,0.204-1.626,1.07-1.188,2.338c0.428,1.239,0.931,2.452,1.386,3.683c0.195,0.526,0.35,1.067,0.54,1.653
		c0.05-0.067,0.094-0.105,0.11-0.152c0.571-1.623,1.15-3.244,1.701-4.874c0.145-0.428,0.258-0.884,0.28-1.332
		c0.034-0.724-0.253-1.001-1.224-1.347c0-0.148,0-0.303,0-0.484c2.655,0,5.292,0,7.936,0c0.09,0.3,0.096,0.508-0.275,0.614
		c-0.634,0.181-1.049,0.652-1.315,1.227c-0.465,1.003-0.897,2.022-1.327,3.041c-1.112,2.636-2.189,5.288-3.34,7.906
		c-0.261,0.592-0.221,0.995,0.039,1.585c1.441,3.282,3.035,6.506,4.068,9.956c0.025,0.083,0.08,0.156,0.177,0.34
		c0.095-0.354,0.152-0.61,0.232-0.858c0.825-2.556,1.625-5.119,2.487-7.662c1.365-4.026,2.776-8.037,4.154-12.059
		c0.173-0.505,0.301-1.034,0.373-1.563c0.155-1.13-0.215-1.648-1.311-1.944c-0.091-0.025-0.181-0.053-0.293-0.086
		c0-0.153,0-0.306,0-0.492c3.325,0,6.643,0,10.001,0c0.013,0.145,0.027,0.293,0.043,0.472c-0.179,0.053-0.341,0.097-0.502,0.149
		c-0.874,0.284-1.542,0.828-1.895,1.676c-0.681,1.633-1.335,3.278-1.975,4.928c-3.421,8.811-6.832,17.626-10.255,26.435
		c-0.429,1.104-0.907,2.19-1.385,3.275c-0.051,0.117-0.259,0.248-0.375,0.232c-0.162-0.023-0.383-0.142-0.447-0.281
		c-0.947-2.07-1.905-4.135-2.793-6.231c-1.141-2.692-2.227-5.406-3.321-8.117c-0.186-0.461-0.297-0.952-0.475-1.535
		c-0.177,0.575-0.286,1.054-0.47,1.503c-1.069,2.602-2.146,5.201-3.241,7.792c-0.917,2.169-1.861,4.327-2.794,6.489
		c-0.094,0.218-0.168,0.412-0.491,0.412c-0.34-0.001-0.372-0.232-0.462-0.44c-4.765-10.993-9.529-21.987-14.294-32.981
		c-0.126-0.29-0.265-0.574-0.406-0.857c-0.6-1.212-1.425-2.166-2.844-2.43c0-0.17,0-0.322,0-0.5c3.802,0,7.58,0,11.406,0
		c0.014,0.149,0.028,0.297,0.039,0.426c-0.049,0.044-0.069,0.076-0.095,0.082c-1.391,0.318-1.825,0.95-1.409,2.331
		c0.326,1.085,0.8,2.127,1.238,3.176c2.203,5.281,4.416,10.558,6.626,15.836C73.156,35.051,73.536,35.948,73.894,36.798z"/>
	<path fill="#989898" d="M164.383,34.431c-0.346,0.124-0.479,0.01-0.573-0.327c-0.405-1.448-1.409-2.255-2.901-2.273
		c-2.358-0.029-4.716-0.008-7.112-0.008c0,3.821,0,7.627,0,11.463c0.119,0.011,0.24,0.032,0.361,0.032
		c2.802,0,5.605,0.003,8.407-0.007c0.458-0.002,0.918-0.038,1.373-0.092c1.248-0.149,2.146-0.838,2.71-1.924
		c0.354-0.682,0.588-1.425,0.907-2.218c0.067,0.007,0.228,0.025,0.43,0.047c-0.222,3.078-0.441,6.12-0.662,9.198
		c-7.493,0-14.971,0-22.47,0c0-0.161,0-0.313,0-0.459c0.034-0.024,0.057-0.051,0.084-0.056c1.711-0.357,2.259-1.003,2.26-2.734
		c0.005-9.706,0.005-19.411,0-29.117c-0.001-1.766-0.662-2.653-2.341-3.16c-0.007-0.136-0.014-0.287-0.024-0.479
		c7.206,0,14.383,0,21.605,0c0.012,0.124,0.035,0.26,0.038,0.395c0.044,2.406,0.08,4.812,0.132,7.218
		c0.008,0.349-0.045,0.567-0.489,0.457c-0.029-0.122-0.071-0.255-0.093-0.391c-0.274-1.699-1.407-2.754-3.134-2.797
		c-2.025-0.05-4.053-0.026-6.079-0.031c-0.995-0.003-1.991,0-3.018,0c0,3.227,0,6.414,0,9.603c0.065,0.018,0.109,0.042,0.153,0.042
		c2.454-0.004,4.908,0.015,7.362-0.028c1.248-0.022,2.128-0.812,2.508-2.095c0.116-0.393,0.116-0.393,0.569-0.35
		C164.383,27.702,164.383,31.067,164.383,34.431z"/>
	<path fill="#989898" d="M168.237,12.803c0-0.19,0-0.328,0-0.497c3.701,0,7.381,0,11.087,0c0,0.173,0,0.324,0,0.495
		c-0.121,0.024-0.228,0.044-0.333,0.068c-0.836,0.188-1.276,0.82-1.064,1.648c0.128,0.499,0.339,0.988,0.586,1.442
		c1.786,3.294,3.598,6.575,5.385,9.868c0.404,0.744,0.743,1.523,1.122,2.308c0.026-0.023,0.085-0.052,0.109-0.098
		c1.116-2.196,2.221-4.398,3.345-6.591c0.786-1.533,1.611-3.047,2.389-4.584c0.255-0.503,0.477-1.04,0.605-1.587
		c0.296-1.264-0.201-2.037-1.448-2.384c-0.104-0.029-0.206-0.066-0.309-0.1c0-0.167,0-0.318,0-0.492c3.44,0,6.853,0,10.289,0
		c0,0.174,0,0.326,0,0.518c-1.395,0.297-1.987,1.477-2.599,2.564c-2.352,4.174-4.651,8.378-6.969,12.571
		c-0.857,1.55-1.717,3.098-2.56,4.655c-0.114,0.211-0.19,0.472-0.191,0.71c-0.012,3.878-0.008,7.757-0.008,11.636
		c0,0.111,0.001,0.222,0.003,0.332c0.032,1.45,0.589,2.137,2.001,2.469c0.106,0.025,0.213,0.046,0.34,0.073c0,0.162,0,0.316,0,0.501
		c-3.742,0-7.486,0-11.252,0c0-0.162,0-0.314,0-0.476c0.341-0.107,0.69-0.195,1.023-0.327c0.722-0.287,1.15-0.822,1.242-1.599
		c0.046-0.392,0.077-0.788,0.078-1.182c0.006-3.799,0.007-7.599-0.005-11.398c-0.001-0.252-0.079-0.533-0.206-0.752
		c-3.38-5.846-6.771-11.685-10.16-17.526c-0.079-0.137-0.165-0.27-0.246-0.406C169.963,13.781,169.292,13.071,168.237,12.803z"/>
	<path fill="#989898" d="M142.461,39.058c0.18,0.029,0.328,0.052,0.512,0.081c-0.221,3.079-0.44,6.12-0.66,9.19
		c-7.022,0-14.01,0-21.017,0c0-0.176,0-0.328,0-0.46c0.031-0.03,0.041-0.048,0.053-0.05c1.889-0.363,2.298-1.212,2.296-2.951
		c-0.011-9.579-0.007-19.159-0.001-28.738c0.001-1.123-0.181-2.161-1.204-2.83c-0.339-0.222-0.729-0.364-1.141-0.564
		c0-0.09,0-0.243,0-0.428c3.882,0,7.754,0,11.673,0c0.013,0.144,0.026,0.293,0.041,0.463c-0.327,0.087-0.635,0.147-0.928,0.249
		c-1.066,0.373-1.724,1.087-1.822,2.248c-0.025,0.299-0.055,0.6-0.055,0.899c-0.003,8.819-0.002,17.639-0.002,26.458
		c0,0.154,0,0.309,0,0.49c0.183,0.012,0.32,0.028,0.458,0.028c2.312,0,4.624-0.034,6.935,0.005c2.657,0.045,4.02-1.058,4.76-3.756
		C142.383,39.302,142.413,39.212,142.461,39.058z"/>
	<path fill="#989898" d="M115.964,47.828c0,0.177,0,0.329,0,0.506c-3.753,0-7.48,0-11.231,0c0-0.169,0-0.321,0-0.502
		c0.279-0.078,0.569-0.144,0.848-0.24c0.886-0.305,1.372-0.929,1.433-1.866c0.031-0.473,0.053-0.948,0.053-1.423
		c0.003-9.244,0.002-18.488,0.001-27.731c0-0.269-0.004-0.538-0.02-0.807c-0.096-1.687-0.681-2.441-2.316-2.97
		c0-0.145,0-0.297,0-0.484c3.736,0,7.461,0,11.197,0c0.142,0.331,0.053,0.496-0.311,0.603c-1.151,0.339-1.879,1.276-1.96,2.469
		c-0.018,0.268-0.026,0.538-0.026,0.807c0.001,9.608,0.003,19.216,0.005,28.823c0,0.158,0.004,0.317,0.011,0.475
		c0.06,1.253,0.594,1.908,1.811,2.22C115.613,47.745,115.767,47.78,115.964,47.828z"/>
	<path fill="#989898" d="M31.759,53.398c-0.902,0-1.806-0.026-2.707,0.005c-3.178,0.109-6.106-0.808-8.847-2.296
		c-4.932-2.677-7.892-6.894-9.244-12.284c-0.893-3.561-1.072-7.186-0.906-10.839c0.128-2.809,0.485-5.581,1.408-8.248
		c2.237-6.467,6.77-10.493,13.329-12.194c5.26-1.364,10.549-1.321,15.709,0.5c6.458,2.279,10.492,6.826,12.16,13.475
		c0.934,3.722,1.102,7.503,0.895,11.312c-0.15,2.759-0.55,5.482-1.501,8.088c-2.393,6.556-7.137,10.447-13.829,12.107
		c-1.159,0.288-2.328,0.423-3.524,0.383C33.723,53.372,32.74,53.398,31.759,53.398z M11.859,30.153
		c0.036,3.899,0.28,7.191,1.183,10.403c0.739,2.63,1.917,5.01,3.892,6.957c2.771,2.731,6.19,3.96,9.97,4.369
		c3.397,0.368,6.796,0.356,10.191-0.011c2.137-0.231,4.217-0.716,6.108-1.78c3.801-2.138,6.153-5.414,7.368-9.551
		c0.831-2.831,1.09-5.742,1.172-8.676c0.098-3.491-0.053-6.964-0.793-10.389c-0.576-2.669-1.486-5.208-3.176-7.391
		c-2.555-3.302-6.029-4.981-10.093-5.522c-3.991-0.531-7.988-0.532-11.972,0.092c-2.447,0.383-4.773,1.121-6.825,2.559
		c-3.126,2.191-4.957,5.259-5.939,8.884C12,23.582,11.845,27.15,11.859,30.153z"/>
	<path fill="#989898" d="M24.684,36.922c2.045-2.643,4.13-5.339,6.234-8.058c-2.282-2.724-4.597-5.486-6.897-8.231
		c2.268,0,4.643,0,7.124,0c-0.219-2.632,0.268-4.974,2.521-6.591c-0.108-0.102-0.14-0.144-0.149-0.139
		c-0.915,0.436-1.891,0.466-2.877,0.455c-1.535-0.018-3.071-0.042-4.606-0.021c-1.156,0.016-2.214,0.348-3.066,1.184
		c-0.03,0.029-0.081,0.036-0.21,0.091c0.015-0.156-0.004-0.274,0.04-0.361c0.937-1.878,1.802-2.978,4.38-2.998
		c2.485-0.019,4.971,0.012,7.456,0c0.443-0.002,0.885-0.108,1.437-0.18c-0.134,0.156-0.188,0.242-0.263,0.302
		c-1.29,1.035-1.964,2.371-1.967,4.032c-0.002,1.375,0,2.75,0,4.183c1.888,0,3.823,0,5.763,0c-2.004,2.557-3.977,5.076-5.954,7.599
		c2.257,2.853,4.839,5.478,6.762,8.544c1.775-4.126,3.566-8.269,5.332-12.423c0.207-0.487,0.329-1.026,0.394-1.553
		c0.107-0.868-0.317-1.492-1.129-1.818c-0.109-0.044-0.205-0.118-0.307-0.178c0.014-0.037,0.028-0.075,0.042-0.112
		c1.807,0,3.614,0,5.487,0c-0.062,0.106-0.089,0.229-0.158,0.26c-0.621,0.278-0.981,0.798-1.25,1.377
		c-0.781,1.676-1.544,3.361-2.304,5.047c-1.74,3.863-3.476,7.727-5.206,11.594c-0.282,0.629-0.525,1.276-0.806,1.962
		c-2.262-2.851-4.492-5.663-6.726-8.479c0,0.105-0.001,0.238,0,0.37c0.024,3.799,0.056,7.598,0.06,11.398
		c0.001,0.515-0.088,1.045-0.226,1.543c-0.653,2.341-2.621,3.635-5.047,3.363c-0.765-0.086-1.493-0.264-2.129-0.726
		c-1.1-0.8-1.531-2.223-1.033-3.462c0.316-0.787,0.898-1.257,1.745-1.346c0.712-0.075,1.326,0.151,1.718,0.778
		c0.386,0.617,0.375,1.284,0.004,1.89c-0.159,0.26-0.496,0.408-0.747,0.615c-0.125,0.102-0.326,0.218-0.33,0.333
		c-0.004,0.132,0.144,0.311,0.274,0.398c0.911,0.609,2.384,0.227,2.8-0.789c0.24-0.587,0.4-1.252,0.405-1.883
		c0.023-3.118-0.02-6.237-0.034-9.356c-0.007-1.424-0.001-2.847-0.001-4.416c-2.494,3.302-4.918,6.511-7.34,9.716
		c-0.775-1.621-1.529-3.234-2.313-4.832c-2.186-4.457-4.378-8.911-6.587-13.357c-0.345-0.694-0.628-1.467-1.431-1.814
		c-0.023-0.01-0.017-0.086-0.033-0.178c1.927,0,3.839,0,5.876,0c-0.145,0.139-0.208,0.231-0.295,0.278
		c-0.879,0.477-1.156,1.125-0.86,2.092c0.092,0.3,0.224,0.591,0.36,0.875c1.699,3.534,3.412,7.06,5.096,10.601
		C24.095,35.308,24.382,36.164,24.684,36.922z M33.744,21.814c0,1.217,0,2.383,0,3.541c0.961-1.179,1.913-2.346,2.887-3.541
		C35.673,21.814,34.748,21.814,33.744,21.814z M31.177,21.818c-0.971,0-1.886,0-2.86,0c0.977,1.198,1.913,2.344,2.86,3.506
		C31.177,24.154,31.177,23.019,31.177,21.818z"/>
</g>
</svg>
