<?xml version="1.0" encoding="utf-8"?>
<!-- Generator: Adobe Illustrator 17.0.0, SVG Export Plug-In . SVG Version: 6.00 Build 0)  -->
<!DOCTYPE svg PUBLIC "-//W3C//DTD SVG 1.1//EN" "http://www.w3.org/Graphics/SVG/1.1/DTD/svg11.dtd">
<svg version="1.1" id="Layer_1" xmlns="http://www.w3.org/2000/svg" xmlns:xlink="http://www.w3.org/1999/xlink" x="0px" y="0px"
	 width="210px" height="60px" viewBox="0 0 210 60" enable-background="new 0 0 210 60" xml:space="preserve">
<path fill="#989898" d="M60.187,54.964c0,0-0.906-2.021-2.021-4.46c-1.045-2.439-2.021-4.599-2.16-4.739
	c-0.279-0.418-0.627-0.697-1.185-0.906c-0.279-0.07-0.488-0.139-0.488-0.279c0-0.139,0.209-0.139,2.718-0.139
	c2.648,0,2.787,0,2.787,0.139c0,0.139-0.07,0.139-0.418,0.209c-0.557,0.139-0.976,0.348-1.115,0.557
	c-0.07,0.07-0.07,0.279-0.07,0.488c0.07,0.418,0.627,1.881,1.394,3.554c0.906,1.951,1.185,2.578,1.324,2.509
	c0.209-0.07,2.16-4.739,2.369-5.714c0.07-0.418,0.139-0.557,0.07-0.697c-0.139-0.279-0.697-0.557-1.254-0.697
	c-0.348-0.07-0.418-0.139-0.418-0.209c0-0.139,0.07-0.139,2.3-0.139c2.23,0,2.3,0,2.3,0.139c0,0.139-0.139,0.209-0.418,0.279
	c-0.348,0.07-0.557,0.209-0.836,0.557c-0.557,0.557-1.603,2.578-3.972,8.014C60.396,54.894,60.256,55.103,60.187,54.964
	L60.187,54.964z M23.115,54.685c-1.672-0.279-2.439-1.045-2.787-2.648c-0.07-0.279-0.209-1.394-0.279-2.509
	c-0.348-3.205-0.488-3.833-1.045-4.32c-0.209-0.209-0.418-0.279-0.627-0.279c-0.767-0.07-0.767-0.139-0.767-0.279
	c0-0.139,0-0.209,1.045-0.209c0.557,0,1.463-0.07,2.021-0.07h0.976l0.07,0.348c0,0.209,0.07,1.324,0.139,2.509
	c0.139,2.439,0.348,4.46,0.418,4.948c0.139,0.418,0.557,0.976,0.976,1.254c0.557,0.348,1.115,0.488,1.951,0.488
	c1.185,0,2.091-0.418,2.509-1.185c0.348-0.697,0.767-3.066,0.836-4.878c0.07-1.394,0-1.812-0.348-2.3
	c-0.209-0.348-0.836-0.697-1.185-0.697c-0.279,0-0.418-0.07-0.418-0.209c0-0.139,0.07-0.139,2.648-0.139
	c2.509,0,2.648,0,2.648,0.139c0,0.139-0.209,0.209-0.557,0.209c-0.279,0-0.836,0.279-1.115,0.488
	c-0.488,0.488-0.836,1.463-0.976,2.996c-0.209,2.23-0.348,3.066-0.488,3.624c-0.418,1.533-1.185,2.439-2.509,2.718
	C25.554,54.824,23.951,54.824,23.115,54.685z M94.332,54.615c-0.418-0.07-1.254-0.348-1.672-0.557l-0.418-0.209v-1.603
	c0-1.603,0-1.603,0.139-1.603s0.209,0.139,0.348,0.697c0.488,1.881,1.533,2.857,2.857,2.787c1.115-0.139,1.812-1.115,1.533-2.16
	c-0.07-0.348-0.139-0.488-0.557-0.836c-0.348-0.348-0.627-0.557-1.672-1.045c-0.697-0.348-1.394-0.767-1.603-0.906
	c-0.976-0.697-1.324-2.021-0.767-3.136c0.488-1.115,1.742-1.812,3.345-1.812c0.767,0,1.254,0.07,2.021,0.348
	c0.418,0.139,0.418,0.209,0.418,0.488v1.394c-0.07,1.045-0.07,1.115-0.209,1.045c-0.139,0-0.209-0.139-0.348-0.627
	c-0.279-1.045-0.697-1.672-1.324-1.951c-0.836-0.418-1.672-0.209-2.16,0.488c-0.348,0.488-0.348,0.836-0.209,1.394
	c0.209,0.697,0.627,1.045,2.16,1.812c1.394,0.697,1.742,0.906,2.16,1.394c0.697,0.767,0.836,1.951,0.348,2.927
	c-0.348,0.697-1.254,1.324-2.3,1.533C96.004,54.685,94.68,54.685,94.332,54.615L94.332,54.615z M176.489,54.476
	c-0.348-0.07-0.836-0.279-1.115-0.348l-0.418-0.209v-1.603c0-1.463,0-1.603,0.139-1.603c0.139,0,0.139,0.139,0.279,0.697
	c0.488,2.021,1.742,3.136,3.136,2.787c1.045-0.279,1.603-1.533,1.115-2.509c-0.279-0.557-0.697-0.836-2.091-1.533
	c-2.091-0.976-2.578-1.603-2.578-2.927c0-1.045,0.418-1.742,1.254-2.3c1.185-0.767,2.927-0.836,4.39-0.209l0.348,0.139l-0.07,0.836
	c-0.07,1.742-0.139,1.951-0.279,1.951c-0.139,0-0.139-0.07-0.209-0.348c-0.279-1.045-0.697-1.812-1.254-2.16
	c-0.418-0.279-1.185-0.348-1.603-0.139c-0.627,0.279-0.976,0.836-0.976,1.533c0,0.906,0.557,1.463,2.091,2.23
	c1.742,0.836,2.3,1.254,2.648,2.091c0.279,0.557,0.209,1.603-0.07,2.16c-0.348,0.767-1.115,1.324-2.16,1.603
	C178.51,54.754,177.326,54.685,176.489,54.476L176.489,54.476z M186.036,54.476c-0.279-0.07-0.836-0.279-1.115-0.348l-0.557-0.209
	v-1.603c0-1.603,0-1.603,0.139-1.603c0.139,0,0.139,0.07,0.209,0.348c0.348,1.324,0.697,2.021,1.185,2.578
	c1.045,0.976,2.648,0.767,3.205-0.348c0.348-0.767,0.209-1.603-0.488-2.16c-0.139-0.139-0.906-0.557-1.672-0.976
	c-2.021-1.045-2.509-1.533-2.578-2.787c-0.07-1.045,0.348-1.881,1.254-2.439c1.185-0.767,2.927-0.836,4.46-0.209l0.348,0.139
	l-0.07,0.976c-0.07,1.533-0.07,1.742-0.279,1.742c-0.07,0-0.209-0.209-0.348-0.697c-0.279-0.906-0.697-1.533-1.185-1.812
	c-0.348-0.209-0.488-0.209-0.976-0.209c-0.418,0-0.627,0.07-0.836,0.209c-0.627,0.418-0.906,1.115-0.697,1.881
	c0.209,0.627,0.697,1.045,2.23,1.812c1.742,0.906,2.091,1.185,2.509,1.951c0.209,0.348,0.209,0.488,0.209,1.115
	c0,0.627,0,0.767-0.209,1.185c-0.418,0.836-1.045,1.324-2.091,1.603C187.918,54.685,186.803,54.685,186.036,54.476L186.036,54.476z
	 M89.245,54.476c-0.488,0-1.115-0.139-1.254-0.139c-1.045-0.348-2.021-1.254-3.066-2.857c-0.488-0.767-1.254-2.16-1.254-2.23
	l0.418-0.139c1.115-0.348,1.533-0.906,1.533-2.021c0-0.697-0.139-1.115-0.627-1.533c-0.488-0.418-1.324-0.767-2.021-0.767h-0.348
	v3.833c0,4.251,0.07,4.32,0.557,4.878c0.279,0.279,0.697,0.418,1.394,0.557c0.348,0.07,0.418,0.07,0.418,0.209
	c0,0.139-0.139,0.139-2.996,0.139c-2.927,0-2.996,0-2.996-0.139s0.139-0.139,0.557-0.279c0.697-0.139,1.045-0.348,1.254-0.767
	c0.139-0.348,0.139-0.348,0.139-3.763v-3.415l-0.209-0.348c-0.209-0.418-0.488-0.627-1.254-0.767
	c-0.488-0.139-0.557-0.139-0.557-0.279c0-0.139,0.07-0.139,2.927-0.139c3.275,0,3.484,0,4.529,0.488
	c0.906,0.418,1.324,1.045,1.324,1.951c0,0.976-0.488,1.672-1.603,2.23l-0.488,0.209l0.209,0.348
	c0.557,1.115,2.021,2.927,2.996,3.624c0.418,0.348,0.976,0.627,1.463,0.767c0.209,0.07,0.279,0.139,0.279,0.279
	c0,0.139-0.07,0.209-0.209,0.139C90.22,54.545,89.733,54.545,89.245,54.476L89.245,54.476z M160.601,54.476
	c-0.488,0-1.045-0.139-1.324-0.209c-1.254-0.348-2.439-1.603-3.833-4.111l-0.557-0.976l0.418-0.139
	c1.115-0.348,1.603-0.836,1.672-1.742c0.139-1.394-0.767-2.3-2.578-2.509l-0.418-0.07v2.927c0,1.603,0,3.415,0.07,4.042
	c0.07,1.672,0.348,2.021,1.603,2.23c0.557,0.07,0.627,0.139,0.627,0.279c0,0.139-0.139,0.139-2.927,0.139
	c-2.787,0-2.927,0-2.927-0.139s0.139-0.139,0.488-0.279c1.185-0.279,1.324-0.557,1.394-2.509c0.07-0.836,0.07-2.23,0-3.415
	c-0.07-1.951-0.07-2.091-0.279-2.439c-0.209-0.418-0.557-0.627-1.324-0.767c-0.418-0.07-0.418-0.139-0.418-0.279v-0.209h2.927
	c3.205,0.07,3.554,0.07,4.46,0.557c0.557,0.279,0.906,0.627,1.115,1.045c0.209,0.418,0.209,1.463,0,1.881
	c-0.209,0.418-0.767,0.976-1.324,1.254c-0.279,0.139-0.488,0.279-0.488,0.348c0,0.139,0.836,1.463,1.394,2.091
	c0.627,0.767,1.603,1.742,2.16,2.021c0.209,0.139,0.627,0.348,0.906,0.418c0.418,0.139,0.488,0.209,0.488,0.348
	C161.925,54.615,162.065,54.615,160.601,54.476L160.601,54.476z M33.079,54.267c0-0.139,0.07-0.139,0.418-0.209
	c0.767-0.139,1.254-0.557,1.394-1.115c0.209-0.836,0.418-3.763,0.279-5.644l-0.07-1.115l-0.488-0.488
	c-0.488-0.488-0.836-0.697-1.533-0.906c-0.139-0.07-0.279-0.139-0.279-0.209c0-0.139,0.139-0.139,1.672-0.139h1.672l0.557,0.697
	c0.697,0.836,1.324,1.533,2.857,3.066c0.627,0.697,1.603,1.672,2.16,2.23l1.045,1.045c0.07,0,0.07-3.693,0-4.599
	c-0.07-0.836-0.209-1.254-0.488-1.533c-0.279-0.279-0.906-0.488-1.533-0.557c-0.418-0.07-0.557-0.07-0.557-0.209
	s0.139-0.139,2.648-0.139c2.509,0,2.648,0,2.648,0.139s-0.07,0.139-0.418,0.209c-0.488,0.139-0.906,0.348-1.045,0.627
	c-0.348,0.697-0.488,3.763-0.418,6.968l0.07,1.951h-0.279c-0.209,0-0.348-0.07-1.045-0.836c-0.418-0.488-1.603-1.672-2.578-2.718
	s-2.23-2.3-2.718-2.787c-0.488-0.557-0.976-0.976-1.045-0.976c-0.07,0-0.07,0.348-0.07,2.369c0.07,2.578,0.139,3.275,0.348,3.693
	c0.279,0.557,0.697,0.767,1.812,0.906c0.488,0.07,0.627,0.139,0.627,0.209c0,0.139-0.139,0.139-2.787,0.139
	C33.219,54.406,33.079,54.406,33.079,54.267L33.079,54.267z M47.434,54.267c0-0.07,0.07-0.139,0.139-0.209
	c1.394-0.279,1.672-0.488,1.812-1.603c0.139-0.836,0.139-5.366,0-5.993c-0.139-0.627-0.209-0.906-0.418-1.115
	c-0.139-0.209-0.767-0.418-1.254-0.488c-0.279-0.07-0.348-0.07-0.348-0.209c0-0.139,0.07-0.139,2.927-0.139
	c2.718,0,2.927,0,2.927,0.139c0,0.07-0.139,0.139-0.557,0.279c-0.627,0.139-1.115,0.488-1.324,0.906
	c-0.139,0.348-0.209,0.348-0.139,3.484c0,2.787,0,3.205,0.139,3.624c0.209,0.697,0.697,0.976,1.672,1.185
	c0.209,0.07,0.279,0.07,0.279,0.209c0,0.139-0.07,0.139-2.927,0.139C47.504,54.406,47.434,54.406,47.434,54.267L47.434,54.267z
	 M67.573,54.267c0-0.139,0.07-0.139,0.348-0.209c0.488-0.07,1.115-0.348,1.254-0.488c0.348-0.418,0.488-1.394,0.488-4.32
	c0-3.275-0.139-3.763-0.906-4.181c-0.209-0.139-0.557-0.209-0.767-0.279c-0.279-0.07-0.418-0.07-0.418-0.209
	c0-0.139,0.139-0.139,4.32-0.139h4.32l-0.07,0.139c0,0.07-0.07,0.697-0.07,1.324v1.185h-0.209c-0.139,0-0.209-0.07-0.209-0.07
	c-0.209-0.767-0.348-1.045-0.697-1.394c-0.557-0.557-0.976-0.697-2.439-0.697h-1.115v3.902h0.836c1.045,0,1.812-0.07,1.951-0.279
	c0.07-0.07,0.209-0.348,0.279-0.627c0.139-0.418,0.209-0.557,0.348-0.557s0.139,0,0.139,0.906c0,0.488,0,1.394-0.07,2.021
	c-0.07,0.976-0.07,1.115-0.209,1.115c-0.07,0-0.139-0.07-0.209-0.348c-0.07-0.557-0.279-0.906-0.697-1.115
	c-0.279-0.139-0.488-0.139-1.394-0.139h-1.115v1.603c0,1.881,0.07,2.091,0.697,2.369c0.348,0.139,0.488,0.209,1.115,0.209
	c0.697,0,0.767,0,1.254-0.279c0.836-0.418,1.533-1.185,1.951-2.369c0.139-0.348,0.209-0.488,0.348-0.488
	c0.07,0,0.139,0.07,0.139,0.07c0,0.279-0.488,2.509-0.697,3.066l-0.139,0.418h-4.251C67.643,54.406,67.573,54.406,67.573,54.267
	L67.573,54.267z M101.231,54.267c0-0.07,0.07-0.139,0.209-0.209c1.045-0.209,1.394-0.418,1.603-0.906
	c0.209-0.557,0.279-1.812,0.279-4.32c-0.07-2.509-0.07-2.996-0.418-3.484c-0.139-0.209-0.767-0.488-1.324-0.557
	c-0.209-0.07-0.279-0.07-0.279-0.209c0-0.139,0.139-0.139,2.927-0.139c2.787,0,2.927,0,2.927,0.139c0,0.139-0.07,0.139-0.418,0.209
	c-0.836,0.209-1.324,0.557-1.533,1.185c-0.139,0.418-0.139,5.575,0,6.481c0.139,0.976,0.488,1.254,1.463,1.533
	c0.488,0.139,0.627,0.139,0.627,0.279c0,0.139-0.139,0.139-2.927,0.139C101.231,54.406,101.231,54.406,101.231,54.267
	L101.231,54.267z M110.777,54.267c0-0.139,0.07-0.139,0.279-0.209c0.557-0.07,1.254-0.348,1.394-0.557
	c0.139-0.139,0.279-0.418,0.348-0.697c0.139-0.418,0.139-0.906,0.139-4.042v-3.554h-0.976c-1.254,0-1.742,0.139-2.021,0.557
	c-0.209,0.279-0.488,1.045-0.557,1.603c0,0.279-0.07,0.348-0.209,0.348c-0.07,0-0.139-0.07-0.209-0.07
	c-0.07-0.07,0.07-2.021,0.139-2.787l0.07-0.279h9.338l0.07,1.394c0.07,0.767,0.139,1.463,0.139,1.533
	c0.07,0.139,0,0.209-0.139,0.139c-0.209,0-0.209-0.07-0.348-0.557c-0.279-0.976-0.627-1.463-1.254-1.672
	c-0.348-0.07-1.394-0.139-2.021-0.139h-0.209v3.415c0,4.739,0.07,4.948,1.185,5.296c0.209,0.07,0.488,0.139,0.697,0.139
	c0.279,0.07,0.348,0.07,0.348,0.209c0,0.139-0.07,0.139-3.066,0.139C110.917,54.406,110.777,54.406,110.777,54.267L110.777,54.267z
	 M122.763,54.267c0-0.139,0.07-0.139,0.279-0.209c0.976-0.139,1.533-0.488,1.742-1.045c0.07-0.139,0.139-0.627,0.139-1.254
	l0.07-0.976l-0.348-0.627c-0.976-1.742-2.578-4.181-3.136-4.739c-0.279-0.279-0.836-0.488-1.254-0.627
	c-0.279-0.07-0.348-0.07-0.348-0.209s0.07-0.139,2.578-0.139c2.439,0,2.578,0,2.578,0.139s-0.07,0.139-0.348,0.209
	c-0.209,0.07-0.488,0.209-0.557,0.279c-0.418,0.348-0.279,0.767,1.185,2.996c1.115,1.672,0.906,1.603,1.672,0.209
	c0.557-1.115,1.045-2.23,1.045-2.648c0-0.418-0.139-0.557-0.627-0.767c-0.209-0.07-0.348-0.139-0.348-0.279s0.07-0.139,2.021-0.139
	c1.951,0,2.021,0,2.021,0.139s-0.139,0.139-0.488,0.279c-0.627,0.139-1.115,0.557-1.533,1.115c-0.418,0.488-1.185,1.951-1.881,3.415
	l-0.488,0.976v1.115c0,1.254,0.139,1.672,0.488,2.021c0.279,0.209,0.906,0.488,1.324,0.557c0.279,0.07,0.348,0.07,0.348,0.209
	c0,0.139-0.07,0.139-3.066,0.139C122.833,54.406,122.763,54.406,122.763,54.267L122.763,54.267z M139.069,54.267
	c0-0.139,0.07-0.139,0.348-0.209c0.488-0.07,1.115-0.348,1.254-0.557c0.348-0.348,0.418-0.767,0.418-3.693
	c0.07-4.251-0.07-4.599-1.533-4.878c-0.418-0.07-0.488-0.139-0.488-0.279s0.07-0.139,0.557-0.209c0.279,0,1.603-0.07,2.927,0
	c2.3,0,2.439,0.07,3.136,0.209c1.394,0.348,2.16,0.836,2.509,1.603c0.348,0.767,0.209,2.021-0.279,2.648
	c-0.488,0.697-1.533,1.185-2.857,1.394c-0.906,0.139-1.045,0.139-1.045-0.07c0-0.139,0.07-0.209,0.488-0.279
	c1.394-0.279,1.812-0.767,1.881-2.091c0-0.557,0-0.836-0.07-1.115c-0.139-0.488-0.697-1.045-1.185-1.324
	c-0.488-0.279-1.463-0.488-1.951-0.488h-0.348v3.902c0,3.554,0.07,3.972,0.139,4.32c0.209,0.627,0.697,0.906,1.742,1.045
	c0.279,0.07,0.348,0.07,0.348,0.209c0,0.139-0.139,0.139-2.996,0.139C139.139,54.406,139.069,54.406,139.069,54.267L139.069,54.267z
	 M163.04,54.267c0-0.139,0.139-0.139,0.627-0.279c0.836-0.209,1.115-0.418,1.324-1.115c0.139-0.418,0.139-0.906,0.139-3.554
	c0-3.275,0-3.415-0.418-3.902c-0.209-0.279-0.557-0.488-1.185-0.557c-0.348-0.07-0.488-0.139-0.488-0.209
	c0-0.139,0.209-0.139,4.251-0.139h4.251l-0.07,1.254c0,0.697-0.07,1.324-0.07,1.394s-0.07,0.07-0.209,0.07
	c-0.139,0-0.209-0.209-0.279-0.557c-0.418-1.324-1.185-1.672-3.275-1.672h-0.836l-0.07,0.418c0,0.209-0.07,1.115-0.07,1.951v1.533
	l1.185-0.07c0.767,0,1.324-0.07,1.463-0.139c0.209-0.139,0.418-0.488,0.557-0.906c0.07-0.209,0.07-0.279,0.209-0.279h0.209v1.394
	c0,1.881-0.07,2.509-0.209,2.509c-0.07,0-0.139-0.07-0.209-0.418c-0.07-0.488-0.279-0.836-0.557-1.045
	c-0.209-0.139-0.418-0.139-1.394-0.139h-1.185v1.324c0,1.394,0.07,2.021,0.279,2.369c0.418,0.627,2.16,0.697,3.136,0.139
	c0.697-0.418,1.394-1.394,1.672-2.3c0.07-0.279,0.139-0.418,0.279-0.418c0.07,0,0.139,0.07,0.139,0.139
	c0,0.279-0.418,2.3-0.627,2.857l-0.139,0.557h-4.251C163.18,54.406,163.04,54.406,163.04,54.267L163.04,54.267z M29.177,33.083
	c-3.833-0.418-6.899-1.742-9.198-4.111c-1.045-1.045-1.672-1.951-2.369-3.345c-1.045-2.16-1.463-4.042-1.463-6.69
	c0-1.603,0.139-2.578,0.418-3.902c1.185-4.739,4.878-8.292,9.965-9.547C28.062,5.139,29.177,5,30.919,5
	c6.899,0,12.055,3.415,13.937,9.129c1.045,3.136,1.045,6.759,0.07,9.686c-1.115,3.415-3.554,6.132-6.968,7.735
	c-1.603,0.767-3.345,1.254-5.226,1.463C32.104,33.152,29.804,33.152,29.177,33.083L29.177,33.083z M32.801,31.759
	c3.554-0.557,5.853-2.718,6.968-6.69c0.697-2.509,0.906-5.923,0.488-8.78c-0.488-3.136-1.394-5.296-3.205-7.177
	c-1.254-1.324-2.787-2.23-4.46-2.648c-0.767-0.209-0.976-0.209-2.091-0.209c-2.648,0-4.529,0.767-6.202,2.509
	c-2.16,2.23-3.415,6.55-3.066,11.149c0.279,4.181,1.254,6.759,3.484,9.059C27.017,31.271,29.735,32.247,32.801,31.759L32.801,31.759
	z M116.491,33.083c-0.139,0-0.488-0.07-0.906-0.139c-0.906-0.139-2.369-0.418-3.205-0.767c-3.972-1.394-6.968-4.39-8.292-8.292
	c-0.488-1.533-0.767-2.996-0.767-4.878c0-1.812,0.209-3.275,0.697-4.739c1.672-5.017,6.132-8.432,11.986-9.129
	c0.906-0.07,3.205-0.07,4.181,0c5.087,0.557,9.059,3.136,11.08,7.177c1.533,2.996,1.951,6.69,1.185,10.174
	c-0.348,1.672-1.115,3.415-2.091,4.808c-0.557,0.767-1.951,2.23-2.648,2.787c-2.787,2.091-5.993,3.066-9.825,3.066
	C117.328,33.083,116.631,33.083,116.491,33.083L116.491,33.083z M119.836,31.828c4.39-0.488,6.968-3.484,7.805-9.198
	c0.209-1.324,0.209-4.808,0-6.132c-0.348-2.3-1.045-4.251-2.021-5.714c-2.3-3.415-5.435-4.948-9.129-4.39
	c-1.881,0.279-3.205,0.906-4.46,2.091c-1.881,1.742-2.996,4.529-3.345,8.083c-0.139,1.185-0.07,4.251,0.139,5.296
	c0.279,1.672,0.627,2.927,1.254,4.181c0.557,1.115,1.045,1.881,1.951,2.857C114.192,31.201,116.7,32.177,119.836,31.828z
	 M47.365,31.828c0-0.488,0.07-0.488,0.488-0.488c0.139,0,0.557-0.07,0.976-0.139c2.787-0.488,4.251-1.533,6.411-4.599
	c1.463-2.091,4.669-6.62,4.669-6.69c0-0.07-0.07-0.279-0.209-0.488c-0.139-0.209-1.185-1.951-2.369-3.833s-2.3-3.763-2.578-4.111
	c-1.463-2.021-2.996-3.345-4.739-4.111c-0.488-0.209-1.742-0.488-2.091-0.488c-0.488,0-0.557-0.07-0.557-0.488V5.976h8.641
	l0.697,1.115c0.418,0.627,1.881,2.927,3.275,5.087c1.394,2.23,2.578,3.972,2.648,3.972c0.139,0,1.394-1.951,2.369-3.484
	c1.533-2.509,2.021-3.972,1.603-4.669c-0.279-0.557-1.185-0.976-2.16-1.045l-0.488-0.07V6.045h11.01v0.836h-0.279
	c-1.115,0.07-2.648,0.488-3.624,1.045c-0.697,0.348-1.951,1.324-2.369,1.812c-0.767,0.906-1.394,1.742-2.857,4.042
	c-2.3,3.484-2.369,3.554-2.3,3.624c0.07,0.139,5.923,9.198,6.341,9.825c1.603,2.3,3.136,3.484,5.017,3.972
	c0.557,0.139,0.767,0.139,2.23,0.139c1.812,0,2.857-0.07,3.902-0.348c1.812-0.488,2.927-1.394,3.415-2.996l0.209-0.627v-8.362
	c0-5.853,0-8.571-0.07-9.059C84.297,7.996,83.6,7.3,81.44,6.881c-0.418-0.07-0.906-0.139-1.045-0.209
	c-0.279-0.07-0.279-0.07-0.279-0.418V5.906h20.208l0.139,2.718c0.07,1.463,0.139,2.718,0.139,2.787c0,0.07-0.139,0.07-0.348,0.07
	h-0.348l-0.139-0.557c-0.488-2.16-1.951-3.275-4.669-3.693c-0.627-0.07-1.742-0.139-3.554-0.139l-2.718-0.07v10.731l2.927-0.07
	c2.578-0.07,4.111-0.139,4.529-0.279c0.139-0.07,0.139,0.139,0.139,3.066v3.136h-0.279c-0.348,0-0.418-0.07-0.418-0.557
	c0-0.906-0.418-2.16-0.836-2.648c-0.767-0.767-1.812-1.045-4.46-0.906l-1.533,0.07v4.46c0,4.739,0.07,5.017,0.418,5.784
	c0.209,0.418,0.767,0.906,1.254,1.115c0.348,0.139,1.881,0.488,2.996,0.627c0.279,0.07,0.279,0.07,0.279,0.418v0.348H67.922
	l-3.554-5.575c-1.951-3.066-3.624-5.575-3.624-5.575c-0.07,0-0.557,0.557-1.742,2.23c-1.672,2.3-2.996,4.669-3.205,5.575
	c-0.209,1.115,0.488,1.881,2.369,2.509l0.557,0.209v0.697H47.295v-0.557H47.365z M139.208,28.693c0-1.951,0.07-5.853,0.139-8.78
	c0.07-5.993,0.07-10.383-0.07-11.01c-0.279-0.976-0.697-1.603-1.394-1.812c-0.209-0.07-0.697-0.139-1.115-0.139l-0.767-0.07
	l0.07-0.348c0-0.209,0.07-0.348,0.07-0.348c0.07-0.07,5.157-0.209,7.665-0.209c3.066-0.07,4.46,0,6.063,0.279
	c3.624,0.557,5.853,1.951,6.62,4.181c0.279,0.836,0.348,2.23,0.139,3.136c-0.627,2.439-2.718,4.46-5.784,5.435l-0.627,0.209
	l0.209,0.279c0.139,0.139,0.767,0.906,1.463,1.672c5.714,6.481,9.407,9.616,12.125,10.104c0.557,0.07,1.394,0.07,2.3-0.139
	c1.603-0.348,2.648-1.254,2.996-2.857c0.279-0.976,0.279-1.812,0.279-9.895c0-7.317-0.07-8.014-0.139-8.571
	c-0.279-1.185-0.836-1.881-1.742-2.369c-0.557-0.279-1.812-0.627-2.439-0.697l-0.418-0.07V5.976l1.603-0.07
	c3.693-0.139,10.313-0.139,11.707-0.07c5.993,0.418,10.035,1.812,12.683,4.529c2.16,2.23,3.136,5.157,2.996,8.85
	c-0.07,1.394-0.139,2.091-0.557,3.275c-1.463,4.39-5.853,8.014-11.01,9.129c-1.533,0.348-1.812,0.348-11.568,0.348
	c-8.641,0-9.477,0-10.244-0.139c-1.881-0.279-3.484-1.115-6.063-2.857c-1.881-1.324-3.415-2.787-5.226-4.948
	c-0.836-0.976-3.763-4.878-3.833-5.087c-0.07-0.07,0-0.139,0.279-0.139c0.488,0,1.603-0.348,2.369-0.767
	c1.603-0.836,2.996-2.23,3.624-3.484c0.348-0.767,0.488-1.533,0.418-2.3c-0.209-1.533-0.906-2.787-2.091-3.693
	c-1.324-1.045-3.136-1.603-5.157-1.672l-0.906-0.07l-0.07,2.509c-0.139,5.644-0.139,17.909-0.07,18.606
	c0.279,2.091,0.976,2.648,3.833,3.066c1.394,0.209,1.254,0.139,1.254,0.627v0.418h-9.477L139.208,28.693L139.208,28.693z
	 M180.043,30.853c4.251-0.697,7.247-3.693,8.223-8.362c0.279-1.254,0.348-3.763,0.139-5.087c-0.279-2.021-0.836-3.554-1.812-5.017
	c-1.881-2.787-4.808-4.529-8.711-5.087c-1.045-0.139-3.275-0.209-3.902-0.07l-0.418,0.07v10.453c0,9.407,0.07,10.522,0.139,10.871
	c0.348,1.185,0.976,1.742,2.021,2.021C176.768,31.062,178.65,31.062,180.043,30.853L180.043,30.853z"/>
</svg>
