<?xml version="1.0" encoding="utf-8"?>
<!-- Generator: Adobe Illustrator 17.0.0, SVG Export Plug-In . SVG Version: 6.00 Build 0)  -->
<!DOCTYPE svg PUBLIC "-//W3C//DTD SVG 1.1//EN" "http://www.w3.org/Graphics/SVG/1.1/DTD/svg11.dtd">
<svg version="1.1" id="Layer_1" xmlns="http://www.w3.org/2000/svg" xmlns:xlink="http://www.w3.org/1999/xlink" x="0px" y="0px"
	 width="210px" height="60px" viewBox="0 0 210 60" enable-background="new 0 0 210 60" xml:space="preserve">
<g>
	<g>
		<path fill="#989898" d="M23.48,23.474c-0.014-0.01-0.019-0.021-0.003-0.033c0.001-0.001,0.011,0.012,0.017,0.018
			C23.489,23.464,23.484,23.469,23.48,23.474z"/>
		<path fill="#989898" d="M19.954,20.282c0.076,0.056,0.148,0.119,0.23,0.165c0.192,0.108,0.39,0.205,0.583,0.313
			c0.035,0.019,0.058,0.064,0.082,0.099c0.164,0.24,0.335,0.475,0.486,0.724c0.087,0.143,0.159,0.302,0.2,0.464
			c0.089,0.348,0.18,0.699,0.223,1.055c0.061,0.505,0.071,1.015,0.121,1.521c0.015,0.153,0.072,0.309,0.141,0.448
			c0.08,0.164,0.256,0.186,0.413,0.173c0.126-0.01,0.256-0.057,0.372-0.112c0.199-0.095,0.398-0.194,0.579-0.319
			c0.314-0.217,0.616-0.452,0.917-0.686c0.205-0.159,0.406-0.323,0.599-0.496c0.216-0.195,0.415-0.408,0.63-0.604
			c0.099-0.09,0.224-0.151,0.328-0.236c0.263-0.213,0.536-0.417,0.773-0.656c0.129-0.129,0.314-0.152,0.427-0.299
			c0.137-0.178,0.366-0.216,0.554-0.316c0.257-0.136,0.517-0.268,0.781-0.391c0.122-0.057,0.252-0.099,0.383-0.129
			c0.23-0.053,0.467-0.077,0.694-0.141c0.362-0.102,0.729-0.084,1.095-0.074c0.323,0.009,0.646,0.041,0.946,0.188
			c0.243,0.119,0.484,0.247,0.74,0.331c0.274,0.089,0.412,0.323,0.613,0.489c0.331,0.275,0.506,0.668,0.697,1.031
			c0.112,0.212,0.268,0.432,0.273,0.705c0.003,0.133,0.08,0.264,0.115,0.397c0.059,0.225,0.138,0.449,0.162,0.679
			c0.053,0.5,0.113,0.999,0.108,1.506c-0.013,1.295-0.002,2.59-0.002,3.886c0,0.284-0.002,0.569-0.009,0.853
			c-0.001,0.059-0.028,0.118-0.042,0.173c-0.173-0.016-0.216-0.126-0.214-0.248c0.006-0.375-0.172-0.693-0.299-1.027
			c-0.068-0.18-0.123-0.368-0.212-0.537c-0.108-0.205-0.233-0.405-0.376-0.587c-0.172-0.219-0.361-0.429-0.564-0.62
			c-0.129-0.122-0.294-0.208-0.449-0.298c-0.174-0.101-0.351-0.199-0.536-0.278c-0.142-0.061-0.295-0.109-0.448-0.128
			c-0.531-0.068-1.065-0.064-1.595,0.001c-0.189,0.023-0.369,0.116-0.554,0.172c-0.133,0.041-0.27,0.066-0.4,0.113
			c-0.199,0.073-0.418,0.127-0.583,0.25c-0.135,0.101-0.282,0.133-0.42,0.204c-0.145,0.074-0.277,0.174-0.409,0.27
			c-0.209,0.151-0.417,0.304-0.619,0.464c-0.251,0.199-0.499,0.401-0.741,0.611c-0.24,0.209-0.466,0.435-0.708,0.643
			c-0.189,0.162-0.396,0.304-0.59,0.461c-0.165,0.134-0.312,0.29-0.484,0.413c-0.287,0.206-0.586,0.395-0.881,0.589
			c-0.061,0.04-0.133,0.062-0.194,0.103c-0.223,0.148-0.467,0.121-0.71,0.087c-0.225-0.031-0.319-0.22-0.363-0.398
			c-0.069-0.278-0.096-0.568-0.125-0.854c-0.041-0.414-0.034-0.835-0.109-1.242c-0.106-0.573-0.269-1.135-0.617-1.62
			c-0.176-0.245-0.4-0.433-0.665-0.589c-0.388-0.229-0.79-0.361-1.244-0.334c-0.215,0.013-0.432,0.003-0.648,0.003
			c-0.297-0.001-0.573,0.087-0.847,0.193c-0.125,0.048-0.262,0.063-0.387,0.112c-0.352,0.137-0.702,0.282-1.05,0.43
			c-0.056,0.024-0.097,0.082-0.116,0.099c-0.147,0.053-0.274,0.08-0.382,0.141c-0.283,0.16-0.563,0.325-0.833,0.505
			c-0.302,0.201-0.591,0.421-0.885,0.633c-0.2,0.144-0.402,0.286-0.599,0.434c-0.145,0.108-0.287,0.221-0.427,0.336
			c-0.148,0.12-0.297,0.239-0.437,0.368c-0.221,0.203-0.434,0.414-0.65,0.623c-0.273,0.263-0.549,0.522-0.815,0.792
			c-0.242,0.246-0.471,0.504-0.71,0.754c-0.038,0.04-0.095,0.062-0.143,0.092c-0.022-0.053-0.062-0.106-0.063-0.159
			c-0.007-0.386-0.008-0.772-0.009-1.158c-0.002-1.388-0.004-2.777-0.006-4.165c0-0.126,0.008-0.254-0.004-0.379
			c-0.023-0.248,0.128-0.394,0.287-0.546c0.07-0.067,0.111-0.164,0.166-0.246c0.024-0.036,0.047-0.073,0.077-0.103
			c0.26-0.26,0.523-0.517,0.783-0.777c0.232-0.233,0.46-0.471,0.693-0.704c0.288-0.288,0.573-0.578,0.871-0.856
			c0.107-0.1,0.252-0.159,0.369-0.25c0.115-0.089,0.212-0.202,0.327-0.292c0.161-0.126,0.332-0.239,0.498-0.36
			c0.181-0.132,0.359-0.27,0.543-0.397c0.13-0.09,0.268-0.169,0.404-0.25c0.216-0.129,0.429-0.264,0.651-0.38
			c0.251-0.132,0.508-0.25,0.766-0.366c0.181-0.082,0.366-0.158,0.553-0.225c0.195-0.07,0.395-0.126,0.591-0.191
			c0.043-0.014,0.079-0.045,0.119-0.068C18.482,20.282,19.218,20.282,19.954,20.282z"/>
		<path fill="#989898" d="M34.118,39.35c-0.15-0.085-0.187-0.18-0.175-0.319c0.021-0.253-0.068-0.481-0.188-0.703
			c-0.063-0.116-0.065-0.263-0.118-0.387c-0.057-0.133-0.15-0.251-0.211-0.383c-0.043-0.095-0.047-0.207-0.088-0.303
			c-0.038-0.088-0.094-0.171-0.156-0.246c-0.166-0.201-0.335-0.4-0.509-0.593c-0.163-0.182-0.355-0.326-0.594-0.394
			c-0.06-0.017-0.089-0.048-0.129-0.102c-0.061-0.082-0.173-0.136-0.274-0.175c-0.657-0.259-1.343-0.277-2.033-0.209
			c-0.223,0.022-0.44,0.108-0.658,0.173c-0.258,0.076-0.516,0.152-0.768,0.245c-0.136,0.05-0.262,0.127-0.387,0.201
			c-0.298,0.179-0.6,0.353-0.887,0.549c-0.201,0.138-0.378,0.313-0.569,0.466c-0.044,0.035-0.114,0.04-0.154,0.078
			c-0.053,0.05-0.088,0.119-0.154,0.214c-0.045,0.027-0.14,0.069-0.22,0.131c-0.185,0.145-0.364,0.298-0.544,0.45
			c-0.317,0.267-0.626,0.544-0.952,0.801c-0.339,0.268-0.689,0.523-1.044,0.771c-0.173,0.121-0.367,0.212-0.552,0.315
			c-0.253,0.141-0.793,0.026-0.911-0.232c-0.069-0.15-0.157-0.302-0.16-0.494c-0.01-0.567-0.041-1.134-0.093-1.698
			c-0.022-0.237-0.101-0.473-0.181-0.7c-0.094-0.266-0.217-0.522-0.332-0.78c-0.023-0.051-0.066-0.094-0.104-0.137
			c-0.15-0.168-0.301-0.335-0.453-0.502c-0.013-0.014-0.026-0.031-0.043-0.04c-0.216-0.111-0.424-0.249-0.653-0.324
			c-0.232-0.077-0.484-0.11-0.729-0.13c-0.472-0.04-0.929,0.058-1.379,0.193c-0.148,0.044-0.304,0.065-0.448,0.119
			c-0.363,0.139-0.724,0.284-1.08,0.44c-0.203,0.089-0.398,0.197-0.588,0.312c-0.3,0.18-0.6,0.362-0.886,0.563
			c-0.387,0.273-0.763,0.562-1.139,0.851c-0.184,0.141-0.356,0.298-0.532,0.449c-0.265,0.228-0.54,0.446-0.79,0.689
			c-0.394,0.384-0.78,0.779-1.152,1.184c-0.254,0.277-0.467,0.591-0.724,0.866c-0.077,0.082-0.157,0.247-0.337,0.18
			c-0.013-0.177-0.037-0.351-0.037-0.526c-0.003-1.647-0.002-3.294-0.002-4.941c0-0.166-0.002-0.332,0-0.497
			c0.002-0.263,0.091-0.488,0.272-0.685c0.169-0.185,0.311-0.394,0.48-0.58c0.203-0.224,0.42-0.435,0.634-0.649
			c0.334-0.335,0.666-0.673,1.009-0.999c0.226-0.216,0.466-0.416,0.704-0.619c0.228-0.194,0.483-0.361,0.688-0.576
			c0.283-0.297,0.659-0.444,0.98-0.677c0.207-0.15,0.421-0.294,0.645-0.415c0.314-0.169,0.64-0.315,0.961-0.472
			c0.193-0.094,0.379-0.205,0.578-0.281c0.238-0.091,0.487-0.155,0.733-0.225c0.377-0.107,0.766-0.154,1.154-0.164
			c0.334-0.009,0.672,0.008,0.992,0.13c0.191,0.073,0.387,0.135,0.567,0.23c0.13,0.069,0.229,0.194,0.355,0.275
			c0.125,0.08,0.183,0.211,0.276,0.308c0.26,0.272,0.363,0.623,0.505,0.947c0.104,0.239,0.09,0.527,0.153,0.787
			c0.118,0.49,0.111,0.99,0.156,1.486c0.025,0.273,0.015,0.557,0.209,0.786c0.091,0.107,0.354,0.17,0.48,0.113
			c0.275-0.125,0.553-0.246,0.825-0.377c0.081-0.039,0.147-0.11,0.221-0.165c0.118-0.088,0.237-0.175,0.355-0.263
			c0.149-0.112,0.33-0.2,0.435-0.343c0.107-0.147,0.248-0.222,0.383-0.319c0.063-0.046,0.098-0.13,0.155-0.187
			c0.071-0.071,0.156-0.127,0.226-0.198c0.284-0.29,0.648-0.482,0.936-0.77c0.198-0.198,0.434-0.36,0.665-0.522
			c0.271-0.19,0.547-0.378,0.836-0.539c0.261-0.145,0.538-0.264,0.816-0.375c0.282-0.113,0.566-0.236,0.862-0.293
			c0.367-0.072,0.746-0.104,1.121-0.11c0.3-0.004,0.61,0.024,0.899,0.099c0.287,0.075,0.565,0.206,0.825,0.351
			c0.227,0.127,0.425,0.307,0.635,0.464c0.285,0.213,0.447,0.522,0.641,0.808c0.212,0.312,0.336,0.66,0.465,1.009
			c0.106,0.288,0.176,0.579,0.204,0.885c0.022,0.246,0.056,0.494,0.118,0.732c0.104,0.402,0.051,0.807,0.055,1.209
			c0.01,1.207,0.006,2.414,0.006,3.62c0,0.309,0.002,0.618-0.009,0.927C34.204,39.211,34.15,39.278,34.118,39.35z"/>
	</g>
	<g>
		<path fill="#989898" d="M52.386,28.42c-0.984,1.922-2.529,3.001-4.528,3.305c-1.346,0.205-2.732,0.18-4.101,0.183
			c-0.593,0.001-0.819,0.14-0.811,0.763c0.025,1.74-0.016,3.482-0.012,5.223c0.003,1.389-0.072,1.51-1.464,1.615
			c-0.751,0.057-1.509,0.036-2.263,0.029c-0.644-0.006-0.95-0.372-0.958-0.998c-0.01-0.723-0.012-1.446-0.012-2.169
			c-0.003-5.225-0.006-10.45-0.006-15.675c0-1.35,0.102-1.457,1.473-1.432c2.69,0.049,5.395-0.034,8.066,0.22
			c2.018,0.192,3.447,1.498,4.469,3.29c0.89,1.561,0.567,3.204,0.54,4.922c0.161-0.092,0.266-0.116,0.303-0.179
			c1.635-2.815,4.747-3.91,7.878-2.767c2.856,1.043,3.706,2.313,3.72,5.321c0.012,2.69,0.107,5.38,0.181,8.07
			c0.036,1.318-0.028,1.397-1.351,1.383c-0.493-0.005-0.987,0.036-1.477,0.004c-0.32-0.021-0.814-0.034-0.92-0.223
			c-0.653-1.167-1.342-0.438-2.022-0.102c-1.582,0.783-4.634,0.654-6.04-1.013c-2.166-2.568-1.226-5.2,1.164-6.69
			c1.573-0.98,3.354-1.368,5.183-1.572c0.304-0.034,0.843-0.309,0.829-0.419c-0.05-0.418-0.173-0.945-0.468-1.194
			c-0.848-0.715-2.33-0.24-2.838,0.744c-0.145,0.28-0.563,0.514-0.896,0.585C55.198,29.818,53.031,29.059,52.386,28.42z
			 M42.948,25.586c-0.016,0-0.032,0-0.049,0c0,0.556-0.062,1.122,0.028,1.664c0.041,0.248,0.37,0.627,0.583,0.637
			c0.946,0.044,1.899,0.009,2.845-0.061c0.907-0.067,1.476-0.682,1.732-1.472c0.284-0.877,0.164-1.685-0.634-2.387
			c-0.82-0.723-1.769-0.652-2.686-0.661c-1.839-0.019-1.84,0.032-1.838,1.888C42.929,25.324,42.941,25.455,42.948,25.586z
			 M57.172,36.241c1.767-0.012,3.053-1.178,3.018-2.511c-0.005-0.187-0.342-0.55-0.444-0.523c-0.999,0.265-2.041,0.483-2.934,0.967
			c-0.321,0.174-0.383,1.04-0.339,1.572C56.491,35.982,57.066,36.172,57.172,36.241z"/>
		<path fill="#989898" d="M91.73,27.223c0,0.566-0.007,1.133,0.001,1.7c0.041,3.02,0.105,6.041,0.118,9.061
			c0.006,1.356-0.222,1.528-1.555,1.518c-0.657-0.005-1.314,0.036-1.97,0.025c-0.776-0.014-1.189-0.348-1.186-1.21
			c0.021-5.981,0.021-11.961-0.001-17.942c-0.003-0.784,0.386-1.092,1.057-1.101c1.741-0.023,3.483,0.006,5.224,0.002
			c0.786-0.002,1.056,0.468,1.194,1.154c0.39,1.943,0.84,3.875,1.214,5.821c0.307,1.597,0.535,3.208,0.808,4.811
			c0.031,0.18,0.129,0.349,0.385,0.538c0.26-1.327,0.513-2.656,0.782-3.982c0.343-1.69,0.702-3.378,1.047-5.068
			c0.123-0.604,0.276-1.208,0.319-1.82c0.078-1.096,0.398-1.456,1.516-1.466c1.577-0.015,3.155,0.031,4.731-0.017
			c0.919-0.028,1.24,0.409,1.239,1.238c-0.002,3.449-0.003,6.898-0.001,10.347c0.002,2.364,0.013,4.728,0.014,7.092
			c0,1.33-0.277,1.601-1.629,1.607c-0.657,0.003-1.314-0.012-1.971-0.016c-0.72-0.005-1.124-0.367-1.115-1.084
			c0.041-3.445,0.104-6.89,0.151-10.336c0.005-0.338-0.051-0.676-0.078-1.015c-0.085-0.005-0.169-0.011-0.254-0.016
			c-0.268,1.284-0.528,2.569-0.805,3.851c-0.309,1.428-0.636,2.853-0.951,4.28c-0.161,0.731-0.359,1.458-0.458,2.197
			c-0.22,1.636-0.754,2.139-2.386,2.138c-0.131,0-0.263,0.006-0.394,0.006c-1.759-0.007-2.278-0.556-2.539-2.339
			c-0.221-1.509-0.596-2.997-0.922-4.49c-0.333-1.526-0.688-3.048-1.039-4.57c-0.074-0.322-0.173-0.638-0.261-0.956
			C91.92,27.196,91.825,27.209,91.73,27.223z"/>
		<path fill="#989898" d="M138.024,25.549c1.396-0.405,2.689-0.923,4.031-1.133c1.477-0.231,2.565,0.743,3.536,1.626
			c0.79-0.394,1.573-0.712,2.281-1.149c2.642-1.631,6.444,0.512,6.325,4.23c-0.097,3.021-0.017,6.047-0.035,9.071
			c-0.006,1.065-0.315,1.334-1.365,1.33c-0.525-0.002-1.051,0.03-1.576,0.028c-1.183-0.004-1.544-0.349-1.549-1.522
			c-0.01-2.564-0.004-5.128-0.005-7.692c0-0.23,0.048-0.476-0.015-0.687c-0.144-0.476-0.264-1.265-0.538-1.332
			c-0.577-0.14-1.292-0.013-1.867,0.215c-0.878,0.349-1.142,1.085-1.114,2.068c0.072,2.529,0.022,5.062,0.01,7.593
			c-0.005,1.107-0.202,1.295-1.326,1.322c-0.558,0.013-1.117,0.02-1.676,0.016c-1.414-0.01-1.547-0.148-1.549-1.617
			c-0.003-2.761,0-5.523-0.001-8.284c0-1.383-0.188-1.551-1.538-1.38c-1.383,0.175-2.014,0.896-2.012,2.277
			c0.003,2.498,0.002,4.995-0.002,7.493c-0.002,1.107-0.27,1.361-1.412,1.365c-0.559,0.002-1.118-0.012-1.676,0.005
			c-1.181,0.037-1.268-0.044-1.266-1.266c0.004-2.597,0.01-5.193,0.011-7.79c0.001-1.512,0.015-3.024-0.015-4.535
			c-0.015-0.747,0.225-1.114,1.034-1.016c0.452,0.055,0.917-0.01,1.376-0.011C137.453,24.771,137.453,24.773,138.024,25.549z"/>
		<path fill="#989898" d="M181.824,38.592c-1.296,1.137-2.988,1.25-4.692,0.962c-1.844-0.312-2.953-1.554-3.45-3.312
			c-0.395-1.397-0.036-2.676,0.967-3.702c1.736-1.775,3.996-2.341,6.367-2.599c0.226-0.025,0.454-0.03,0.733-0.048
			c0.171-0.745,0.287-1.426-0.638-1.775c-0.874-0.329-2.188-0.022-2.39,0.677c-0.267,0.924-0.933,0.941-1.626,0.839
			c-0.776-0.114-1.534-0.346-2.299-0.532c-0.592-0.144-0.722-0.52-0.475-1.038c1.129-2.37,2.63-3.459,5.316-3.666
			c2.2-0.17,4.319,0.197,5.696,2.112c0.573,0.796,0.931,1.893,0.995,2.879c0.144,2.225,0.028,4.466,0.053,6.7
			c0.009,0.816,0.11,1.633,0.186,2.447c0.057,0.611-0.207,0.959-0.812,0.98c-0.82,0.028-1.656,0.102-2.457-0.024
			C182.844,39.422,182.447,38.99,181.824,38.592z M181.709,32.977c-1.098,0.355-2.162,0.573-3.084,1.06
			c-0.355,0.188-0.464,0.98-0.522,1.514c-0.022,0.201,0.391,0.603,0.656,0.656C180.446,36.541,182.013,34.984,181.709,32.977z"/>
		<path fill="#989898" d="M115.653,38.581c-0.242,0.116-0.645,0.315-1.053,0.504c-2.546,1.18-5.409,0.742-6.719-1.588
			c-1.159-2.062-0.99-4.386,1.703-6.023c1.555-0.945,3.28-1.371,5.08-1.561c0.289-0.03,0.806-0.351,0.786-0.437
			c-0.106-0.461-0.233-1.111-0.568-1.29c-1.002-0.534-2.073-0.038-2.729,0.924c-0.205,0.3-0.762,0.551-1.126,0.514
			c-0.871-0.089-1.734-0.328-2.58-0.576c-0.472-0.139-0.708-0.374-0.449-1.022c1.716-4.289,7.28-4.483,10.178-2.426
			c1.262,0.896,1.801,2.205,1.797,3.813c-0.007,3.047,0.079,6.096,0.223,9.14c0.033,0.704-0.227,0.926-0.767,0.959
			c-0.817,0.05-1.656,0.106-2.455-0.028C116.541,39.412,116.172,38.953,115.653,38.581z M115.252,33.024
			c-1.028,0.321-2.037,0.508-2.905,0.965c-0.392,0.206-0.618,0.932-0.687,1.453c-0.03,0.225,0.495,0.705,0.824,0.766
			C114.204,36.526,115.625,35.016,115.252,33.024z"/>
		<path fill="#989898" d="M70.602,25.643c1.15-0.446,2.157-1.011,3.233-1.217c2.166-0.414,4.568,1.416,4.597,4.045
			c0.036,3.318,0.03,6.636,0.025,9.955c-0.001,0.765-0.445,1.127-1.203,1.111c-0.427-0.009-0.854-0.021-1.281-0.024
			c-1.852-0.013-1.984-0.162-2.003-2.025c-0.027-2.718-0.055-5.436-0.135-8.152c-0.03-1.029-0.362-1.244-1.363-1.118
			c-1.139,0.143-1.894,1.007-1.894,2.171c-0.001,2.596,0.005,5.191-0.003,7.787c-0.003,1.136-0.254,1.363-1.412,1.333
			c-0.751-0.02-1.502-0.024-2.252-0.069c-0.701-0.042-0.944-0.504-0.942-1.143c0.011-4.139,0.027-8.278,0.03-12.417
			c0.001-0.726,0.365-1.119,1.046-1.183c0.715-0.067,1.437-0.052,2.155-0.08C69.998,24.586,70.486,24.954,70.602,25.643z"/>
		<path fill="#989898" d="M192.286,25.667c1.095-0.445,2.048-0.922,3.054-1.22c1.421-0.421,3.129,0.617,3.925,1.8
			c0.57,0.847,0.749,1.755,0.732,2.78c-0.052,3.055-0.042,6.111,0.002,9.166c0.013,0.908-0.306,1.253-1.203,1.201
			c-0.519-0.03-1.045,0.08-1.569,0.123c-1.058,0.086-1.567-0.347-1.566-1.382c0.001-2.528,0.024-5.057,0.029-7.585
			c0.001-0.426-0.003-0.858-0.074-1.276c-0.184-1.075-0.82-1.405-1.856-0.999c-1.026,0.402-1.509,1.121-1.506,2.226
			c0.008,2.562,0.016,5.125,0.016,7.687c0,1.069-0.296,1.363-1.332,1.351c-0.721-0.008-1.444,0.005-2.162-0.047
			c-0.905-0.066-1.188-0.65-1.178-1.489c0.049-3.971,0.089-7.943,0.115-11.915c0.007-1.097,0.36-1.46,1.474-1.42
			c0.326,0.012,0.655,0.018,0.979-0.014C191.122,24.561,192.015,24.569,192.286,25.667z"/>
		<path fill="#989898" d="M126.804,24.213c2.564,0.181,4.988,1.791,5.913,4.063c0.525,1.29,0.13,1.922-1.261,2.028
			c-0.49,0.037-0.979,0.123-1.469,0.13c-0.579,0.008-1.08-0.077-1.219-0.834c-0.228-1.24-0.763-1.587-2.155-1.558
			c-0.713,0.015-1.542,0.842-1.574,1.735c-0.054,1.503-0.067,3.012,0.011,4.513c0.054,1.04,0.901,1.917,1.697,1.975
			c0.997,0.073,1.825-0.517,2.008-1.587c0.148-0.871,0.57-1.207,1.402-1.031c0.766,0.161,1.536,0.324,2.279,0.564
			c0.602,0.195,0.644,1.316,0.104,2.148c-0.795,1.224-1.763,2.302-3.122,2.877c-0.703,0.297-1.511,0.428-2.28,0.468
			c-3.002,0.154-5.281-1.578-6.23-4.25c-0.888-2.501-0.798-5.055,0.244-7.453c0.588-1.354,1.656-2.502,3.162-3.028
			C125.132,24.685,125.973,24.464,126.804,24.213z"/>
		<path fill="#989898" d="M168.456,29.234c0-2.857-0.006-5.714,0.003-8.571c0.004-1.178,0.211-1.379,1.369-1.396
			c0.69-0.01,1.38,0.014,2.069-0.012c0.794-0.03,1.156,0.359,1.156,1.12c0,3.478-0.001,6.956-0.011,10.434
			c-0.007,2.548-0.041,5.096-0.033,7.644c0.002,0.67-0.315,0.992-0.924,1.016c-0.948,0.036-1.901,0.059-2.847,0.002
			c-0.774-0.047-0.762-0.733-0.776-1.271c-0.038-1.477-0.021-2.955-0.023-4.433c-0.002-1.511,0-3.021,0-4.532
			C168.444,29.234,168.45,29.234,168.456,29.234z"/>
		<path fill="#989898" d="M166.661,29.416c0,2.925,0.001,5.851,0,8.776c-0.001,1.133-0.171,1.323-1.302,1.339
			c-0.755,0.011-1.511-0.021-2.265-0.056c-0.676-0.031-0.995-0.402-0.994-1.084c0.006-6.048,0.009-12.096,0.005-18.143
			c0-0.658,0.307-0.969,0.956-0.971c0.822-0.002,1.644,0.01,2.465-0.021c0.849-0.032,1.154,0.346,1.145,1.187
			c-0.031,2.991-0.012,5.982-0.012,8.973C166.658,29.416,166.659,29.416,166.661,29.416z"/>
		<path fill="#989898" d="M155.775,32.131c0-2.037-0.001-4.074,0-6.112c0-1.09,0.302-1.414,1.38-1.443c0.624-0.017,1.249,0,1.873,0
			c0.892,0.001,1.309,0.436,1.307,1.339c-0.011,4.14-0.015,8.28,0.004,12.421c0.004,0.79-0.324,1.167-1.096,1.166
			c-0.82-0.002-1.64-0.013-2.46-0.03c-0.736-0.015-1.02-0.387-1.008-1.132c0.033-2.07,0.012-4.14,0.012-6.21
			C155.782,32.131,155.779,32.131,155.775,32.131z"/>
	</g>
</g>
</svg>
