<?xml version="1.0" encoding="utf-8"?>
<!-- Generator: Adobe Illustrator 17.0.0, SVG Export Plug-In . SVG Version: 6.00 Build 0)  -->
<!DOCTYPE svg PUBLIC "-//W3C//DTD SVG 1.1//EN" "http://www.w3.org/Graphics/SVG/1.1/DTD/svg11.dtd">
<svg version="1.1" id="Layer_1" xmlns="http://www.w3.org/2000/svg" xmlns:xlink="http://www.w3.org/1999/xlink" x="0px" y="0px"
	 width="210px" height="60px" viewBox="0 0 210 60" enable-background="new 0 0 210 60" xml:space="preserve">
<g>
	<path fill="#989898" d="M147.656,32.986c0,7.286,0,14.571,0.003,21.857c0,0.128-0.029,0.157-0.157,0.157
		c-28.335-0.003-56.67-0.003-85.005,0c-0.128,0-0.157-0.029-0.157-0.157c0.004-7.286,0.003-14.571,0.003-21.857
		c0.194-0.042,0.389-0.081,0.582-0.126c1.663-0.389,3.332-0.754,5.004-1.099c1.856-0.382,3.715-0.749,5.58-1.084
		c1.351-0.243,2.704-0.478,4.06-0.692c1.412-0.223,2.826-0.437,4.243-0.629c1.215-0.165,2.431-0.32,3.648-0.46
		c1.128-0.129,2.259-0.234,3.387-0.355c1.276-0.137,2.556-0.227,3.836-0.328c1.014-0.079,2.028-0.151,3.043-0.202
		c1.43-0.071,2.861-0.126,4.292-0.177c0.875-0.031,1.75-0.055,2.625-0.061c1.638-0.011,3.275-0.02,4.913,0.01
		c1.444,0.026,2.887,0.064,4.33,0.118c0.579,0.022,1.159,0.039,1.737,0.075c1.309,0.082,2.618,0.17,3.927,0.262
		c0.912,0.065,1.824,0.129,2.734,0.215c1.17,0.11,2.338,0.236,3.506,0.365c1.004,0.11,2.008,0.224,3.01,0.353
		c1.125,0.146,2.25,0.302,3.372,0.47c1.257,0.187,2.513,0.38,3.767,0.591c1.667,0.28,3.33,0.584,4.99,0.906
		c2.328,0.451,4.65,0.933,6.963,1.457C146.482,32.729,147.069,32.856,147.656,32.986z M73.008,46.675
		c1.524,0,3.048-0.002,4.572,0.003c0.142,0,0.181-0.039,0.183-0.18c0.007-0.716,0.025-1.432,0.038-2.149
		c0.013-0.671,0.023-1.342,0.041-2.012c0.004-0.129-0.033-0.18-0.161-0.162c-0.033,0.005-0.069,0.006-0.102,0
		c-0.18-0.031-0.254,0.039-0.292,0.224c-0.129,0.619-0.333,1.214-0.638,1.773c-0.462,0.848-1.131,1.437-2.075,1.699
		c-0.575,0.16-1.163,0.195-1.753,0.214c-0.296,0.01-0.591-0.013-0.878-0.09c-0.351-0.094-0.517-0.301-0.517-0.663
		c-0.003-1.496,0-2.991-0.004-4.487c0-0.126,0.044-0.157,0.158-0.147c0.311,0.027,0.624,0.038,0.933,0.075
		c0.726,0.088,1.213,0.476,1.425,1.184c0.057,0.19,0.102,0.384,0.139,0.579c0.052,0.269,0.047,0.261,0.311,0.272
		c0.154,0.006,0.203-0.037,0.203-0.198c-0.006-1.467-0.004-2.935-0.004-4.402c0-0.251,0-0.241-0.251-0.234
		c-0.168,0.005-0.235,0.076-0.25,0.237c-0.026,0.273-0.108,0.533-0.203,0.789c-0.195,0.527-0.571,0.847-1.114,0.98
		c-0.384,0.093-0.775,0.106-1.167,0.118c-0.143,0.004-0.181-0.04-0.18-0.181c0.006-1.137,0.003-2.275,0.003-3.412
		c0-0.624,0.243-0.955,0.847-1.133c0.492-0.146,0.996-0.153,1.503-0.097c0.64,0.07,1.229,0.265,1.723,0.7
		c0.504,0.444,0.814,1.014,1.074,1.619c0.173,0.402,0.305,0.819,0.439,1.235c0.035,0.109,0.458,0.191,0.53,0.102
		c0.018-0.022,0.018-0.064,0.017-0.097c-0.004-0.119-0.016-0.238-0.018-0.357c-0.026-1.205-0.056-2.41-0.071-3.615
		c-0.002-0.178-0.054-0.211-0.22-0.211c-2.855,0.005-5.71,0.004-8.565,0.004c-0.444,0-0.441,0-0.431,0.454
		c0.002,0.103,0.033,0.133,0.136,0.138c0.204,0.009,0.408,0.027,0.609,0.062c0.456,0.08,0.694,0.318,0.748,0.74
		c0.02,0.157,0.031,0.317,0.031,0.476c0.002,2.775,0.002,5.551,0,8.326c0,0.147-0.01,0.296-0.03,0.442
		c-0.041,0.302-0.187,0.531-0.481,0.651c-0.203,0.083-0.416,0.104-0.632,0.122c-0.38,0.032-0.37,0.036-0.383,0.421
		c-0.006,0.168,0.057,0.192,0.204,0.192C69.971,46.673,71.489,46.675,73.008,46.675z M84.933,39.574
		c-0.012,0.003-0.024,0.006-0.036,0.009c-0.026-0.043-0.051-0.087-0.077-0.13c-0.161-0.269-0.332-0.53-0.573-0.737
		c-0.546-0.47-1.189-0.529-1.862-0.423c-0.9,0.142-1.603,0.622-2.145,1.336c-0.746,0.983-1.045,2.099-0.945,3.329
		c0.092,1.13,0.48,2.134,1.25,2.973c0.47,0.512,1.034,0.882,1.745,0.939c1.15,0.093,2.058-0.434,2.582-1.469
		c0.042-0.083,0.085-0.165,0.134-0.262c0.043,0.074,0.026,0.13,0.026,0.184c0.002,0.432,0.006,0.864-0.002,1.296
		c-0.002,0.131,0.039,0.164,0.165,0.157c0.414-0.021,0.829-0.029,1.244-0.046c0.335-0.014,0.669-0.037,1.004-0.049
		c0.097-0.003,0.121-0.041,0.123-0.133c0.007-0.34,0.011-0.349-0.317-0.377c-0.723-0.062-0.789-0.35-0.788-0.878
		c0.007-3.48,0.003-6.96,0.007-10.441c0-0.15-0.029-0.207-0.194-0.198c-0.754,0.04-1.51,0.065-2.265,0.1
		c-0.309,0.015-0.308,0.021-0.308,0.339c0,0.232,0,0.232,0.237,0.256c0.085,0.009,0.17,0.017,0.254,0.023
		c0.529,0.038,0.74,0.264,0.74,0.795c0.001,1.086,0,2.172,0,3.258C84.933,39.476,84.933,39.525,84.933,39.574z M135.48,39.973
		c-0.012-0.004-0.024-0.007-0.037-0.011c0-0.055,0-0.11,0-0.165c0-0.427-0.005-0.853,0.003-1.28
		c0.003-0.135-0.033-0.174-0.171-0.167c-0.726,0.039-1.453,0.073-2.18,0.096c-0.161,0.005-0.216,0.046-0.211,0.213
		c0.011,0.379,0.003,0.379,0.375,0.404c0.585,0.039,0.785,0.252,0.785,0.837c0,1.786,0,3.572-0.001,5.358
		c0,0.102,0.004,0.207-0.016,0.306c-0.064,0.314-0.297,0.47-0.722,0.498c-0.419,0.028-0.413,0.028-0.42,0.439
		c-0.003,0.146,0.044,0.179,0.183,0.178c1.109-0.005,2.218-0.003,3.327-0.003c0.459,0,0.456,0,0.448-0.453
		c-0.002-0.1-0.024-0.141-0.133-0.14c-0.141,0.002-0.284-0.014-0.425-0.028c-0.521-0.052-0.71-0.261-0.71-0.784
		c0-1.103,0.007-2.207-0.003-3.31c-0.005-0.585,0.11-1.141,0.35-1.669c0.235-0.516,0.547-0.975,1.088-1.219
		c0.544-0.245,1.287-0.153,1.618,0.554c0.153,0.326,0.218,0.672,0.22,1.025c0.007,1.945,0.007,3.89,0.004,5.835
		c0,0.145,0.029,0.195,0.185,0.193c0.688-0.009,1.376-0.004,2.064-0.004c0.472,0,0.47,0,0.444-0.474
		c-0.005-0.09-0.035-0.116-0.121-0.117c-0.125-0.002-0.249-0.015-0.374-0.029c-0.475-0.052-0.664-0.262-0.664-0.737
		c0-1.257,0.001-2.514-0.001-3.771c-0.001-0.461-0.031-0.92-0.138-1.37c-0.126-0.529-0.331-1.022-0.751-1.386
		c-0.631-0.546-1.372-0.647-2.16-0.461c-0.673,0.159-1.151,0.594-1.537,1.144C135.687,39.636,135.586,39.807,135.48,39.973z
		 M93.873,45.16c0,0.054,0,0.108,0,0.163c0,0.438,0.003,0.876-0.002,1.313c-0.002,0.114,0.035,0.145,0.146,0.14
		c0.715-0.03,1.431-0.045,2.146-0.086c0.295-0.017,0.232,0.023,0.24-0.261c0.002-0.068-0.004-0.137,0.001-0.205
		c0.008-0.097-0.016-0.146-0.129-0.142c-0.118,0.004-0.238-0.013-0.356-0.029c-0.382-0.049-0.585-0.21-0.636-0.512
		c-0.016-0.094-0.011-0.193-0.011-0.289c-0.001-2.087,0-4.174,0-6.26c0-0.136-0.003-0.273,0.001-0.409
		c0.003-0.083-0.022-0.127-0.114-0.127c-0.859,0.001-1.717,0.001-2.576,0c-0.08,0-0.105,0.029-0.11,0.109
		c-0.032,0.474-0.034,0.474,0.426,0.498c0.011,0.001,0.023,0.001,0.034,0.002c0.626,0.054,0.807,0.249,0.807,0.873
		c0,1.143-0.006,2.286,0.002,3.429c0.005,0.636-0.155,1.226-0.454,1.778c-0.276,0.51-0.672,0.882-1.265,1.002
		c-0.761,0.154-1.295-0.178-1.485-0.929c-0.064-0.255-0.078-0.515-0.078-0.777c0.002-1.922,0.001-3.844,0.001-5.766
		c0-0.219,0-0.219-0.225-0.219c-0.671,0-1.342,0-2.013,0c-0.47,0-0.466,0-0.454,0.471c0.003,0.11,0.044,0.135,0.142,0.131
		c0.2-0.009,0.397,0.017,0.589,0.074c0.213,0.064,0.35,0.199,0.403,0.42c0.027,0.113,0.025,0.226,0.025,0.339
		c0.001,1.257,0.002,2.513,0,3.77c-0.001,0.439,0.033,0.875,0.14,1.3c0.175,0.696,0.499,1.298,1.157,1.651
		c0.979,0.525,2.266,0.267,2.996-0.581C93.455,45.759,93.65,45.46,93.873,45.16z M109.978,45.222c0.062,0.24,0.096,0.475,0.173,0.7
		c0.105,0.309,0.249,0.595,0.57,0.727c0.567,0.233,1.112,0.178,1.584-0.216c0.52-0.433,0.651-1.044,0.679-1.686
		c0.002-0.048-0.006-0.082-0.068-0.096c-0.296-0.064-0.382-0.005-0.406,0.295c-0.001,0.017,0,0.034-0.003,0.051
		c-0.038,0.242-0.088,0.48-0.243,0.682c-0.141,0.184-0.334,0.209-0.537,0.17c-0.182-0.035-0.244-0.191-0.278-0.351
		c-0.056-0.257-0.06-0.518-0.06-0.78c0-1.308,0.001-2.616-0.001-3.924c0-0.239-0.004-0.477-0.039-0.714
		c-0.121-0.804-0.542-1.352-1.33-1.608c-0.437-0.142-0.886-0.18-1.34-0.213c-0.761-0.054-1.487,0.051-2.154,0.433
		c-0.509,0.292-0.905,0.686-1.028,1.291c-0.097,0.476,0.155,1.005,0.569,1.163c0.316,0.121,0.626,0.107,0.901-0.113
		c0.346-0.277,0.451-0.645,0.371-1.067c-0.067-0.356-0.29-0.585-0.648-0.688c0.697-0.525,1.945-0.553,2.635-0.184
		c0.301,0.161,0.509,0.395,0.533,0.758c0.033,0.5,0,1,0.019,1.5c0.006,0.151-0.043,0.222-0.186,0.268
		c-0.481,0.153-0.961,0.311-1.438,0.479c-0.697,0.246-1.381,0.526-1.999,0.941c-0.453,0.305-0.867,0.658-1.074,1.18
		c-0.318,0.801-0.043,1.904,0.938,2.381c0.62,0.302,1.266,0.321,1.931,0.22c0.583-0.089,1.084-0.328,1.463-0.79
		C109.711,45.79,109.851,45.511,109.978,45.222z M124.237,42.542c-0.013,0.587,0.085,1.155,0.281,1.706
		c0.67,1.89,2.513,2.953,4.464,2.547c1.252-0.261,2.14-1.013,2.693-2.155c0.393-0.811,0.517-1.673,0.424-2.571
		c-0.099-0.959-0.416-1.827-1.07-2.546c-0.84-0.924-1.891-1.342-3.14-1.256c-0.98,0.067-1.812,0.46-2.483,1.168
		C124.584,40.302,124.234,41.359,124.237,42.542z M103.096,39.553c-0.071,0.028-0.125,0.004-0.178-0.003
		c-0.388-0.052-0.734,0.101-0.879,0.386c-0.17,0.336-0.111,0.802,0.137,1.069c0.285,0.308,0.774,0.412,1.159,0.248
		c0.381-0.163,0.65-0.623,0.629-1.048c-0.034-0.703-0.393-1.194-0.99-1.525c-0.734-0.407-1.52-0.507-2.341-0.372
		c-1.15,0.189-2.065,0.767-2.767,1.686c-1.148,1.504-1.065,3.592-0.172,5.058c0.986,1.62,2.835,2.158,4.44,1.647
		c0.824-0.262,1.411-0.826,1.858-1.549c0.157-0.253,0.154-0.243-0.097-0.389c-0.131-0.076-0.185-0.046-0.262,0.073
		c-0.293,0.453-0.647,0.85-1.119,1.127c-0.757,0.444-1.858,0.477-2.567-0.108c-0.45-0.372-0.712-0.862-0.886-1.407
		c-0.267-0.836-0.305-1.696-0.268-2.562c0.026-0.594,0.144-1.172,0.406-1.711c0.247-0.507,0.604-0.915,1.135-1.128
		c0.728-0.292,1.467-0.26,2.195,0.013C102.77,39.147,102.968,39.306,103.096,39.553z M115.826,42.29
		c0-1.018,0.003-2.036-0.003-3.054c-0.001-0.138,0.031-0.185,0.178-0.183c0.557,0.009,1.115,0.003,1.672,0.003
		c0.429,0,0.423,0,0.428-0.423c0.002-0.146-0.049-0.181-0.186-0.18c-0.637,0.006-1.274-0.001-1.911,0.006
		c-0.143,0.002-0.182-0.04-0.181-0.182c0.007-0.722,0.003-1.444,0.003-2.167c0-0.386,0-0.377-0.38-0.389
		c-0.159-0.005-0.216,0.05-0.242,0.201c-0.077,0.436-0.181,0.866-0.309,1.29c-0.206,0.68-0.64,1.094-1.356,1.194
		c-0.137,0.019-0.328-0.02-0.396,0.089c-0.065,0.103-0.013,0.276-0.024,0.417c-0.008,0.112,0.03,0.149,0.143,0.146
		c0.284-0.007,0.569,0.006,0.853-0.006c0.153-0.006,0.201,0.034,0.2,0.195c-0.006,1.808-0.004,3.617-0.004,5.425
		c0,0.239,0.005,0.476,0.039,0.714c0.115,0.799,0.542,1.28,1.312,1.436c0.409,0.083,0.826,0.089,1.237,0.009
		c0.489-0.096,0.895-0.328,1.138-0.785c0.322-0.605,0.33-1.265,0.335-1.926c0-0.057-0.027-0.083-0.083-0.082
		c-0.057,0-0.115,0.007-0.17-0.002c-0.171-0.027-0.225,0.035-0.217,0.212c0.019,0.404-0.001,0.807-0.135,1.195
		c-0.151,0.435-0.408,0.766-0.895,0.834c-0.454,0.063-0.907-0.068-1.009-0.595c-0.027-0.138-0.034-0.282-0.034-0.424
		C115.824,44.269,115.826,43.279,115.826,42.29z M122.167,41.962c0-1.148-0.002-2.297,0.003-3.445
		c0.001-0.133-0.032-0.175-0.17-0.167c-0.715,0.038-1.43,0.07-2.145,0.094c-0.468,0.016-0.464,0.009-0.454,0.48
		c0.002,0.107,0.037,0.137,0.139,0.134c0.245-0.007,0.487,0.015,0.721,0.1c0.229,0.083,0.345,0.248,0.368,0.484
		c0.008,0.079,0.007,0.159,0.007,0.239c0,1.796,0.001,3.593,0,5.389c0,0.52-0.143,0.69-0.653,0.779
		c-0.056,0.01-0.113,0.009-0.17,0.013c-0.413,0.029-0.407,0.029-0.413,0.443c-0.002,0.138,0.041,0.169,0.173,0.168
		c1.131-0.005,2.263-0.003,3.394-0.003c0.447,0,0.444,0,0.435-0.448c-0.002-0.1-0.024-0.142-0.133-0.14
		c-0.136,0.002-0.272-0.013-0.408-0.028c-0.505-0.056-0.694-0.27-0.694-0.783C122.167,44.168,122.167,43.065,122.167,41.962z
		 M120.32,35.723c0.001,0.563,0.392,0.987,0.908,0.986c0.499-0.001,0.904-0.43,0.905-0.957c0-0.553-0.404-0.993-0.911-0.991
		C120.726,34.763,120.319,35.197,120.32,35.723z"/>
	<path fill="#848383" d="M62.344,32.747c0-9.196,0-18.391-0.003-27.587C62.341,5.039,62.358,5,62.494,5
		c28.337,0.004,56.675,0.004,85.012,0c0.136,0,0.153,0.039,0.153,0.161c-0.003,9.196-0.003,18.391-0.003,27.587
		c-0.076,0.046-0.137-0.013-0.197-0.037c-0.728-0.286-1.468-0.537-2.21-0.786c-2.954-0.989-5.956-1.806-8.987-2.52
		c-3.692-0.869-7.416-1.576-11.17-2.126c-2.232-0.327-4.471-0.596-6.715-0.82c-1.827-0.182-3.658-0.313-5.491-0.428
		c-1.742-0.109-3.487-0.176-5.233-0.202c-3.782-0.057-7.562,0-11.338,0.254c-2.019,0.136-4.035,0.297-6.048,0.514
		c-1.842,0.198-3.679,0.426-5.511,0.699c-2.089,0.311-4.17,0.669-6.243,1.077c-3.502,0.689-6.974,1.506-10.403,2.499
		c-1.9,0.55-3.785,1.147-5.636,1.849C62.435,32.736,62.396,32.781,62.344,32.747z M139.837,19.103
		c-0.043-0.055-0.067-0.085-0.09-0.115c-1.115-1.486-2.231-2.97-3.343-4.458c-0.795-1.065-1.584-2.135-2.376-3.202
		c-0.038-0.051-0.061-0.125-0.153-0.111c-0.397,0.061-0.795-0.014-1.192-0.005c-0.084,0.002-0.122,0.013-0.106,0.111
		c0.061,0.365,0.075,0.735,0.088,1.104c0.087,2.296,0.078,4.593,0.025,6.89c-0.019,0.807-0.036,1.614-0.112,2.419
		c-0.005,0.057-0.058,0.164,0.082,0.15c0.386-0.039,0.773-0.008,1.159,0.005c0.098,0.003,0.124-0.023,0.117-0.124
		c-0.027-0.351-0.05-0.703-0.061-1.055c-0.065-2.138-0.031-4.276,0.005-6.413c0.003-0.157,0-0.313,0-0.47
		c0.077,0.034,0.111,0.076,0.144,0.118c1.239,1.613,2.445,3.25,3.643,4.893c0.706,0.968,1.415,1.934,2.091,2.924
		c0.047,0.068,0.084,0.133,0.199,0.12c0.379-0.044,0.761-0.039,1.141-0.004c0.112,0.01,0.125-0.023,0.104-0.118
		c-0.057-0.262-0.076-0.529-0.092-0.795c-0.128-2.113-0.102-4.228-0.054-6.343c0.025-1.103,0.063-2.205,0.158-3.304
		c0.005-0.062,0.022-0.112-0.078-0.092c-0.439,0.089-0.878,0.075-1.333-0.012c0.09,1.316,0.09,2.623,0.088,3.929
		C139.889,16.452,139.882,17.76,139.837,19.103z M129.409,16.735c0.001-0.869-0.093-1.454-0.284-2.025
		c-0.844-2.522-3.444-4.044-6.023-3.477c-1.828,0.402-3.078,1.533-3.8,3.248c-0.437,1.04-0.456,2.12-0.244,3.213
		c0.457,2.36,2.209,4.16,4.734,4.327c1.296,0.085,2.471-0.247,3.481-1.063C128.696,19.807,129.35,18.274,129.409,16.735z
		 M103.728,16.858c0.135-0.025,0.252-0.039,0.364-0.07c1.147-0.319,1.869-1.059,2.081-2.229c0.244-1.342-0.217-2.505-1.627-3.056
		c-0.683-0.267-1.397-0.328-2.122-0.344c-0.603-0.013-1.202,0.071-1.805,0.049c-0.284-0.01-0.568-0.016-0.851-0.039
		c-0.118-0.009-0.129,0.029-0.12,0.129c0.096,1.083,0.113,2.169,0.123,3.255c0.02,2.388,0.041,4.776-0.127,7.161
		c-0.01,0.141,0.016,0.181,0.169,0.166c0.442-0.041,0.886-0.029,1.329-0.011c0.258,0.01,0.255,0.015,0.246-0.245
		c-0.091-2.569-0.159-5.138-0.16-7.708c0-0.54,0.017-1.08,0.026-1.62c0.001-0.074-0.006-0.148,0.111-0.145
		c0.511,0.015,1.026-0.042,1.532,0.056c0.65,0.126,1.197,0.423,1.534,1.022c0.242,0.431,0.268,0.897,0.192,1.373
		c-0.111,0.698-0.443,1.245-1.1,1.558c-0.381,0.182-0.786,0.256-1.207,0.244c-0.061-0.002-0.125-0.026-0.108,0.085
		c0.07,0.468,0.171,0.893,0.493,1.297c1.005,1.261,1.886,2.614,2.758,3.971c0.051,0.08,0.091,0.136,0.21,0.125
		c0.621-0.059,1.243-0.049,1.881-0.002C106.277,20.201,105.034,18.517,103.728,16.858z M96.577,21.88
		c-0.042-0.096-0.077-0.173-0.109-0.251c-0.728-1.796-1.408-3.609-2.078-5.427c-0.597-1.621-1.211-3.237-1.71-4.892
		c-0.031-0.101-0.089-0.098-0.165-0.09c-0.46,0.045-0.92,0.044-1.379-0.002c-0.098-0.01-0.125,0.027-0.144,0.113
		c-0.028,0.127-0.065,0.252-0.105,0.376c-1.043,3.254-2.227,6.457-3.479,9.636c-0.07,0.176-0.144,0.351-0.221,0.539
		c0.44-0.036,0.862-0.044,1.28-0.008c0.173,0.015,0.216-0.04,0.259-0.187c0.272-0.924,0.521-1.855,0.82-2.771
		c0.03-0.093,0.066-0.149,0.183-0.155c1.296-0.072,2.591-0.06,3.886,0.003c0.087,0.004,0.131,0.035,0.158,0.117
		c0.076,0.225,0.16,0.448,0.239,0.672c0.255,0.727,0.491,1.461,0.712,2.199c0.02,0.067,0.016,0.14,0.133,0.131
		C95.424,21.837,95.992,21.851,96.577,21.88z M70.355,16.727c0-1.575,0.001-3.15-0.002-4.726c0-0.11,0.026-0.143,0.139-0.141
		c0.415,0.007,0.83,0.004,1.245,0.003c0.217,0,0.431,0.024,0.642,0.071c1.086,0.241,1.75,0.901,1.886,1.947
		c0.128,0.982-0.273,2.008-1.349,2.496c-0.477,0.216-0.977,0.325-1.496,0.366c-0.048,0.004-0.136-0.039-0.122,0.081
		c0.026,0.214,0.045,0.429,0.065,0.644c0.008,0.092,0.038,0.133,0.147,0.13c0.919-0.022,1.793-0.225,2.587-0.692
		c1.073-0.63,1.746-1.534,1.762-2.823c0.016-1.261-0.53-2.196-1.691-2.734c-0.659-0.306-1.363-0.427-2.085-0.435
		c-0.596-0.006-1.192,0.004-1.789,0.044c-0.474,0.032-0.954-0.019-1.43-0.04c-0.104-0.005-0.132,0.003-0.119,0.123
		c0.039,0.367,0.068,0.736,0.079,1.105c0.08,2.707,0.062,5.413-0.021,8.119c-0.015,0.483-0.025,0.967-0.073,1.448
		c-0.015,0.151,0.026,0.175,0.171,0.155c0.503-0.069,1.009-0.065,1.513,0.003c0.114,0.015,0.132-0.01,0.124-0.117
		c-0.028-0.368-0.053-0.737-0.068-1.106C70.417,19.342,70.394,18.034,70.355,16.727z M81.585,11.245
		c-0.697-0.018-1.476-0.011-2.253-0.071c-0.158-0.012-0.17,0.038-0.16,0.172c0.028,0.363,0.048,0.726,0.058,1.09
		c0.067,2.445,0.077,4.89,0.034,7.336c-0.011,0.631-0.026,1.262-0.083,1.891c-0.026,0.284-0.031,0.283,0.261,0.247
		c0.056-0.007,0.113-0.011,0.17-0.014c1.643-0.094,3.285-0.108,4.926,0.033c0.126,0.011,0.155-0.034,0.157-0.147
		c0.006-0.29,0.016-0.58,0.034-0.869c0.008-0.124-0.019-0.161-0.155-0.155c-1.193,0.049-2.385,0.122-3.581,0.111
		c-0.155-0.001-0.216-0.033-0.215-0.205c0.012-1.217,0.012-2.434,0.047-3.651c0.006-0.192,0.077-0.228,0.243-0.24
		c0.637-0.045,1.273-0.034,1.91-0.014c0.438,0.014,0.875,0.035,1.311,0.082c0.055,0.006,0.141,0.05,0.139-0.077
		c-0.004-0.341-0.003-0.682-0.001-1.024c0-0.074-0.028-0.078-0.093-0.07c-0.22,0.027-0.441,0.048-0.662,0.066
		c-0.885,0.071-1.771,0.106-2.658,0.046c-0.126-0.009-0.186-0.04-0.191-0.183c-0.042-1.103,0.011-2.206,0.012-3.309
		c0-0.086,0.042-0.086,0.105-0.086c0.597-0.005,1.194-0.015,1.791,0.025c0.584,0.039,1.169,0.073,1.753,0.114
		c0.101,0.007,0.151-0.002,0.147-0.128c-0.01-0.307-0.009-0.614-0.001-0.921c0.003-0.111-0.03-0.127-0.133-0.12
		C83.555,11.234,82.611,11.24,81.585,11.245z M115.288,13.194c0.157-0.398,0.367-0.742,0.581-1.083
		c0.051-0.082,0.043-0.115-0.038-0.167c-0.749-0.481-1.551-0.8-2.453-0.82c-0.732-0.016-1.425,0.131-2.037,0.548
		c-0.659,0.449-1.073,1.06-1.121,1.873c-0.052,0.883,0.286,1.602,0.956,2.176c0.472,0.404,0.994,0.737,1.504,1.087
		c0.464,0.318,0.92,0.648,1.312,1.056c0.415,0.432,0.658,0.926,0.603,1.549c-0.056,0.631-0.428,1.123-1.03,1.327
		c-0.412,0.139-0.828,0.143-1.242,0.041c-0.801-0.198-1.504-0.593-2.151-1.097c-0.059-0.046-0.116-0.096-0.203-0.168
		c0.061,0.52,0.052,0.997,0.01,1.473c-0.009,0.101,0.036,0.141,0.114,0.178c0.296,0.143,0.594,0.282,0.901,0.398
		c0.849,0.322,1.712,0.533,2.63,0.366c0.77-0.14,1.454-0.433,1.968-1.051c0.401-0.482,0.577-1.049,0.621-1.662
		c0.067-0.931-0.173-1.756-0.87-2.412c-0.315-0.297-0.66-0.557-1.027-0.786c-0.511-0.319-1.023-0.634-1.505-0.996
		c-0.273-0.205-0.521-0.436-0.759-0.683c-0.612-0.639-0.252-1.827,0.639-2.092c0.564-0.168,1.11-0.109,1.636,0.153
		C114.7,12.587,115.004,12.855,115.288,13.194z"/>
	<path fill="#FDFDFD" d="M73.008,46.675c-1.518,0-3.037-0.002-4.555,0.003c-0.147,0-0.209-0.024-0.204-0.192
		c0.013-0.384,0.003-0.389,0.383-0.421c0.216-0.018,0.429-0.039,0.632-0.122c0.294-0.12,0.439-0.349,0.481-0.651
		c0.02-0.146,0.03-0.294,0.03-0.442c0.002-2.775,0.002-5.551,0-8.326c0-0.159-0.01-0.319-0.031-0.476
		c-0.055-0.422-0.292-0.66-0.748-0.74c-0.201-0.035-0.405-0.053-0.609-0.062c-0.104-0.005-0.134-0.035-0.136-0.138
		c-0.01-0.454-0.013-0.454,0.431-0.454c2.855,0,5.71,0.001,8.565-0.004c0.166,0,0.217,0.033,0.22,0.211
		c0.015,1.205,0.045,2.41,0.071,3.615c0.003,0.119,0.014,0.238,0.018,0.357c0.001,0.033,0.001,0.074-0.017,0.097
		c-0.072,0.089-0.495,0.007-0.53-0.102c-0.134-0.416-0.266-0.833-0.439-1.235c-0.26-0.605-0.569-1.175-1.074-1.619
		c-0.494-0.435-1.082-0.63-1.723-0.7c-0.507-0.056-1.01-0.048-1.503,0.097c-0.604,0.179-0.847,0.51-0.847,1.133
		c0,1.137,0.002,2.275-0.003,3.412c-0.001,0.142,0.037,0.186,0.18,0.181c0.392-0.012,0.783-0.025,1.167-0.118
		c0.543-0.132,0.919-0.453,1.114-0.98c0.095-0.256,0.177-0.517,0.203-0.789c0.016-0.161,0.083-0.233,0.25-0.237
		c0.251-0.007,0.251-0.016,0.251,0.234c0,1.467-0.003,2.935,0.004,4.402c0.001,0.161-0.048,0.205-0.203,0.198
		c-0.264-0.011-0.259-0.003-0.311-0.272c-0.038-0.195-0.082-0.389-0.139-0.579c-0.213-0.708-0.699-1.096-1.425-1.184
		c-0.31-0.037-0.622-0.048-0.933-0.075c-0.114-0.01-0.158,0.021-0.158,0.147c0.004,1.496,0.001,2.991,0.004,4.487
		c0.001,0.363,0.167,0.57,0.517,0.663c0.288,0.077,0.582,0.1,0.878,0.09c0.59-0.019,1.178-0.054,1.753-0.214
		c0.944-0.263,1.613-0.851,2.075-1.699c0.304-0.558,0.508-1.153,0.638-1.773c0.039-0.185,0.112-0.255,0.292-0.224
		c0.033,0.006,0.069,0.005,0.102,0c0.128-0.019,0.165,0.033,0.161,0.162c-0.019,0.671-0.028,1.341-0.041,2.012
		c-0.014,0.716-0.032,1.432-0.038,2.149c-0.001,0.141-0.04,0.181-0.183,0.18C76.056,46.673,74.532,46.675,73.008,46.675z"/>
	<path fill="#FDFDFD" d="M84.933,39.574c0-0.049,0-0.099,0-0.148c0-1.086,0-2.172,0-3.258c0-0.531-0.211-0.757-0.74-0.795
		c-0.085-0.006-0.17-0.015-0.254-0.023c-0.237-0.024-0.237-0.024-0.237-0.256c0-0.318,0-0.324,0.308-0.339
		c0.755-0.036,1.51-0.06,2.265-0.1c0.165-0.009,0.194,0.047,0.194,0.198c-0.004,3.48,0.001,6.96-0.007,10.441
		c-0.001,0.529,0.065,0.817,0.788,0.878c0.328,0.028,0.324,0.038,0.317,0.377c-0.002,0.092-0.026,0.129-0.123,0.133
		c-0.335,0.012-0.669,0.035-1.004,0.049c-0.415,0.017-0.829,0.025-1.244,0.046c-0.126,0.006-0.167-0.026-0.165-0.157
		c0.008-0.432,0.004-0.864,0.002-1.296c0-0.053,0.017-0.11-0.026-0.184c-0.049,0.096-0.092,0.179-0.134,0.262
		c-0.524,1.035-1.432,1.562-2.582,1.469c-0.711-0.058-1.275-0.428-1.745-0.939c-0.771-0.839-1.158-1.843-1.25-2.973
		c-0.1-1.23,0.199-2.346,0.945-3.329c0.542-0.713,1.245-1.193,2.145-1.336c0.673-0.107,1.317-0.047,1.862,0.423
		c0.24,0.207,0.412,0.468,0.573,0.737c0.026,0.043,0.051,0.087,0.077,0.13C84.909,39.58,84.921,39.577,84.933,39.574z
		 M81.046,42.531c0,0.216-0.01,0.433,0.002,0.648c0.036,0.636,0.114,1.266,0.336,1.87c0.119,0.324,0.28,0.624,0.536,0.86
		c0.658,0.61,1.631,0.456,2.187-0.182c0.393-0.45,0.594-0.989,0.723-1.56c0.185-0.817,0.204-1.645,0.131-2.474
		c-0.056-0.641-0.175-1.268-0.463-1.855c-0.421-0.858-1.338-1.225-2.169-0.84c-0.484,0.224-0.753,0.644-0.939,1.122
		C81.089,40.896,81.023,41.708,81.046,42.531z"/>
	<path fill="#FDFDFD" d="M135.48,39.973c0.106-0.166,0.207-0.337,0.321-0.498c0.386-0.55,0.864-0.985,1.537-1.144
		c0.789-0.186,1.529-0.085,2.16,0.461c0.42,0.364,0.626,0.857,0.751,1.386c0.107,0.45,0.137,0.909,0.138,1.37
		c0.002,1.257,0.001,2.514,0.001,3.771c0,0.475,0.189,0.684,0.664,0.737c0.124,0.014,0.249,0.027,0.374,0.029
		c0.086,0.001,0.116,0.027,0.121,0.117c0.025,0.474,0.028,0.474-0.444,0.474c-0.688,0-1.376-0.005-2.064,0.004
		c-0.157,0.002-0.185-0.048-0.185-0.193c0.003-1.945,0.004-3.89-0.004-5.835c-0.001-0.353-0.067-0.698-0.22-1.025
		c-0.331-0.708-1.074-0.8-1.618-0.554c-0.541,0.244-0.853,0.703-1.088,1.219c-0.241,0.528-0.356,1.084-0.35,1.669
		c0.01,1.103,0.003,2.207,0.003,3.31c0,0.523,0.189,0.732,0.71,0.784c0.141,0.014,0.283,0.031,0.425,0.028
		c0.109-0.002,0.131,0.039,0.133,0.14c0.008,0.453,0.011,0.453-0.448,0.453c-1.109,0-2.218-0.002-3.327,0.003
		c-0.139,0.001-0.186-0.033-0.183-0.178c0.007-0.411,0.001-0.411,0.42-0.439c0.425-0.028,0.658-0.184,0.722-0.498
		c0.02-0.099,0.016-0.204,0.016-0.306c0.001-1.786,0.001-3.572,0.001-5.358c0-0.585-0.2-0.798-0.785-0.837
		c-0.372-0.025-0.363-0.025-0.375-0.404c-0.005-0.167,0.05-0.208,0.211-0.213c0.727-0.023,1.454-0.057,2.18-0.096
		c0.138-0.007,0.174,0.032,0.171,0.167c-0.008,0.426-0.003,0.853-0.003,1.28c0,0.055,0,0.11,0,0.165
		C135.455,39.966,135.467,39.969,135.48,39.973z"/>
	<path fill="#FDFDFD" d="M93.873,45.16c-0.223,0.301-0.418,0.599-0.652,0.871c-0.73,0.847-2.017,1.106-2.996,0.581
		c-0.659-0.353-0.983-0.955-1.157-1.651c-0.107-0.426-0.14-0.861-0.14-1.3c0.002-1.257,0.001-2.513,0-3.77
		c0-0.113,0.003-0.226-0.025-0.339c-0.054-0.221-0.19-0.356-0.403-0.42c-0.192-0.057-0.389-0.083-0.589-0.074
		c-0.098,0.004-0.139-0.02-0.142-0.131c-0.012-0.471-0.016-0.471,0.454-0.471c0.671,0,1.342,0,2.013,0c0.225,0,0.225,0,0.225,0.219
		c0,1.922,0.001,3.844-0.001,5.766c0,0.262,0.014,0.522,0.078,0.777c0.19,0.751,0.724,1.083,1.485,0.929
		c0.593-0.12,0.988-0.493,1.265-1.002c0.299-0.552,0.459-1.142,0.454-1.778c-0.009-1.143-0.002-2.286-0.002-3.429
		c0-0.624-0.181-0.82-0.807-0.873c-0.011-0.001-0.023-0.001-0.034-0.002c-0.46-0.025-0.458-0.025-0.426-0.498
		c0.005-0.08,0.03-0.11,0.11-0.109c0.859,0.002,1.717,0.002,2.576,0c0.092,0,0.116,0.044,0.114,0.127
		c-0.004,0.136-0.001,0.273-0.001,0.409c0,2.087,0,4.174,0,6.26c0,0.097-0.005,0.195,0.011,0.289
		c0.051,0.302,0.254,0.463,0.636,0.512c0.118,0.015,0.238,0.032,0.356,0.029c0.113-0.003,0.137,0.045,0.129,0.142
		c-0.006,0.068,0.001,0.136-0.001,0.205c-0.008,0.284,0.054,0.244-0.24,0.261c-0.715,0.04-1.431,0.055-2.146,0.086
		c-0.111,0.005-0.147-0.027-0.146-0.14c0.006-0.438,0.002-0.876,0.002-1.313C93.873,45.268,93.873,45.214,93.873,45.16z"/>
	<path fill="#FDFDFD" d="M109.978,45.222c-0.127,0.289-0.266,0.568-0.466,0.811c-0.379,0.462-0.88,0.701-1.463,0.79
		c-0.664,0.102-1.31,0.082-1.931-0.22c-0.981-0.477-1.256-1.58-0.938-2.381c0.207-0.523,0.621-0.876,1.074-1.18
		c0.618-0.415,1.301-0.695,1.999-0.941c0.476-0.168,0.956-0.327,1.438-0.479c0.143-0.045,0.192-0.117,0.186-0.268
		c-0.019-0.5,0.015-1-0.019-1.5c-0.024-0.363-0.232-0.597-0.533-0.758c-0.69-0.369-1.938-0.341-2.635,0.184
		c0.358,0.102,0.581,0.331,0.648,0.688c0.08,0.423-0.025,0.791-0.371,1.067c-0.275,0.22-0.585,0.234-0.901,0.113
		c-0.413-0.159-0.666-0.688-0.569-1.163c0.124-0.605,0.519-0.999,1.028-1.291c0.667-0.383,1.393-0.488,2.154-0.433
		c0.454,0.032,0.903,0.071,1.34,0.213c0.788,0.255,1.209,0.804,1.33,1.608c0.036,0.237,0.039,0.476,0.039,0.714
		c0.001,1.308,0.001,2.616,0.001,3.924c0,0.261,0.004,0.523,0.06,0.78c0.035,0.161,0.096,0.316,0.278,0.351
		c0.203,0.039,0.396,0.014,0.537-0.17c0.155-0.202,0.205-0.439,0.243-0.682c0.003-0.017,0.002-0.034,0.003-0.051
		c0.025-0.3,0.11-0.359,0.406-0.295c0.062,0.013,0.07,0.047,0.068,0.096c-0.028,0.642-0.16,1.253-0.679,1.686
		c-0.472,0.394-1.018,0.449-1.584,0.216c-0.322-0.132-0.465-0.418-0.57-0.727C110.074,45.697,110.04,45.462,109.978,45.222z
		 M109.873,42.951c0-0.227-0.005-0.455,0.002-0.682c0.004-0.131-0.036-0.154-0.159-0.115c-0.692,0.216-1.356,0.492-1.932,0.942
		c-0.676,0.528-1.099,1.171-0.942,2.082c0.082,0.476,0.374,0.831,0.803,0.937c0.323,0.08,0.633,0.03,0.93-0.104
		c0.601-0.272,0.935-0.77,1.138-1.374C109.897,44.088,109.871,43.518,109.873,42.951z"/>
	<path fill="#FDFDFD" d="M124.237,42.542c-0.003-1.183,0.347-2.24,1.17-3.108c0.671-0.708,1.503-1.101,2.483-1.168
		c1.249-0.085,2.3,0.332,3.14,1.256c0.654,0.719,0.971,1.587,1.07,2.546c0.093,0.898-0.031,1.76-0.424,2.571
		c-0.554,1.141-1.441,1.894-2.693,2.155c-1.951,0.406-3.794-0.657-4.464-2.547C124.322,43.697,124.225,43.13,124.237,42.542z
		 M125.983,42.65c-0.012,0.227,0.018,0.596,0.049,0.963c0.031,0.367,0.094,0.731,0.195,1.087c0.307,1.087,0.963,1.611,2.022,1.588
		c0.702-0.016,1.259-0.302,1.611-0.935c0.176-0.316,0.282-0.656,0.357-1.007c0.179-0.84,0.178-1.692,0.128-2.543
		c-0.032-0.544-0.107-1.084-0.297-1.601c-0.147-0.402-0.348-0.77-0.709-1.018c-1.088-0.748-2.54-0.291-3.008,0.943
		C126.041,40.895,125.987,41.697,125.983,42.65z"/>
	<path fill="#FDFDFD" d="M103.096,39.553c-0.127-0.247-0.326-0.406-0.567-0.497c-0.728-0.272-1.467-0.305-2.195-0.013
		c-0.531,0.213-0.888,0.621-1.135,1.128c-0.263,0.54-0.381,1.117-0.406,1.711c-0.037,0.866,0.001,1.727,0.268,2.562
		c0.174,0.546,0.436,1.036,0.886,1.407c0.709,0.585,1.81,0.553,2.567,0.108c0.471-0.277,0.826-0.673,1.119-1.127
		c0.077-0.119,0.131-0.149,0.262-0.073c0.252,0.146,0.254,0.135,0.097,0.389c-0.448,0.723-1.035,1.286-1.858,1.549
		c-1.604,0.511-3.454-0.027-4.44-1.647c-0.892-1.466-0.976-3.555,0.172-5.058c0.702-0.919,1.617-1.497,2.767-1.686
		c0.822-0.135,1.608-0.035,2.341,0.372c0.597,0.331,0.956,0.822,0.99,1.525c0.021,0.425-0.249,0.885-0.629,1.048
		c-0.385,0.165-0.874,0.06-1.159-0.248c-0.247-0.267-0.307-0.734-0.137-1.069c0.145-0.285,0.491-0.437,0.879-0.386
		C102.971,39.557,103.024,39.581,103.096,39.553z"/>
	<path fill="#FDFDFD" d="M115.826,42.29c0,0.989-0.001,1.979,0.002,2.968c0,0.142,0.008,0.286,0.034,0.424
		c0.103,0.527,0.555,0.658,1.009,0.595c0.487-0.068,0.744-0.398,0.895-0.834c0.134-0.388,0.154-0.791,0.135-1.195
		c-0.008-0.177,0.046-0.239,0.217-0.212c0.056,0.009,0.114,0.002,0.17,0.002c0.056,0,0.083,0.026,0.083,0.082
		c-0.005,0.661-0.012,1.321-0.335,1.926c-0.243,0.457-0.649,0.689-1.138,0.785c-0.411,0.081-0.828,0.074-1.237-0.009
		c-0.77-0.156-1.197-0.637-1.312-1.436c-0.034-0.238-0.039-0.475-0.039-0.714c0-1.808-0.002-3.617,0.004-5.425
		c0.001-0.161-0.047-0.202-0.2-0.195c-0.284,0.012-0.569-0.001-0.853,0.006c-0.113,0.003-0.151-0.034-0.143-0.146
		c0.01-0.141-0.041-0.314,0.024-0.417c0.068-0.109,0.258-0.07,0.396-0.089c0.716-0.099,1.151-0.513,1.356-1.194
		c0.128-0.424,0.232-0.854,0.309-1.29c0.027-0.151,0.083-0.206,0.242-0.201c0.38,0.012,0.38,0.003,0.38,0.389
		c0,0.722,0.004,1.444-0.003,2.167c-0.001,0.142,0.039,0.183,0.181,0.182c0.637-0.007,1.274,0,1.911-0.006
		c0.137-0.001,0.188,0.033,0.186,0.18c-0.006,0.423,0.001,0.423-0.428,0.423c-0.557,0-1.115,0.005-1.672-0.003
		c-0.146-0.002-0.178,0.045-0.178,0.183C115.828,40.254,115.826,41.272,115.826,42.29z"/>
	<path fill="#FDFDFD" d="M122.167,41.962c0,1.103,0,2.206,0,3.309c0,0.513,0.189,0.727,0.694,0.783
		c0.135,0.015,0.272,0.031,0.408,0.028c0.109-0.002,0.131,0.04,0.133,0.14c0.009,0.448,0.012,0.448-0.435,0.448
		c-1.131,0-2.263-0.002-3.394,0.003c-0.131,0.001-0.175-0.03-0.173-0.168c0.007-0.414,0-0.414,0.413-0.443
		c0.057-0.004,0.114-0.003,0.17-0.013c0.509-0.089,0.653-0.26,0.653-0.779c0.001-1.796,0-3.593,0-5.389
		c0-0.08,0.001-0.16-0.007-0.239c-0.023-0.236-0.14-0.402-0.368-0.484c-0.234-0.084-0.476-0.106-0.721-0.1
		c-0.102,0.003-0.136-0.027-0.139-0.134c-0.01-0.471-0.014-0.464,0.454-0.48c0.715-0.025,1.43-0.057,2.145-0.094
		c0.139-0.007,0.171,0.034,0.17,0.167C122.165,39.666,122.167,40.814,122.167,41.962z"/>
	<path fill="#FDFDFD" d="M120.32,35.723c-0.001-0.526,0.406-0.96,0.902-0.962c0.506-0.002,0.911,0.438,0.911,0.991
		c0,0.527-0.405,0.955-0.905,0.957C120.712,36.711,120.321,36.286,120.32,35.723z"/>
	<path fill="#FCFCFC" d="M139.837,19.103c0.045-1.343,0.052-2.651,0.054-3.958c0.002-1.307,0.002-2.613-0.088-3.929
		c0.455,0.088,0.895,0.101,1.333,0.012c0.1-0.02,0.083,0.03,0.078,0.092c-0.096,1.099-0.134,2.202-0.158,3.304
		c-0.048,2.115-0.074,4.23,0.054,6.343c0.016,0.266,0.035,0.533,0.092,0.795c0.02,0.094,0.008,0.128-0.104,0.118
		c-0.38-0.035-0.762-0.04-1.141,0.004c-0.115,0.013-0.152-0.051-0.199-0.12c-0.676-0.989-1.385-1.955-2.091-2.924
		c-1.198-1.643-2.405-3.28-3.643-4.893c-0.033-0.043-0.067-0.085-0.144-0.118c0,0.157,0.002,0.313,0,0.47
		c-0.036,2.138-0.07,4.276-0.005,6.413c0.011,0.352,0.034,0.704,0.061,1.055c0.008,0.101-0.019,0.127-0.117,0.124
		c-0.386-0.013-0.772-0.044-1.159-0.005c-0.14,0.014-0.088-0.093-0.082-0.15c0.077-0.805,0.094-1.612,0.112-2.419
		c0.053-2.297,0.062-4.594-0.025-6.89c-0.014-0.369-0.028-0.739-0.088-1.104c-0.016-0.098,0.022-0.109,0.106-0.111
		c0.398-0.009,0.795,0.065,1.192,0.005c0.092-0.014,0.115,0.06,0.153,0.111c0.793,1.067,1.581,2.137,2.376,3.202
		c1.112,1.488,2.228,2.972,3.343,4.458C139.77,19.018,139.794,19.048,139.837,19.103z"/>
	<path fill="#FCFCFC" d="M129.409,16.735c-0.058,1.54-0.713,3.072-2.136,4.222c-1.01,0.816-2.185,1.149-3.481,1.063
		c-2.525-0.166-4.277-1.967-4.734-4.327c-0.212-1.093-0.193-2.173,0.244-3.213c0.721-1.715,1.972-2.846,3.8-3.248
		c2.579-0.567,5.179,0.955,6.023,3.477C129.316,15.28,129.41,15.866,129.409,16.735z M127.734,16.723
		c0.014-1.342-0.374-2.483-1.023-3.325c-1.297-1.683-3.952-1.694-5.23,0.163c-1.262,1.832-1.082,4.375,0.051,6.021
		c0.801,1.163,2.115,1.662,3.478,1.309c0.894-0.232,1.531-0.815,1.987-1.603C127.499,18.418,127.719,17.472,127.734,16.723z"/>
	<path fill="#FCFCFC" d="M103.728,16.858c1.306,1.659,2.549,3.344,3.821,5.024c-0.638-0.047-1.26-0.057-1.881,0.002
		c-0.119,0.011-0.159-0.045-0.21-0.125c-0.872-1.357-1.752-2.71-2.758-3.971c-0.322-0.404-0.423-0.829-0.493-1.297
		c-0.017-0.111,0.047-0.087,0.108-0.085c0.421,0.012,0.826-0.062,1.207-0.244c0.657-0.313,0.989-0.86,1.1-1.558
		c0.076-0.476,0.05-0.942-0.192-1.373c-0.337-0.599-0.884-0.896-1.534-1.022c-0.506-0.098-1.021-0.041-1.532-0.056
		c-0.117-0.003-0.109,0.071-0.111,0.145c-0.01,0.54-0.027,1.08-0.026,1.62c0.002,2.57,0.069,5.139,0.16,7.708
		c0.009,0.26,0.012,0.255-0.246,0.245c-0.443-0.018-0.887-0.03-1.329,0.011c-0.153,0.014-0.179-0.026-0.169-0.166
		c0.167-2.385,0.147-4.773,0.127-7.161c-0.009-1.086-0.027-2.172-0.123-3.255c-0.009-0.1,0.002-0.139,0.12-0.129
		c0.283,0.022,0.567,0.028,0.851,0.039c0.602,0.022,1.202-0.062,1.805-0.049c0.725,0.015,1.439,0.076,2.122,0.344
		c1.41,0.551,1.871,1.714,1.627,3.056c-0.212,1.171-0.934,1.91-2.081,2.229C103.98,16.819,103.863,16.832,103.728,16.858z"/>
	<path fill="#FCFCFC" d="M96.577,21.88c-0.585-0.029-1.153-0.043-1.72,0.002c-0.117,0.009-0.113-0.064-0.133-0.131
		c-0.221-0.738-0.457-1.472-0.712-2.199c-0.079-0.225-0.163-0.447-0.239-0.672c-0.028-0.082-0.071-0.113-0.158-0.117
		c-1.295-0.063-2.591-0.076-3.886-0.003c-0.117,0.007-0.152,0.063-0.183,0.155c-0.3,0.916-0.548,1.847-0.82,2.771
		c-0.043,0.146-0.086,0.202-0.259,0.187c-0.418-0.036-0.839-0.027-1.28,0.008c0.077-0.188,0.151-0.362,0.221-0.539
		c1.252-3.179,2.436-6.382,3.479-9.636c0.04-0.124,0.078-0.249,0.105-0.376c0.018-0.085,0.046-0.122,0.144-0.113
		c0.459,0.046,0.919,0.047,1.379,0.002c0.076-0.008,0.135-0.011,0.165,0.09c0.498,1.656,1.112,3.271,1.71,4.892
		c0.67,1.818,1.35,3.631,2.078,5.427C96.499,21.707,96.535,21.784,96.577,21.88z M89.938,17.584
		c0.036,0.008,0.058,0.014,0.079,0.017c1.003,0.136,2.006,0.13,3.011,0.025c0.259-0.027,0.259-0.025,0.172-0.277
		c-0.015-0.043-0.028-0.086-0.043-0.129c-0.525-1.497-1.05-2.994-1.586-4.523C91.02,14.346,90.48,15.962,89.938,17.584z"/>
	<path fill="#FCFCFC" d="M70.355,16.727c0.039,1.308,0.062,2.616,0.114,3.923c0.015,0.369,0.039,0.738,0.068,1.106
		c0.008,0.107-0.009,0.132-0.124,0.117c-0.503-0.068-1.009-0.072-1.513-0.003c-0.145,0.02-0.186-0.004-0.171-0.155
		c0.048-0.481,0.058-0.965,0.073-1.448c0.083-2.706,0.102-5.413,0.021-8.119c-0.011-0.369-0.041-0.738-0.079-1.105
		c-0.013-0.12,0.016-0.128,0.119-0.123c0.477,0.021,0.957,0.072,1.43,0.04c0.597-0.04,1.192-0.05,1.789-0.044
		c0.722,0.007,1.426,0.129,2.085,0.435c1.161,0.538,1.707,1.473,1.691,2.734c-0.016,1.289-0.689,2.192-1.762,2.823
		c-0.794,0.467-1.668,0.67-2.587,0.692c-0.108,0.003-0.138-0.039-0.147-0.13c-0.02-0.215-0.038-0.43-0.065-0.644
		c-0.015-0.12,0.073-0.077,0.122-0.081c0.519-0.041,1.019-0.15,1.496-0.366c1.076-0.488,1.477-1.514,1.349-2.496
		c-0.136-1.046-0.8-1.706-1.886-1.947c-0.211-0.047-0.425-0.072-0.642-0.071c-0.415,0.001-0.83,0.004-1.245-0.003
		c-0.113-0.002-0.139,0.031-0.139,0.141C70.356,13.576,70.355,15.151,70.355,16.727z"/>
	<path fill="#FCFCFC" d="M81.585,11.245c1.026-0.005,1.97-0.011,2.912-0.071c0.103-0.007,0.136,0.01,0.133,0.12
		c-0.008,0.307-0.01,0.614,0.001,0.921c0.004,0.126-0.046,0.135-0.147,0.128c-0.584-0.04-1.169-0.074-1.753-0.114
		c-0.596-0.04-1.193-0.031-1.791-0.025c-0.063,0.001-0.105,0.001-0.105,0.086c-0.001,1.103-0.054,2.206-0.012,3.309
		c0.005,0.143,0.065,0.175,0.191,0.183c0.888,0.06,1.773,0.025,2.658-0.046c0.221-0.018,0.442-0.039,0.662-0.066
		c0.065-0.008,0.093-0.004,0.093,0.07c-0.002,0.341-0.004,0.683,0.001,1.024c0.002,0.126-0.084,0.083-0.139,0.077
		c-0.436-0.046-0.873-0.068-1.311-0.082c-0.637-0.02-1.273-0.031-1.91,0.014c-0.166,0.012-0.238,0.048-0.243,0.24
		c-0.035,1.217-0.035,2.434-0.047,3.651c-0.002,0.172,0.06,0.204,0.215,0.205c1.195,0.011,2.387-0.061,3.581-0.111
		c0.136-0.006,0.163,0.031,0.155,0.155c-0.018,0.289-0.028,0.579-0.034,0.869c-0.002,0.113-0.032,0.158-0.157,0.147
		c-1.641-0.141-3.283-0.127-4.926-0.033c-0.057,0.003-0.114,0.007-0.17,0.014c-0.292,0.036-0.286,0.037-0.261-0.247
		c0.057-0.629,0.071-1.26,0.083-1.891c0.044-2.445,0.033-4.891-0.034-7.336c-0.01-0.364-0.03-0.727-0.058-1.09
		c-0.01-0.134,0.002-0.184,0.16-0.172C80.109,11.233,80.888,11.227,81.585,11.245z"/>
	<path fill="#FCFCFC" d="M115.288,13.194c-0.284-0.339-0.588-0.607-0.96-0.792c-0.526-0.262-1.072-0.321-1.636-0.153
		c-0.891,0.265-1.251,1.454-0.639,2.092c0.237,0.247,0.486,0.478,0.759,0.683c0.482,0.362,0.994,0.677,1.505,0.996
		c0.367,0.229,0.712,0.488,1.027,0.786c0.696,0.657,0.937,1.481,0.87,2.412c-0.044,0.613-0.22,1.18-0.621,1.662
		c-0.514,0.618-1.198,0.91-1.968,1.051c-0.918,0.168-1.781-0.044-2.63-0.366c-0.308-0.117-0.605-0.256-0.901-0.398
		c-0.078-0.038-0.123-0.077-0.114-0.178c0.042-0.476,0.051-0.953-0.01-1.473c0.087,0.072,0.143,0.122,0.203,0.168
		c0.647,0.503,1.35,0.899,2.151,1.097c0.414,0.102,0.83,0.099,1.242-0.041c0.601-0.203,0.974-0.695,1.03-1.327
		c0.055-0.623-0.188-1.116-0.603-1.549c-0.392-0.408-0.848-0.738-1.312-1.056c-0.51-0.35-1.032-0.683-1.504-1.087
		c-0.67-0.574-1.008-1.293-0.956-2.176c0.048-0.813,0.462-1.424,1.121-1.873c0.612-0.417,1.305-0.565,2.037-0.548
		c0.902,0.02,1.704,0.339,2.453,0.82c0.081,0.052,0.089,0.085,0.038,0.167C115.655,12.452,115.445,12.795,115.288,13.194z"/>
	<path fill="#989898" d="M81.046,42.531c-0.023-0.823,0.043-1.635,0.344-2.411c0.185-0.478,0.455-0.898,0.939-1.122
		c0.831-0.385,1.749-0.018,2.169,0.84c0.288,0.587,0.407,1.214,0.463,1.855c0.073,0.83,0.054,1.658-0.131,2.474
		c-0.129,0.571-0.331,1.11-0.723,1.56c-0.557,0.638-1.529,0.792-2.187,0.182c-0.255-0.236-0.416-0.536-0.536-0.86
		c-0.222-0.604-0.3-1.233-0.336-1.87C81.036,42.964,81.046,42.747,81.046,42.531z"/>
	<path fill="#989898" d="M109.873,42.951c-0.001,0.567,0.025,1.137-0.16,1.687c-0.203,0.603-0.537,1.102-1.138,1.374
		c-0.296,0.134-0.607,0.184-0.93,0.104c-0.429-0.106-0.721-0.462-0.803-0.937c-0.158-0.911,0.266-1.554,0.942-2.082
		c0.577-0.45,1.24-0.726,1.932-0.942c0.124-0.039,0.163-0.015,0.159,0.115C109.868,42.496,109.873,42.723,109.873,42.951z"/>
	<path fill="#989898" d="M125.983,42.65c0.004-0.953,0.058-1.755,0.349-2.522c0.468-1.234,1.92-1.692,3.008-0.943
		c0.361,0.248,0.561,0.616,0.709,1.018c0.189,0.517,0.264,1.057,0.297,1.601c0.05,0.851,0.052,1.702-0.128,2.543
		c-0.075,0.351-0.181,0.69-0.357,1.007c-0.353,0.633-0.909,0.919-1.611,0.935c-1.059,0.023-1.715-0.5-2.022-1.588
		c-0.101-0.356-0.164-0.72-0.195-1.087C126.001,43.246,125.971,42.877,125.983,42.65z"/>
	<path fill="#848383" d="M127.734,16.723c-0.015,0.749-0.235,1.695-0.738,2.565c-0.456,0.787-1.092,1.371-1.987,1.603
		c-1.363,0.353-2.678-0.146-3.478-1.309c-1.133-1.645-1.313-4.188-0.051-6.021c1.279-1.857,3.933-1.845,5.23-0.163
		C127.36,14.24,127.748,15.381,127.734,16.723z"/>
	<path fill="#848383" d="M89.938,17.584c0.542-1.623,1.082-3.239,1.633-4.887c0.537,1.53,1.062,3.026,1.586,4.523
		c0.015,0.043,0.028,0.086,0.043,0.129c0.087,0.252,0.087,0.25-0.172,0.277c-1.005,0.105-2.008,0.111-3.011-0.025
		C89.996,17.598,89.974,17.592,89.938,17.584z"/>
</g>
</svg>
