<?xml version="1.0" encoding="utf-8"?>
<!-- Generator: Adobe Illustrator 17.0.0, SVG Export Plug-In . SVG Version: 6.00 Build 0)  -->
<!DOCTYPE svg PUBLIC "-//W3C//DTD SVG 1.1//EN" "http://www.w3.org/Graphics/SVG/1.1/DTD/svg11.dtd">
<svg version="1.1" id="Layer_1" xmlns="http://www.w3.org/2000/svg" xmlns:xlink="http://www.w3.org/1999/xlink" x="0px" y="0px"
	 width="210px" height="60px" viewBox="0 0 210 60" enable-background="new 0 0 210 60" xml:space="preserve">
<g>
	<g>
		<path fill="#989898" d="M42.946,30.805c0.047-4.752,0.561-8.798,1.801-12.735c0.79-2.508,1.874-4.876,3.462-6.99
			C50.9,7.5,54.478,5.498,58.938,5.089c2.529-0.232,5.014-0.024,7.422,0.826c2.831,0.999,5.086,2.774,6.878,5.159
			c1.657,2.206,2.763,4.683,3.57,7.304c0.76,2.47,1.221,5,1.48,7.569c0.184,1.822,0.259,3.647,0.198,5.477
			c-0.13,3.87-0.714,7.659-2.025,11.317c-0.85,2.371-1.985,4.591-3.58,6.556c-2.778,3.421-6.359,5.329-10.763,5.649
			c-2.535,0.184-5.012-0.088-7.389-1.042c-2.677-1.074-4.817-2.836-6.539-5.127c-1.702-2.265-2.846-4.805-3.667-7.501
			c-0.685-2.252-1.132-4.553-1.341-6.896C43.058,32.98,42.995,31.575,42.946,30.805z M76.401,29.352
			c-0.068-1.441-0.11-2.884-0.208-4.323c-0.171-2.502-0.567-4.969-1.258-7.384c-0.654-2.284-1.562-4.454-2.942-6.405
			c-1.786-2.524-4.128-4.279-7.127-5.104c-2.277-0.626-4.588-0.697-6.911-0.326c-2.904,0.464-5.386,1.743-7.393,3.91
			c-1.616,1.746-2.713,3.797-3.517,6.017c-1.16,3.203-1.667,6.532-1.856,9.915c-0.144,2.588-0.13,5.179,0.033,7.767
			c0.181,2.859,0.594,5.681,1.379,8.441c0.681,2.392,1.623,4.668,3.059,6.717c1.715,2.446,3.936,4.221,6.821,5.102
			c1.976,0.603,3.997,0.729,6.043,0.508c2.649-0.285,5.012-1.249,7.031-3.008c1.787-1.556,3.059-3.484,4.026-5.626
			c1.461-3.235,2.157-6.661,2.52-10.169C76.309,33.381,76.376,31.369,76.401,29.352z"/>
		<path fill="#989898" d="M72.647,34.712c-0.075,0.615-0.138,1.231-0.233,1.842c-0.028,0.183-0.126,0.365-0.229,0.523
			c-0.204,0.312-0.537,0.343-0.749,0.038c-0.177-0.255-0.322-0.555-0.392-0.856c-0.244-1.056-0.556-2.091-0.986-3.083
			c-0.541-1.249-1.128-2.478-1.702-3.712c-0.051-0.11-0.132-0.227-0.231-0.289c-0.094-0.059-0.263-0.105-0.338-0.058
			c-0.088,0.055-0.144,0.214-0.15,0.331c-0.007,0.126,0.054,0.258,0.097,0.384c0.644,1.888,1.155,3.81,1.456,5.783
			c0.277,1.817,0.36,3.639,0.026,5.459c-0.152,0.828-0.424,1.614-0.843,2.35c-0.237,0.417-0.44,0.855-0.642,1.291
			c-0.083,0.18-0.139,0.376-0.181,0.57c-0.143,0.66,0.025,1.074,0.58,1.454c0.177,0.121,0.369,0.22,0.545,0.343
			c0.212,0.148,0.422,0.301,0.617,0.47c0.131,0.114,0.299,0.253,0.215,0.449c-0.09,0.21-0.308,0.162-0.491,0.147
			c-0.273-0.022-0.545-0.043-0.817-0.073c-0.459-0.051-0.809,0.116-1.053,0.508c-0.086,0.138-0.171,0.278-0.269,0.408
			c-0.261,0.344-0.641,0.362-0.923,0.036c-0.115-0.133-0.209-0.287-0.301-0.439c-0.193-0.318-0.475-0.489-0.841-0.496
			c-0.392-0.008-0.784,0.016-1.176,0.011c-0.105-0.001-0.209-0.059-0.313-0.091c0.04-0.113,0.046-0.263,0.125-0.333
			c0.348-0.309,0.713-0.597,1.077-0.887c0.133-0.106,0.274-0.203,0.42-0.289c0.202-0.12,0.223-0.283,0.131-0.474
			c-0.194-0.404-0.5-0.694-0.915-0.862c-0.68-0.276-1.392-0.26-2.102-0.203c-1.016,0.081-1.997,0.342-2.969,0.633
			c-0.224,0.067-0.437,0.18-0.644,0.293c-0.179,0.098-0.198,0.24-0.097,0.431c0.184,0.345,0.365,0.696,0.503,1.061
			c0.203,0.537-0.033,0.811-0.608,0.755c-0.302-0.029-0.604-0.05-0.907-0.065c-0.481-0.025-0.902,0.131-1.266,0.444
			c-0.168,0.145-0.33,0.299-0.509,0.43c-0.141,0.104-0.295,0.205-0.458,0.262c-0.348,0.122-0.536-0.02-0.56-0.391
			c-0.005-0.074-0.01-0.148-0.019-0.221c-0.04-0.326-0.159-0.466-0.491-0.497c-0.255-0.024-0.516,0.008-0.774,0.01
			c-0.15,0.001-0.355,0.064-0.411-0.119c-0.058-0.189,0.136-0.279,0.277-0.35c0.831-0.423,1.663-0.844,2.5-1.253
			c0.497-0.242,0.568-0.553,0.115-0.869c-1.715-1.197-2.4-2.965-2.784-4.907c-0.334-1.691-0.317-3.401-0.242-5.111
			c0.066-1.497,0.3-2.974,0.576-4.444c0.024-0.13,0.041-0.267,0.023-0.396c-0.011-0.082-0.075-0.196-0.143-0.221
			c-0.07-0.026-0.194,0.013-0.258,0.066c-0.087,0.073-0.161,0.178-0.203,0.284c-0.631,1.593-1.183,3.209-1.37,4.925
			c-0.042,0.382-0.034,0.769-0.065,1.152c-0.017,0.212-0.035,0.432-0.106,0.629c-0.127,0.35-0.457,0.441-0.723,0.184
			c-0.191-0.185-0.353-0.421-0.465-0.663c-0.289-0.63-0.355-1.309-0.368-1.994c-0.054-2.75,0.751-5.266,2.064-7.647
			c0.932-1.69,2.07-3.243,3.184-4.812c0.81-1.141,1.62-2.283,2.197-3.568c0.359-0.798,0.589-1.625,0.578-2.51
			c-0.016-1.297-0.568-2.352-1.447-3.264c-0.683-0.709-1.498-1.251-2.292-1.819c-0.228-0.163-0.445-0.343-0.648-0.536
			c-0.151-0.144-0.229-0.334-0.13-0.546c0.101-0.215,0.304-0.234,0.497-0.2c0.459,0.079,0.92,0.158,1.369,0.278
			c1.218,0.328,2.415,0.273,3.606-0.128c0.667-0.224,1.342-0.423,2.053-0.451c1.881-0.075,3.51,1.086,4.099,2.92
			c0.263,0.818,0.357,1.665,0.383,2.517c0.043,1.412,0.237,2.791,0.859,4.075c0.377,0.778,0.773,1.551,1.219,2.292
			c0.866,1.439,1.797,2.84,2.658,4.282c1.064,1.781,1.901,3.664,2.35,5.703c0.225,1.023,0.345,2.057,0.375,3.103
			C72.606,34.707,72.626,34.709,72.647,34.712z M67.523,39.375c-0.031-1.592-0.169-2.715-0.532-4.133
			c-0.22-0.86-0.49-1.708-0.699-2.57c-0.6-2.471-0.834-4.988-0.895-7.525c-0.025-1.038-0.108-2.07-0.445-3.065
			c-1.129-3.334-4.886-3.196-6.447-1.617c-0.671,0.679-1.108,1.492-1.452,2.367c-0.522,1.328-0.819,2.718-1.144,4.101
			c-0.894,3.812-1.351,7.663-1.077,11.584c0.069,0.982,0.12,1.967,0.428,2.913c0.5,1.533,1.542,2.283,3.153,2.293
			c0.641,0.004,1.244-0.168,1.845-0.352c1.381-0.424,2.766-0.554,4.173-0.124c0.401,0.122,0.815,0.147,1.229,0.042
			c0.786-0.2,1.238-0.743,1.509-1.468C67.472,41.008,67.508,40.157,67.523,39.375z M63.89,14.93
			c-0.061-0.378-0.102-0.761-0.194-1.13c-0.042-0.167-0.171-0.323-0.291-0.457c-0.101-0.113-0.217-0.071-0.272,0.075
			c-0.023,0.062-0.034,0.129-0.049,0.193c-0.243,1.034-0.8,1.855-1.689,2.433c-0.377,0.245-0.787,0.439-1.178,0.663
			c-0.345,0.197-0.709,0.374-1.02,0.618c-0.178,0.139-0.295,0.381-0.387,0.599c-0.077,0.185,0.06,0.333,0.264,0.334
			c0.087,0.001,0.175-0.021,0.262-0.039c0.659-0.133,1.318-0.269,1.977-0.399c0.377-0.074,0.76-0.118,1.132-0.211
			c0.538-0.135,0.903-0.48,1.105-1C63.761,16.071,63.844,15.512,63.89,14.93z M60.812,14.254c1.04,0.004,1.909-1.112,1.666-2.14
			c-0.176-0.744-0.847-1.153-1.587-0.968c-0.762,0.19-1.37,0.996-1.347,1.782C59.567,13.695,60.099,14.251,60.812,14.254z"/>
		<path fill="#989898" d="M61.95,12.784c0,0.465-0.387,0.885-0.816,0.885c-0.329,0-0.549-0.238-0.547-0.592
			c0.002-0.465,0.389-0.883,0.82-0.884C61.739,12.194,61.95,12.422,61.95,12.784z"/>
	</g>
	<text transform="matrix(1 0 0 1 88.1522 24.9812)"><tspan x="0" y="0" fill="#989898" font-family="'MyriadPro-Regular'" font-size="20.3779">PENGUIN</tspan><tspan x="0" y="22" fill="#989898" font-family="'MyriadPro-Regular'" font-size="20.3779">BOOKS</tspan></text>
</g>
</svg>
