<?xml version="1.0" encoding="utf-8"?>
<!-- Generator: Adobe Illustrator 17.0.0, SVG Export Plug-In . SVG Version: 6.00 Build 0)  -->
<!DOCTYPE svg PUBLIC "-//W3C//DTD SVG 1.1//EN" "http://www.w3.org/Graphics/SVG/1.1/DTD/svg11.dtd">
<svg version="1.1" id="Layer_1" xmlns="http://www.w3.org/2000/svg" xmlns:xlink="http://www.w3.org/1999/xlink" x="0px" y="0px"
	 width="210px" height="60px" viewBox="0 0 210 60" enable-background="new 0 0 210 60" xml:space="preserve">
<g>
	<path fill="#989898" d="M175.751,42.461c-1.693,0.013-3.385,0.022-5.078,0.043c-0.277,0.003-0.343-0.121-0.335-0.368
		c0.013-0.384,0.003-0.769,0.003-1.14c-0.111-0.069-0.155-0.001-0.198,0.053c-1.231,1.539-2.921,2.011-4.776,1.913
		c-4.846-0.254-7.729-4.775-7.124-9.181c0.356-2.592,1.568-4.654,3.873-5.978c2.253-1.293,5.748-1.446,8.17,0.959
		c0.11-0.17,0.051-0.355,0.051-0.527c0.005-3.168,0.017-6.335-0.01-9.503c-0.004-0.509,0.148-0.603,0.617-0.595
		c1.602,0.027,3.204,0.006,4.806,0.003C175.751,26.249,175.751,34.355,175.751,42.461z M167.144,31.5
		c-2.044-0.005-3.443,1.38-3.452,3.417c-0.009,2.07,1.346,3.45,3.394,3.458c2.108,0.008,3.481-1.344,3.48-3.427
		C170.566,32.902,169.179,31.505,167.144,31.5z"/>
	<path fill="#989898" d="M105.599,50.035c0-9.959,0.002-19.795-0.005-29.631c0-0.436,0.079-0.831,0.277-1.22
		c2.364-4.639,6.099-7.207,11.337-7.458c3.714-0.178,7.163,0.891,10.508,2.369c3.467,1.532,6.647,3.554,9.728,5.743
		c0.281,0.2,0.276,0.438,0.276,0.716c-0.008,5.195-0.011,10.39-0.018,15.584c-0.008,6.079-0.018,12.158-0.028,18.237
		c0,0.199,0,0.399,0,0.622c-0.227,0.013-0.318-0.143-0.432-0.239c-3.586-3.015-7.316-5.828-11.487-8
		c-2.756-1.436-5.621-2.546-8.745-2.897c-4.879-0.549-9.107,1.537-11.227,5.891C105.752,49.816,105.706,49.872,105.599,50.035z
		 M122.003,32.168c-0.105-0.264-0.16-0.4-0.212-0.537c-1.365-3.591-2.736-7.181-4.086-10.777c-0.145-0.386-0.327-0.527-0.749-0.519
		c-1.547,0.028-3.094,0.024-4.641,0.002c-0.391-0.005-0.522,0.101-0.589,0.504c-0.742,4.462-1.511,8.92-2.271,13.379
		c-0.445,2.61-0.888,5.221-1.334,7.831c-0.044,0.261-0.065,0.459,0.317,0.456c1.676-0.014,3.352-0.009,5.028-0.003
		c0.256,0.001,0.347-0.1,0.382-0.35c0.251-1.803,0.514-3.605,0.776-5.407c0.335-2.303,0.671-4.607,1.026-7.038
		c0.121,0.257,0.196,0.399,0.255,0.546c1.418,3.552,2.829,7.106,4.255,10.654c0.211,0.524,0.254,1.249,0.709,1.507
		c0.423,0.239,1.077,0.042,1.625,0.095c0.466,0.045,0.674-0.144,0.846-0.56c1.599-3.875,3.217-7.742,4.833-11.609
		c0.065-0.156,0.079-0.352,0.272-0.457c0.029,0.058,0.066,0.103,0.073,0.152c0.233,1.825,0.463,3.65,0.693,5.475
		c0.271,2.154,0.546,4.307,0.804,6.462c0.047,0.396,0.182,0.548,0.615,0.54c1.583-0.03,3.168-0.023,4.752-0.004
		c0.404,0.005,0.48-0.099,0.417-0.505c-0.589-3.78-1.152-7.563-1.725-11.345c-0.496-3.273-1.003-6.544-1.485-9.819
		c-0.057-0.384-0.173-0.511-0.577-0.504c-1.584,0.027-3.168,0.025-4.752,0.001c-0.377-0.006-0.549,0.114-0.685,0.459
		c-0.882,2.241-1.785,4.474-2.684,6.708C123.28,29.016,122.666,30.528,122.003,32.168z"/>
	<path fill="#989898" d="M78.27,40.975c0,0.398-0.011,0.797,0.004,1.195c0.01,0.261-0.084,0.357-0.348,0.356
		c-1.565-0.008-3.13-0.009-4.696,0c-0.3,0.002-0.393-0.13-0.366-0.402c0.009-0.091,0.001-0.184,0.001-0.276
		c0-7.679,0.008-15.357-0.015-23.036c-0.002-0.584,0.17-0.694,0.706-0.679c1.38,0.038,2.762,0.032,4.143,0.002
		c0.453-0.01,0.586,0.103,0.583,0.57c-0.021,3.167-0.011,6.334-0.011,9.502c0,0.18,0,0.36,0,0.625
		c0.345-0.29,0.618-0.552,0.923-0.77c2.368-1.693,5.786-1.545,8.242,0.348c4.485,3.456,3.889,11.069-1.105,13.722
		c-1.948,1.035-4.003,1.172-6.071,0.303C79.501,42.116,78.885,41.596,78.27,40.975z M81.494,31.501
		c-2.027,0.002-3.443,1.412-3.45,3.435c-0.007,2.059,1.396,3.444,3.484,3.439c2.048-0.005,3.438-1.405,3.419-3.446
		C84.929,32.89,83.527,31.499,81.494,31.501z"/>
	<path fill="#989898" d="M34.258,31.392c0-3.5,0.006-7-0.009-10.5c-0.002-0.412,0.075-0.563,0.532-0.558
		c2.947,0.027,5.895,0.011,8.842,0.028c1.13,0.006,2.235,0.201,3.298,0.595c2.427,0.899,3.75,2.684,4.129,5.205
		c0.205,1.362,0.139,2.718-0.188,4.057c-0.64,2.622-2.492,4.286-5.147,4.736c-1.724,0.292-3.452,0.195-5.18,0.199
		c-0.444,0.001-0.543,0.128-0.539,0.552c0.021,2.1,0.001,4.2,0.017,6.3c0.003,0.37-0.074,0.511-0.479,0.506
		c-1.602-0.023-3.205-0.023-4.808,0c-0.408,0.006-0.478-0.141-0.477-0.508C34.263,38.466,34.258,34.929,34.258,31.392z
		 M40.006,27.744c0,0.811,0.01,1.621-0.005,2.432c-0.005,0.281,0.073,0.395,0.37,0.384c0.773-0.029,1.55,0.01,2.32-0.055
		c1.724-0.145,2.531-1.076,2.489-2.806c-0.005-0.201-0.036-0.403-0.067-0.603c-0.186-1.181-0.713-1.757-1.885-2.004
		c-0.961-0.203-1.942-0.142-2.917-0.17c-0.305-0.009-0.309,0.169-0.307,0.39C40.009,26.123,40.006,26.933,40.006,27.744z"/>
	<path fill="#989898" d="M105.121,45.892c0,1.336,0,2.671,0,4.007c-0.227-1.009-0.412-2.016-0.784-2.977
		c-1.254-3.246-3.718-5.057-7.001-5.891c-1.51-0.384-3.048-0.513-4.601-0.428c-0.371,0.02-0.454-0.076-0.453-0.436
		c0.009-10.814,0.012-21.628-0.005-32.442c-0.001-0.6,0.337-0.433,0.627-0.39c1.866,0.276,3.654,0.816,5.357,1.63
		c0.008,0.239,0.022,0.478,0.022,0.717c0.001,8.007,0.004,16.014-0.008,24.021c-0.001,0.412,0.101,0.596,0.513,0.738
		c1.186,0.409,2.187,1.131,3.022,2.063c2.114,2.357,3.037,5.197,3.32,8.291c-0.003,0.289-0.006,0.579-0.009,0.868
		C105.121,45.739,105.121,45.815,105.121,45.892z"/>
	<path fill="#989898" d="M150.922,35.842c-1.713,0-3.425,0.011-5.138-0.008c-0.399-0.004-0.494,0.12-0.466,0.508
		c0.121,1.66,1.174,2.707,2.832,2.816c1.184,0.078,2.248-0.1,2.954-1.186c0.126-0.194,0.312-0.161,0.493-0.161
		c1.436-0.001,2.873,0.013,4.309-0.009c0.414-0.006,0.46,0.124,0.341,0.479c-0.575,1.717-1.681,2.993-3.31,3.734
		c-3.185,1.449-6.374,1.343-9.441-0.334c-1.975-1.079-3.083-2.845-3.459-5.059c-0.237-1.396-0.21-2.791,0.169-4.159
		c0.715-2.578,2.387-4.272,4.91-5.096c1.877-0.613,3.8-0.657,5.718-0.174c3.299,0.831,5.419,3.375,5.678,6.781
		c0.035,0.459,0.041,0.92,0.088,1.377c0.039,0.384-0.095,0.503-0.486,0.499C154.385,35.831,152.653,35.842,150.922,35.842z
		 M148.489,32.742c0.901,0,1.801-0.01,2.702,0.005c0.33,0.006,0.421-0.085,0.321-0.412c-0.345-1.123-1.646-2.016-2.955-2.008
		c-1.447,0.009-2.691,0.845-3.048,2.027c-0.087,0.287-0.045,0.397,0.278,0.392C146.687,32.733,147.588,32.742,148.489,32.742z"/>
	<path fill="#989898" d="M53.464,32.611c0-1.566,0.011-3.131-0.008-4.697c-0.004-0.364,0.104-0.474,0.467-0.47
		c1.473,0.018,2.947,0.022,4.42-0.002c0.415-0.007,0.532,0.114,0.531,0.527c-0.012,2.634,0,5.267,0.009,7.901
		c0.001,0.257,0.01,0.518,0.053,0.771c0.263,1.534,1.178,2.164,2.981,2.067c1.381-0.074,2.229-0.916,2.286-2.405
		c0.061-1.582,0.034-3.167,0.04-4.751c0.005-1.197,0.02-2.395-0.009-3.591c-0.01-0.424,0.125-0.525,0.532-0.519
		c1.455,0.024,2.91,0.024,4.365,0c0.41-0.007,0.531,0.101,0.528,0.521c-0.019,2.873,0.003,5.747-0.015,8.62
		c-0.021,3.3-1.519,5.255-4.723,6.016c-2.587,0.615-5.186,0.582-7.727-0.297c-2.209-0.764-3.603-2.6-3.692-4.941
		c-0.061-1.582-0.012-3.167-0.012-4.751C53.481,32.611,53.473,32.611,53.464,32.611z"/>
	<path fill="#B7B7B7" d="M105.327,16.254c-0.062-2.412-0.621-4.737-1.783-6.876c-1.078-1.984-2.583-3.516-4.753-4.312
		c-0.393-0.144-0.527-0.066-0.522,0.364c0.014,1.178-0.003,2.356-0.008,3.535c0.008,0.239,0.022,0.478,0.022,0.717
		c0.001,8.007,0.004,16.014-0.008,24.021c-0.001,0.412,0.101,0.596,0.513,0.738c1.186,0.409,2.187,1.131,3.022,2.063
		c2.114,2.357,3.037,5.197,3.32,8.291c-0.003,0.289-0.006,0.579-0.009,0.868c0,0.077,0,0.153,0,0.23
		c0.431,0.05,0.102,0.461,0.323,0.65C105.339,36.428,105.585,26.34,105.327,16.254z"/>
</g>
</svg>
