<?xml version="1.0" encoding="utf-8"?>
<!-- Generator: Adobe Illustrator 17.0.0, SVG Export Plug-In . SVG Version: 6.00 Build 0)  -->
<!DOCTYPE svg PUBLIC "-//W3C//DTD SVG 1.1//EN" "http://www.w3.org/Graphics/SVG/1.1/DTD/svg11.dtd">
<svg version="1.1" id="Layer_1" xmlns="http://www.w3.org/2000/svg" xmlns:xlink="http://www.w3.org/1999/xlink" x="0px" y="0px"
	 width="210px" height="60px" viewBox="0 0 210 60" enable-background="new 0 0 210 60" xml:space="preserve">
<g>
	<g>
		<g>
			<path fill="#989898" d="M186.414,19.758c0,2.39,0,4.78,0,7.17c0,1.052,0.025,2.104-0.012,3.154
				c-0.017,0.471,0.146,0.717,0.58,0.863c0.346,0.116,0.7,0.252,0.995,0.459c0.24,0.168,0.397,0.453,0.591,0.686
				c-0.056,0.06-0.112,0.121-0.169,0.181c-1.896,0-3.791,0-5.68,0c-0.199-0.466-0.051-0.765,0.39-0.856
				c1.468-0.303,1.696-1.237,1.656-2.608c-0.106-3.567-0.049-7.14-0.022-10.711c0.004-0.533-0.166-0.81-0.65-0.973
				c-0.346-0.116-0.664-0.312-1.008-0.436c-0.441-0.16-0.543-0.441-0.368-0.9c1.788,0,3.587,0,5.42,0
				c1.57,3.809,3.142,7.623,4.779,11.592c0.174-0.408,0.295-0.678,0.406-0.953c1.346-3.329,2.707-6.653,4.021-9.995
				c0.219-0.556,0.492-0.718,1.066-0.701c1.486,0.043,2.974,0.014,4.443,0.014c0.231,0.526,0.077,0.842-0.394,0.936
				c-1.428,0.286-1.691,1.17-1.652,2.528c0.105,3.568,0.049,7.14,0.021,10.711c-0.004,0.574,0.132,0.92,0.707,1.078
				c0.327,0.09,0.622,0.29,0.946,0.393c0.448,0.142,0.557,0.418,0.416,0.878c-2.358,0-4.719,0-7.084,0
				c-0.193-0.437-0.083-0.75,0.368-0.847c1.489-0.321,1.724-1.28,1.672-2.668c-0.113-3-0.035-6.007-0.176-9.067
				c-0.089,0.2-0.183,0.398-0.266,0.601c-1.58,3.841-3.155,7.684-4.749,11.519c-0.107,0.258-0.358,0.456-0.542,0.682
				c-0.205-0.23-0.491-0.426-0.602-0.695c-1.586-3.839-3.147-7.687-4.716-11.533c-0.072-0.177-0.158-0.35-0.238-0.524
				C186.514,19.744,186.464,19.751,186.414,19.758z"/>
			<path fill="#989898" d="M145.254,15.672c3.372,0.076,6.776,0.004,10.153,0.272c3.158,0.25,5.419,2.507,6.047,5.626
				c0.521,2.585,0.254,5.075-1.234,7.321c-1.247,1.882-3.065,3.052-5.274,3.216c-3.233,0.24-6.487,0.2-9.69,0.278
				c-0.212-0.544-0.134-0.868,0.334-0.96c1.497-0.293,1.736-1.24,1.694-2.636c-0.108-3.567-0.047-7.139-0.024-10.709
				c0.003-0.518-0.133-0.82-0.64-0.967c-0.326-0.095-0.626-0.279-0.949-0.388C145.231,16.576,145.009,16.33,145.254,15.672z
				 M150.484,16.84c0,4.902,0,9.577,0,14.289c0.715,0,1.372,0.016,2.028-0.003c2.771-0.078,4.658-1.508,5.415-4.182
				c0.571-2.016,0.576-4.064-0.032-6.073c-0.537-1.775-1.571-3.213-3.464-3.644C153.168,16.941,151.835,16.962,150.484,16.84z"/>
			<path fill="#989898" d="M99.081,24.151c1.516,2.128,2.951,4.226,4.492,6.245c0.35,0.459,1.048,0.676,1.617,0.938
				c0.426,0.196,0.626,0.434,0.45,0.975c-1.409,0-2.846,0.019-4.281-0.022c-0.196-0.006-0.431-0.274-0.568-0.476
				c-1.512-2.223-3.009-4.456-4.51-6.687c-0.109-0.162-0.19-0.366-0.341-0.471c-0.159-0.111-0.386-0.169-0.581-0.163
				c-0.068,0.002-0.182,0.262-0.183,0.405c-0.012,1.809-0.018,3.619,0.01,5.428c0.003,0.179,0.208,0.419,0.383,0.519
				c0.379,0.217,0.791,0.388,1.205,0.531c0.43,0.148,0.59,0.399,0.425,0.886c-2.336,0-4.693,0-7.067,0
				c-0.17-0.416-0.082-0.738,0.377-0.83c1.49-0.299,1.745-1.231,1.7-2.636c-0.112-3.542-0.052-7.09-0.022-10.635
				c0.005-0.577-0.133-0.916-0.703-1.074c-0.327-0.091-0.626-0.277-0.948-0.389c-0.47-0.162-0.599-0.446-0.426-0.821
				c3.121,0,6.197-0.093,9.265,0.035c1.818,0.076,3.116,1.467,3.372,3.154c0.307,2.021-0.543,3.73-2.292,4.565
				C100.04,23.827,99.593,23.959,99.081,24.151z M95.21,16.924c0,2.205,0,4.317,0,6.479c1.392,0.087,2.796,0.256,3.662-1.095
				c0.845-1.318,0.98-2.789,0.198-4.176C98.212,16.609,96.678,16.917,95.21,16.924z"/>
			<path fill="#989898" d="M139.143,26.829c0.02-0.353,0.043-0.559,0.043-0.765c0.002-2.641-0.015-5.282,0.014-7.923
				c0.006-0.543-0.127-0.872-0.662-1.038c-0.324-0.101-0.615-0.302-0.936-0.417c-0.447-0.161-0.528-0.449-0.364-0.899
				c1.889,0,3.784,0,5.673,0c0.186,0.476,0.061,0.813-0.424,0.902c-1.468,0.268-1.653,1.208-1.626,2.533
				c0.085,4.155,0.031,8.314,0.031,12.471c0,0.265,0,0.529,0,0.807c-0.774,0.19-1.294,0.097-1.798-0.582
				c-2.898-3.908-5.853-7.773-8.79-11.651c-0.131-0.174-0.275-0.338-0.487-0.597c-0.03,0.272-0.066,0.448-0.066,0.625
				c-0.004,3.252,0.01,6.505-0.017,9.757c-0.004,0.505,0.153,0.765,0.612,0.917c0.323,0.107,0.655,0.231,0.932,0.421
				c0.246,0.169,0.423,0.439,0.63,0.664c-0.053,0.068-0.106,0.136-0.16,0.204c-1.894,0-3.787,0-5.716,0
				c-0.179-0.435-0.058-0.751,0.422-0.85c1.412-0.292,1.699-1.161,1.657-2.528c-0.109-3.567-0.052-7.14-0.019-10.71
				c0.005-0.591-0.171-0.904-0.72-1.072c-0.325-0.099-0.658-0.227-0.931-0.421c-0.242-0.172-0.405-0.454-0.603-0.687
				c0.054-0.08,0.108-0.16,0.162-0.24c1.482,0,2.964-0.019,4.444,0.024c0.193,0.006,0.406,0.31,0.562,0.513
				c2.535,3.293,5.063,6.593,7.593,9.89C138.742,26.361,138.897,26.534,139.143,26.829z"/>
			<path fill="#989898" d="M180.333,23.762c-0.103,3.474-1.274,6.319-4.45,7.999c-3.704,1.959-8.409,0.893-10.548-2.331
				c-2.341-3.527-1.576-9.313,1.683-11.993c2.735-2.248,5.862-2.527,9.021-1.121C179.209,17.726,180.248,20.534,180.333,23.762z
				 M167.413,24.033c0.018,1.728,0.231,3.417,1.078,4.961c0.794,1.447,1.957,2.389,3.676,2.385c1.755-0.004,2.993-0.941,3.658-2.485
				c0.466-1.082,0.788-2.264,0.947-3.433c0.305-2.243,0.052-4.444-1.083-6.465c-0.599-1.067-1.459-1.83-2.684-2.108
				c-1.937-0.439-3.669,0.44-4.628,2.372C167.635,20.762,167.417,22.378,167.413,24.033z"/>
			<path fill="#989898" d="M124.443,32.281c-2.324,0-4.639,0-6.94,0c-0.262-0.57,0.101-0.754,0.496-0.953
				c1.294-0.651,1.29-0.657,0.822-2c-0.313-0.899-0.649-1.791-0.926-2.701c-0.141-0.463-0.339-0.665-0.862-0.648
				c-1.294,0.044-2.59,0.029-3.885,0.007c-0.422-0.007-0.658,0.102-0.815,0.527c-0.506,1.371-1.059,2.724-1.574,4.033
				c0.489,0.746,1.875,0.433,1.846,1.736c-1.889,0-3.715,0-5.546,0c-0.202-0.467-0.07-0.761,0.398-0.905
				c1.067-0.328,1.594-1.096,2.011-2.111c1.782-4.336,3.675-8.626,5.452-12.963c0.332-0.811,0.863-0.642,1.442-0.715
				c0.632-0.079,0.706,0.353,0.86,0.762c1.699,4.5,3.43,8.988,5.075,13.507c0.322,0.883,0.99,1.137,1.681,1.459
				C124.386,31.502,124.644,31.72,124.443,32.281z M113.023,24.721c1.431,0,2.755,0,4.157,0c-0.64-1.869-1.255-3.664-1.933-5.646
				C114.467,21.055,113.764,22.84,113.023,24.721z"/>
		</g>
		<g>
			<path fill="#989898" d="M102.474,48.835c-2.414,0-4.745,0-7.16,0c0,1.711,0.066,3.395-0.025,5.07
				c-0.053,0.961,0.217,1.482,1.16,1.745c0.44,0.123,1.168,0.186,0.898,1.067c-2.388,0-4.795,0-7.248,0
				c-0.131-0.418-0.073-0.746,0.428-0.855c1.411-0.308,1.742-1.169,1.697-2.572c-0.117-3.59-0.049-7.187-0.028-10.781
				c0.003-0.493-0.126-0.775-0.609-0.918c-0.349-0.103-0.667-0.308-1.015-0.417c-0.462-0.145-0.629-0.416-0.473-0.926
				c2.388,0,4.795,0,7.222,0c0.219,0.483,0.061,0.81-0.442,0.918c-1.377,0.296-1.742,1.14-1.591,2.478
				c0.134,1.183,0.033,2.393,0.039,3.591c0,0.045,0.032,0.09,0.067,0.183c2.316,0,4.65,0,7.078,0c0-1.785,0.01-3.536-0.017-5.287
				c-0.002-0.154-0.219-0.357-0.385-0.445c-0.409-0.217-0.838-0.403-1.274-0.559c-0.447-0.16-0.528-0.444-0.389-0.888
				c2.396,0,4.786,0,7.216,0c0.201,0.39,0.189,0.764-0.33,0.866c-1.547,0.303-1.755,1.292-1.715,2.699
				c0.102,3.542,0.044,7.09,0.022,10.635c-0.003,0.51,0.113,0.824,0.627,0.977c0.349,0.103,0.666,0.308,1.012,0.424
				c0.43,0.144,0.598,0.39,0.419,0.878c-2.388,0-4.796,0-7.229,0c-0.187-0.404-0.1-0.732,0.355-0.821
				c1.593-0.312,1.84-1.351,1.717-2.778C102.379,51.717,102.474,50.296,102.474,48.835z"/>
			<path fill="#989898" d="M110.268,48.973c0.09-3.142,1.05-5.903,3.813-7.664c2.746-1.75,5.709-1.85,8.587-0.366
				c2.78,1.433,3.826,3.987,3.912,6.987c0.077,2.673-0.631,5.082-2.603,6.997c-3.463,3.363-9.704,2.883-12.304-0.946
				C110.65,52.475,110.256,50.781,110.268,48.973z M123.166,48.32c0-1.339-0.237-3.191-1.205-4.878
				c-0.802-1.397-1.989-2.223-3.634-2.202c-1.679,0.021-2.942,0.863-3.583,2.368c-0.49,1.15-0.829,2.407-0.985,3.647
				c-0.269,2.139-0.031,4.259,1.008,6.202c0.777,1.454,1.96,2.381,3.681,2.376c1.691-0.004,2.832-0.914,3.613-2.35
				C122.841,52.05,123.071,50.488,123.166,48.32z"/>
			<path fill="#989898" d="M139.239,40.227c2.039,0,4.037,0,6.046,0c0.223,0.513,0.05,0.825-0.449,0.932
				c-1.33,0.285-1.666,1.085-1.596,2.406c0.124,2.364,0.042,4.74,0.031,7.11c-0.003,0.561-0.035,1.125-0.111,1.68
				c-0.309,2.265-1.555,3.755-3.767,4.37c-1.751,0.487-3.531,0.495-5.295,0.074c-2.561-0.612-3.848-2.256-3.857-4.889
				c-0.011-3.08-0.022-6.159,0.014-9.238c0.007-0.611-0.166-0.951-0.741-1.125c-0.302-0.092-0.576-0.27-0.875-0.374
				c-0.463-0.16-0.612-0.444-0.411-0.937c2.372,0,4.758,0,7.17,0c0.193,0.441,0.123,0.79-0.375,0.891
				c-1.488,0.305-1.768,1.234-1.697,2.641c0.126,2.511,0.033,5.033,0.036,7.55c0.004,3.431,1.557,4.766,4.953,4.261
				c1.644-0.245,2.537-1.088,2.816-2.721c0.094-0.55,0.122-1.117,0.124-1.677c0.012-2.884-0.006-5.768,0.017-8.652
				c0.004-0.486-0.108-0.775-0.598-0.918c-0.348-0.101-0.663-0.313-1.007-0.435C139.209,41.015,139.047,40.738,139.239,40.227z"/>
			<path fill="#989898" d="M173.64,51.013c-0.724,0.262-1.078,0.002-1.336-0.684c-0.522-1.385-0.56-1.371-2.066-1.371
				c-0.828,0-1.656,0-2.536,0c0,2.208,0,4.37,0,6.628c1.628,0,3.256,0.009,4.884-0.016c0.137-0.002,0.31-0.207,0.399-0.358
				c0.324-0.546,0.669-1.088,0.914-1.67c0.273-0.649,0.697-0.815,1.448-0.587c-0.104,1.221-0.21,2.471-0.319,3.764
				c-4.235,0-8.426,0-12.605,0c-0.188-0.508,0.027-0.786,0.485-0.877c1.35-0.269,1.635-1.092,1.598-2.403
				c-0.101-3.615-0.053-7.235-0.017-10.853c0.006-0.602-0.186-0.897-0.726-1.06c-0.302-0.091-0.58-0.263-0.882-0.356
				c-0.466-0.144-0.63-0.42-0.454-0.928c4.129,0,8.272,0,12.466,0c0,1.251,0,2.486,0,3.744c-0.685,0.232-1.208,0.134-1.381-0.655
				c-0.365-1.656-1.339-2.277-3.03-1.998c-0.879,0.145-1.801,0.025-2.769,0.025c0,2.144,0,4.252,0,6.46
				c1.251,0,2.513,0.011,3.773-0.016c0.136-0.003,0.318-0.197,0.391-0.345c0.162-0.326,0.302-0.672,0.393-1.024
				c0.184-0.716,0.568-1.045,1.369-0.751C173.64,47.437,173.64,49.231,173.64,51.013z"/>
			<path fill="#989898" d="M158.246,44.429c-1.138,0.194-1.138,0.194-1.513-0.764c-0.142-0.364-0.342-0.717-0.415-1.094
				c-0.199-1.026-0.833-1.405-1.813-1.311c-0.654,0.063-1.331,0.07-1.952,0.255c-1.705,0.507-2.149,2.488-0.793,3.642
				c0.87,0.741,1.87,1.33,2.816,1.982c0.624,0.43,1.255,0.85,1.885,1.272c1.783,1.195,2.616,2.828,2.145,4.966
				c-0.466,2.112-2.004,3.128-3.999,3.466c-2.116,0.359-4.187-0.063-6.219-0.661c-0.135-0.04-0.306-0.259-0.309-0.397
				c-0.025-1.146-0.014-2.292-0.014-3.423c1.056-0.275,1.097-0.254,1.451,0.642c0.215,0.545,0.499,1.074,0.635,1.638
				c0.171,0.708,0.605,0.943,1.259,0.926c0.682-0.018,1.37,0.006,2.042-0.088c0.998-0.14,1.75-0.694,2.001-1.695
				c0.271-1.08-0.009-2.061-0.925-2.75c-0.878-0.66-1.804-1.257-2.712-1.878c-0.484-0.331-0.981-0.644-1.46-0.983
				c-1.858-1.314-2.566-2.959-2.088-4.834c0.454-1.781,2.1-3.064,4.24-3.293c1.831-0.196,3.605,0.156,5.362,0.609
				c0.153,0.039,0.357,0.279,0.362,0.431C158.26,42.204,158.246,43.324,158.246,44.429z"/>
		</g>
	</g>
	<g>
		<path fill="#989898" d="M29.986,19.449c-0.485,0-0.876,0.043-1.252-0.015c-0.264-0.041-0.706-0.203-0.717-0.339
			c-0.02-0.264,0.134-0.637,0.344-0.805c0.716-0.572,1.484-1.079,2.238-1.603c3.071-2.136,6.159-4.248,9.211-6.412
			c1.943-1.378,3.846-2.815,5.733-4.269c0.267-0.206,0.408-0.645,0.487-1.003c0.082-0.372,0.016-0.777,0.02-1.167
			c0.009-1.022,0.137-1.123,1.279-0.937c0,0.594-0.061,1.214,0.021,1.814c0.059,0.429,0.205,0.932,0.492,1.23
			c2.385,2.482,4.809,4.927,7.229,7.375c0.235,0.238,0.525,0.421,0.919,0.732c0.099-0.492,0.136-0.867,0.257-1.212
			c0.081-0.231,0.279-0.596,0.429-0.598c0.897-0.014,1.38-0.507,1.702-1.264c0.037-0.087,0.158-0.163,0.256-0.194
			c1.174-0.365,1.727,0.041,1.755,1.227c0.02,0.842-0.175,1.695,0.464,2.485c0.253,0.313,0.151,0.985,0.082,1.476
			c-0.273,1.937,0.299,3.48,1.944,4.608c0.391,0.268,0.717,0.647,1.028,1.012c0.349,0.409,0.23,0.731-0.285,0.709
			c-0.674-0.03-0.732,0.296-0.716,0.842c0.114,3.877,0.203,7.755,0.302,11.633c0.003,0.133,0.024,0.265,0.041,0.446
			c1.636,0,3.236,0.013,4.835-0.022c0.137-0.003,0.348-0.306,0.385-0.497c0.099-0.505-0.052-1.189,0.229-1.49
			c0.239-0.255,0.943-0.076,1.441-0.088c0.688-0.017,1.377-0.048,2.065-0.044c0.832,0.004,1.262,0.358,1.177,1.163
			c-0.232,2.209,0.417,4.124,1.605,5.962c0.892,1.379,1.591,2.882,2.43,4.431c-0.376,0.082-0.709,0.154-1.094,0.238
			c-0.01,0.215-0.03,0.439-0.03,0.662c-0.002,2.388,0.024,4.776-0.018,7.162c-0.011,0.666,0.219,0.857,0.831,0.796
			c0.364-0.036,0.735-0.019,1.101,0.001c0.175,0.009,0.346,0.079,0.519,0.122c-0.007,0.068-0.013,0.136-0.02,0.203
			c-0.209,0.016-0.419,0.046-0.628,0.045c-9.159-0.037-18.318-0.081-27.477-0.109c-0.608-0.002-0.918-0.182-0.828-0.835
			c0.03-0.218,0.005-0.443,0.005-0.725c-1.342,0-2.6,0-3.857,0c-1.446,0-2.893-0.01-4.339,0.005
			c-0.77,0.008-0.858,0.192-0.517,0.866c0.227,0.449-0.027,0.564-0.432,0.565c-1.308,0.006-2.617,0.03-3.925,0.032
			c-9.482,0.017-18.963,0.031-28.445,0.046c-0.241,0-0.482,0-0.722,0c-0.022-0.096-0.043-0.193-0.065-0.289
			c0.323-0.084,0.644-0.228,0.97-0.24c0.869-0.032,1.739-0.004,2.609-0.007c0.225-0.001,0.449-0.029,0.768-0.05
			c0-3.05,0-6.066,0-9.128c-0.215-0.041-0.49-0.093-0.893-0.17c0.241-0.3,0.409-0.502,0.569-0.71
			c1.853-2.426,3.72-4.842,5.542-7.291c0.267-0.358,0.395-0.862,0.462-1.317c0.082-0.563,0.039-1.145,0.04-1.719
			c0-0.484,0.082-0.848,0.705-0.871c0.154-0.006,0.434-0.377,0.417-0.558c-0.065-0.693,0.378-0.879,0.885-1.01
			c0.93-0.24,1.886,0.354,2.121,1.243c0.051,0.193,0.276,0.426,0.466,0.479c0.697,0.196,0.943,0.605,0.875,1.319
			c-0.076,0.796,0.103,0.869,0.892,1.046c1.572,0.353,2.569-0.19,3.676-1.412c1.62-1.788,2.39-3.634,2.268-6.037
			c-0.113-2.217,0.08-4.449,0.137-6.675C29.991,20.064,29.986,19.814,29.986,19.449z M52.979,37.835
			c-0.39,0.467-0.705,0.713-0.837,1.035c-0.161,0.393-0.205,0.848-0.225,1.279c-0.009,0.199,0.103,0.481,0.257,0.594
			c0.26,0.19,0.586,0.317,0.903,0.396c0.636,0.159,0.943,0.647,0.75,1.255c-0.055,0.172-0.097,0.358-0.096,0.537
			c0.01,3.167,0.022,6.335,0.062,9.502c0.002,0.172,0.262,0.48,0.397,0.477c0.201-0.004,0.437-0.195,0.583-0.37
			c0.101-0.121,0.099-0.347,0.101-0.527c0.019-1.745,0.034-3.489,0.035-5.234c0-0.191-0.092-0.383-0.147-0.574
			c-0.105-0.363-0.304-0.724-0.306-1.086c-0.013-2.64,0.018-5.28,0.025-7.92c0.013-4.844,0.023-9.688,0.017-14.533
			c0-0.213-0.153-0.597-0.271-0.612c-0.665-0.082-0.57-0.542-0.57-0.974c0-0.39-0.012-0.78-0.002-1.17
			c0.009-0.399-0.144-0.593-0.57-0.565c-0.48,0.033-0.963,0.036-1.445,0.037c-6.727,0.02-13.453,0.047-20.18,0.04
			c-0.661-0.001-0.798,0.214-0.796,0.826c0.01,3.214-0.002,6.428-0.065,9.641c-0.009,0.477-0.235,1.029-0.536,1.406
			c-0.917,1.146-1.914,2.229-2.892,3.324c-0.342,0.383-0.409,0.702-0.027,1.126c0.875,0.972,1.707,1.983,2.557,2.977
			c1.373,1.605,2.748,3.208,4.12,4.813c0.211,0.247,0.469,0.493,0.046,0.788c-0.374,0.262-0.5,1.008-0.305,1.427
			c0.136,0.291,0.272,0.617,0.275,0.929c0.02,1.882-0.008,3.765,0.006,5.647c0.002,0.241,0.149,0.481,0.229,0.722
			c0.082-0.021,0.163-0.043,0.245-0.064c0.016-0.195,0.042-0.391,0.047-0.586c0.053-1.996,0.096-3.993,0.165-5.988
			c0.008-0.231,0.158-0.457,0.242-0.686c0.097,0.228,0.227,0.449,0.281,0.687c0.049,0.219,0.022,0.457,0.019,0.686
			c-0.021,1.79-0.033,3.581-0.073,5.371c-0.01,0.445,0.077,0.674,0.591,0.493c0.011-0.125,0.03-0.26,0.034-0.395
			c0.053-2.042,0.095-4.084,0.17-6.126c0.009-0.247,0.194-0.487,0.297-0.731c0.101,0.258,0.284,0.515,0.287,0.774
			c0.012,0.963-0.045,1.927-0.056,2.891c-0.013,1.079-0.014,2.158,0.006,3.237c0.002,0.133,0.16,0.264,0.246,0.396
			c0.087-0.128,0.203-0.245,0.253-0.386c0.044-0.123,0.019-0.272,0.02-0.41c0.033-3.122,0.081-6.243,0.078-9.365
			c0-0.412-0.267-0.821-0.394-1.236c-0.056-0.185-0.131-0.4-0.08-0.565c0.026-0.085,0.311-0.087,0.478-0.131
			c0.258-0.068,0.594-0.06,0.757-0.224c0.499-0.501,0.314-1.913-0.235-2.368c-0.141-0.116-0.298-0.331-0.281-0.482
			c0.013-0.115,0.285-0.279,0.448-0.286c0.594-0.026,1.191-0.012,1.785,0.027c0.154,0.01,0.297,0.17,0.446,0.262
			c-0.103,0.158-0.212,0.312-0.308,0.474c-0.137,0.232-0.303,0.457-0.385,0.708c-0.097,0.3-0.108,0.628-0.174,0.939
			c-0.068,0.321,0.447,1.136,0.756,1.083c0.864-0.148,1.09,0.545,1.424,0.857c-0.143,0.423-0.315,0.699-0.317,0.976
			c-0.02,2.617-0.003,5.235-0.021,7.852c-0.003,0.405,0.141,0.616,0.521,0.646c0.752,0.06,1.505,0.121,2.259,0.136
			c1.108,0.023,1.109,0.006,1.109-1.135c0-1.561-0.001-3.122-0.001-4.684c0-1.621,1-2.922,2.608-3.121
			c0.79-0.098,1.623,0.153,2.515,0.255c-0.079-0.448-0.182-1.032-0.306-1.738c0.2,0,0.479,0.009,0.757-0.002
			c0.63-0.023,0.925-0.464,0.766-1.07c-0.097-0.371-0.109-0.763-0.195-1.137c-0.04-0.175-0.145-0.345-0.257-0.49
			c-0.114-0.148-0.273-0.261-0.412-0.389c0.021-0.057,0.043-0.113,0.064-0.17C51.1,37.835,51.95,37.835,52.979,37.835z
			 M26.375,43.351c-0.059-0.128-0.072-0.173-0.098-0.21c-1.319-1.906-2.587-3.85-3.977-5.703c-0.847-1.129-1.38-2.248-1.181-3.707
			c0.126-0.922,0.015-0.983-0.943-0.956c-2.166,0.06-2.054-0.405-2.031,1.994c0.005,0.52-0.092,1.144-0.383,1.546
			c-1.57,2.177-3.224,4.293-4.823,6.45c-0.187,0.252-0.294,0.62-0.302,0.938c-0.054,2.088-0.075,4.176-0.097,6.265
			c-0.011,1.045-0.002,2.091-0.002,3.088c4.363,0,8.664,0,13.072,0c0.062-2.986,0.137-5.872,0.169-8.759
			C25.786,43.822,25.851,43.483,26.375,43.351z M56.758,18.491c-0.126-0.188-0.219-0.356-0.34-0.502
			c-0.528-0.635-1.06-1.267-1.597-1.894c-2.522-2.945-5.052-5.882-7.561-8.838c-0.374-0.441-0.624-0.482-1.037-0.044
			c-0.372,0.394-0.832,0.716-1.286,1.022c-4.756,3.203-9.519,6.395-14.276,9.595c-0.248,0.167-0.464,0.38-0.802,0.661
			C38.917,18.491,47.79,18.491,56.758,18.491z M60.679,53.033c0.095-0.015,0.19-0.029,0.285-0.044c0-0.249-0.001-0.498,0-0.747
			c0.007-1.859-0.003-3.718,0.04-5.577c0.006-0.257,0.276-0.507,0.424-0.76c0.128,0.248,0.365,0.496,0.368,0.746
			c0.024,1.951,0.002,3.902-0.003,5.853c0,0.169,0.027,0.338,0.041,0.507c0.076,0.02,0.153,0.039,0.229,0.059
			c0.073-0.238,0.202-0.475,0.21-0.716c0.069-1.903,0.107-3.808,0.182-5.711c0.009-0.222,0.189-0.437,0.29-0.655
			c0.108,0.226,0.231,0.447,0.318,0.681c0.037,0.099-0.006,0.227-0.006,0.341c-0.011,1.767-0.025,3.535-0.027,5.302
			c0,0.325-0.031,0.709,0.675,0.674c0-2.082,0-4.145,0.001-6.207c0-0.161-0.04-0.344,0.024-0.476
			c0.076-0.157,0.243-0.271,0.37-0.404c0.104,0.133,0.246,0.252,0.3,0.402c0.052,0.142,0.013,0.317,0.013,0.478
			c0,1.859,0,3.719,0,5.578c0,0.339-0.045,0.714,0.55,0.624c0.015-0.291,0.04-0.562,0.041-0.832
			c0.004-1.722-0.002-3.443,0.005-5.165c0.001-0.249,0.023-0.507,0.094-0.744c0.038-0.126,0.226-0.315,0.303-0.297
			c0.15,0.036,0.321,0.175,0.386,0.316c0.071,0.154,0.04,0.359,0.038,0.542c-0.011,1.744-0.029,3.489-0.036,5.233
			c-0.001,0.326,0.038,0.652,0.059,0.978c0.096,0.016,0.191,0.033,0.287,0.049c0.073-0.256,0.203-0.51,0.21-0.768
			c0.051-1.904,0.069-3.809,0.124-5.713c0.006-0.199,0.187-0.392,0.287-0.588c0.09,0.202,0.252,0.4,0.259,0.605
			c0.034,0.917,0.021,1.836,0.033,2.754c0.014,1.101,0.026,2.203,0.066,3.303c0.004,0.123,0.184,0.24,0.283,0.36
			c0.09-0.108,0.22-0.204,0.261-0.329c0.048-0.146,0.019-0.318,0.022-0.478c0.04-1.858,0.076-3.717,0.124-5.575
			c0.005-0.204,0.076-0.406,0.117-0.61c0.085-0.009,0.17-0.017,0.254-0.026c0.084,0.27,0.234,0.538,0.24,0.81
			c0.031,1.331,0.025,2.662,0.029,3.994c0.002,0.727,0,1.453,0,2.177c0.701,0.07,0.585-0.333,0.584-0.623
			c-0.006-2.387-0.02-4.774-0.036-7.161c-0.001-0.172-0.044-0.343-0.077-0.581c-3.534,0-7.02-0.023-10.505,0.02
			c-0.651,0.008-0.805-0.22-0.806-0.779c-0.002-1.239-0.019-2.479-0.043-3.718c-0.119-6.194-0.244-12.388-0.359-18.582
			c-0.007-0.369-0.064-0.622-0.511-0.639c-0.472-0.018-0.572,0.205-0.568,0.631c0.058,6.816,0.104,13.633,0.153,20.45
			c0.008,1.125,0.035,2.25,0.002,3.373c-0.006,0.208-0.259,0.41-0.398,0.614c-0.138-0.201-0.283-0.399-0.41-0.607
			c-0.03-0.049,0.002-0.135,0.002-0.204c-0.004-8.011-0.007-16.022-0.013-24.033c-0.001-1.046-0.007-1.057,1.034-1.103
			c0.403-0.018,0.662-0.127,0.629-0.62c-0.913,0-1.808,0-2.721,0c0,0.454-0.01,0.844,0.005,1.233
			c0.006,0.154,0.045,0.425,0.112,0.439c0.9,0.193,0.619,0.903,0.622,1.443c0.047,9.363-0.148,18.728,0.281,28.088
			c0.026,0.573-0.013,1.15,0.036,1.72c0.02,0.23,0.193,0.446,0.297,0.669c0.126-0.214,0.28-0.418,0.369-0.647
			c0.054-0.139,0.009-0.317,0.009-0.478c0-1.745-0.008-3.489,0.013-5.234c0.002-0.181,0.177-0.36,0.271-0.54
			c0.105,0.188,0.301,0.375,0.302,0.563c0.012,1.882-0.01,3.764-0.014,5.646c0,0.233,0.05,0.466,0.077,0.699
			c0.082,0.012,0.165,0.025,0.247,0.037c0.069-0.251,0.188-0.5,0.198-0.753c0.043-1.055,0.052-2.111,0.077-3.166
			c0.02-0.849,0.024-1.699,0.079-2.545c0.013-0.203,0.202-0.395,0.311-0.592c0.118,0.211,0.242,0.418,0.349,0.634
			c0.027,0.055,0.005,0.136,0.003,0.205c-0.044,1.766-0.093,3.533-0.127,5.299c-0.006,0.294,0.058,0.59,0.096,0.938
			c0.644-0.256,0.556-0.694,0.551-1.097c-0.022-1.79-0.058-3.58-0.05-5.369c0.001-0.219,0.236-0.436,0.362-0.654
			c0.109,0.212,0.31,0.423,0.313,0.637c0.025,1.859,0.014,3.719,0.015,5.578c0,0.183-0.028,0.378,0.025,0.547
			c0.039,0.127,0.186,0.221,0.285,0.329c0.094-0.105,0.238-0.196,0.27-0.317c0.052-0.195,0.036-0.409,0.037-0.615
			c0.007-1.836-0.001-3.673,0.03-5.509c0.004-0.249,0.196-0.494,0.302-0.741c0.118,0.255,0.334,0.508,0.338,0.764
			c0.029,1.859,0.009,3.719,0.023,5.578C60.522,52.479,60.624,52.756,60.679,53.033z M57.828,19.413
			c0.14,7.693,0.276,15.199,0.413,22.705c0.232-0.086,0.321-0.188,0.386-0.302c1.216-2.13,2.434-4.259,3.634-6.398
			c0.102-0.183,0.121-0.433,0.117-0.651c-0.075-4.151-0.161-8.302-0.241-12.452c-0.017-0.894-0.294-1.202-1.304-1.358
			c0,1.124-0.021,2.24,0.022,3.353c0.007,0.178,0.323,0.329,0.457,0.52c0.125,0.179,0.198,0.394,0.294,0.593
			c-0.217,0.078-0.45,0.25-0.648,0.216c-0.515-0.088-0.731-0.423-0.733-0.981c-0.011-3.257-0.054-6.514-0.089-9.77
			c-0.002-0.182,0.047-0.424-0.048-0.536c-0.509-0.598-0.339-1.303-0.361-1.976c-0.014-0.431-0.003-0.863-0.003-1.303
			c-0.328,0-0.586,0-0.714,0c0.437,2.981,0.2,5.946,0.317,9.02C58.78,19.844,58.398,19.671,57.828,19.413z M71.825,34.105
			c0,1.323,0.012,2.604-0.008,3.885c-0.006,0.359-0.033,0.751-0.178,1.07c-0.57,1.251-1.198,2.474-1.785,3.717
			c-0.122,0.258-0.225,0.555-0.225,0.835c-0.01,2.912,0.015,5.825,0,8.737c-0.003,0.578,0.217,0.761,0.769,0.763
			c1.396,0.005,2.795,0.013,4.187,0.101c0.632,0.04,0.847-0.088,0.841-0.757c-0.025-2.614,0.006-5.228,0.019-7.842
			c0.001-0.181-0.036-0.472,0.054-0.524c0.655-0.38,0.223-0.746,0.028-1.127c-1.351-2.638-3.295-5.067-2.882-8.326
			C72.7,34.206,72.384,33.973,71.825,34.105z M58.525,43.437c3.313,0,6.451,0.007,9.589-0.017c0.192-0.001,0.454-0.21,0.56-0.393
			c0.672-1.171,1.324-2.355,1.948-3.553c0.174-0.333,0.315-0.723,0.329-1.092c0.049-1.282,0.041-2.567,0.041-3.85
			c0-0.171-0.063-0.482-0.127-0.49c-0.468-0.061-0.953-0.114-1.412-0.042c-0.118,0.019-0.221,0.494-0.232,0.763
			c-0.04,1.052-0.025,2.107-0.062,3.159c-0.017,0.485-0.355,0.805-0.804,0.75c-0.296-0.036-0.558-0.36-0.932-0.624
			c0.275-0.124,0.337-0.176,0.398-0.176c1.036,0.012,0.578-0.744,0.63-1.229c0.069-0.641-0.4-0.536-0.778-0.536
			c-1.467-0.003-2.935,0.011-4.402-0.008c-0.437-0.006-0.7,0.12-0.926,0.527c-1.112,2.003-2.264,3.984-3.399,5.975
			C58.814,42.83,58.706,43.074,58.525,43.437z M32.641,43.324c-1.841-2.182-3.694-4.194-5.321-6.375
			c-0.988-1.324-2.117-1.925-3.72-1.957c-1.254-0.025-1.238-0.106-1.345-1.371c-0.017-0.201-0.222-0.387-0.339-0.58
			c-0.108,0.046-0.215,0.092-0.323,0.138c0.155,0.859,0.073,1.869,0.506,2.55c1.55,2.437,3.282,4.758,4.926,7.136
			c0.248,0.358,0.498,0.524,0.949,0.513c1.308-0.032,2.616-0.009,3.925-0.012C32.114,43.366,32.33,43.343,32.641,43.324z
			 M27.974,52.956c0-1.108-0.006-2.184,0.002-3.261c0.008-1.147,0.018-2.294,0.057-3.44c0.006-0.18,0.177-0.354,0.272-0.53
			c0.107,0.188,0.224,0.371,0.314,0.566c0.035,0.076,0.005,0.181,0.004,0.273c-0.011,2.042-0.022,4.084-0.029,6.126
			c0,0.108,0.036,0.216,0.062,0.363c0.219-0.026,0.41-0.049,0.731-0.087c0-2.268-0.006-4.491,0.012-6.714
			c0.001-0.177,0.173-0.352,0.266-0.529c0.09,0.177,0.255,0.353,0.259,0.533c0.025,1.055,0.013,2.111,0.013,3.166
			c0,1.187,0,2.373,0,3.534c0.56,0.213,0.607-0.061,0.606-0.441c-0.007-2.065-0.01-4.13,0.01-6.195
			c0.002-0.202,0.171-0.402,0.263-0.603c0.086,0.199,0.242,0.397,0.246,0.598c0.041,2.018,0.047,4.038,0.092,6.056
			c0.005,0.215,0.19,0.427,0.292,0.64c0.09-0.204,0.25-0.405,0.257-0.612c0.045-1.261,0.052-2.523,0.078-3.784
			c0.017-0.825,0.034-1.651,0.082-2.475c0.008-0.137,0.172-0.264,0.264-0.396c0.088,0.136,0.224,0.264,0.253,0.412
			c0.043,0.221,0.012,0.457,0.012,0.686c0,2.038,0,4.075,0,6.109c0.667,0.181,0.76-0.166,0.747-0.604
			c-0.075-2.501,0.25-5.02-0.381-7.498c-0.097-0.383-0.242-0.475-0.59-0.47c-1.078,0.013-2.157,0.005-3.235,0.005
			c-0.795,0-1.589,0-2.56,0c0,2.783-0.004,5.485,0.009,8.188c0.001,0.165,0.137,0.33,0.211,0.495
			c0.103-0.017,0.206-0.034,0.309-0.052c0-1.229-0.016-2.458,0.004-3.687c0.02-1.217-0.03-2.442,0.276-3.651
			c0.201,0.243,0.271,0.486,0.269,0.73c-0.014,2.019-0.042,4.037-0.062,6.056C27.386,52.771,27.322,53.159,27.974,52.956z
			 M49.681,51.478c0.052-0.164,0.089-0.227,0.09-0.289c0.005-2.2,0.012-4.401-0.004-6.601c-0.002-0.202-0.116-0.444-0.256-0.596
			c-0.489-0.533-1.061-0.833-1.835-0.629c-0.943,0.25-1.289,0.961-1.315,1.795c-0.06,1.946-0.036,3.896-0.017,5.843
			c0.002,0.16,0.224,0.451,0.353,0.456C47.698,51.495,48.701,51.478,49.681,51.478z M52.497,50.65
			c-0.143-0.022-0.252-0.043-0.361-0.053c-0.307-0.029-0.693,0.059-0.695-0.439c-0.002-0.542,0.419-0.384,0.701-0.382
			c0.401,0.003,0.526-0.188,0.51-0.549c-0.011-0.252-0.017-0.506,0-0.757c0.037-0.529-0.118-0.842-0.728-0.782
			c-0.418,0.041-0.6-0.154-0.437-0.604c0.357-0.035,0.708-0.069,1.053-0.103c0-0.824,0-1.57,0-2.333
			c-0.177-0.023-0.324-0.012-0.441-0.065c-0.234-0.105-0.452-0.245-0.677-0.37c0.22-0.131,0.431-0.354,0.66-0.374
			c0.479-0.044,0.627-0.265,0.627-0.71c-0.001-1.034-0.039-1.084-1.055-1.085c-0.229,0-0.459,0.011-0.688-0.001
			c-0.39-0.021-0.522,0.157-0.51,0.538c0.022,0.687,0.009,1.376,0.007,2.064c-0.007,2.5-0.016,5-0.022,7.499
			c-0.001,0.345-0.046,0.734,0.472,0.745c0.52,0.011,1.041,0.002,1.583,0.002C52.497,52.076,52.497,51.378,52.497,50.65z
			 M39.735,50.692c-0.202-0.033-0.397-0.026-0.554-0.099c-0.19-0.089-0.347-0.247-0.519-0.375c0.181-0.111,0.355-0.235,0.544-0.329
			c0.206-0.103,0.598-0.159,0.61-0.27c0.062-0.541,0.096-1.11-0.021-1.633c-0.038-0.168-0.576-0.207-0.868-0.344
			c-0.117-0.055-0.186-0.212-0.277-0.323c0.111-0.081,0.213-0.209,0.336-0.235c0.278-0.059,0.566-0.069,0.891-0.103
			c-0.056-0.87-0.107-1.661-0.156-2.432c-0.897-0.189-0.897-0.189-0.902-0.645c1.183-0.216,1.275-0.379,0.949-1.781
			c-0.342,0-0.709,0.04-1.064-0.009c-0.678-0.093-0.912,0.117-0.907,0.845c0.014,2.521-0.052,5.042-0.083,7.563
			c-0.01,0.814-0.002,1.627-0.002,2.436c0.732,0,1.361,0,2.023,0C39.735,52.171,39.735,51.443,39.735,50.692z M58.658,18.663
			c0-1.15,0.003-2.126-0.001-3.102c-0.002-0.528,0.003-1.057-0.03-1.583c-0.047-0.763-0.613-0.696-1.153-0.716
			c-0.628-0.024-0.479,0.411-0.49,0.751c-0.019,0.573,0.047,1.159-0.046,1.719C56.709,17.113,57.581,17.82,58.658,18.663z
			 M45.824,44.366c-0.09-0.007-0.181-0.014-0.271-0.02c-0.407,2.225-0.074,4.484-0.086,6.754c0.193-0.191,0.344-0.414,0.346-0.637
			C45.832,48.431,45.824,46.398,45.824,44.366z M19.94,32.222c0.253-0.242,0.424-0.405,0.595-0.568
			c-0.221-0.11-0.439-0.298-0.662-0.305c-0.188-0.006-0.383,0.2-0.574,0.312C19.485,31.824,19.672,31.988,19.94,32.222z"/>
		<path fill="#989898" d="M13.983,56.47c0.237-0.035,0.474-0.101,0.712-0.101c8.264,0.003,16.527,0.022,24.791,0.018
			c6.22-0.003,12.44-0.107,18.658-0.031c6.011,0.073,12.021,0.32,18.031,0.487c1.124,0.031,2.249,0.047,3.373,0.072
			c0.217,0.005,0.434,0.022,0.651,0.034c0.003,0.076,0.007,0.152,0.01,0.228c-0.242,0-0.483,0.001-0.725,0
			c-9.664-0.039-19.329-0.084-28.993-0.117c-9.229-0.032-18.457-0.055-27.686-0.075c-2.593-0.006-5.186,0.022-7.779,0.008
			c-0.357-0.002-0.714-0.154-1.071-0.236C13.964,56.66,13.973,56.565,13.983,56.47z"/>
		<path fill="#989898" d="M7.043,54.623c12.646,0.153,25.117-0.057,37.587,0.111C43.407,55.438,7.967,55.363,7.043,54.623z"/>
		<path fill="#989898" d="M48.044,54.798c5.592,0,11.183,0,16.775,0c0,0.088,0,0.176,0,0.264c-5.596,0.243-11.192,0.25-16.789,0.019
			C48.035,54.986,48.04,54.892,48.044,54.798z"/>
		<path fill="#989898" d="M82.163,54.798c-0.075,0.881-0.227,0.91-0.827,0.831c-0.877-0.116-1.774-0.08-2.662-0.104
			c-3.502-0.094-7.005-0.183-10.507-0.282c-0.237-0.007-0.471-0.078-0.692-0.257c2.458,0,4.916,0.018,7.374-0.005
			C77.282,54.959,79.714,55.535,82.163,54.798z"/>
		<path fill="#989898" d="M11.625,49.893c-0.413,0.577-0.826,1.153-1.296,1.809c-0.955-0.142-1.504,0.569-1.923,1.533
			c-0.447-0.96,0.011-1.986,0.908-2.195c0.531-0.123,0.852-0.366,1.178-0.78c0.221-0.28,0.671-0.38,1.018-0.561
			C11.548,49.764,11.587,49.828,11.625,49.893z"/>
		<path fill="#989898" d="M78.846,52.269c-0.551-0.602-1.212-0.685-2-0.389c0.793-1.408,0.777-1.492-0.307-2.128
			c0.378-0.451,1.18-0.282,1.471,0.388c0.19,0.438,0.371,0.82,0.75,1.14c0.193,0.163,0.212,0.531,0.31,0.806
			C78.995,52.147,78.92,52.208,78.846,52.269z"/>
		<path fill="#989898" d="M80.726,54.262c-0.631-0.306-0.658-1.262-1.626-1.13c-0.578,0.079-1.208-0.23-1.807-0.363
			c0.378-0.628,0.759-0.73,1.244-0.243c0.281,0.281,0.535,0.346,0.831,0.115c0.418-0.326,0.785-0.259,1.049,0.152
			C80.693,53.221,81.346,53.601,80.726,54.262z"/>
		<path fill="#989898" d="M11.66,52.194c-0.662,0.255-1.246,0.481-1.948,0.751c0.168-0.282,0.272-0.64,0.51-0.819
			C10.684,51.778,11.179,51.938,11.66,52.194z"/>
		<path fill="#989898" d="M82.469,53.808c-0.377-0.299-0.754-0.598-1.247-0.988c0.916-0.161,1.197,0.264,1.397,0.795
			C82.569,53.679,82.519,53.744,82.469,53.808z"/>
		<path fill="#989898" d="M46.573,33.193c0.001,0.78-0.008,1.561,0.004,2.341c0.007,0.49-0.2,0.711-0.702,0.701
			c-0.895-0.018-1.79-0.018-2.685-0.003c-0.496,0.008-0.726-0.225-0.727-0.7c-0.004-1.607,0.001-3.213-0.003-4.82
			c-0.001-0.462,0.203-0.648,0.677-0.635c0.917,0.025,1.837,0.024,2.754-0.004c0.529-0.016,0.688,0.239,0.683,0.71
			C46.567,31.586,46.573,32.39,46.573,33.193z M43.607,32.822c0,0.345,0,0.631,0,0.912c0.808,0.103,0.9-0.023,0.676-0.888
			c-0.06-0.015-0.124-0.045-0.189-0.046C43.957,32.798,43.82,32.811,43.607,32.822z M43.611,35.452
			c0.747,0.132,0.831,0.004,0.577-0.91c-0.2,0.015-0.409,0.031-0.627,0.048c0,0.228-0.006,0.385,0.002,0.54
			C43.568,35.24,43.594,35.349,43.611,35.452z M43.585,31.998c0.86,0.184,0.919,0.126,0.735-0.698c-0.234,0-0.469,0-0.735,0
			C43.585,31.567,43.585,31.786,43.585,31.998z M45.152,33.707c0.506,0.118,0.715-0.013,0.678-0.496
			c-0.039-0.509-0.325-0.432-0.678-0.363C45.152,33.151,45.152,33.414,45.152,33.707z M45.968,34.637
			c-0.603-0.143-0.891-0.081-0.783,0.394c0.043,0.19,0.223,0.35,0.341,0.523C45.662,35.271,45.799,34.989,45.968,34.637z
			 M45.732,32.174c0.053-0.053,0.107-0.105,0.16-0.158c-0.085-0.254-0.155-0.515-0.274-0.752c-0.017-0.034-0.36,0.011-0.404,0.096
			c-0.084,0.163-0.149,0.448-0.063,0.56C45.264,32.067,45.531,32.095,45.732,32.174z"/>
		<path fill="#989898" d="M37.791,23.467c-0.06,0.697,0.124,1.623-0.252,2.024c-0.333,0.355-1.289,0.127-1.969,0.152
			c-0.206,0.008-0.441,0.063-0.611-0.016c-0.197-0.09-0.473-0.298-0.479-0.464c-0.041-1.121-0.014-2.245-0.023-3.367
			c-0.003-0.402,0.159-0.59,0.57-0.584c0.733,0.01,1.467,0.02,2.199-0.004c0.41-0.014,0.517,0.176,0.51,0.537
			c-0.011,0.573-0.003,1.146-0.003,1.718C37.752,23.464,37.772,23.465,37.791,23.467z M35.086,23.053
			c0.656,0.148,1.003,0.135,0.952-0.371c-0.02-0.198-0.257-0.373-0.395-0.559C35.477,22.4,35.311,22.677,35.086,23.053z
			 M35.358,24.844c0.263-0.075,0.506-0.075,0.6-0.193c0.079-0.099,0.042-0.387-0.053-0.499c-0.095-0.113-0.325-0.112-0.547-0.176
			C35.358,24.292,35.358,24.492,35.358,24.844z M37.268,23.954c-0.407,0.039-0.589,0.057-1,0.096
			c0.263,0.346,0.425,0.56,0.587,0.773C36.97,24.581,37.085,24.338,37.268,23.954z M36.492,22.263
			c0.139,0.309,0.256,0.571,0.373,0.833c0.097-0.096,0.257-0.178,0.281-0.29C37.224,22.447,37.15,22.164,36.492,22.263z"/>
		<path fill="#989898" d="M44.335,38.928c0-0.389-0.009-0.777,0.002-1.166c0.017-0.624,0.216-0.773,0.754-0.518
			c0.97,0.46,1.916,0.971,2.89,1.423c0.669,0.311,0.53,0.897,0.544,1.421c0.029,1.124-0.045,1.174-1.154,1.051
			c-0.727-0.081-1.454-0.177-2.184-0.217c-0.599-0.033-0.878-0.282-0.831-0.897c0.028-0.364,0.005-0.731,0.005-1.097
			C44.352,38.928,44.344,38.928,44.335,38.928z M45.231,38.322c0,0.531,0,1.041,0,1.551c0.114-0.089,0.131-0.184,0.133-0.281
			c0.003-0.113-0.025-0.23-0.007-0.341c0.072-0.458,0.441-0.524,0.773-0.232c-0.145,0.335-0.308,0.626-0.375,0.936
			c-0.015,0.07,0.309,0.212,0.521,0.35C46.413,38.655,46.411,38.651,45.231,38.322z M47.415,40.503
			c0.038-0.017,0.342-0.074,0.357-0.174c0.054-0.367,0.173-0.805-0.296-1.023C47.456,39.692,47.437,40.058,47.415,40.503z"/>
		<path fill="#989898" d="M43.395,23.137c0.061-0.627-0.095-1.465,0.249-1.82c0.311-0.321,1.166-0.135,1.782-0.137
			c1.714-0.004,1.634-0.201,1.628,1.635c-0.002,0.574-0.01,1.148,0.002,1.722c0.009,0.449-0.159,0.689-0.642,0.681
			c-0.78-0.014-1.561-0.011-2.341-0.002c-0.436,0.005-0.629-0.192-0.618-0.626c0.012-0.482,0.003-0.964,0.003-1.446
			C43.435,23.141,43.415,23.139,43.395,23.137z M44.295,23.229c-0.007,0-0.014,0-0.021,0c0,0.183-0.046,0.383,0.012,0.546
			c0.072,0.205,0.23,0.38,0.35,0.568c0.14-0.18,0.37-0.346,0.401-0.544c0.063-0.402,0.059-0.828-0.001-1.231
			c-0.025-0.169-0.263-0.307-0.405-0.458c-0.112,0.144-0.28,0.273-0.322,0.436C44.253,22.76,44.295,23,44.295,23.229z
			 M45.611,23.177c-0.003,0-0.006,0-0.01,0c0,0.228-0.05,0.472,0.015,0.68c0.057,0.186,0.24,0.334,0.368,0.498
			c0.126-0.165,0.34-0.319,0.362-0.496c0.053-0.427,0.056-0.871-0.002-1.297c-0.022-0.163-0.266-0.295-0.408-0.441
			c-0.108,0.124-0.276,0.233-0.31,0.375C45.572,22.711,45.611,22.949,45.611,23.177z"/>
		<path fill="#989898" d="M33.711,37.377c-0.001,0.32,0.029,0.644-0.009,0.959c-0.038,0.311-0.104,0.857-0.229,0.878
			c-0.528,0.089-1.085,0.038-1.627-0.011c-0.065-0.006-0.142-0.315-0.144-0.485c-0.014-0.914,0.006-1.829-0.011-2.743
			c-0.009-0.455,0.177-0.574,0.619-0.567c1.4,0.021,1.4,0.003,1.402,1.421C33.712,37.011,33.711,37.194,33.711,37.377z
			 M33.141,36.847c-0.068-0.063-0.137-0.125-0.205-0.188c-0.154,0.162-0.385,0.3-0.444,0.492c-0.077,0.248-0.051,0.544-0.003,0.808
			c0.024,0.13,0.198,0.233,0.305,0.348c0.116-0.126,0.313-0.241,0.331-0.38C33.173,37.572,33.141,37.207,33.141,36.847z"/>
		<path fill="#989898" d="M20.934,45.714c0,0.595-0.019,1.192,0.006,1.786c0.021,0.518-0.185,0.778-0.712,0.773
			c-0.641-0.006-1.283-0.011-1.924-0.003c-0.454,0.006-0.689-0.202-0.691-0.655c-0.004-1.26-0.029-2.521,0.024-3.779
			c0.009-0.206,0.359-0.547,0.576-0.568c0.749-0.074,1.511-0.066,2.263-0.012c0.161,0.012,0.409,0.338,0.426,0.535
			c0.055,0.637,0.02,1.281,0.02,1.922C20.927,45.714,20.931,45.714,20.934,45.714z M18.481,47.528
			c0.207-0.009,0.38-0.017,0.562-0.025c0-0.446,0-0.844,0-1.238C18.327,46.236,18.327,46.236,18.481,47.528z M19.641,45.081
			c0.177,0.24,0.312,0.423,0.448,0.606c0.107-0.207,0.284-0.407,0.304-0.621c0.023-0.243,0.176-0.691-0.329-0.625
			C19.916,44.46,19.812,44.808,19.641,45.081z M19.045,44.463c-0.83-0.195-0.594,0.377-0.626,0.732
			c-0.044,0.491,0.229,0.513,0.626,0.386C19.045,45.215,19.045,44.859,19.045,44.463z M19.66,46.882
			c0.154,0.266,0.269,0.467,0.385,0.667c0.109-0.172,0.312-0.349,0.305-0.516c-0.011-0.257-0.167-0.508-0.261-0.761
			C19.958,46.458,19.827,46.644,19.66,46.882z"/>
		<path fill="#989898" d="M48.495,45.425c0.152,0.199,0.395,0.381,0.437,0.601c0.11,0.582-0.347,0.49-0.706,0.516
			c-0.36,0.026-0.54-0.066-0.551-0.475C47.66,45.553,47.95,45.517,48.495,45.425z"/>
	</g>
</g>
</svg>
