<?xml version="1.0" encoding="utf-8"?>
<!-- Generator: Adobe Illustrator 17.0.0, SVG Export Plug-In . SVG Version: 6.00 Build 0)  -->
<!DOCTYPE svg PUBLIC "-//W3C//DTD SVG 1.1//EN" "http://www.w3.org/Graphics/SVG/1.1/DTD/svg11.dtd">
<svg version="1.1" id="Layer_1" xmlns="http://www.w3.org/2000/svg" xmlns:xlink="http://www.w3.org/1999/xlink" x="0px" y="0px"
	 width="210px" height="60px" viewBox="0 0 210 60" enable-background="new 0 0 210 60" xml:space="preserve">
<g>
	<path fill="#989898" d="M128.328,37.196c-0.232,0.197-0.341,0.275-0.432,0.37c-2.552,2.684-5.702,4.023-9.381,4.152
		c-3.932,0.138-7.341-1.164-10.229-3.81c-1.961-1.797-2.928-4.115-3.344-6.697c-0.376-2.333-0.437-4.684-0.413-7.039
		c0.022-2.235,0.04-4.47,0.113-6.703c0.107-3.242,0.983-6.207,3.274-8.629c1.828-1.933,4.093-3.046,6.683-3.517
		c2.623-0.477,5.236-0.447,7.796,0.376c2.126,0.684,3.899,1.931,5.408,3.56c0.124,0.134,0.176,0.334,0.261,0.504
		c0.08-0.057,0.16-0.114,0.24-0.171c0.01-0.18,0.028-0.359,0.028-0.539c0.003-0.953,0.01-1.907-0.003-2.86
		c-0.004-0.313,0.104-0.425,0.421-0.423c2.374,0.009,4.749,0.008,7.123,0.001c0.278-0.001,0.435,0.076,0.403,0.382
		c-0.007,0.069-0.001,0.139-0.001,0.208c0,10.849,0.015,21.698-0.012,32.547c-0.007,2.677-0.612,5.243-1.782,7.667
		c-1.273,2.637-3.269,4.566-5.789,5.998c-3.138,1.784-6.52,2.577-10.109,2.402c-3.66-0.179-6.935-1.502-9.921-3.582
		c-0.494-0.344-0.969-0.714-1.485-1.097c0.142-0.167,0.232-0.29,0.338-0.396c1.529-1.534,3.067-3.06,4.586-4.605
		c0.258-0.262,0.431-0.282,0.739-0.074c1.55,1.045,3.21,1.899,5.087,2.092c3.312,0.341,6.298-0.437,8.675-2.92
		c1.214-1.268,1.647-2.856,1.72-4.56C128.357,39.01,128.328,38.182,128.328,37.196z M128.398,23.164
		c-0.084-1.544-0.2-3.185-0.255-4.827c-0.055-1.643-0.683-3.019-1.802-4.189c-1.424-1.488-3.209-2.15-5.231-2.333
		c-2.374-0.214-4.546,0.283-6.458,1.723c-1.174,0.884-2.128,1.984-2.373,3.48c-0.201,1.224-0.309,2.475-0.322,3.715
		c-0.023,2.301,0.031,4.604,0.097,6.905c0.056,1.938,0.712,3.639,2.273,4.871c2.911,2.296,7.441,2.833,10.746,0.648
		c1.723-1.139,2.92-2.659,3.064-4.808C128.253,26.658,128.311,24.963,128.398,23.164z"/>
	<path fill="#989898" d="M95.69,37.499c-0.637,0.593-1.129,1.106-1.677,1.551c-1.87,1.516-4.041,2.3-6.416,2.556
		c-2.641,0.285-5.256,0.188-7.8-0.64c-4.121-1.341-6.429-4.208-6.995-8.482c-0.252-1.902-0.239-3.802,0.365-5.649
		c0.999-3.058,3.246-4.766,6.219-5.662c1.755-0.528,3.561-0.679,5.385-0.679c3.362,0,6.725,0.001,10.087-0.002
		c0.256,0,0.513-0.024,0.831-0.039c0-1.267,0.013-2.493-0.008-3.719c-0.007-0.393-0.066-0.795-0.164-1.177
		c-0.391-1.535-1.439-2.482-2.841-3.095c-1.206-0.527-2.49-0.72-3.785-0.805c-3.747-0.247-7.215,0.588-10.324,2.754
		c-0.085,0.059-0.172,0.116-0.261,0.169c-0.028,0.016-0.065,0.017-0.045,0.012c-1.589-1.582-3.157-3.143-4.766-4.743
		c0.2-0.157,0.419-0.343,0.652-0.51c3.079-2.208,6.479-3.643,10.249-4.091c3.992-0.474,7.954-0.302,11.782,1.042
		c4.348,1.526,6.776,4.619,7.244,9.216c0.077,0.756,0.106,1.519,0.107,2.279c0.008,7.522,0.005,15.044,0.005,22.565
		c0,0.714-0.001,0.715-0.693,0.715c-2.201,0-4.402-0.01-6.603,0.009c-0.429,0.004-0.571-0.115-0.557-0.553
		C95.711,39.558,95.69,38.594,95.69,37.499z M89.878,26.599c-1.212,0-2.425,0.007-3.637-0.002c-1.422-0.01-2.839,0.034-4.215,0.438
		c-1.151,0.338-2.197,0.872-2.567,2.117c-0.528,1.778-0.098,3.561,1.659,4.512c0.453,0.245,0.934,0.476,1.43,0.593
		c2.989,0.703,6.009,0.665,9.012,0.16c1.901-0.32,3.218-1.454,3.803-3.343c0.4-1.291,0.402-2.623,0.412-3.956
		c0.003-0.408-0.14-0.532-0.546-0.527C93.446,26.61,91.662,26.599,89.878,26.599z"/>
	<path fill="#989898" d="M164.172,31.123c1.538,1.537,3.053,3.05,4.592,4.588c-1.129,1.214-2.459,2.258-3.913,3.145
		c-3.148,1.919-6.58,2.909-10.256,2.891c-4.77-0.024-9.078-1.384-12.571-4.79c-2.357-2.298-3.738-5.139-4.363-8.336
		c-0.882-4.511-0.787-8.997,0.837-13.341c2.152-5.756,6.321-9.134,12.408-10.021c3.791-0.552,7.532-0.262,11.102,1.243
		c4.162,1.754,6.638,4.984,7.836,9.247c0.847,3.014,1.012,6.095,0.669,9.204c-0.045,0.412-0.096,0.824-0.123,1.238
		c-0.02,0.299-0.142,0.447-0.453,0.423c-0.155-0.012-0.312-0.001-0.468-0.001c-7.885,0-15.77,0-23.654,0
		c-0.715,0-0.744,0.003-0.695,0.7c0.158,2.245,1.198,4.013,2.983,5.351c1.601,1.2,3.452,1.759,5.413,1.889
		c3.642,0.241,7.018-0.533,9.938-2.851C163.711,31.499,163.964,31.291,164.172,31.123z M154.724,20.539c0.849,0,1.698,0,2.546,0
		c2.148,0,4.296-0.001,6.444,0c0.283,0,0.558,0.038,0.542-0.406c-0.135-3.647-1.724-6.363-5.106-7.886
		c-2.285-1.03-4.675-1.13-7.107-0.603c-4.101,0.888-6.871,4.2-6.943,8.266c-0.009,0.509,0.136,0.643,0.633,0.64
		C148.73,20.528,151.727,20.539,154.724,20.539z"/>
	<path fill="#989898" d="M39.319,35.12c1.747-1.697,3.448-3.349,5.193-5.045c0.281,0.232,0.638,0.525,0.994,0.818
		c2.67,2.197,5.704,3.449,9.174,3.717c2.323,0.18,4.574,0.016,6.693-0.976c0.752-0.352,1.474-0.859,2.07-1.439
		c1.417-1.379,1.163-4.3-1.207-4.945c-1.389-0.378-2.839-0.58-4.275-0.729c-3.229-0.336-6.483-0.487-9.613-1.464
		c-2.112-0.659-4.054-1.611-5.544-3.313c-1.106-1.263-1.697-2.75-1.928-4.402c-0.732-5.231,2.507-8.627,6.245-10.424
		c2.663-1.28,5.488-1.843,8.435-1.881c4.584-0.059,8.935,0.871,12.988,3.047c0.952,0.511,1.846,1.133,2.809,1.731
		c-0.162,0.184-0.234,0.278-0.317,0.36c-1.378,1.367-2.762,2.729-4.133,4.103c-0.24,0.241-0.422,0.318-0.752,0.117
		c-2.787-1.693-5.807-2.618-9.074-2.78c-2.319-0.115-4.56,0.112-6.661,1.166c-0.383,0.192-0.751,0.439-1.078,0.716
		c-1.446,1.226-1.377,3.139,0.149,4.266c1.146,0.846,2.486,1.235,3.86,1.41c2.176,0.277,4.368,0.427,6.551,0.649
		c3.285,0.334,6.484,0.951,9.159,3.08c1.68,1.336,2.621,3.112,2.848,5.241c0.679,6.354-2.763,10.602-8.059,12.423
		c-2.754,0.947-5.592,1.221-8.484,1.167c-3.623-0.068-7.048-0.918-10.286-2.534C42.972,38.147,41.066,36.812,39.319,35.12z"/>
</g>
</svg>
