<?xml version="1.0" encoding="utf-8"?>
<!-- Generator: Adobe Illustrator 17.0.0, SVG Export Plug-In . SVG Version: 6.00 Build 0)  -->
<!DOCTYPE svg PUBLIC "-//W3C//DTD SVG 1.1//EN" "http://www.w3.org/Graphics/SVG/1.1/DTD/svg11.dtd">
<svg version="1.1" id="Layer_1" xmlns="http://www.w3.org/2000/svg" xmlns:xlink="http://www.w3.org/1999/xlink" x="0px" y="0px"
	 width="210px" height="60px" viewBox="0 0 210 60" enable-background="new 0 0 210 60" xml:space="preserve">
<g>
	<path fill="#989898" d="M101.724,34.86c0-6.303,0-12.606,0-18.909c0-0.973,0.001-0.974,0.996-0.974c0.65,0,1.299-0.005,1.949,0.01
		c0.902,0.021,1.258,0.32,1.449,1.19c0.092,0.421,0.152,0.851,0.276,1.263c0.231,0.77,0.415,0.84,1.044,0.385
		c0.545-0.394,1.074-0.814,1.581-1.256c1.801-1.572,3.897-2.329,6.277-2.31c0.984,0.008,1.983-0.056,2.95,0.086
		c3.481,0.51,5.83,2.57,6.872,5.825c1.755,5.48,1.714,11.001-0.732,16.297c-1.696,3.671-4.698,5.948-8.651,6.76
		c-2.412,0.495-4.876,0.351-7.289-0.243c-0.116-0.029-0.231-0.068-0.348-0.091c-1.008-0.196-1.055-0.186-1.103,0.87
		c-0.157,3.432-0.304,6.865-0.411,10.299c-0.019,0.61-0.155,0.86-0.801,0.85c-0.983-0.016-1.968,0.064-2.953,0.088
		c-0.634,0.016-0.941-0.237-0.938-0.946c0.021-6.398,0.012-12.796,0.012-19.194C101.843,34.86,101.784,34.86,101.724,34.86z
		 M121.123,28.304c-0.013-2.559-0.286-4.937-1.461-7.108c-1.61-2.976-5.92-3.958-8.474-1.809c-1.458,1.227-2.673,2.748-3.951,4.178
		c-0.243,0.272-0.374,0.74-0.377,1.118c-0.023,4.255-0.006,8.509-0.017,12.764c-0.001,0.432,0.176,0.632,0.553,0.802
		c1.78,0.8,3.621,1.242,5.588,1.138c2.591-0.137,4.684-1.156,6.102-3.382C120.608,33.616,121.113,30.957,121.123,28.304z"/>
	<path fill="#989898" d="M38.496,11.186c-0.679-0.241-1.174-0.398-1.655-0.59c-2.64-1.056-5.359-1.633-8.221-1.502
		c-2.528,0.116-4.608,1.476-5.395,3.654c-0.579,1.603-0.399,3.119,0.658,4.488c1.403,1.818,3.235,3.136,5.126,4.39
		c2.142,1.42,4.326,2.788,6.381,4.326c1.775,1.328,3.19,3.008,3.658,5.283c0.636,3.085,0.054,5.85-2.12,8.229
		c-1.698,1.857-3.593,3.375-6.191,3.636c-3.906,0.393-7.812,0.596-11.632-0.652c-1.786-0.584-1.963-0.824-1.781-2.686
		c0.065-0.666,0.24-1.32,0.327-1.985c0.088-0.671,0.429-0.755,0.994-0.533c0.938,0.368,1.872,0.754,2.833,1.051
		c2.674,0.827,5.412,1.238,8.153,0.485c3.381-0.929,6.081-5.178,2.524-8.736c-1.092-1.092-2.431-1.952-3.713-2.835
		c-2.294-1.581-4.686-3.024-6.931-4.669c-1.724-1.263-3.137-2.871-3.661-5.039c-1.403-5.803,1.409-10.286,6.572-12.087
		c0.799-0.279,1.695-0.355,2.55-0.377c2.089-0.053,4.18-0.041,6.27-0.013c1.682,0.022,3.265,0.508,4.778,1.212
		c0.244,0.113,0.561,0.421,0.564,0.642C38.601,8.261,38.538,9.645,38.496,11.186z"/>
	<path fill="#989898" d="M68.873,28.906c-0.041-2.881,0.367-5.648,1.768-8.221c1.086-1.994,2.586-3.56,4.537-4.723
		c1.826-1.088,3.699-1.837,5.91-1.606c1.571,0.164,3.2-0.113,4.748,0.143c2.975,0.492,5.176,2.31,6.921,4.693
		c1.683,2.299,2.467,4.911,2.547,7.743c0.063,2.256,0.208,4.521-0.436,6.73c-1.393,4.782-4.285,8.224-9.236,9.36
		c-3.826,0.878-7.71,0.908-11.127-1.583c-3.065-2.235-4.868-5.258-5.377-9.018C68.969,31.261,68.954,30.079,68.873,28.906z
		 M90.27,28.768c-0.071-0.909-0.123-1.819-0.222-2.725c-0.052-0.475-0.153-0.95-0.287-1.409c-1.387-4.75-4.571-6.979-9.445-6.264
		c-2.655,0.389-4.191,2.137-5.196,4.485c-1.199,2.8-1.423,5.708-0.989,8.687c0.24,1.652,0.658,3.246,1.758,4.577
		c1.323,1.6,2.719,3.096,4.99,3.182c0.883,0.034,1.771-0.025,2.656-0.065c2.079-0.095,3.655-1.04,4.733-2.824
		C89.687,34.061,90.248,31.493,90.27,28.768z"/>
	<path fill="#989898" d="M155.491,30.736c0,3.728-0.013,7.457,0.013,11.185c0.004,0.612-0.135,0.879-0.792,0.842
		c-0.785-0.045-1.576,0.02-2.362-0.01c-0.611-0.023-0.94-0.426-1.086-0.989c-0.09-0.348-0.132-0.712-0.259-1.045
		c-0.13-0.341-0.336-0.652-0.509-0.977c-0.318,0.179-0.709,0.292-0.942,0.549c-0.989,1.09-2.147,1.959-3.501,2.484
		c-0.92,0.356-1.932,0.62-2.911,0.648c-1.601,0.046-3.208-0.13-4.812-0.219c-2.159-0.12-4.771-2.468-5.369-5.294
		c-0.192-0.91-0.286-1.856-0.291-2.787c-0.033-6.423-0.021-12.847-0.054-19.271c-0.004-0.688,0.188-0.932,0.883-0.915
		c0.911,0.022,1.825-0.04,2.736-0.102c0.72-0.048,1.002,0.332,1.061,0.972c0.018,0.191,0.009,0.385,0.011,0.577
		c0.054,5.171,0.094,10.343,0.173,15.514c0.02,1.318-0.007,2.673,0.287,3.942c0.587,2.533,1.906,3.542,4.183,3.549
		c3.943,0.013,7.535-2.565,8.355-6.196c0.283-1.252,0.351-2.572,0.364-3.862c0.045-4.547,0.039-9.094,0.012-13.641
		c-0.004-0.711,0.213-0.92,0.898-0.875c0.887,0.058,1.779,0.022,2.67,0.028c0.631,0.005,0.988,0.175,0.982,0.956
		c-0.036,4.978-0.018,9.957-0.018,14.936C155.304,30.736,155.397,30.736,155.491,30.736z"/>
	<path fill="#989898" d="M163.11,37.273c0.94,0.405,1.712,0.709,2.46,1.064c2.009,0.953,4.103,1.484,6.339,1.33
		c1.347-0.093,2.547-0.524,3.636-1.377c1.277-1,1.394-3.846,0.1-4.776c-1.205-0.865-2.432-1.709-3.704-2.472
		c-1.913-1.147-3.891-2.186-5.804-3.333c-0.608-0.365-1.132-0.894-1.632-1.409c-1.009-1.04-1.563-2.288-1.543-3.763
		c0.017-1.262-0.245-2.545,0.372-3.754c1.253-2.456,3.317-3.931,5.953-4.323c3.542-0.526,7.087-0.402,10.464,1.078
		c0.505,0.222,0.77,0.45,0.736,1.045c-0.05,0.862,0.023,1.731-0.008,2.594c-0.025,0.696-0.275,0.852-0.926,0.617
		c-1.373-0.494-2.704-1.168-4.117-1.469c-1.359-0.29-2.799-0.27-4.202-0.262c-1.252,0.007-2.222,0.698-3.001,1.644
		c-0.97,1.179-1.009,2.581,0.097,3.634c0.876,0.833,1.905,1.537,2.954,2.148c1.679,0.979,3.456,1.791,5.143,2.758
		c0.889,0.51,1.721,1.147,2.501,1.817c3.994,3.428,2.898,8.785-0.459,11.397c-1.686,1.312-3.617,2.001-5.747,1.977
		c-1.893-0.022-3.809-0.023-5.669-0.318c-1.291-0.205-2.514-0.874-3.75-1.378c-0.491-0.2-0.696-0.639-0.624-1.182
		C162.816,39.528,162.951,38.494,163.11,37.273z"/>
	<path fill="#989898" d="M56.526,43.412c-5.788,0.087-9.946-3.15-11.629-9.119c-0.748-2.654-0.669-5.36-0.483-8.079
		c0.192-2.804,1.202-5.278,2.912-7.467c1.657-2.121,3.716-3.764,6.418-4.23c2.681-0.462,5.411-0.51,8.078,0.192
		c2.657,0.699,4.24,2.805,4.078,5.225c-0.039,0.583-0.238,0.894-0.851,0.912c-0.936,0.027-1.871,0.113-2.805,0.104
		c-0.21-0.002-0.527-0.251-0.609-0.459c-0.633-1.622-1.844-2.263-3.517-2.154c-1.312,0.085-2.637,0.108-3.928,0.328
		c-0.591,0.101-1.216,0.507-1.649,0.948c-1.702,1.735-2.782,3.817-2.839,6.28c-0.049,2.104-0.099,4.235,0.167,6.314
		c0.451,3.531,3.405,6.511,6.857,7.101c2.1,0.359,4.101-0.185,6.017-1.041c0.657-0.293,1.3-0.619,1.948-0.935
		c0.545-0.266,0.824-0.072,0.869,0.505c0.058,0.741,0.09,1.484,0.162,2.223c0.065,0.658-0.235,1.083-0.754,1.439
		c-1.445,0.989-3.067,1.475-4.78,1.661C58.973,43.29,57.747,43.33,56.526,43.412z"/>
	<path fill="#989898" d="M189.202,6.317c1.805-0.001,3.501,1.763,3.53,3.67c0.029,1.934-1.719,3.647-3.715,3.64
		c-1.983-0.008-3.694-1.854-3.668-3.959C185.372,7.761,187.032,6.317,189.202,6.317z M188.367,7.478
		c0.016,0.068,0.031,0.137,0.047,0.205c0.132,0.03,0.264,0.069,0.398,0.088c1.284,0.186,1.583,0.61,1.385,1.89
		c-0.058,0.374-0.109,0.792,0.002,1.137c0.094,0.29,0.392,0.62,0.669,0.704c0.157,0.047,0.559-0.321,0.669-0.579
		c0.729-1.715-0.536-3.649-2.392-3.678C188.886,7.241,188.626,7.396,188.367,7.478z M187.557,7.823
		c-1.513,0.962-1.81,2.364-0.938,3.581c0.087,0.121,0.297,0.288,0.373,0.255c0.147-0.064,0.327-0.247,0.339-0.393
		C187.424,10.179,187.479,9.089,187.557,7.823z M189.265,12.735c0.189-0.148,0.471-0.369,0.753-0.589
		c-0.37-0.378-0.739-0.757-1.109-1.135c-0.267,0.36-0.702,0.693-0.764,1.085C188.047,12.722,188.678,12.591,189.265,12.735z"/>
</g>
</svg>
