<?xml version="1.0" encoding="utf-8"?>
<!-- Generator: Adobe Illustrator 17.0.0, SVG Export Plug-In . SVG Version: 6.00 Build 0)  -->
<!DOCTYPE svg PUBLIC "-//W3C//DTD SVG 1.1//EN" "http://www.w3.org/Graphics/SVG/1.1/DTD/svg11.dtd">
<svg version="1.1" id="Layer_1" xmlns="http://www.w3.org/2000/svg" xmlns:xlink="http://www.w3.org/1999/xlink" x="0px" y="0px"
	 width="210px" height="60px" viewBox="0 0 210 60" enable-background="new 0 0 210 60" xml:space="preserve">
<g>
	<path fill="#989898" d="M52.321,24.27h0.407v3.42h-0.429c-0.051-0.835-0.415-1.621-1.018-2.2c-0.603-0.536-1.39-0.819-2.196-0.79
		c-0.684-0.037-1.358,0.173-1.9,0.593c-0.465,0.384-0.725,0.963-0.703,1.566c0.001,0.607,0.211,1.196,0.593,1.668
		c0.395,0.507,1.253,1.154,2.573,1.942c1.52,0.916,2.561,1.714,3.089,2.402c0.522,0.67,0.801,1.499,0.79,2.348
		c-0.004,2.273-1.842,4.116-4.115,4.127c-0.864-0.043-1.715-0.226-2.519-0.543c-0.254-0.104-0.519-0.177-0.79-0.217
		c-0.239,0-0.422,0.186-0.555,0.555h-0.445V35.21h0.433c-0.059,1.913,1.444,3.512,3.357,3.57c0.044,0.001,0.087,0.002,0.131,0.002
		c0.769,0.038,1.524-0.213,2.117-0.703c0.539-0.48,0.832-1.179,0.794-1.9c-0.011-0.62-0.243-1.215-0.654-1.68
		c-0.441-0.54-1.354-1.229-2.74-2.067c-0.822-0.46-1.587-1.015-2.28-1.653c-0.356-0.381-0.635-0.828-0.821-1.315
		c-0.187-0.508-0.28-1.047-0.274-1.588c-0.039-1.016,0.358-2,1.091-2.706c0.778-0.707,1.804-1.076,2.854-1.026
		c0.715,0.012,1.424,0.14,2.098,0.38c0.245,0.089,0.501,0.146,0.76,0.171c0.085,0.01,0.17-0.018,0.232-0.076
		C52.263,24.512,52.304,24.393,52.321,24.27z"/>
	<path fill="#989898" d="M57.257,29.772h0.429v7.551c-0.049,0.361,0.07,0.725,0.323,0.988c0.357,0.199,0.767,0.285,1.174,0.247
		v0.407h-4.906v-0.422c0.714,0,1.178-0.08,1.383-0.243c0.244-0.27,0.357-0.635,0.308-0.996v-5.499
		c0.049-0.383-0.053-0.77-0.285-1.079c-0.19-0.175-0.657-0.258-1.406-0.258v-0.422L57.257,29.772z M56.877,25.144
		c0.594-0.006,1.08,0.47,1.087,1.064c0,0,0,0,0,0v0.023c0.003,0.294-0.114,0.577-0.323,0.783c-0.196,0.211-0.472,0.33-0.76,0.327
		c-0.297,0.004-0.583-0.114-0.79-0.327c-0.217-0.202-0.338-0.486-0.334-0.783c-0.004-0.288,0.115-0.564,0.327-0.76
		c0.213-0.209,0.5-0.324,0.798-0.319L56.877,25.144z"/>
	<path fill="#989898" d="M63.379,29.772v1.873h0.049c0.362-0.559,0.85-1.025,1.425-1.36c0.533-0.325,1.143-0.502,1.767-0.513
		c1.278-0.018,2.42,0.798,2.816,2.014c0.958-1.343,2.061-2.014,3.31-2.014c0.804-0.029,1.587,0.262,2.177,0.809
		c0.588,0.583,0.899,1.389,0.855,2.215v4.511c-0.045,0.358,0.072,0.717,0.319,0.98c0.356,0.206,0.768,0.296,1.178,0.255v0.441
		h-4.742v-0.441c0.65,0,1.068-0.106,1.246-0.319c0.179-0.213,0.274-0.673,0.274-1.398v-4.248c0.031-0.505-0.156-0.999-0.513-1.357
		c-0.39-0.346-0.901-0.524-1.421-0.494c-0.939,0-1.786,0.578-2.535,1.729v4.803c-0.045,0.37,0.073,0.742,0.323,1.018
		c0.352,0.214,0.764,0.307,1.174,0.266v0.441h-4.712v-0.441c0.673,0,1.094-0.11,1.25-0.323c0.156-0.213,0.243-0.684,0.243-1.395
		v-4.15c0.028-0.527-0.165-1.042-0.532-1.421c-0.365-0.357-0.861-0.548-1.372-0.528c-0.512,0.007-1.01,0.171-1.425,0.471
		c-0.471,0.327-0.861,0.757-1.14,1.258v4.872c-0.039,0.355,0.084,0.708,0.334,0.961c0.355,0.219,0.771,0.315,1.186,0.274v0.403
		H60.16V38.52c0.657,0,1.075-0.103,1.254-0.312c0.212-0.34,0.305-0.741,0.266-1.14v-5.32c0.031-0.358-0.074-0.714-0.293-0.999
		c-0.262-0.233-0.609-0.345-0.958-0.308h-0.574v-0.418l3.089-0.274L63.379,29.772z"/>
	<path fill="#989898" d="M87.611,34.533c0.031,1.274-0.48,2.502-1.406,3.378c-1.986,1.803-5.017,1.803-7.003,0
		c-0.925-0.877-1.434-2.104-1.402-3.378c-0.038-1.286,0.468-2.528,1.395-3.42c1.992-1.803,5.027-1.803,7.019,0
		C87.141,32.005,87.648,33.247,87.611,34.533z M85.745,34.533c0.051-1.089-0.235-2.168-0.817-3.089
		c-0.846-1.234-2.532-1.548-3.766-0.703c-0.266,0.184-0.497,0.413-0.684,0.676c-0.587,0.931-0.871,2.021-0.813,3.12
		c-0.055,1.087,0.227,2.165,0.809,3.086c0.87,1.228,2.571,1.517,3.798,0.647c0.001,0,0.001-0.001,0.002-0.001
		c0.255-0.181,0.477-0.403,0.657-0.657c0.579-0.917,0.862-1.991,0.809-3.074L85.745,34.533z"/>
	<path fill="#989898" d="M91.32,29.772v1.794c1.046-1.193,2.128-1.791,3.245-1.794c0.813-0.02,1.597,0.301,2.162,0.885
		c0.592,0.629,0.905,1.47,0.866,2.333v4.047c0,0.619,0.103,1.026,0.308,1.224s0.608,0.3,1.212,0.3v0.403h-4.792v-0.418
		c0.419,0.036,0.84-0.044,1.216-0.232c0.25-0.216,0.378-0.541,0.342-0.87v-4.689c0.027-0.555-0.175-1.096-0.559-1.497
		c-0.385-0.375-0.907-0.576-1.444-0.555c-0.836,0-1.687,0.581-2.542,1.752v4.385c0,0.76,0.095,1.216,0.285,1.417
		c0.19,0.201,0.593,0.3,1.201,0.304v0.403h-4.712v-0.418c0.688,0,1.106-0.11,1.262-0.331c0.197-0.437,0.278-0.917,0.236-1.395
		v-5.039c0-0.54-0.095-0.893-0.285-1.06c-0.19-0.171-0.597-0.255-1.212-0.255v-0.422l2.793-0.274H91.32z"/>
	<path fill="#989898" d="M107.033,28.476c-0.03-0.895,0.323-1.76,0.969-2.379c0.665-0.627,1.553-0.963,2.466-0.931
		c0.758-0.022,1.494,0.251,2.056,0.76c0.547,0.462,0.861,1.142,0.859,1.858c0,1.229-0.869,2.3-2.607,3.215
		c1.348,1.23,2.594,2.568,3.724,4.001c0.707-1.212,1.06-2.219,1.06-3.04c0.034-0.332-0.046-0.666-0.228-0.946
		c-0.226-0.208-0.526-0.316-0.832-0.3v-0.41h4.127v0.422c-0.454-0.043-0.911,0.051-1.311,0.27c-0.242,0.194-0.45,0.426-0.616,0.688
		c-0.271,0.465-0.498,0.953-0.68,1.459c-0.297,0.824-0.679,1.615-1.14,2.36c0.605,0.807,1.268,1.569,1.984,2.28
		c0.256,0.276,0.597,0.457,0.969,0.513c0.382-0.042,0.734-0.225,0.988-0.513l0.334,0.274c-0.489,0.8-1.362,1.283-2.299,1.273
		c-0.413,0-0.82-0.109-1.178-0.315c-0.537-0.354-1.016-0.79-1.417-1.292c-0.233-0.253-0.404-0.443-0.513-0.57
		c-1.193,1.452-2.595,2.174-4.203,2.177c-1.055,0.024-2.08-0.349-2.873-1.045c-0.756-0.631-1.189-1.569-1.178-2.554
		c0.02-0.797,0.309-1.563,0.821-2.174c0.644-0.785,1.44-1.431,2.341-1.9C107.574,30.659,107.033,29.598,107.033,28.476z
		 M107.231,34.853c0.014,0.882,0.385,1.72,1.03,2.322c0.59,0.657,1.428,1.037,2.31,1.049c0.5,0.005,0.993-0.116,1.433-0.353
		c0.527-0.317,1-0.717,1.398-1.186c-1.317-1.673-2.782-3.225-4.378-4.636c-0.532,0.286-0.981,0.705-1.303,1.216
		C107.406,33.734,107.235,34.287,107.231,34.853L107.231,34.853z M108.26,27.674c0.042,0.535,0.244,1.045,0.581,1.463
		c0.434,0.595,0.954,1.123,1.543,1.566c1.038-0.512,1.69-1.575,1.676-2.732c0.022-0.549-0.168-1.085-0.532-1.497
		c-0.354-0.386-0.859-0.599-1.383-0.581c-0.497-0.015-0.98,0.165-1.345,0.502c-0.356,0.329-0.551,0.796-0.536,1.281H108.26z"/>
	<path fill="#989898" d="M133.58,24.27h0.41v3.42h-0.433c-0.051-0.835-0.415-1.621-1.018-2.2c-0.603-0.537-1.39-0.82-2.196-0.79
		c-0.684-0.036-1.358,0.174-1.9,0.593c-0.475,0.384-0.741,0.97-0.718,1.581c0.001,0.607,0.211,1.196,0.593,1.668
		c0.399,0.505,1.254,1.14,2.576,1.942c1.52,0.915,2.549,1.715,3.086,2.402c0.524,0.669,0.803,1.498,0.79,2.348
		c-0.012,2.261-1.839,4.093-4.1,4.112c-0.863-0.042-1.712-0.226-2.516-0.543c-0.259-0.107-0.529-0.182-0.806-0.224
		c-0.239,0-0.422,0.186-0.551,0.555h-0.437V35.21h0.437c-0.036,0.976,0.347,1.92,1.053,2.595c0.651,0.634,1.527,0.985,2.436,0.977
		c0.767,0.038,1.521-0.213,2.113-0.703c0.539-0.481,0.832-1.179,0.798-1.9c-0.016-0.619-0.247-1.213-0.654-1.68
		c-0.438-0.535-1.349-1.226-2.732-2.075c-0.822-0.459-1.588-1.014-2.28-1.653c-0.366-0.382-0.651-0.834-0.836-1.33
		c-0.19-0.505-0.285-1.041-0.281-1.581c-0.039-1.016,0.358-2,1.091-2.706c0.774-0.712,1.799-1.086,2.85-1.041
		c0.718,0.012,1.429,0.14,2.105,0.38c0.239,0.087,0.488,0.145,0.741,0.171c0.086,0.01,0.172-0.018,0.236-0.076
		C133.502,24.492,133.551,24.384,133.58,24.27z"/>
	<path fill="#989898" d="M144.262,29.772v3.165h-0.433c-0.148-0.749-0.528-1.432-1.087-1.953c-0.521-0.468-1.2-0.722-1.9-0.711
		c-0.849-0.024-1.658,0.359-2.177,1.03c-0.588,0.77-0.885,1.723-0.84,2.69c-0.027,1.136,0.323,2.249,0.996,3.165
		c0.661,0.889,1.45,1.334,2.367,1.334c0.635-0.008,1.258-0.178,1.809-0.494c0.602-0.34,1.122-0.809,1.524-1.372v0.654
		c-0.901,1.282-2.386,2.024-3.952,1.976c-2.373,0.11-4.386-1.724-4.497-4.097c-0.007-0.143-0.006-0.286,0.001-0.429
		c-0.026-1.301,0.46-2.561,1.353-3.507c0.827-0.931,2.015-1.459,3.26-1.448c0.648,0.014,1.289,0.131,1.9,0.346
		c0.204,0.076,0.418,0.125,0.635,0.144c0.251,0,0.456-0.171,0.6-0.494L144.262,29.772z"/>
	<path fill="#989898" d="M152.842,37.114v-4.438c0.024-0.521-0.153-1.031-0.494-1.425c-0.341-0.357-0.818-0.551-1.311-0.532
		c-0.479-0.01-0.95,0.122-1.353,0.38c-0.498,0.358-0.925,0.807-1.258,1.322v4.925c-0.04,0.35,0.078,0.7,0.323,0.954
		c0.353,0.209,0.762,0.3,1.17,0.262v0.403h-4.803v-0.418c0.688,0,1.121-0.129,1.311-0.346s0.285-0.665,0.285-1.383V25.166
		c0.048-0.385-0.057-0.774-0.293-1.083c-0.19-0.179-0.627-0.266-1.303-0.266v-0.433l2.892-0.312h0.418v8.493
		c0.445-0.542,0.972-1.011,1.562-1.391c0.481-0.27,1.025-0.409,1.577-0.403c0.802-0.029,1.581,0.271,2.155,0.832
		c0.581,0.613,0.883,1.437,0.836,2.28v3.956c0,0.703,0.095,1.163,0.285,1.383c0.19,0.22,0.578,0.338,1.163,0.346v0.418h-4.644
		v-0.403c0.608,0,1.011-0.095,1.201-0.285C152.79,37.949,152.89,37.53,152.842,37.114z"/>
	<path fill="#989898" d="M165.116,29.772h0.418v7.535c-0.046,0.363,0.069,0.728,0.315,0.999c0.373,0.214,0.803,0.305,1.231,0.262
		v0.418l-3.26,0.171v-1.642h-0.049c-0.897,1.17-1.943,1.754-3.139,1.752c-0.791,0.026-1.556-0.285-2.105-0.855
		c-0.549-0.584-0.846-1.361-0.825-2.162v-4.598c0.042-0.35-0.085-0.698-0.342-0.939c-0.384-0.203-0.818-0.289-1.25-0.247v-0.422
		l2.88-0.274h0.433v6.403c-0.072,1.036,0.701,1.939,1.737,2.025c0.096,0.008,0.193,0.008,0.289,0c0.859,0,1.649-0.49,2.371-1.471
		v-4.841c0-0.619-0.091-1.007-0.281-1.163c-0.19-0.156-0.676-0.243-1.459-0.258v-0.422L165.116,29.772z"/>
	<path fill="#989898" d="M173.67,29.772v2.759h-0.513c-0.049-0.619-0.311-1.202-0.741-1.649c-0.392-0.398-0.931-0.618-1.49-0.608
		c-0.388-0.019-0.77,0.103-1.075,0.342c-0.269,0.215-0.42,0.545-0.407,0.889c-0.002,0.356,0.134,0.7,0.38,0.958
		c0.483,0.425,1.038,0.762,1.638,0.996c1.087,0.507,1.805,0.98,2.155,1.421c0.356,0.467,0.541,1.043,0.524,1.63
		c0.004,0.734-0.301,1.436-0.84,1.934c-0.524,0.532-1.241,0.828-1.987,0.821c-0.547-0.039-1.08-0.186-1.569-0.433
		c-0.222-0.115-0.46-0.194-0.707-0.236c-0.145,0.004-0.283,0.067-0.38,0.175c-0.109,0.119-0.173,0.272-0.182,0.433h-0.433v-3.04
		h0.418c0.12,0.731,0.483,1.4,1.03,1.9c0.503,0.457,1.159,0.71,1.839,0.707c0.418,0.012,0.822-0.149,1.117-0.445
		c0.298-0.29,0.462-0.69,0.452-1.106c0.004-0.404-0.144-0.794-0.414-1.094c-0.53-0.465-1.14-0.828-1.801-1.072
		c-1.036-0.456-1.719-0.88-2.048-1.273c-0.325-0.405-0.495-0.913-0.479-1.433c-0.004-0.693,0.291-1.353,0.809-1.813
		c0.516-0.496,1.207-0.769,1.923-0.76c0.392,0.009,0.779,0.093,1.14,0.247c0.221,0.102,0.46,0.161,0.703,0.175
		c0.251-0.008,0.467-0.179,0.532-0.422L173.67,29.772z"/>
	<path fill="#989898" d="M177.987,26.983h0.429v3.013h3.116v0.657h-3.116v5.768c-0.032,0.499,0.118,0.993,0.422,1.391
		c0.305,0.336,0.747,0.515,1.201,0.486c0.656-0.023,1.267-0.336,1.668-0.855l0.285,0.342c-0.783,0.996-1.686,1.493-2.709,1.493
		c-0.701,0.019-1.378-0.257-1.866-0.76c-0.484-0.502-0.743-1.18-0.718-1.877v-5.989h-1.683v-0.429
		C176.246,29.604,177.237,28.523,177.987,26.983z"/>
	<path fill="#989898" d="M191.074,36.684v0.657c-0.444,0.604-1.01,1.109-1.661,1.482c-0.631,0.311-1.329,0.464-2.033,0.445
		c-1.285,0.044-2.535-0.431-3.466-1.319c-0.909-0.869-1.407-2.083-1.372-3.34c-0.029-1.266,0.439-2.494,1.303-3.42
		c0.813-0.905,1.979-1.414,3.196-1.395c1.009-0.016,1.985,0.359,2.725,1.045c0.74,0.622,1.166,1.541,1.163,2.508v0.186h-6.585v0.11
		c-0.017,0.878,0.138,1.75,0.456,2.569c0.265,0.688,0.723,1.284,1.319,1.718c0.519,0.393,1.15,0.609,1.801,0.616
		c0.525,0.011,1.044-0.12,1.501-0.38C190.037,37.75,190.593,37.252,191.074,36.684z M184.34,33.082h4.879v-0.171
		c0.037-0.7-0.209-1.385-0.684-1.9c-0.446-0.469-1.071-0.726-1.718-0.707c-0.667-0.02-1.308,0.259-1.748,0.76
		c-0.468,0.579-0.725,1.3-0.73,2.044V33.082z"/>
	<path fill="#989898" d="M195.292,29.772v1.942c0.605-0.551,1.247-1.059,1.923-1.52c0.334-0.245,0.728-0.395,1.14-0.433
		c0.62,0.022,1.208,0.278,1.645,0.718l-0.688,1.592c-0.953-0.524-1.661-0.788-2.124-0.79c-0.509,0-1.14,0.38-1.9,1.087v4.94
		c-0.046,0.362,0.066,0.726,0.308,0.999c0.356,0.215,0.772,0.307,1.186,0.262v0.418h-4.735v-0.403c0.628,0,1.039-0.099,1.231-0.296
		c0.194-0.198,0.289-0.673,0.289-1.425v-4.921c0-0.619-0.103-1.022-0.312-1.201c-0.209-0.179-0.726-0.274-1.547-0.274v-0.422
		l3.139-0.274H195.292z"/>
	<path fill="#989898" d="M29.585,34.176c-0.41-0.099-1.668-1.372-1.668-1.372s-0.612-0.517-0.726-0.612
		c-0.114-0.095-0.41-0.654-0.41-0.654H26.69v0.327c0.068,0.225,0.166,0.44,0.293,0.638c0.251,0.259,0.407,0.595,0.445,0.954
		c0,0-0.061,0.946-0.654,1.254c-0.502,0.337-1.057,0.586-1.642,0.737c-0.008,0.063-0.008,0.127,0,0.19c0,0,0.38,0.171,0.543,0.125
		c0.163-0.046,0.194,0,0.452-0.072s0.209,0.065,0.209,0.065c-0.236,0.091-0.479,0.164-0.726,0.217c-0.152,0-0.996,0.061-0.878,0.228
		s0.251,0.224,0.209,0.293c-0.042,0.068-0.688,0.3-0.688,0.452s0.171,0.042,0.152,0.182c-0.019,0.141-1.113,0.243-1.14,0.186
		c0,0-0.076,0.258,0,0.327c0.076,0.068-0.635,0.315-0.855,0.635s-0.806,0.718-0.874,0.836c-0.218,0.199-0.325,0.494-0.285,0.787
		c-0.317-0.164-0.707-0.04-0.871,0.276c-0.149,0.287-0.062,0.64,0.202,0.826c0.38,0.285,0.737,1.372,1.056,1.547v0.198h2.09
		c0,0,0.103-0.133-0.266-0.084c0,0-0.304-0.502-0.467-0.57c-0.163-0.068-0.619-0.213-0.604-0.532
		c0.015-0.319-0.118-0.236,0.099-0.585c0.217-0.35,1.953-3.04,3.162-3.469c1.208-0.429,0.726-0.821,0.912-0.619
		c0,0,2.28-2.402,2.242-2.542c0,0,0.92-0.137,0.76-0.175"/>
	<path fill="#989898" d="M31.66,42.004l-0.103,0.836h4.537c0,0-1.072-0.688-1.14-0.585c-0.068,0.103-1.471-0.92-1.471-0.92
		c-0.201-0.38,0.217-3.944,0.198-4.066c0.112-0.456,0.249-0.905,0.41-1.345c0,0,0.251-0.802,0-0.866s-0.437-0.517-0.486-0.555
		c-0.076-0.177-0.133-0.362-0.171-0.551c-0.312-0.194-0.548-0.489-0.669-0.836c0,0-0.068-0.513-0.251-0.585
		s-0.103-0.152-0.103-0.152c1.189-1.623,0.87-1.338,1.03-1.942c0.16-0.604-0.669-0.935-0.536-1.14s0.266-0.38-0.122-0.889
		s0.251-0.619,0.251-0.619c1.087,0.585,1.657-0.182,1.9-0.315c0.243-0.133,0.787-1.273,0-1.74c-0.504-0.331-0.901-0.803-1.14-1.357
		c-0.097-0.727-0.399-1.411-0.87-1.972c-0.885-0.638-1.14-0.418-1.22-0.654s1.14-1.372,1.14-1.372
		c0.463,0.044,0.915-0.16,1.189-0.536c-0.627-1.345-1.235-1.296-1.235-1.296c-1.349-1.623-1.767-1.243-1.767-1.243
		c-0.201-0.019-0.152,0.433-0.152,0.433s-0.342,0.034-0.342,0.27s0.703,0.6,0.703,0.6c-0.734,0.022-1.449,0.236-2.075,0.619
		c-0.38-0.217-0.505-0.133-0.57,0.232c-0.013,0.323,0.05,0.644,0.182,0.939h0.859l0.182-0.217c0.006-0.241,0.183-0.444,0.422-0.483
		c-0.019-0.38,0.452-0.38,0.452-0.38s0.483,0.068,0.551,0.171c0.068,0.103,0.171,0.285,0.433,0.068
		c0.097-0.105,0.26-0.112,0.365-0.015c0.005,0.005,0.01,0.01,0.015,0.015c0.024,0.02,0.042,0.047,0.053,0.076v0.38
		c0,0,0.034-0.084,0.084,0.198s-0.251,0.236-0.251,0.236l-0.171,0.152l-0.049,0.171l-0.258,0.027c0.084,0.142,0.084,0.318,0,0.46
		c-0.346,0.809-0.87,0.076-0.973-0.152c-0.103-0.228-0.258-0.258-0.217-0.171c0.117,0.35,0.137,0.726,0.057,1.087
		c-0.099,0.619-0.414,0.068-0.414,0.068c-0.154-0.246-0.26-0.52-0.312-0.806c-0.133-0.566-0.353-0.293-0.353-0.293
		c0.132,0.479,0.3,0.948,0.502,1.402c0.137,0.273,0.356,0.497,0.627,0.638c0,0,0.076,0.049,0.277-0.084
		c0.201-0.133,0.118,0.065,0.118,0.065c-0.638,1.201-1.482,1.03-1.919,1.471c-0.437,0.441-0.072,0.562,0.103,0.562
		c0.308-0.119,0.596-0.283,0.855-0.486c0.148-0.091,0.251-0.148,0.084,0.144c-0.167,0.293-0.726,0.543-1.045,0.684
		c-0.319,0.141-0.361,0.285-0.342,0.41c-0.012,0.191-0.08,0.374-0.194,0.528c-0.081,0.055-0.171,0.094-0.266,0.118
		c-0.38,0.441,0.084,0.418,0.232,0.38c0.347-0.142,0.676-0.324,0.98-0.543c0.528-0.327,0.3,0.068,0.118,0.308
		c-0.348,0.339-0.739,0.632-1.163,0.87c-0.353,0.209-0.236,0.38-0.236,0.38c0.76-0.042,1.824-0.954,2.66-1.957
		c0.836-1.003,0.954-2.793,0.954-2.793c0.023-0.084-0.144-1.201-0.144-1.201h0.11c0,0,0.494,0.536,0.433,2.603
		c-0.061,2.067-0.961,2.934-1.33,3.302c-0.369,0.369-0.281,0.091-0.281,0.091c0.457-0.586,0.796-1.256,0.996-1.972
		c0.084-0.38-0.175-0.125-0.175-0.125c-0.091,0.684-1.729,2.2-1.729,2.2c-0.236,0.201-0.171-0.027-0.171-0.027
		c0.821-1.087-0.479-0.152-0.479-0.152c-0.308,0.046-0.266,0.194-0.266,0.194c0.684,0.973,3.063,1.037,2.979,1.17
		c-0.156,0.153-0.366,0.239-0.585,0.239c-0.312,0.026-0.621-0.077-0.855-0.285c-0.342-0.3-0.342-0.065-0.342-0.065
		c-0.053,0.901,2.204,1.387,2.307,1.402c0.063,0.018,0.117,0.06,0.148,0.118c0,0,0.068,0.236-0.513,0.236
		c-0.581,0-1.873-0.988-2.31-1.49c-0.437-0.502-0.38-0.152-0.38-0.152c0.065,0.403,1.455,1.626,1.79,1.976
		c0.334,0.35-0.103,0.251-0.285,0.236c-0.182-0.015-2.117-2.538-2.28-2.66c-0.225-0.223-0.492-0.399-0.787-0.517
		c-0.399-0.133-0.148-0.38-0.148-0.38c-0.187-0.357-0.315-0.742-0.38-1.14c-0.016-0.216-0.001-0.434,0.046-0.646
		c-0.034-0.315,0.502-0.92,0.38-1.068c-0.132-0.239-0.233-0.495-0.3-0.76c0.118-1.402-0.118-1.372-0.118-1.269s-0.38,0.38-0.38,0.38
		c-0.034,0.133-0.821,0.068-0.821,0.236s0.133,0.148,0.217,0.342s-0.467,0.171-0.467,0.171c-0.703,0.236-0.152,0.346-0.186,0.505
		c-0.034,0.16-0.418,0.274-0.699,0.353s-0.988-0.03-0.87,0.22c0.118,0.251,0.486,0.201,0.502,0.418
		c0.015,0.217-0.433,0.118-0.433,0.118c-0.24-0.212-0.55-0.328-0.87-0.327c-0.315-0.03-0.342,0.22-0.342,0.22
		c0.128,0.004,0.255,0.021,0.38,0.049c0.087,0.034,0.346,0.099,0.285,0.182C23.182,25.9,23.194,25.9,23.072,25.9
		c-0.122,0-0.502-0.133-0.635-0.133c-0.174-0.005-0.343,0.061-0.467,0.182c-0.103,0.133,0,0.084,0.171,0.152
		c0.171,0.068,0.099,0.171,0.099,0.171c-0.191,0.153-0.391,0.292-0.6,0.418c-0.185,0.154-0.353,0.327-0.502,0.517
		c0,0-0.118,0.148-0.118,0.217c-0.11,0.185-0.237,0.36-0.38,0.521c-0.324,0.217-0.626,0.464-0.904,0.737l-0.285-0.152
		c0,0-0.285-0.084-0.201,0.3c0.084,0.384,0.76,0.988,0.76,0.859c0-0.129,0.593-0.984,0.475-0.604
		c-0.118,0.38,0.433,0.669,0.353,0.513s0.114-0.38,0.114-0.38c0.187-0.12,0.312-0.316,0.342-0.536
		c0.104-0.39,0.239-0.771,0.403-1.14c0.133-0.414,2.443-1.14,2.994-1.303s1.224-0.574,1.307-0.543
		c0.084,0.03,0.065,0.084,0.065,0.084s0,0.57,0,0.737c0.076,0.3,0.191,0.589,0.342,0.859c0.127,0.116,0.233,0.252,0.315,0.403
		c0.035,0.117,0.063,0.236,0.084,0.357c0.017,0.204,0.153,0.378,0.346,0.445c0.289,0.114,0.239,0.266,0.239,0.266
		c0.034,0.22-0.418,0.22-0.399,0.502s0.456,0.585,0.456,0.585c1.121,0.6,0.638,0.483,0.638,0.483
		c-1.239-0.513-1.072-0.285-1.072-0.285c0.182,0.471,1.03,0.638,1.186,0.703c0.156,0.065,0.38,0,0.452,0.353
		c0.058,0.298,0.203,0.572,0.418,0.787c0.217,0.251,0.517,0.399,1.239,0.76c0.722,0.361,0.654,0.604,0.859,0.737
		c0.205,0.133,0.315,0.619,0.448,1.421c0.133,0.802,0.57,0.988,0.619,0.988s0.103,0,0.27-0.201c0.167-0.201,0.133-0.171,0.251-0.065
		s-0.251,0.718-0.251,0.718c-0.465,0.462-0.809,1.031-1.003,1.657c-0.034,0.114,0.114,0.251,0.114,0.251
		c0.175,0.068,0.251-0.034,0.236,0.099c-0.007,0.091-0.05,0.175-0.118,0.236c-0.03,0-0.152,0.068-0.118,0.38
		c0.034,0.312,0.084,0.3,0.137,0.315s0.171,0.201,0.099,0.186s-0.319,0.513-0.319,0.513c-0.222,0.247-0.336,0.573-0.315,0.904
		c0.014,0.209,0.047,0.416,0.099,0.619c0.049,0.182,0.585,0.334,0.536,0.38C31.801,41.917,31.66,42.004,31.66,42.004z
		 M32.595,26.424c0.206-0.116,0.425-0.205,0.654-0.266c0.213-0.026,0.428,0.027,0.604,0.148c0.334,0.201,0.232,0.346-0.118,0.217
		c-0.35-0.129-0.703-0.065-0.27,0.27c0.433,0.334,0.084,0.486-0.118,0.217c-0.19-0.177-0.439-0.279-0.699-0.285
		c0,0-0.581-0.053-0.046-0.3H32.595z M31.877,28.039c0.012,0.161-0.066,0.316-0.201,0.403c-0.232,0.171-1.22,0.733-0.718-0.27
		c0.502-1.003,0.939-1.14,0.939-1.14c0.156-0.183,0.432-0.206,0.616-0.049h0.019c0,0,0.217,0.175-0.3,0.456
		c0.008,0.027-0.327,0.027-0.346,0.604L31.877,28.039z"/>
	<path fill="#989898" d="M38.663,43.623H10V16.377h28.663V43.623z M11.201,42.422h26.262V17.578H11.201V42.422z"/>
	<path fill="#989898" d="M19.69,41.624v-0.171h0.106c0.057,0,0.137,0,0.137,0.076c0,0.076-0.042,0.095-0.11,0.095H19.69
		 M19.69,41.746h0.068l0.175,0.3h0.179l-0.182-0.312c0.094,0,0.171-0.077,0.171-0.171v-0.019c0-0.171-0.11-0.213-0.293-0.213h-0.274
		v0.714h0.156V41.746z M20.45,41.689c0.002-0.369-0.296-0.67-0.665-0.673s-0.67,0.296-0.673,0.665
		c-0.002,0.369,0.296,0.67,0.665,0.673c0.001,0,0.003,0,0.004,0l0,0c0.354,0.011,0.651-0.266,0.665-0.619v-0.046H20.45z
		 M20.256,41.689c0.019,0.264-0.179,0.493-0.442,0.513c-0.002,0-0.004,0-0.006,0h-0.023c-0.283,0.019-0.527-0.195-0.546-0.478
		c-0.019-0.283,0.195-0.527,0.478-0.546c0.27-0.018,0.508,0.178,0.543,0.446L20.256,41.689z"/>
</g>
</svg>
