<?xml version="1.0" encoding="utf-8"?>
<!-- Generator: Adobe Illustrator 17.0.0, SVG Export Plug-In . SVG Version: 6.00 Build 0)  -->
<!DOCTYPE svg PUBLIC "-//W3C//DTD SVG 1.1//EN" "http://www.w3.org/Graphics/SVG/1.1/DTD/svg11.dtd">
<svg version="1.1" id="Layer_1" xmlns="http://www.w3.org/2000/svg" xmlns:xlink="http://www.w3.org/1999/xlink" x="0px" y="0px"
	 width="210px" height="60px" viewBox="0 0 210 60" enable-background="new 0 0 210 60" xml:space="preserve">
<g>
	<g>
		<path fill="#989898" d="M36.979,31.273c-0.279,0.714-0.776,1.49-0.776,1.49c-0.31,0.466-0.621,0.9-0.962,1.304
			c0.59-0.031,2.67-0.279,4.036-3.415L36.979,31.273z"/>
		<path fill="#989898" d="M27.199,12.801C17.7,12.801,10,20.501,10,30s7.7,17.199,17.199,17.199c9.499,0,17.199-7.7,17.199-17.199
			S36.698,12.801,27.199,12.801z M29.186,23.015c-2.08,2.639-1.925,4.346-1.925,4.346C24.002,25.281,29.186,23.015,29.186,23.015z
			 M33.315,28.137l-0.341,0.807H21.859l-0.373-0.807H33.315z M32.788,29.41l-0.373,0.838H22.387l-0.342-0.838H32.788z
			 M16.209,24.319c2.049,4.905,0.031,4.812,0.031,4.812C14.067,29.069,16.209,24.319,16.209,24.319z M34.464,34.781
			c-1.832,1.801-4.377,2.887-7.14,2.887c-3.974,0-7.42-2.235-9.159-5.557h-3.136l-0.621-1.459h0.59v-0.466h2.515v0.466h18.876
			l3.881-1.056C40.27,29.596,39.121,35.185,34.464,34.781z"/>
	</g>
	<path fill="#989898" d="M53.092,28.51v-9.748h-3.446v-1.087h8.444v1.087h-3.477v9.748 M61.443,27.672
		c-0.528,0.528-1.211,1.025-1.925,1.025c-1.304,0-2.204-0.931-2.204-2.391c0-1.335,1.149-2.204,2.763-2.67l1.863-0.59
		c-0.062-0.931-0.776-1.552-1.552-1.552c-0.9,0-1.459,0.373-2.018,0.838l-0.528-0.683c0.776-0.745,1.552-1.056,2.639-1.056
		c1.149,0,2.856,0.373,2.856,2.639v3.415c0,0.59,0.062,1.335,0.342,1.894h-1.521c-0.186-0.31-0.217-0.807-0.217-1.304
		C61.94,27.237,61.443,27.672,61.443,27.672z M60.605,24.412c-1.211,0.373-1.863,0.962-1.863,1.925c0,0.807,0.559,1.304,1.118,1.304
		c0.993,0,2.266-1.211,2.08-3.632L60.605,24.412z M65.944,20.624c0.776,1.956,1.583,3.943,2.359,6.271h0.031
		c0.807-2.328,1.614-4.315,2.422-6.271l1.211,0.279l-3.974,8.972c-0.714,1.645-1.676,2.515-3.011,2.515h-0.683v-0.993h0.528
		c0.962,0,1.645-0.248,2.732-3.322l-3.042-7.078C64.516,20.997,65.944,20.624,65.944,20.624z M73.24,28.51V17.147h1.366V28.51
		 M76.376,24.567c0-2.515,1.863-3.974,3.819-3.974c1.956,0,3.819,1.459,3.819,3.974c0,2.391-1.521,4.16-3.819,4.16
		C77.928,28.696,76.376,26.958,76.376,24.567z M77.897,24.567c0,1.459,0.497,3.167,2.297,3.167c1.832,0,2.328-1.708,2.328-3.167
		c0-1.397-0.559-2.98-2.328-2.98C78.456,21.618,77.897,23.17,77.897,24.567z M87.149,21.773l0.559-0.59
		c0.31-0.31,0.838-0.559,1.149-0.559c0.341,0,0.838,0.248,1.273,0.745l-0.621,0.9c-0.342-0.155-0.683-0.31-1.025-0.31
		c-0.714,0-1.304,0.714-1.304,2.422v4.16h-1.397v-7.761h1.366V21.773z M113.227,18.761h-3.85v4.129h3.788v1.087h-3.788v4.533h-1.49
		V17.675h5.34 M116.549,21.773l0.559-0.59c0.342-0.31,0.838-0.559,1.149-0.559c0.342,0,0.838,0.248,1.273,0.745l-0.621,0.9
		c-0.342-0.155-0.683-0.31-1.025-0.31c-0.714,0-1.304,0.714-1.304,2.422v4.16h-1.397v-7.761h1.366V21.773z M124.186,27.672
		c-0.528,0.528-1.211,1.025-1.925,1.025c-1.304,0-2.204-0.931-2.204-2.391c0-1.335,1.149-2.204,2.763-2.67l1.863-0.59
		c-0.062-0.931-0.776-1.552-1.552-1.552c-0.9,0-1.459,0.373-2.018,0.838l-0.528-0.683c0.776-0.745,1.552-1.056,2.639-1.056
		c1.149,0,2.856,0.373,2.856,2.639v3.415c0,0.59,0.062,1.335,0.342,1.894H124.9c-0.186-0.31-0.217-0.807-0.217-1.304
		C124.683,27.237,124.186,27.672,124.186,27.672z M123.348,24.412c-1.211,0.373-1.863,0.962-1.863,1.925
		c0,0.807,0.559,1.304,1.118,1.304c0.993,0,2.266-1.211,2.08-3.632C124.683,24.008,123.348,24.412,123.348,24.412z M129.681,21.773
		c0.714-0.776,1.832-1.149,2.639-1.149c1.77,0,2.732,0.993,2.732,2.949v4.998h-1.397v-4.688c0-1.459-0.621-2.204-1.863-2.204
		c-1.087,0-2.111,0.745-2.111,2.235v4.657h-1.397v-7.73h1.366C129.65,20.842,129.681,21.773,129.681,21.773z M143.31,27.889
		c-0.745,0.528-1.676,0.807-2.328,0.807c-3.663,0-4.129-3.011-4.129-4.067c0-1.925,1.273-4.036,4.191-4.036
		c0.776,0,1.49,0.186,2.08,0.621l-0.466,0.776c-0.435-0.217-1.025-0.404-1.583-0.404c-1.273,0-2.701,0.838-2.701,2.949
		c0,1.614,0.807,3.136,2.701,3.136c0.652,0,1.273-0.155,1.894-0.559C142.969,27.113,143.311,27.889,143.31,27.889z M144.614,18.234
		c0-0.373,0.31-0.807,0.869-0.807s0.869,0.435,0.869,0.807c0,0.404-0.186,0.931-0.869,0.931
		C144.832,19.165,144.614,18.668,144.614,18.234z M146.198,20.779v7.73h-1.397v-7.73H146.198z M152.127,22.021
		c-0.559-0.373-0.993-0.497-1.428-0.497c-0.497,0-1.118,0.248-1.118,0.869c0,0.652,0.714,0.962,1.583,1.645
		c0.993,0.745,1.645,1.397,1.645,2.484c0,1.304-1.273,2.173-2.701,2.173c-0.869,0-1.863-0.373-2.391-0.962l0.683-0.776
		c0.435,0.404,1.056,0.776,1.676,0.776c0.652,0,1.304-0.342,1.304-1.087c0-0.9-0.807-1.273-1.521-1.801
		c-0.869-0.621-1.645-1.149-1.645-2.204c0-1.211,1.211-1.987,2.577-1.987c0.745,0,1.49,0.31,1.894,0.714
		C152.686,21.369,152.127,22.021,152.127,22.021z M167.185,23.574v4.408c-1.056,0.373-2.359,0.714-3.757,0.714
		c-3.85,0-5.837-2.67-5.837-5.619c0-2.732,2.142-5.557,6.023-5.557c1.583,0,2.825,0.497,3.477,1.056l-0.621,0.9
		c-0.652-0.435-1.645-0.869-2.825-0.869c-2.825,0-4.409,1.925-4.409,4.471c0,2.732,1.863,4.595,4.222,4.595
		c0.9,0,1.583-0.093,2.204-0.373v-3.663h1.521C167.185,23.636,167.185,23.574,167.185,23.574z M170.786,21.773l0.559-0.59
		c0.31-0.31,0.838-0.559,1.149-0.559c0.342,0,0.838,0.248,1.273,0.745l-0.621,0.9c-0.341-0.155-0.683-0.31-1.025-0.31
		c-0.714,0-1.304,0.714-1.304,2.422v4.16h-1.397v-7.761h1.366V21.773z M174.294,24.567c0-2.515,1.863-3.974,3.819-3.974
		c1.956,0,3.819,1.459,3.819,3.974c0,2.391-1.521,4.16-3.819,4.16C175.815,28.696,174.294,26.958,174.294,24.567z M175.784,24.567
		c0,1.459,0.497,3.167,2.297,3.167c1.832,0,2.328-1.708,2.328-3.167c0-1.397-0.559-2.98-2.328-2.98
		C176.374,21.618,175.784,23.17,175.784,24.567z M188.855,27.61c-0.776,0.683-1.49,1.087-2.484,1.087
		c-1.77,0-2.732-0.993-2.732-2.949v-4.967h1.397v4.688c0,1.459,0.621,2.235,1.863,2.235c1.056,0,1.956-0.869,1.956-2.391v-4.533
		h1.397v7.73h-1.366L188.855,27.61z M193.915,21.99c0.59-0.931,1.708-1.397,2.577-1.397c3.011,0,3.508,2.701,3.508,3.819
		c0,2.359-1.397,4.284-3.663,4.284c-0.962,0-1.801-0.466-2.391-1.211h-0.031v4.905h-1.397V20.81h1.397
		C193.915,20.81,193.915,21.99,193.915,21.99z M198.51,24.443c0-1.397-0.714-2.856-2.142-2.856c-1.583,0-2.422,1.211-2.422,3.229
		c0,1.49,0.683,2.918,2.422,2.918C198.013,27.703,198.51,25.84,198.51,24.443z M101.989,25.995c0.528-1.025,0.59-2.173,0.404-3.105
		h-1.211c0.248,0.807,0.279,1.739-0.031,2.359l-3.477-3.229c-1.056-0.962-1.459-1.552-1.459-2.173c0-0.683,0.497-1.242,1.521-1.242
		c0.652,0,1.273,0.342,1.521,0.528l0.528-0.869c-0.683-0.497-1.397-0.745-2.204-0.745c-1.739,0-2.887,1.149-2.887,2.422
		c0,1.118,0.807,1.863,1.397,2.422c-1.273,0.59-2.328,1.708-2.328,3.136c0,0.652,0.466,3.229,3.85,3.229
		c1.49,0,2.732-0.683,3.57-1.614l1.77,1.614l1.366-0.683C104.317,28.044,101.989,25.995,101.989,25.995z M97.828,27.672
		c-1.645,0-2.422-1.366-2.422-2.359c0-0.9,0.404-1.708,1.397-2.235l3.663,3.291C100.002,26.989,99.008,27.672,97.828,27.672z
		 M55.793,42.76c-0.404,0-0.559-0.373-0.497-0.714c-0.435,0.59-0.869,0.776-1.583,0.776c-0.776,0-1.397-0.621-1.397-1.397
		c0-1.583,1.708-1.956,2.949-2.018v-0.31c0-0.621-0.342-1.149-0.993-1.149c-0.404,0-0.962,0.155-1.335,0.279v-0.373
		c0.435-0.279,1.025-0.497,1.552-0.497c0.931,0,1.583,0.652,1.583,1.552v2.422c0,0.155,0,0.745,0.093,0.869
		c0.062,0.093,0.186,0.062,0.31,0.062v0.373C56.196,42.729,56.01,42.76,55.793,42.76z M55.265,39.966
		c-0.745,0-2.173,0.217-2.173,1.242c0,0.621,0.279,0.993,0.931,0.993c1.056,0,1.242-0.931,1.242-1.801V39.966z M60.977,42.729
		v-3.384c0-0.745-0.186-1.273-1.056-1.273c-0.497,0-1.118,0.217-1.552,0.528v4.129h-0.776v-5.185h0.776v0.404
		c0.497-0.248,1.304-0.559,1.863-0.559c1.211,0,1.521,0.9,1.521,1.956v3.353h-0.776C60.977,42.698,60.977,42.729,60.977,42.729z
		 M65.913,36.892c-0.404,0-0.714-0.31-0.714-0.714c0-0.404,0.342-0.714,0.714-0.714c0.404,0,0.714,0.31,0.714,0.714
		C66.627,36.551,66.317,36.892,65.913,36.892z M65.23,42.729v-5.185h1.366v5.154H65.23V42.729z M71.253,42.729v-3.167
		c0-0.559-0.062-1.18-0.776-1.18c-0.404,0-0.9,0.155-1.242,0.373v3.943h-1.366v-5.154h1.366v0.528
		c0.466-0.342,1.211-0.683,1.801-0.683c1.087,0,1.583,0.807,1.583,1.832v3.508C72.619,42.729,71.253,42.729,71.253,42.729z
		 M76.376,36.427c-0.745,0-0.9,0.435-0.9,1.087h1.428v0.807h-1.428v4.346h-1.366V38.32h-0.838v-0.807h0.838
		c0-1.118,0.497-1.925,1.708-1.925c0.404,0,0.807,0.124,1.18,0.31v0.559C76.779,36.458,76.562,36.426,76.376,36.427z M79.915,42.822
		c-1.739,0-2.67-1.056-2.67-2.763c0-1.739,0.931-2.701,2.67-2.701c1.708,0,2.67,0.993,2.67,2.701
		C82.616,41.797,81.685,42.822,79.915,42.822z M79.915,38.289c-0.993,0-1.335,0.931-1.335,1.801c0,0.838,0.31,1.894,1.335,1.894
		s1.335-1.025,1.335-1.894C81.25,39.252,80.909,38.289,79.915,38.289z M86.093,38.444c-0.435,0-0.931,0.279-1.211,0.59v3.663h-1.366
		v-5.154h1.366v0.683c0.248-0.497,1.087-0.838,1.614-0.838h0.186V38.6C86.528,38.476,86.248,38.444,86.093,38.444z M93.948,42.729
		v-3.167c0-0.59-0.124-1.18-0.807-1.18c-0.373,0-0.745,0.155-1.056,0.373c0.031,0.124,0.031,0.279,0.031,0.435v3.508h-1.397v-3.136
		c0-0.559-0.062-1.18-0.776-1.18c-0.342,0-0.776,0.155-1.056,0.373v3.943h-1.366v-5.154h1.366v0.528
		c0.435-0.342,1.149-0.683,1.676-0.683c0.59,0,1.056,0.248,1.304,0.776c0.497-0.342,1.242-0.776,1.863-0.776
		c1.118,0,1.583,0.807,1.583,1.832v3.508H93.948L93.948,42.729z M99.877,42.76c-0.528,0-0.497-0.466-0.559-0.807
		c-0.373,0.497-1.056,0.9-1.676,0.9c-0.838,0-1.583-0.559-1.583-1.459c0-1.676,1.863-1.894,3.167-1.925v-0.31
		c0-0.59-0.497-0.869-1.025-0.869s-1.056,0.062-1.552,0.248v-0.59c0.559-0.342,1.18-0.559,1.832-0.559
		c1.025,0,2.08,0.435,2.08,1.614v1.987c0,0.186-0.031,1.118,0.124,1.242c0.062,0.031,0.155,0.031,0.217,0.031v0.466
		C100.56,42.729,100.219,42.76,99.877,42.76L99.877,42.76z M97.394,41.177c0,0.466,0.31,0.776,0.745,0.776
		c0.59,0,1.087-0.497,1.087-1.056v-0.745C98.636,40.183,97.394,40.4,97.394,41.177z M106.366,42.822
		c-0.435,0-1.087-0.217-1.521-0.373v0.248h-0.776v-7.172h0.776v2.794c0.373-0.559,0.993-0.931,1.676-0.931
		c1.459,0,2.018,1.335,2.018,2.608C108.539,41.332,107.918,42.822,106.366,42.822z M106.366,38.072c-0.745,0-1.49,0.528-1.49,1.335
		v2.546c0.404,0.155,0.993,0.279,1.428,0.279c1.118,0,1.459-1.211,1.459-2.111C107.763,39.159,107.484,38.072,106.366,38.072z
		 M113.072,42.729v-0.528c-0.497,0.279-1.304,0.652-1.863,0.652c-1.211,0-1.521-0.9-1.521-1.956v-3.353h0.776v3.384
		c0,0.745,0.186,1.273,1.056,1.273c0.528,0,1.149-0.279,1.552-0.621v-4.036h0.776v5.154h-0.776
		C113.072,42.698,113.072,42.729,113.072,42.729z M116.797,42.822c-0.528,0-1.18-0.248-1.645-0.528v-0.59
		c0.435,0.248,1.118,0.559,1.614,0.559c0.559,0,1.056-0.31,1.056-0.9c0-1.18-2.732-0.652-2.732-2.484c0-0.962,0.838-1.49,1.739-1.49
		c0.528,0,0.962,0.155,1.397,0.404v0.497c-0.559-0.217-1.025-0.279-1.428-0.279c-0.528,0-0.993,0.279-0.993,0.838
		c0,1.087,2.763,0.683,2.763,2.453C118.598,42.263,117.698,42.822,116.797,42.822z M120.181,36.613
		c-0.248,0-0.497-0.186-0.497-0.435s0.186-0.497,0.466-0.497c0.248,0,0.497,0.186,0.497,0.466
		C120.647,36.395,120.461,36.613,120.181,36.613z M119.747,42.729v-5.185h0.776v5.154h-0.776V42.729z M125.521,42.729v-3.384
		c0-0.745-0.186-1.273-1.056-1.273c-0.497,0-1.118,0.217-1.552,0.528v4.129h-0.776v-5.185h0.776v0.404
		c0.497-0.248,1.304-0.559,1.863-0.559c1.211,0,1.521,0.9,1.521,1.956v3.353h-0.776C125.521,42.698,125.521,42.729,125.521,42.729z
		 M128.191,40.245c0,1.056,0.559,1.987,1.708,1.987c0.528,0,1.087-0.093,1.583-0.248v0.559c-0.528,0.217-1.118,0.31-1.676,0.31
		c-1.645,0-2.391-1.087-2.391-2.67c0-1.49,0.714-2.732,2.328-2.732c1.397,0,1.987,1.18,1.987,2.422v0.373H128.191z M129.681,37.948
		c-0.9,0-1.49,0.962-1.49,1.77h2.825C131.016,38.941,130.613,37.948,129.681,37.948z M134.276,42.822
		c-0.528,0-1.18-0.248-1.645-0.528v-0.59c0.435,0.248,1.118,0.559,1.614,0.559c0.559,0,1.056-0.31,1.056-0.9
		c0-1.18-2.732-0.652-2.732-2.484c0-0.962,0.838-1.49,1.739-1.49c0.528,0,0.962,0.155,1.397,0.404v0.497
		c-0.559-0.217-1.025-0.279-1.428-0.279c-0.528,0-0.993,0.279-0.993,0.838c0,1.087,2.763,0.683,2.763,2.453
		C136.108,42.263,135.208,42.822,134.276,42.822z M138.592,42.822c-0.528,0-1.18-0.248-1.645-0.528v-0.59
		c0.435,0.248,1.118,0.559,1.614,0.559c0.559,0,1.056-0.31,1.056-0.9c0-1.18-2.732-0.652-2.732-2.484c0-0.962,0.838-1.49,1.739-1.49
		c0.528,0,0.962,0.155,1.397,0.404v0.497c-0.559-0.217-1.025-0.279-1.428-0.279c-0.528,0-0.993,0.279-0.993,0.838
		c0,1.087,2.763,0.683,2.763,2.453C140.423,42.263,139.523,42.822,138.592,42.822z"/>
</g>
</svg>
