<?xml version="1.0" encoding="utf-8"?>
<!-- Generator: Adobe Illustrator 17.0.0, SVG Export Plug-In . SVG Version: 6.00 Build 0)  -->
<!DOCTYPE svg PUBLIC "-//W3C//DTD SVG 1.1//EN" "http://www.w3.org/Graphics/SVG/1.1/DTD/svg11.dtd">
<svg version="1.1" id="Layer_1" xmlns="http://www.w3.org/2000/svg" xmlns:xlink="http://www.w3.org/1999/xlink" x="0px" y="0px"
	 width="210px" height="60px" viewBox="0 0 210 60" enable-background="new 0 0 210 60" xml:space="preserve">
<g>
	<g>
		<g>
			<path fill="#989898" d="M169.079,50.018c-2.724,0.454-2.814,0.419-4.033-1.606c-0.624-1.037-1.225-2.088-1.845-3.127
				c-0.43-0.721-3.056-1.311-3.681-0.769c-0.219,0.19-0.279,0.645-0.289,0.982c-0.035,1.21-0.059,2.424-0.006,3.632
				c0.051,1.135-0.666,1.084-1.432,1.065c-0.725-0.018-1.446,0.143-1.433-1.041c0.05-4.359,0.033-8.719,0.007-13.078
				c-0.004-0.714,0.273-1.115,0.944-1.112c2.571,0.012,5.161-0.108,7.705,0.174c1.779,0.197,3.097,1.41,3.364,3.333
				c0.285,2.054,0.13,4.015-2.031,5.101c-0.743,0.374-0.631,0.767-0.287,1.337C167.061,46.557,168.026,48.226,169.079,50.018z
				 M159.217,39.558c0,0.402,0.045,0.809-0.008,1.204c-0.154,1.143,0.399,1.512,1.45,1.447c0.96-0.059,1.93-0.011,2.884-0.118
				c1.425-0.16,2.082-0.844,2.189-2.118c0.117-1.382-0.508-2.341-1.879-2.676c-0.691-0.169-1.43-0.185-2.148-0.193
				C158.624,37.07,159.291,37.223,159.217,39.558z"/>
			<path fill="#989898" d="M94.79,49.952c-2.305,0.612-2.822,0.413-3.885-1.375c-0.412-0.693-0.932-1.343-1.216-2.085
				c-0.688-1.8-1.955-2.324-3.779-2.118c-0.736,0.083-1.013,0.304-1.011,0.994c0.003,1.209-0.068,2.422,0.007,3.626
				c0.07,1.117-0.509,1.227-1.402,1.213c-0.832-0.013-1.351-0.08-1.338-1.153c0.053-4.312,0.004-8.625,0.056-12.937
				c0.005-0.377,0.466-1.067,0.729-1.074c2.564-0.065,5.147-0.191,7.69,0.06c1.899,0.188,3.245,1.485,3.54,3.465
				c0.308,2.066,0.001,3.988-2.153,5.037c-0.714,0.348-0.531,0.757-0.231,1.261C92.782,46.522,93.754,48.189,94.79,49.952z
				 M84.891,39.662c0,0.282-0.001,0.565,0,0.847c0.009,1.635,0.049,1.692,1.702,1.696c0.886,0.002,1.778-0.009,2.657-0.108
				c1.461-0.165,2.155-0.904,2.221-2.238c0.068-1.379-0.607-2.315-1.998-2.609c-0.663-0.14-1.362-0.145-2.045-0.147
				C84.414,37.097,84.949,37.095,84.891,39.662z"/>
			<path fill="#989898" d="M124.574,40.464c0,1.694,0.097,3.395-0.024,5.081c-0.168,2.343-1.579,4.076-3.892,4.49
				c-1.546,0.276-3.227,0.293-4.766,0c-2.597-0.493-4.003-2.49-4.071-5.423c-0.068-2.905,0.018-5.813-0.034-8.719
				c-0.021-1.152,0.68-1.059,1.432-1.063c0.76-0.004,1.442-0.077,1.421,1.068c-0.053,2.825-0.034,5.651-0.009,8.477
				c0.022,2.492,1.321,3.753,3.757,3.708c2.203-0.041,3.479-1.314,3.51-3.604c0.037-2.785,0.045-5.571-0.007-8.356
				c-0.018-0.999,0.304-1.331,1.315-1.316c0.963,0.014,1.528,0.133,1.46,1.299c-0.084,1.448-0.02,2.905-0.02,4.358
				C124.621,40.464,124.597,40.464,124.574,40.464z"/>
			<path fill="#989898" d="M97.679,42.486c0.103-1.73,0.143-3.464,0.326-5.183c0.166-1.565,1.071-2.415,2.636-2.462
				c2.095-0.063,4.196-0.034,6.291,0.036c0.618,0.021,1.429-0.018,1.407,1.062c-0.016,0.797-0.233,1.188-1.104,1.168
				c-1.694-0.04-3.39,0.026-5.084-0.018c-1.099-0.028-1.53,0.462-1.522,1.521c0.023,3.107-0.225,2.624,2.509,2.663
				c1.251,0.018,2.502,0.027,3.752-0.005c0.771-0.02,1.207,0.162,1.192,1.067c-0.013,0.841-0.317,1.135-1.152,1.113
				c-1.734-0.045-3.471,0.015-5.205-0.025c-0.768-0.018-1.057,0.242-1.103,1.027c-0.208,3.53-0.152,3.609,3.396,3.61
				c1.13,0,2.265-0.059,3.386,0.039c0.321,0.028,0.765,0.463,0.865,0.798c0.165,0.553,0.057,1.229-0.724,1.246
				c-2.452,0.052-4.908,0.121-7.355,0.019c-1.257-0.053-2.058-1.006-2.19-2.361C97.83,46.037,97.781,44.263,97.679,42.486z"/>
			<path fill="#989898" d="M142.071,42.556c0-1.574-0.048-3.15,0.012-4.722c0.075-1.973,1.065-2.97,3.033-3.018
				c1.976-0.048,3.955-0.018,5.931,0.052c0.632,0.022,1.435-0.013,1.449,1.037c0.011,0.782-0.196,1.219-1.079,1.201
				c-1.695-0.035-3.391,0.019-5.085-0.021c-1.076-0.025-1.512,0.46-1.59,1.504c-0.199,2.676-0.214,2.685,2.485,2.686
				c1.211,0,2.422,0.022,3.633-0.006c0.808-0.019,1.4,0.036,1.383,1.127c-0.016,1.031-0.575,1.057-1.331,1.047
				c-1.695-0.024-3.391,0.019-5.085-0.018c-0.776-0.017-1.052,0.277-1.098,1.049c-0.204,3.398-0.054,3.579,3.343,3.585
				c1.13,0.002,2.26,0.012,3.391,0.001c0.601-0.006,1.019,0.134,1.028,0.858c0.008,0.626-0.079,1.214-0.824,1.226
				c-2.492,0.04-4.989,0.11-7.476-0.014c-1.245-0.062-2.036-1.223-2.094-2.73c-0.062-1.612-0.014-3.228-0.014-4.842
				C142.078,42.556,142.074,42.556,142.071,42.556z"/>
			<path fill="#989898" d="M182.237,37.417c-1.329-0.103-2.605-0.253-3.885-0.285c-0.876-0.022-1.8-0.016-2.62,0.24
				c-0.522,0.163-1.143,0.753-1.254,1.254c-0.091,0.412,0.399,1.111,0.82,1.439c0.588,0.458,1.343,0.715,2.045,1.012
				c0.965,0.408,1.96,0.744,2.919,1.164c2.021,0.884,2.833,2.242,2.606,4.272c-0.198,1.771-1.545,3.214-3.411,3.642
				c-2.26,0.519-4.489,0.129-6.71-0.268c-0.936-0.167-0.754-0.984-0.63-1.556c0.058-0.266,0.643-0.595,0.985-0.59
				c1.166,0.018,2.328,0.214,3.495,0.257c0.675,0.025,1.386-0.01,2.028-0.198c1.418-0.415,1.783-2.125,0.618-3.034
				c-0.715-0.558-1.598-0.922-2.442-1.286c-0.885-0.382-1.832-0.619-2.721-0.993c-1.786-0.751-2.53-1.996-2.469-4.004
				c0.048-1.566,0.96-2.781,2.711-3.303c2.456-0.732,4.95-0.487,7.411,0.033C182.506,35.378,182.545,35.689,182.237,37.417z"/>
			<path fill="#989898" d="M131.923,43.731c-0.001-1.816-0.028-3.633,0.011-5.448c0.018-0.834-0.29-1.172-1.13-1.132
				c-0.926,0.044-1.857-0.026-2.784,0.016c-0.759,0.035-1.001-0.291-0.953-1.008c0.043-0.641-0.124-1.334,0.907-1.328
				c3.551,0.02,7.103,0.022,10.654-0.003c0.916-0.007,0.904,0.545,0.918,1.196c0.015,0.682-0.038,1.199-0.939,1.146
				c-0.885-0.052-1.778,0.035-2.662-0.023c-0.951-0.063-1.271,0.306-1.26,1.256c0.041,3.47-0.035,6.942,0.041,10.411
				c0.026,1.18-0.42,1.39-1.475,1.407c-1.103,0.019-1.39-0.374-1.347-1.406C131.976,47.124,131.924,45.426,131.923,43.731z"/>
		</g>
		<g>
			<path fill="#989898" d="M133.782,15.441c0,0.777,0,1.554,0,2.33c-0.001,2.005-0.053,4.012,0.018,6.015
				c0.036,1.027-0.34,1.302-1.315,1.297c-0.934-0.005-1.363-0.191-1.35-1.253c0.053-4.13,0.013-8.261,0.031-12.392
				c0.003-0.634-0.246-1.53,0.768-1.604c0.942-0.069,2.016-0.383,2.593,0.885c0.814,1.787,1.72,3.531,2.588,5.293
				c0.502,1.019,1.008,2.036,1.512,3.054c0.124-0.009,0.248-0.019,0.372-0.028c0.3-0.586,0.608-1.169,0.9-1.759
				c1.065-2.157,2.178-4.292,3.167-6.483c0.6-1.329,1.687-1.053,2.67-0.952c1.027,0.106,0.823,1.025,0.825,1.718
				c0.011,4.051-0.013,8.101,0.017,12.152c0.007,0.906-0.131,1.38-1.232,1.383c-1.12,0.004-1.459-0.34-1.426-1.438
				c0.069-2.284,0.026-4.571,0.014-6.857c-0.002-0.46-0.071-0.919-0.354-1.432c-0.157,0.245-0.346,0.475-0.466,0.737
				c-0.953,2.076-1.913,4.15-2.823,6.245c-0.286,0.659-0.709,0.866-1.393,0.868c-0.705,0.002-1.205-0.128-1.519-0.859
				c-0.871-2.024-1.806-4.021-2.725-6.024c-0.153-0.334-0.352-0.646-0.531-0.968C134.01,15.392,133.896,15.417,133.782,15.441z"/>
			<path fill="#989898" d="M192.283,20.881c0.038-0.454,0.108-0.908,0.11-1.362c0.01-2.806,0.032-5.613-0.011-8.419
				c-0.015-0.958,0.251-1.344,1.288-1.339c1.074,0.005,1.26,0.478,1.253,1.397c-0.031,4.089-0.009,8.179-0.016,12.268
				c-0.002,1.479-0.172,1.513-1.686,1.658c-1.568,0.15-2.469-0.382-3.224-1.793c-1.454-2.718-3.128-5.318-4.718-7.963
				c-0.198-0.329-0.437-0.632-0.925-0.902c-0.053,0.482-0.148,0.964-0.151,1.446c-0.015,2.646-0.031,5.292,0.008,7.938
				c0.013,0.897-0.22,1.276-1.215,1.279c-1.034,0.003-1.187-0.457-1.182-1.315c0.024-4.169,0.033-8.339-0.004-12.508
				c-0.01-1.081,0.381-1.436,1.471-1.509c1.512-0.101,2.391,0.391,3.125,1.766c1.565,2.931,3.339,5.751,5.031,8.614
				c0.159,0.268,0.345,0.52,0.518,0.779C192.064,20.904,192.174,20.893,192.283,20.881z"/>
			<path fill="#989898" d="M127.464,17.536c0.026,2.267-0.12,4.477-2.038,6.053c-2.408,1.979-5.137,2.135-7.916,0.998
				c-2.611-1.068-3.657-3.232-3.599-5.965c0.031-1.477,0.044-2.967,0.262-4.422c0.224-1.493,1.159-2.617,2.422-3.441
				c3.937-2.565,9.617-0.686,10.597,3.55C127.433,15.351,127.381,16.459,127.464,17.536z M116.711,17.443
				c-0.024,0.001-0.048,0.001-0.072,0.002c0.039,0.68,0.029,1.366,0.125,2.038c0.285,1.995,1.776,3.292,3.789,3.349
				c2.033,0.057,3.658-1.119,3.94-3.122c0.198-1.408,0.224-2.886,0.034-4.294c-0.309-2.292-1.83-3.422-4.091-3.33
				c-2.104,0.086-3.487,1.437-3.716,3.675C116.663,16.316,116.711,16.882,116.711,17.443z"/>
			<path fill="#989898" d="M164.657,17.411c0.001-0.321,0.01-0.642-0.001-0.963c-0.086-2.611,0.721-4.839,3.203-5.97
				c2.701-1.231,5.452-1.193,7.998,0.563c1.301,0.897,2.034,2.23,2.163,3.743c0.152,1.789,0.251,3.636-0.02,5.398
				c-0.586,3.811-3.925,5.37-7.208,5.011C166.208,24.693,164.654,22.572,164.657,17.411z M175.337,17.447c-0.004,0-0.008,0-0.011,0
				c0-0.601,0.043-1.207-0.008-1.804c-0.174-2.051-1.577-3.431-3.567-3.55c-2.232-0.134-3.884,0.979-4.19,3.081
				c-0.205,1.409-0.21,2.884-0.047,4.299c0.253,2.194,1.933,3.467,4.109,3.355c2.081-0.107,3.553-1.562,3.708-3.698
				C175.371,18.572,175.337,18.008,175.337,17.447z"/>
			<path fill="#989898" d="M110.16,17.452c-0.001,2.044-0.037,4.09,0.015,6.133c0.025,1-0.125,1.514-1.349,1.517
				c-1.263,0.003-1.462-0.508-1.407-1.574c0.072-1.399-0.008-2.806,0.023-4.208c0.016-0.728-0.274-0.997-0.993-0.985
				c-1.723,0.029-3.447,0.029-5.171,0.001c-0.739-0.012-0.986,0.312-0.976,1.013c0.024,1.563-0.041,3.128,0.02,4.689
				c0.041,1.056-0.581,1.045-1.314,1.019c-0.698-0.025-1.488,0.222-1.48-0.972c0.029-4.449,0.023-8.899,0.005-13.348
				c-0.005-1.208,0.848-0.901,1.518-0.94c0.681-0.04,1.298-0.041,1.265,0.947c-0.044,1.321,0.041,2.648-0.024,3.967
				c-0.048,0.98,0.379,1.258,1.277,1.236c1.562-0.039,3.127-0.039,4.689-0.002c0.863,0.02,1.234-0.278,1.191-1.185
				c-0.059-1.24,0.046-2.488-0.033-3.726c-0.068-1.062,0.406-1.256,1.346-1.268c0.992-0.013,1.463,0.186,1.421,1.314
				C110.103,13.201,110.16,15.328,110.16,17.452z"/>
			<path fill="#989898" d="M155.921,25.349c-1.427-0.185-2.854-0.372-4.281-0.556c-0.981-0.127-0.883-0.852-0.87-1.543
				c0.015-0.833,0.605-0.702,1.115-0.664c1.198,0.09,2.393,0.225,3.593,0.296c0.514,0.03,1.121,0.104,1.533-0.122
				c0.612-0.335,1.408-0.849,1.531-1.416c0.121-0.556-0.329-1.585-0.829-1.862c-1.457-0.808-3.059-1.359-4.616-1.982
				c-1.581-0.633-2.605-1.662-2.696-3.461c-0.118-2.327,1.299-4.003,3.971-4.194c1.938-0.139,3.907,0.12,5.86,0.237
				c1.03,0.062,1.002,0.827,0.965,1.585c-0.045,0.925-0.711,0.688-1.233,0.655c-1.198-0.075-2.393-0.209-3.591-0.271
				c-0.515-0.026-1.115-0.079-1.536,0.144c-0.621,0.329-1.423,0.817-1.566,1.384c-0.108,0.43,0.57,1.322,1.109,1.601
				c1.524,0.787,3.173,1.329,4.743,2.031c2.465,1.102,3.265,3.644,1.872,5.881c-1.085,1.743-2.89,1.993-4.706,2.192
				c-0.119,0.013-0.24,0.002-0.36,0.002C155.926,25.307,155.924,25.328,155.921,25.349z"/>
			<path fill="#989898" d="M86.959,18.515c0-1.764-0.026-3.528,0.011-5.292c0.018-0.825-0.282-1.168-1.12-1.127
				c-0.92,0.045-1.845-0.031-2.765,0.013c-0.919,0.045-0.91-0.538-0.919-1.176c-0.01-0.672,0.07-1.161,0.956-1.153
				c3.488,0.032,6.976,0.032,10.463,0.001c0.908-0.008,0.926,0.521,0.928,1.172c0.002,0.651-0.015,1.21-0.927,1.159
				c-0.879-0.05-1.767,0.041-2.644-0.022c-0.966-0.069-1.245,0.328-1.233,1.259c0.042,3.447-0.03,6.896,0.043,10.342
				c0.025,1.17-0.422,1.383-1.47,1.396c-1.092,0.014-1.382-0.376-1.341-1.403C87.01,21.965,86.959,20.239,86.959,18.515z"/>
		</g>
	</g>
	<g>
		<path fill="#989898" d="M15.078,29.992c0.015-1.606,1.214-2.783,2.812-2.763c1.484,0.018,2.722,1.299,2.724,2.817
			c0.002,1.515-1.313,2.835-2.823,2.833C16.269,32.878,15.062,31.593,15.078,29.992z"/>
		<path fill="#989898" d="M72.819,30.013c0.002,1.616-1.212,2.893-2.724,2.866c-1.572-0.028-2.767-1.263-2.761-2.854
			c0.006-1.566,1.209-2.811,2.702-2.797C71.673,27.244,72.817,28.389,72.819,30.013z"/>
		<path fill="#989898" d="M18.674,25.794c-1.489-0.004-2.546-1.087-2.53-2.588c0.016-1.415,1.113-2.463,2.578-2.464
			c1.39-0.001,2.561,1.149,2.561,2.514C21.284,24.69,20.145,25.798,18.674,25.794z"/>
		<path fill="#989898" d="M66.686,36.822c-0.005-1.471,1.106-2.614,2.539-2.611c1.426,0.003,2.525,1.154,2.515,2.637
			c-0.01,1.472-1.117,2.533-2.619,2.508C67.788,39.335,66.691,38.193,66.686,36.822z"/>
		<path fill="#989898" d="M21.227,36.767c0.004,1.5-1.049,2.566-2.553,2.584c-1.382,0.016-2.529-1.133-2.529-2.533
			c0-1.442,1.155-2.617,2.566-2.61C20.094,34.213,21.223,35.362,21.227,36.767z"/>
		<path fill="#989898" d="M71.742,23.283c-0.006,1.476-1.043,2.51-2.513,2.509c-1.486-0.001-2.535-1.026-2.543-2.484
			c-0.008-1.501,1.078-2.589,2.561-2.567C70.713,20.762,71.748,21.816,71.742,23.283z"/>
		<path fill="#989898" d="M23.589,43.071c0.008,1.283-1.038,2.391-2.261,2.395c-1.244,0.004-2.301-1.079-2.302-2.359
			c-0.001-1.312,1.01-2.319,2.313-2.306C22.623,40.815,23.581,41.781,23.589,43.071z"/>
		<path fill="#989898" d="M68.869,43.099c-0.006,1.294-1.03,2.352-2.284,2.361c-1.231,0.008-2.279-1.094-2.267-2.384
			c0.012-1.336,1.001-2.302,2.325-2.271C67.915,40.834,68.875,41.823,68.869,43.099z"/>
		<path fill="#989898" d="M66.605,14.732c1.352,0.008,2.267,0.909,2.26,2.225c-0.008,1.366-0.942,2.318-2.278,2.32
			c-1.305,0.002-2.278-1.001-2.27-2.339C64.325,15.649,65.284,14.725,66.605,14.732z"/>
		<path fill="#989898" d="M21.297,14.731c1.33-0.015,2.273,0.895,2.288,2.209c0.015,1.304-0.93,2.32-2.176,2.34
			c-1.387,0.022-2.379-0.945-2.38-2.32C19.028,15.649,19.946,14.747,21.297,14.731z"/>
		<path fill="#989898" d="M27.335,38.125c-0.002,1.265-0.88,2.137-2.142,2.128c-1.253-0.009-2.106-0.895-2.092-2.174
			c0.013-1.243,0.836-2.049,2.1-2.056C26.506,36.015,27.337,36.833,27.335,38.125z"/>
		<path fill="#989898" d="M64.804,21.954c0.008,1.244-0.897,2.162-2.13,2.16c-1.24-0.003-2.125-0.911-2.116-2.17
			c0.009-1.198,0.894-2.087,2.092-2.103C63.929,19.824,64.796,20.674,64.804,21.954z"/>
		<path fill="#989898" d="M60.014,15.454c1.149,0.012,1.881,0.774,1.876,1.951c-0.005,1.107-0.842,1.998-1.89,2.013
			c-1.055,0.015-1.987-0.935-1.986-2.025C58.014,16.237,58.835,15.442,60.014,15.454z"/>
		<path fill="#989898" d="M23.761,31.078c1.13-0.008,1.94,0.774,1.954,1.889c0.014,1.116-0.852,1.987-1.972,1.982
			c-1.102-0.005-1.948-0.827-1.961-1.904C21.768,31.909,22.596,31.087,23.761,31.078z"/>
		<path fill="#989898" d="M29.878,42.675c0.015,1.153-0.796,1.963-1.965,1.96c-1.109-0.002-1.902-0.804-1.908-1.93
			c-0.006-1.095,0.807-1.958,1.877-1.992C28.968,40.679,29.863,41.558,29.878,42.675z"/>
		<path fill="#989898" d="M62.235,27.037c0.014-1.128,0.833-1.924,1.954-1.898c1.124,0.026,1.928,0.844,1.921,1.954
			c-0.007,1.151-0.859,1.969-2.019,1.938C62.977,29.001,62.221,28.188,62.235,27.037z"/>
		<path fill="#989898" d="M27.277,48.528c-0.007,1.012-0.827,1.8-1.853,1.781c-0.965-0.018-1.77-0.83-1.774-1.789
			c-0.004-1.006,0.823-1.833,1.825-1.826C26.505,46.703,27.284,47.496,27.277,48.528z"/>
		<path fill="#989898" d="M64.231,11.537c0.018,1.05-0.752,1.834-1.802,1.835c-0.997,0.001-1.811-0.779-1.822-1.746
			c-0.013-1.052,0.741-1.797,1.825-1.804C63.491,9.815,64.213,10.503,64.231,11.537z"/>
		<path fill="#989898" d="M25.46,9.82c1.094,0.005,1.834,0.735,1.821,1.794c-0.013,0.993-0.786,1.742-1.805,1.75
			c-1.025,0.007-1.834-0.805-1.824-1.83C23.663,10.522,24.409,9.815,25.46,9.82z"/>
		<path fill="#989898" d="M64.232,48.484c0.01,0.987-0.757,1.795-1.735,1.827c-1.014,0.033-1.872-0.771-1.889-1.769
			c-0.017-1.031,0.76-1.792,1.836-1.797C63.475,46.74,64.221,47.466,64.232,48.484z"/>
		<path fill="#989898" d="M25.42,27.664c0.007,0.995-0.768,1.802-1.731,1.801c-0.931,0-1.734-0.782-1.754-1.708
			c-0.023-1.055,0.658-1.769,1.705-1.789C24.721,25.948,25.412,26.606,25.42,27.664z"/>
		<path fill="#989898" d="M31.607,41.347c-0.017-1.003,0.748-1.817,1.726-1.84c0.943-0.022,1.778,0.822,1.775,1.794
			c-0.003,0.923-0.786,1.753-1.694,1.796C32.465,43.143,31.623,42.327,31.607,41.347z"/>
		<path fill="#989898" d="M64.224,34.142c-1.06-0.001-1.762-0.699-1.756-1.745c0.005-0.993,0.775-1.744,1.789-1.744
			c0.972,0,1.718,0.792,1.704,1.809C65.947,33.438,65.218,34.143,64.224,34.142z"/>
		<path fill="#989898" d="M30.045,46.389c-0.007-1.033,0.749-1.807,1.746-1.787c0.929,0.018,1.716,0.809,1.742,1.753
			c0.027,0.944-0.819,1.842-1.743,1.851C30.837,48.214,30.052,47.398,30.045,46.389z"/>
		<path fill="#989898" d="M56.15,15.403c-1.039,0.008-1.719-0.647-1.735-1.673c-0.017-1.019,0.748-1.808,1.738-1.794
			c0.977,0.014,1.746,0.76,1.763,1.708C57.933,14.67,57.206,15.394,56.15,15.403z"/>
		<path fill="#989898" d="M56.284,18.756c0.008,1.057-0.68,1.744-1.739,1.736c-0.948-0.007-1.757-0.774-1.769-1.678
			c-0.013-0.954,0.791-1.721,1.802-1.72C55.625,17.096,56.277,17.731,56.284,18.756z"/>
		<path fill="#989898" d="M37.32,42.543c0.856-0.017,1.512,0.625,1.517,1.485c0.004,0.85-0.647,1.495-1.51,1.493
			c-0.848-0.002-1.423-0.575-1.445-1.439C35.858,43.188,36.445,42.561,37.32,42.543z"/>
		<path fill="#989898" d="M59.001,22.57c0.014,0.86-0.621,1.529-1.46,1.538c-0.834,0.009-1.429-0.581-1.45-1.437
			c-0.023-0.921,0.537-1.551,1.4-1.577C58.351,21.068,58.987,21.69,59.001,22.57z"/>
		<path fill="#989898" d="M32.37,7.379c0.017,0.792-0.628,1.475-1.419,1.504c-0.827,0.03-1.519-0.645-1.522-1.484
			c-0.003-0.795,0.644-1.438,1.457-1.448C31.689,5.941,32.353,6.581,32.37,7.379z"/>
		<path fill="#989898" d="M30.466,36.028c0.891,0.032,1.445,0.646,1.402,1.551c-0.039,0.817-0.662,1.364-1.532,1.345
			c-0.909-0.019-1.467-0.608-1.437-1.516C28.927,36.526,29.531,35.994,30.466,36.028z"/>
		<path fill="#989898" d="M52.032,16.062c-0.009,0.84-0.679,1.516-1.491,1.504c-0.837-0.012-1.435-0.672-1.42-1.564
			c0.015-0.857,0.58-1.418,1.439-1.429C51.435,14.562,52.042,15.176,52.032,16.062z"/>
		<path fill="#989898" d="M58.459,7.408c-0.003,0.835-0.618,1.479-1.408,1.475c-0.826-0.003-1.521-0.69-1.521-1.502
			c0-0.733,0.744-1.443,1.496-1.426C57.847,5.973,58.462,6.595,58.459,7.408z"/>
		<path fill="#989898" d="M58.458,52.661c0.005,0.809-0.627,1.481-1.406,1.496c-0.731,0.014-1.504-0.711-1.522-1.427
			c-0.02-0.819,0.665-1.518,1.49-1.52C57.822,51.207,58.454,51.845,58.458,52.661z"/>
		<path fill="#989898" d="M32.371,52.651c-0.007,0.791-0.758,1.528-1.535,1.507c-0.74-0.019-1.412-0.749-1.404-1.524
			c0.008-0.784,0.683-1.441,1.471-1.434C31.691,51.208,32.378,51.887,32.371,52.651z"/>
		<path fill="#989898" d="M36.423,47.632c0.799,0.011,1.407,0.61,1.4,1.381c-0.006,0.747-0.64,1.342-1.441,1.354
			c-0.737,0.012-1.353-0.657-1.331-1.444C35.073,48.159,35.643,47.622,36.423,47.632z"/>
		<path fill="#989898" d="M52.845,11.109c-0.009,0.786-0.564,1.354-1.328,1.358c-0.746,0.005-1.459-0.674-1.457-1.386
			c0.002-0.714,0.73-1.38,1.483-1.357C52.327,9.748,52.854,10.309,52.845,11.109z"/>
		<path fill="#989898" d="M26.315,22.549c-0.008,0.781-0.562,1.333-1.335,1.332c-0.802-0.002-1.356-0.588-1.342-1.419
			c0.013-0.727,0.629-1.348,1.344-1.354C25.745,21.1,26.323,21.726,26.315,22.549z"/>
		<path fill="#989898" d="M64.251,37.594c-0.015,0.827-0.497,1.294-1.337,1.296c-0.819,0.002-1.367-0.576-1.33-1.402
			c0.035-0.77,0.606-1.288,1.397-1.267C63.778,36.243,64.265,36.77,64.251,37.594z"/>
		<path fill="#989898" d="M40.62,42.544c-0.689-0.017-1.33-0.718-1.299-1.422c0.032-0.719,0.688-1.317,1.416-1.292
			c0.694,0.024,1.298,0.639,1.291,1.316C42.022,41.936,41.391,42.562,40.62,42.544z"/>
		<path fill="#989898" d="M59.141,25.855c0.776,0.002,1.331,0.554,1.33,1.323c-0.001,0.723-0.548,1.278-1.274,1.29
			c-0.745,0.013-1.342-0.583-1.333-1.329C57.873,26.408,58.425,25.853,59.141,25.855z"/>
		<path fill="#989898" d="M47.321,17.632c0.769,0.03,1.27,0.556,1.246,1.311c-0.024,0.758-0.616,1.278-1.415,1.243
			c-0.778-0.033-1.26-0.548-1.234-1.319C45.944,18.068,46.476,17.6,47.321,17.632z"/>
		<path fill="#989898" d="M43.284,45.387c0.003,0.741-0.531,1.288-1.267,1.3c-0.699,0.011-1.311-0.57-1.332-1.265
			c-0.022-0.731,0.59-1.346,1.337-1.343C42.74,44.083,43.281,44.643,43.284,45.387z"/>
		<path fill="#989898" d="M47.222,14.727c0.015,0.702-0.475,1.183-1.231,1.21c-0.812,0.029-1.387-0.487-1.391-1.247
			c-0.004-0.725,0.533-1.262,1.284-1.284C46.647,13.384,47.205,13.936,47.222,14.727z"/>
		<path fill="#989898" d="M28.652,34.195c-0.775-0.057-1.197-0.567-1.148-1.387c0.047-0.784,0.547-1.214,1.36-1.168
			c0.742,0.042,1.209,0.596,1.165,1.382C29.987,33.769,29.421,34.251,28.652,34.195z"/>
		<path fill="#989898" d="M43.634,17.314c0.616-0.001,1.137,0.496,1.154,1.103c0.018,0.62-0.548,1.196-1.171,1.191
			c-0.537-0.004-1.161-0.597-1.189-1.131C42.398,17.885,42.988,17.315,43.634,17.314z"/>
		<path fill="#989898" d="M50.51,21.637c-0.589,0.002-1.142-0.547-1.149-1.139c-0.007-0.609,0.604-1.225,1.194-1.204
			c0.598,0.021,1.103,0.575,1.088,1.192C51.627,21.096,51.097,21.635,50.51,21.637z"/>
		<path fill="#989898" d="M36.255,39.536c0.048-0.605,0.624-1.095,1.234-1.05c0.615,0.045,1.081,0.599,1.036,1.234
			c-0.047,0.657-0.531,1.064-1.215,1.023C36.692,40.705,36.206,40.148,36.255,39.536z"/>
		<path fill="#989898" d="M44.294,42.773c-0.649-0.008-1.119-0.491-1.112-1.143c0.007-0.655,0.485-1.129,1.133-1.123
			c0.594,0.006,1.153,0.564,1.154,1.151C45.469,42.242,44.902,42.78,44.294,42.773z"/>
		<path fill="#989898" d="M40.49,50.199c0.064-0.554,0.414-0.948,1.072-0.998c0.596-0.046,1.227,0.537,1.157,1.108
			c-0.074,0.608-0.416,1.064-1.08,1.121C41.058,51.48,40.5,50.902,40.49,50.199z"/>
		<path fill="#989898" d="M50.742,54.249c0.663,0.032,1.083,0.362,1.05,1.049c-0.031,0.64-0.408,1.048-1.078,1.074
			c-0.593,0.023-1.192-0.576-1.121-1.143C49.673,54.586,50.038,54.204,50.742,54.249z"/>
		<path fill="#989898" d="M59.229,42.119c0.132-0.666,0.498-1.017,1.189-0.955c0.694,0.063,0.997,0.508,1.001,1.143
			c0.004,0.637-0.562,1.063-1.229,0.979C59.501,43.199,59.241,42.752,59.229,42.119z"/>
		<path fill="#989898" d="M37.068,56.378c-0.538-0.062-0.941-0.439-0.962-1.076c-0.022-0.658,0.356-1.035,1.049-1.058
			c0.69-0.023,1.068,0.329,1.143,0.98C38.364,55.803,37.785,56.372,37.068,56.378z"/>
		<path fill="#989898" d="M27.571,18.951c-0.682-0.07-1.057-0.42-1.067-1.101c-0.009-0.612,0.561-1.192,1.144-1.115
			c0.652,0.085,1.013,0.524,1.003,1.168C28.641,18.578,28.219,18.912,27.571,18.951z"/>
		<path fill="#989898" d="M37.144,5.914c-0.572,0-1.065-0.514-1.055-1.101c0.009-0.576,0.529-1.091,1.102-1.054
			c0.648,0.042,1.069,0.389,1.116,1.049C38.35,5.39,37.76,5.915,37.144,5.914z"/>
		<path fill="#989898" d="M46.517,10.823c-0.868-0.004-1.219-0.392-1.273-1.043c-0.05-0.604,0.429-1.068,1.047-1.072
			c0.631-0.005,1.246,0.512,1.17,1.072C47.379,10.388,47.051,10.834,46.517,10.823z"/>
		<path fill="#989898" d="M50.853,3.766c0.56,0.089,0.922,0.461,0.944,1.114c0.019,0.559-0.547,1.085-1.089,1.054
			c-0.588-0.033-1.157-0.616-1.098-1.178C49.68,4.084,50.125,3.799,50.853,3.766z"/>
		<path fill="#989898" d="M44.978,56.142c-0.055,0.615-0.382,0.933-0.977,0.957c-0.602,0.024-0.971-0.241-0.981-0.879
			c-0.009-0.618,0.241-1.05,0.916-1.057C44.581,55.156,44.88,55.559,44.978,56.142z"/>
		<path fill="#989898" d="M40.925,22.514c-0.049,0.721-0.395,1.075-1.038,1.046c-0.594-0.026-0.94-0.378-0.926-0.986
			c0.015-0.644,0.368-0.992,1.023-0.968C40.601,21.629,40.87,22.007,40.925,22.514z"/>
		<path fill="#989898" d="M47.985,36.527c0.618,0.035,0.953,0.329,0.953,0.955c0,0.664-0.382,1.021-0.994,0.997
			c-0.544-0.021-0.968-0.34-0.962-0.965C46.988,36.863,47.367,36.555,47.985,36.527z"/>
		<path fill="#989898" d="M41.315,15.765c-0.892-0.008-1.332-0.396-1.199-0.983c0.086-0.38,0.591-0.874,0.965-0.93
			c0.554-0.082,1.003,0.363,0.984,1.005C42.048,15.453,41.687,15.765,41.315,15.765z"/>
		<path fill="#989898" d="M60.316,31.695c-0.051,0.939-0.442,1.317-1.032,1.308c-0.545-0.008-0.942-0.359-0.951-0.982
			c-0.009-0.678,0.434-1.048,1.004-0.979C59.729,31.089,60.074,31.522,60.316,31.695z"/>
		<path fill="#989898" d="M48.791,40.936c-0.015,0.686-0.35,1.006-0.958,1.004c-0.616-0.002-0.979-0.401-0.978-0.957
			c0.001-0.592,0.355-1.011,1.029-0.984C48.514,40.025,48.779,40.401,48.791,40.936z"/>
		<path fill="#989898" d="M44.17,4.999c-0.83-0.145-1.148-0.45-1.151-1.08c-0.003-0.619,0.339-0.947,0.917-1.015
			c0.507-0.059,1.137,0.52,1,1.01C44.824,4.316,44.436,4.64,44.17,4.999z"/>
		<path fill="#989898" d="M47.037,46.343c-0.804-0.178-1.135-0.468-1.123-1.103c0.011-0.605,0.297-0.986,0.914-0.976
			c0.624,0.01,1.073,0.416,0.99,1.005C47.764,45.656,47.312,45.987,47.037,46.343z"/>
		<path fill="#989898" d="M39.096,19.428c0.012-0.913,0.325-1.235,0.938-1.259c0.623-0.024,0.945,0.333,1.018,0.902
			c0.068,0.53-0.481,1.145-0.983,1.011C39.661,19.974,39.326,19.592,39.096,19.428z"/>
		<path fill="#989898" d="M33.807,37.429c0.028-0.922,0.351-1.234,0.966-1.232c0.616,0.002,0.934,0.368,0.992,0.937
			c0.05,0.485-0.592,1.146-1.03,0.993C34.333,37.986,34.019,37.597,33.807,37.429z"/>
		<path fill="#989898" d="M28.414,29.166c-0.243-0.332-0.624-0.637-0.699-1.003c-0.122-0.594,0.205-1.074,0.871-1.076
			c0.619-0.002,1.077,0.425,1.009,1.004c-0.045,0.384-0.511,0.718-0.788,1.075C28.676,29.165,28.545,29.166,28.414,29.166z"/>
		<path fill="#989898" d="M53.121,23.925c-0.534-0.077-0.917-0.339-0.907-0.972c0.01-0.66,0.382-0.998,1.014-0.978
			c0.581,0.019,0.826,0.42,0.835,0.968C54.073,23.552,53.786,23.899,53.121,23.925z"/>
		<path fill="#989898" d="M37.66,25.196c-0.24-0.344-0.678-0.699-0.661-1.03c0.015-0.296,0.53-0.781,0.83-0.785
			c0.283-0.004,0.761,0.486,0.804,0.805c0.041,0.301-0.374,0.664-0.588,0.999C37.917,25.189,37.788,25.192,37.66,25.196z"/>
		<path fill="#989898" d="M45.286,39.343c-0.228-0.329-0.658-0.678-0.628-0.981c0.033-0.323,0.501-0.603,0.779-0.901
			c0.303,0.305,0.777,0.573,0.852,0.926c0.056,0.263-0.403,0.637-0.633,0.961C45.533,39.347,45.41,39.345,45.286,39.343z"/>
		<path fill="#989898" d="M42.249,22.679c-0.233-0.324-0.688-0.685-0.642-0.963c0.052-0.315,0.525-0.71,0.869-0.772
			c0.219-0.04,0.74,0.451,0.755,0.724c0.018,0.323-0.364,0.669-0.572,1.004C42.522,22.674,42.385,22.676,42.249,22.679z"/>
		<path fill="#989898" d="M49.9,36.832c-0.23-0.326-0.679-0.689-0.632-0.968c0.054-0.318,0.524-0.726,0.863-0.778
			c0.225-0.035,0.728,0.467,0.755,0.761c0.028,0.307-0.365,0.653-0.574,0.982C50.175,36.831,50.037,36.831,49.9,36.832z"/>
		<path fill="#989898" d="M57.736,45.962c-0.481,0.398-0.809,0.864-1.055,0.824c-0.326-0.052-0.764-0.469-0.82-0.788
			c-0.04-0.227,0.444-0.738,0.74-0.778C56.88,45.184,57.218,45.601,57.736,45.962z"/>
		<path fill="#989898" d="M48.049,50.382c-0.587,0.315-0.977,0.692-1.227,0.615c-0.294-0.091-0.67-0.601-0.635-0.881
			c0.034-0.272,0.547-0.666,0.848-0.666C47.304,49.45,47.572,49.918,48.049,50.382z"/>
		<path fill="#989898" d="M31.352,15.185c-0.398-0.514-0.828-0.83-0.804-1.106c0.025-0.292,0.48-0.756,0.753-0.76
			c0.282-0.005,0.763,0.426,0.804,0.716C32.144,14.31,31.726,14.65,31.352,15.185z"/>
		<path fill="#989898" d="M41.185,9.008c0.196,0.277,0.513,0.533,0.562,0.834c0.082,0.497-0.279,0.851-0.763,0.746
			c-0.294-0.064-0.716-0.436-0.726-0.683c-0.011-0.295,0.357-0.604,0.561-0.907C40.942,9.002,41.063,9.005,41.185,9.008z"/>
		<path fill="#989898" d="M57.992,35.593c0.349,0.494,0.765,0.845,0.703,1.051c-0.098,0.32-0.52,0.542-0.805,0.805
			c-0.229-0.278-0.619-0.546-0.64-0.839C57.232,36.353,57.626,36.066,57.992,35.593z"/>
		<path fill="#989898" d="M37.633,16.463c-0.533,0.369-0.834,0.741-1.086,0.71c-0.286-0.035-0.738-0.433-0.734-0.668
			c0.004-0.278,0.398-0.746,0.658-0.772C36.755,15.706,37.079,16.091,37.633,16.463z"/>
		<path fill="#989898" d="M29.994,24.463c-0.375-0.443-0.797-0.725-0.789-0.993c0.008-0.27,0.444-0.528,0.692-0.791
			c0.263,0.273,0.642,0.511,0.743,0.834C30.698,23.7,30.306,24.027,29.994,24.463z"/>
		<path fill="#989898" d="M42.859,37.369c0.329,0.475,0.718,0.791,0.685,1.056c-0.033,0.271-0.486,0.69-0.741,0.68
			c-0.258-0.01-0.678-0.455-0.695-0.73C42.092,38.11,42.501,37.82,42.859,37.369z"/>
		<path fill="#989898" d="M51.288,44.434c-0.2-0.277-0.584-0.579-0.551-0.826c0.038-0.29,0.437-0.533,0.68-0.797
			c0.24,0.238,0.645,0.457,0.676,0.72c0.032,0.273-0.297,0.588-0.468,0.885C51.512,44.423,51.4,44.429,51.288,44.434z"/>
		<path fill="#989898" d="M52.881,48.974c-0.306,0.154-0.629,0.454-0.911,0.419c-0.242-0.03-0.628-0.468-0.601-0.681
			c0.032-0.254,0.442-0.646,0.679-0.64c0.288,0.008,0.568,0.368,0.851,0.576C52.892,48.756,52.886,48.865,52.881,48.974z"/>
		<path fill="#989898" d="M52.1,39.234c-0.505,0.355-0.823,0.748-1.076,0.71c-0.285-0.043-0.511-0.475-0.762-0.738
			c0.247-0.23,0.488-0.636,0.743-0.644C51.291,38.553,51.59,38.9,52.1,39.234z"/>
		<path fill="#989898" d="M46.17,21.573c-0.509,0.381-0.774,0.727-1.063,0.748c-0.224,0.016-0.692-0.401-0.67-0.578
			c0.037-0.293,0.344-0.715,0.604-0.772C45.289,20.918,45.624,21.262,46.17,21.573z"/>
		<path fill="#989898" d="M37.954,20.9c-0.53,0.336-0.868,0.717-1.133,0.672c-0.268-0.045-0.464-0.513-0.692-0.795
			c0.272-0.193,0.539-0.529,0.816-0.537C37.206,20.233,37.478,20.57,37.954,20.9z"/>
		<path fill="#989898" d="M35.906,12.41c-0.339-0.493-0.697-0.786-0.666-1.029c0.038-0.295,0.405-0.547,0.629-0.818
			c0.243,0.235,0.671,0.462,0.682,0.708C36.565,11.568,36.226,11.882,35.906,12.41z"/>
		<path fill="#989898" d="M34.042,34.014c-0.489,0.318-0.824,0.702-1.064,0.649c-0.282-0.062-0.48-0.503-0.714-0.779
			c0.285-0.217,0.554-0.57,0.859-0.605C33.344,33.254,33.613,33.652,34.042,34.014z"/>
		<path fill="#989898" d="M54.843,27.198c-0.316-0.509-0.65-0.816-0.645-1.117c0.003-0.206,0.487-0.572,0.739-0.559
			c0.254,0.013,0.705,0.432,0.682,0.628C55.584,26.454,55.221,26.721,54.843,27.198z"/>
		<path fill="#989898" d="M52.649,33.654c-0.5,0.358-0.781,0.71-1.069,0.716c-0.232,0.005-0.472-0.411-0.708-0.639
			c0.245-0.251,0.457-0.64,0.744-0.708C51.834,32.972,52.149,33.33,52.649,33.654z"/>
		<path fill="#989898" d="M36.364,25.366c0.339,0.484,0.709,0.784,0.692,1.058c-0.015,0.238-0.508,0.656-0.723,0.617
			c-0.281-0.05-0.631-0.443-0.692-0.741C35.601,26.098,36.006,25.805,36.364,25.366z"/>
		<path fill="#989898" d="M48.505,22.44c-0.445,0.271-0.704,0.551-0.941,0.534c-0.204-0.015-0.384-0.369-0.575-0.573
			c0.221-0.203,0.418-0.521,0.67-0.571C47.837,21.795,48.087,22.122,48.505,22.44z"/>
		<path fill="#989898" d="M40.345,36.826c0.256,0.385,0.556,0.642,0.512,0.813c-0.064,0.253-0.371,0.445-0.575,0.663
			c-0.202-0.23-0.512-0.437-0.568-0.699C39.681,37.441,40.03,37.196,40.345,36.826z"/>
		<path fill="#989898" d="M52.377,30.325c0.284,0.396,0.61,0.68,0.557,0.814c-0.097,0.245-0.397,0.495-0.654,0.553
			c-0.126,0.028-0.475-0.36-0.49-0.577C51.776,30.92,52.079,30.703,52.377,30.325z"/>
		<path fill="#989898" d="M36.404,28.946c-0.377,0.284-0.664,0.627-0.799,0.575c-0.246-0.095-0.51-0.405-0.554-0.662
			c-0.025-0.148,0.358-0.503,0.571-0.515C35.822,28.333,36.041,28.65,36.404,28.946z"/>
		<path fill="#989898" d="M33.114,30.34c-0.348,0.246-0.554,0.506-0.739,0.492c-0.192-0.015-0.364-0.296-0.544-0.46
			c0.173-0.185,0.327-0.485,0.527-0.52C32.53,29.822,32.755,30.094,33.114,30.34z"/>
		<path fill="#989898" d="M34.351,22.776c0.253,0.329,0.545,0.545,0.523,0.724c-0.023,0.192-0.34,0.348-0.529,0.52
			c-0.16-0.19-0.411-0.364-0.451-0.577C33.866,23.292,34.124,23.088,34.351,22.776z"/>
		<path fill="#989898" d="M55.539,30.47c-0.24-0.351-0.518-0.58-0.496-0.775c0.023-0.203,0.336-0.372,0.523-0.556
			c0.165,0.188,0.455,0.372,0.46,0.564C56.031,29.91,55.772,30.126,55.539,30.47z"/>
		<path fill="#989898" d="M53.497,35.86c0.247,0.343,0.49,0.534,0.495,0.732c0.005,0.169-0.296,0.507-0.403,0.485
			c-0.224-0.046-0.529-0.252-0.575-0.445C52.975,36.466,53.253,36.227,53.497,35.86z"/>
		<path fill="#989898" d="M33.394,19.437c-0.329,0.218-0.533,0.451-0.746,0.46c-0.148,0.007-0.469-0.356-0.434-0.444
			c0.084-0.213,0.31-0.457,0.519-0.503C32.877,18.92,33.088,19.2,33.394,19.437z"/>
		<path fill="#989898" d="M55.174,41.278c-0.216-0.293-0.492-0.53-0.448-0.638c0.081-0.202,0.33-0.401,0.546-0.455
			c0.096-0.024,0.391,0.306,0.393,0.479C55.668,40.83,55.41,41,55.174,41.278z"/>
		<path fill="#989898" d="M52.346,27.873c0.201,0.307,0.441,0.516,0.41,0.669c-0.035,0.173-0.33,0.426-0.483,0.407
			c-0.179-0.021-0.438-0.288-0.456-0.468C51.802,28.332,52.088,28.154,52.346,27.873z"/>
		<path fill="#989898" d="M35.628,32.237c-0.199-0.338-0.394-0.529-0.394-0.72c0-0.129,0.326-0.395,0.413-0.361
			c0.188,0.073,0.395,0.282,0.439,0.471C36.114,31.75,35.866,31.936,35.628,32.237z"/>
		<path fill="#989898" d="M50.482,23.983c-0.351,0.182-0.553,0.37-0.739,0.355c-0.139-0.011-0.256-0.285-0.383-0.442
			c0.174-0.139,0.336-0.36,0.526-0.389C50.017,23.487,50.188,23.735,50.482,23.983z"/>
		<path fill="#989898" d="M38.168,36.81c-0.238-0.278-0.502-0.462-0.476-0.585c0.039-0.188,0.278-0.335,0.433-0.499
			c0.138,0.143,0.37,0.276,0.388,0.433C38.531,36.321,38.34,36.506,38.168,36.81z"/>
	</g>
</g>
</svg>
